<?xml version="1.0" encoding="utf-8"?>
<!-- Generator: Adobe Illustrator 21.1.0, SVG Export Plug-In . SVG Version: 6.00 Build 0)  -->
<svg version="1.1" id="Capa_1" xmlns="http://www.w3.org/2000/svg" xmlns:xlink="http://www.w3.org/1999/xlink" x="0px" y="0px"
	 viewBox="0 0 1200 442" style="enable-background:new 0 0 1200 442;" xml:space="preserve">
<style type="text/css">
	.st0{fill:#494949;}
	.st1{fill:#C47239;}
	.st2{fill:#FFFFFF;}
</style>
<g>
	<g>
		<polygon class="st0" points="412.8,290.6 412.8,257.3 511.2,257.3 511.2,189.2 414.5,189.2 414.5,156 346.2,222.5 		"/>
	</g>
	<g>
		<path class="st0" d="M512.8,187.6V259h-98.3v35.6l-70.6-72.2l72.3-70.3v35.5H512.8z M509.5,255.7v-64.8h-96.7v-31l-64.4,62.6
			l62.7,64.1v-30.8H509.5z"/>
	</g>
</g>
<g>
	<path class="st0" d="M1156.8,410.4H456.1c-8.3,0-15-6.8-15-15V46c0-8.3,6.8-15,15-15h700.7c8.3,0,15,6.8,15,15v349.4
		C1171.8,403.6,1165.1,410.4,1156.8,410.4z"/>
</g>
<g>
	<path class="st1" d="M301.7,286H56c-8.3,0-15-6.8-15-15V168.7c0-8.3,6.8-15,15-15h245.7c8.3,0,15,6.8,15,15V271
		C316.7,279.3,310,286,301.7,286z"/>
</g>
<g>
	<path class="st2" d="M81.2,213.6H69.8v-20.5h11.4v2.1h-9v6.6h8.5v2.1h-8.5v7.5h9V213.6z"/>
	<path class="st2" d="M87.7,213.6h-2.3v-21.8h2.3V213.6z"/>
	<path class="st2" d="M100.8,213.6L99,198.3h2.4l0.9,8.6c0.2,2.4,0.3,4.1,0.3,5.1h0.1c1.2-2.6,2-4.3,2.5-5.2l4.6-8.5h2.5l-8.3,15.4
		H100.8z"/>
	<path class="st2" d="M114.1,213.6h-2.4l3.3-15.4h2.4L114.1,213.6z M115.6,194.3c0-0.5,0.1-1,0.4-1.3c0.3-0.3,0.7-0.5,1.2-0.5
		c0.8,0,1.2,0.4,1.2,1.3c0,0.5-0.2,0.9-0.5,1.3c-0.3,0.4-0.7,0.5-1.1,0.5c-0.4,0-0.7-0.1-0.9-0.3
		C115.8,195.1,115.6,194.8,115.6,194.3z"/>
	<path class="st2" d="M128.7,198c0.6,0,1.2,0.1,1.7,0.2l-0.5,2.1c-0.5-0.1-1-0.2-1.5-0.2c-0.9,0-1.6,0.3-2.4,0.8
		c-0.7,0.6-1.4,1.3-1.9,2.3s-1,2.1-1.2,3.3l-1.5,7H119l3.3-15.4h1.9l-0.3,2.8h0.1c0.7-0.9,1.2-1.5,1.7-1.9s0.9-0.7,1.4-0.9
		C127.6,198.1,128.1,198,128.7,198z"/>
	<path class="st2" d="M136.4,213.9c-1.7,0-3.1-0.5-4-1.5c-1-1-1.5-2.4-1.5-4.2c0-1.8,0.3-3.4,1-5.1s1.6-2.9,2.8-3.8
		c1.1-0.9,2.4-1.3,3.8-1.3c1.4,0,2.5,0.3,3.2,0.9c0.7,0.6,1.1,1.5,1.1,2.6c0,1.7-0.8,3-2.3,4c-1.6,1-3.8,1.4-6.7,1.4h-0.5l-0.1,1.1
		c0,1.2,0.3,2.2,0.9,2.9s1.5,1,2.7,1c0.6,0,1.2-0.1,1.8-0.3s1.4-0.5,2.3-0.9v2c-0.9,0.4-1.7,0.7-2.3,0.9
		C138,213.8,137.2,213.9,136.4,213.9z M138.4,200c-1,0-1.9,0.4-2.7,1.3s-1.5,2.1-1.9,3.7h0.2c2.1,0,3.8-0.3,4.9-0.8s1.7-1.4,1.7-2.4
		c0-0.5-0.2-0.9-0.5-1.2C139.6,200.2,139.1,200,138.4,200z"/>
	<path class="st2" d="M146.8,213.6h-2.4l4.7-21.8h2.4L146.8,213.6z"/>
	<path class="st2" d="M159.9,198c0.9,0,1.6,0.2,2.3,0.7c0.7,0.5,1.2,1.1,1.6,2h0.2l0.9-2.4h1.8l-3.3,15.4h-1.9l0.4-2.9h-0.1
		c-1.7,2.1-3.4,3.2-5.3,3.2c-1.3,0-2.3-0.5-3.1-1.4c-0.7-0.9-1.1-2.2-1.1-3.8c0-1.9,0.3-3.7,1-5.4c0.7-1.7,1.6-3,2.7-3.9
		S158.5,198,159.9,198z M157.3,212c0.9,0,1.8-0.4,2.7-1.3c0.9-0.9,1.6-2,2.2-3.4c0.6-1.4,0.8-2.8,0.8-4.2c0-1-0.3-1.7-0.8-2.3
		s-1.2-0.9-2.1-0.9c-1,0-1.9,0.4-2.7,1.2c-0.8,0.8-1.5,1.9-2,3.3c-0.5,1.4-0.7,2.8-0.7,4.3c0,1.1,0.2,1.9,0.7,2.4
		S156.5,212,157.3,212z"/>
	<path class="st2" d="M170.3,213.6H168l3.3-15.4h2.4L170.3,213.6z M171.9,194.3c0-0.5,0.1-1,0.4-1.3c0.3-0.3,0.7-0.5,1.2-0.5
		c0.8,0,1.2,0.4,1.2,1.3c0,0.5-0.2,0.9-0.5,1.3c-0.3,0.4-0.7,0.5-1.1,0.5c-0.4,0-0.7-0.1-0.9-0.3
		C172.1,195.1,171.9,194.8,171.9,194.3z"/>
	<path class="st2" d="M189.3,212c0.4,0,0.8,0,1.2-0.1c0.4-0.1,0.7-0.1,0.9-0.2v1.8c-0.3,0.1-0.6,0.2-1.1,0.3
		c-0.5,0.1-0.9,0.1-1.3,0.1c-3,0-4.5-1.6-4.5-4.7v-9.1h-2.2V199l2.2-1l1-3.3h1.3v3.6h4.5v1.8h-4.5v9c0,0.9,0.2,1.6,0.7,2.1
		S188.6,212,189.3,212z"/>
	<path class="st2" d="M194.3,194.1c0-0.5,0.1-0.9,0.4-1.2c0.3-0.2,0.6-0.4,1-0.4c0.4,0,0.7,0.1,1,0.4c0.3,0.3,0.4,0.6,0.4,1.2
		s-0.1,0.9-0.4,1.2s-0.6,0.4-1,0.4c-0.4,0-0.7-0.1-1-0.4S194.3,194.6,194.3,194.1z M196.8,213.6h-2.3v-15.4h2.3V213.6z"/>
	<path class="st2" d="M208.2,213.9c-2.3,0-4.1-0.7-5.4-2.1c-1.3-1.4-2-3.3-2-5.8c0-2.5,0.6-4.4,1.8-5.9c1.2-1.5,2.9-2.2,4.9-2.2
		c1.9,0,3.4,0.6,4.6,1.9s1.7,2.9,1.7,5v1.5h-10.6c0,1.8,0.5,3.2,1.4,4.1c0.9,0.9,2.1,1.4,3.6,1.4c1.7,0,3.3-0.3,4.9-1v2.1
		c-0.8,0.4-1.6,0.6-2.3,0.8C210.2,213.8,209.3,213.9,208.2,213.9z M207.6,199.9c-1.2,0-2.2,0.4-2.9,1.2c-0.7,0.8-1.2,1.9-1.3,3.3h8
		c0-1.5-0.3-2.6-1-3.4S208.8,199.9,207.6,199.9z"/>
	<path class="st2" d="M228.4,213.6v-9.9c0-1.3-0.3-2.2-0.9-2.8c-0.6-0.6-1.5-0.9-2.7-0.9c-1.6,0-2.8,0.4-3.5,1.3s-1.1,2.3-1.1,4.3
		v8.1h-2.3v-15.4h1.9l0.4,2.1h0.1c0.5-0.8,1.1-1.3,2-1.8c0.9-0.4,1.8-0.6,2.9-0.6c1.8,0,3.2,0.4,4.2,1.3c0.9,0.9,1.4,2.3,1.4,4.3v10
		H228.4z"/>
	<path class="st2" d="M241.9,213.9c-2.3,0-4.1-0.7-5.4-2.1c-1.3-1.4-2-3.3-2-5.8c0-2.5,0.6-4.4,1.8-5.9c1.2-1.5,2.9-2.2,4.9-2.2
		c1.9,0,3.4,0.6,4.6,1.9s1.7,2.9,1.7,5v1.5H237c0,1.8,0.5,3.2,1.4,4.1c0.9,0.9,2.1,1.4,3.6,1.4c1.7,0,3.3-0.3,4.9-1v2.1
		c-0.8,0.4-1.6,0.6-2.3,0.8C243.9,213.8,243,213.9,241.9,213.9z M241.3,199.9c-1.2,0-2.2,0.4-2.9,1.2c-0.7,0.8-1.2,1.9-1.3,3.3h8
		c0-1.5-0.3-2.6-1-3.4S242.5,199.9,241.3,199.9z"/>
	<path class="st2" d="M261.3,213.6H259v-21.8h2.3V213.6z"/>
	<path class="st2" d="M275.7,213.6l-0.5-2.2h-0.1c-0.8,1-1.5,1.6-2.3,2s-1.7,0.5-2.9,0.5c-1.5,0-2.7-0.4-3.6-1.2
		c-0.9-0.8-1.3-1.9-1.3-3.3c0-3.1,2.5-4.7,7.4-4.9l2.6-0.1v-1c0-1.2-0.3-2.1-0.8-2.7c-0.5-0.6-1.3-0.9-2.5-0.9
		c-1.3,0-2.7,0.4-4.3,1.2l-0.7-1.8c0.8-0.4,1.6-0.7,2.5-1s1.8-0.4,2.7-0.4c1.8,0,3.2,0.4,4.1,1.2c0.9,0.8,1.3,2.1,1.3,3.9v10.5
		H275.7z M270.5,212c1.4,0,2.6-0.4,3.4-1.2c0.8-0.8,1.2-1.9,1.2-3.3v-1.4l-2.3,0.1c-1.8,0.1-3.2,0.4-4,0.9c-0.8,0.5-1.2,1.3-1.2,2.4
		c0,0.8,0.3,1.5,0.8,1.9C268.8,211.8,269.5,212,270.5,212z"/>
	<path class="st2" d="M93.9,234.5H90v13.5h-2.3v-13.5h-2.7v-1.1l2.7-0.8v-0.9c0-3.8,1.6-5.7,4.9-5.7c0.8,0,1.8,0.2,2.9,0.5l-0.6,1.9
		c-0.9-0.3-1.7-0.4-2.3-0.4c-0.9,0-1.5,0.3-1.9,0.9c-0.4,0.6-0.6,1.5-0.6,2.8v1h3.9V234.5z"/>
	<path class="st2" d="M110,240.4c0,2.5-0.6,4.5-1.9,5.9s-3,2.1-5.2,2.1c-1.4,0-2.6-0.3-3.7-1c-1.1-0.6-1.9-1.6-2.5-2.8
		c-0.6-1.2-0.9-2.6-0.9-4.2c0-2.5,0.6-4.5,1.9-5.8c1.3-1.4,3-2.1,5.2-2.1c2.1,0,3.9,0.7,5.1,2.1C109.3,236,110,237.9,110,240.4z
		 M98.3,240.4c0,2,0.4,3.5,1.2,4.5c0.8,1,1.9,1.5,3.5,1.5c1.5,0,2.7-0.5,3.5-1.5c0.8-1,1.2-2.5,1.2-4.5c0-2-0.4-3.4-1.2-4.4
		c-0.8-1-2-1.5-3.5-1.5c-1.5,0-2.7,0.5-3.4,1.5C98.7,236.9,98.3,238.4,98.3,240.4z"/>
	<path class="st2" d="M121,232.4c0.7,0,1.3,0.1,1.8,0.2l-0.3,2.2c-0.6-0.1-1.2-0.2-1.7-0.2c-1.2,0-2.3,0.5-3.2,1.5
		c-0.9,1-1.3,2.3-1.3,3.8v8.2H114v-15.4h1.9l0.3,2.8h0.1c0.6-1,1.3-1.8,2.1-2.3C119.2,232.7,120.1,232.4,121,232.4z"/>
	<path class="st2" d="M145.3,248.1v-10c0-1.2-0.3-2.1-0.8-2.8c-0.5-0.6-1.3-0.9-2.4-0.9c-1.4,0-2.5,0.4-3.2,1.2
		c-0.7,0.8-1,2.1-1,3.8v8.6h-2.3v-10c0-1.2-0.3-2.1-0.8-2.8s-1.3-0.9-2.5-0.9c-1.5,0-2.5,0.4-3.2,1.3c-0.7,0.9-1,2.3-1,4.3v8.1h-2.3
		v-15.4h1.9l0.4,2.1h0.1c0.4-0.7,1.1-1.3,1.9-1.8c0.8-0.4,1.7-0.6,2.7-0.6c2.4,0,4,0.9,4.7,2.6h0.1c0.5-0.8,1.1-1.4,2-1.9
		c0.9-0.5,1.9-0.7,3-0.7c1.7,0,3,0.4,3.9,1.3c0.9,0.9,1.3,2.3,1.3,4.3v10H145.3z"/>
	<path class="st2" d="M161.9,248.1l-0.5-2.2h-0.1c-0.8,1-1.5,1.6-2.3,2s-1.7,0.5-2.9,0.5c-1.5,0-2.7-0.4-3.6-1.2
		c-0.9-0.8-1.3-1.9-1.3-3.3c0-3.1,2.5-4.7,7.4-4.9l2.6-0.1v-1c0-1.2-0.3-2.1-0.8-2.7c-0.5-0.6-1.3-0.9-2.5-0.9
		c-1.3,0-2.7,0.4-4.3,1.2l-0.7-1.8c0.8-0.4,1.6-0.7,2.5-1s1.8-0.4,2.7-0.4c1.8,0,3.2,0.4,4.1,1.2c0.9,0.8,1.3,2.1,1.3,3.9v10.5
		H161.9z M156.6,246.4c1.4,0,2.6-0.4,3.4-1.2c0.8-0.8,1.2-1.9,1.2-3.3v-1.4l-2.3,0.1c-1.8,0.1-3.2,0.4-4,0.9
		c-0.8,0.5-1.2,1.3-1.2,2.4c0,0.8,0.3,1.5,0.8,1.9C155,246.2,155.7,246.4,156.6,246.4z"/>
	<path class="st2" d="M184.8,241.5h-6.9l-3.4,6.5h-2.6l11.2-20.5h2.4l2.6,20.5h-2.4L184.8,241.5z M184.5,239.4l-0.5-4.2
		c-0.2-1.7-0.4-3.3-0.4-4.9c-0.3,0.8-0.7,1.6-1.1,2.5s-1.6,3-3.5,6.6H184.5z"/>
	<path class="st2" d="M196.9,248.3c-0.9,0-1.7-0.2-2.4-0.7c-0.7-0.5-1.2-1.1-1.5-1.9h-0.1l-1,2.4h-1.8l4.6-21.8h2.4
		c-0.5,2.3-0.8,4-1.1,5.2c-0.3,1.2-0.6,2.6-1.1,4.2h0.1c0.9-1.1,1.7-1.9,2.6-2.4c0.8-0.5,1.7-0.8,2.6-0.8c1.3,0,2.3,0.5,3.1,1.4
		s1.1,2.2,1.1,3.8c0,2-0.3,3.8-1,5.4s-1.5,3-2.7,3.9C199.7,247.9,198.4,248.3,196.9,248.3z M199.6,234.4c-0.9,0-1.8,0.4-2.7,1.3
		c-0.9,0.9-1.7,2-2.2,3.3c-0.5,1.3-0.8,2.7-0.8,4.1c0,1,0.3,1.8,0.8,2.4c0.5,0.5,1.3,0.8,2.2,0.8c0.9,0,1.8-0.4,2.6-1.1
		s1.4-1.8,1.9-3.2c0.5-1.4,0.7-2.9,0.7-4.4C202,235.5,201.2,234.4,199.6,234.4z"/>
	<path class="st2" d="M213.5,248.3c-0.9,0-1.7-0.2-2.4-0.7c-0.7-0.5-1.2-1.1-1.5-1.9h-0.1l-1,2.4h-1.8l4.6-21.8h2.4
		c-0.5,2.3-0.8,4-1.1,5.2c-0.3,1.2-0.6,2.6-1.1,4.2h0.1c0.9-1.1,1.7-1.9,2.6-2.4c0.8-0.5,1.7-0.8,2.6-0.8c1.3,0,2.3,0.5,3.1,1.4
		s1.1,2.2,1.1,3.8c0,2-0.3,3.8-1,5.4s-1.5,3-2.7,3.9C216.2,247.9,214.9,248.3,213.5,248.3z M216.1,234.4c-0.9,0-1.8,0.4-2.7,1.3
		c-0.9,0.9-1.7,2-2.2,3.3c-0.5,1.3-0.8,2.7-0.8,4.1c0,1,0.3,1.8,0.8,2.4c0.5,0.5,1.3,0.8,2.2,0.8c0.9,0,1.8-0.4,2.6-1.1
		s1.4-1.8,1.9-3.2c0.5-1.4,0.7-2.9,0.7-4.4C218.6,235.5,217.8,234.4,216.1,234.4z"/>
	<path class="st2" d="M231.4,232.4c0.9,0,1.6,0.2,2.3,0.7c0.7,0.5,1.2,1.1,1.6,2h0.2l0.9-2.4h1.8l-3.3,15.4H233l0.4-2.9h-0.1
		c-1.7,2.1-3.4,3.2-5.3,3.2c-1.3,0-2.3-0.5-3.1-1.4c-0.7-0.9-1.1-2.2-1.1-3.8c0-1.9,0.3-3.7,1-5.4c0.7-1.7,1.6-3,2.7-3.9
		S230,232.4,231.4,232.4z M228.7,246.4c0.9,0,1.8-0.4,2.7-1.3c0.9-0.9,1.6-2,2.2-3.4c0.6-1.4,0.8-2.8,0.8-4.2c0-1-0.3-1.7-0.8-2.3
		s-1.2-0.9-2.1-0.9c-1,0-1.9,0.4-2.7,1.2c-0.8,0.8-1.5,1.9-2,3.3c-0.5,1.4-0.7,2.8-0.7,4.3c0,1.1,0.2,1.9,0.7,2.4
		S227.9,246.4,228.7,246.4z"/>
	<path class="st2" d="M250,241.5h-6.9l-3.4,6.5H237l11.2-20.5h2.4l2.6,20.5h-2.4L250,241.5z M249.8,239.4l-0.5-4.2
		c-0.2-1.7-0.4-3.3-0.4-4.9c-0.3,0.8-0.7,1.6-1.1,2.5s-1.6,3-3.5,6.6H249.8z"/>
	<path class="st2" d="M256.7,246.6c0-0.6,0.1-1.1,0.4-1.4c0.3-0.3,0.7-0.5,1.2-0.5c0.5,0,1,0.2,1.3,0.5c0.3,0.3,0.5,0.8,0.5,1.4
		c0,0.6-0.2,1.1-0.5,1.4c-0.3,0.3-0.7,0.5-1.3,0.5c-0.5,0-0.9-0.1-1.2-0.4C256.9,247.7,256.7,247.2,256.7,246.6z"/>
</g>
<g>
	<path class="st2" d="M467.3,80.4c0-1.1,0.3-2,0.8-2.6s1.3-0.9,2.3-0.9c1,0,1.7,0.3,2.3,0.9c0.5,0.6,0.8,1.4,0.8,2.6
		c0,1.1-0.3,2-0.8,2.6c-0.5,0.6-1.3,0.9-2.3,0.9c-1,0-1.8-0.3-2.3-0.9C467.5,82.4,467.3,81.5,467.3,80.4z"/>
	<path class="st2" d="M525.2,90.9V70.4h2.4v18.3h9v2.2H525.2z"/>
	<path class="st2" d="M549.2,90.9l-0.5-2.2h-0.1c-0.8,1-1.5,1.6-2.3,2s-1.7,0.5-2.9,0.5c-1.5,0-2.7-0.4-3.6-1.2
		c-0.9-0.8-1.3-1.9-1.3-3.3c0-3.1,2.5-4.7,7.4-4.9l2.6-0.1v-1c0-1.2-0.3-2.1-0.8-2.7c-0.5-0.6-1.3-0.9-2.5-0.9
		c-1.3,0-2.7,0.4-4.3,1.2l-0.7-1.8c0.8-0.4,1.6-0.7,2.5-1s1.8-0.4,2.7-0.4c1.8,0,3.2,0.4,4.1,1.2c0.9,0.8,1.3,2.1,1.3,3.9v10.5
		H549.2z M543.9,89.3c1.4,0,2.6-0.4,3.4-1.2c0.8-0.8,1.2-1.9,1.2-3.3v-1.4l-2.3,0.1c-1.8,0.1-3.2,0.4-4,0.9
		c-0.8,0.5-1.2,1.3-1.2,2.4c0,0.8,0.3,1.5,0.8,1.9C542.3,89,543,89.3,543.9,89.3z"/>
	<path class="st2" d="M565.5,90.9h-2.3V69.1h2.3V90.9z"/>
	<path class="st2" d="M576.9,91.2c-2.3,0-4.1-0.7-5.4-2.1c-1.3-1.4-2-3.3-2-5.8c0-2.5,0.6-4.4,1.8-5.9c1.2-1.5,2.9-2.2,4.9-2.2
		c1.9,0,3.4,0.6,4.6,1.9s1.7,2.9,1.7,5v1.5h-10.6c0,1.8,0.5,3.2,1.4,4.1c0.9,0.9,2.1,1.4,3.6,1.4c1.7,0,3.3-0.3,4.9-1v2.1
		c-0.8,0.4-1.6,0.6-2.3,0.8C578.8,91.1,577.9,91.2,576.9,91.2z M576.2,77.2c-1.2,0-2.2,0.4-2.9,1.2c-0.7,0.8-1.2,1.9-1.3,3.3h8
		c0-1.5-0.3-2.6-1-3.4S577.5,77.2,576.2,77.2z"/>
	<path class="st2" d="M591.4,89.3c0.4,0,0.8,0,1.2-0.1s0.7-0.1,0.9-0.2v1.8c-0.3,0.1-0.6,0.2-1.1,0.3c-0.5,0.1-0.9,0.1-1.3,0.1
		c-3,0-4.5-1.6-4.5-4.7v-9.1h-2.2v-1.1l2.2-1l1-3.3h1.3v3.6h4.5v1.8H589v9c0,0.9,0.2,1.6,0.7,2.1S590.7,89.3,591.4,89.3z"/>
	<path class="st2" d="M603.6,75.3c0.7,0,1.3,0.1,1.8,0.2l-0.3,2.2c-0.6-0.1-1.2-0.2-1.7-0.2c-1.2,0-2.3,0.5-3.2,1.5
		c-0.9,1-1.3,2.3-1.3,3.8v8.2h-2.3V75.5h1.9l0.3,2.8h0.1c0.6-1,1.3-1.8,2.1-2.3C601.8,75.5,602.7,75.3,603.6,75.3z"/>
	<path class="st2" d="M617.8,90.9l-0.5-2.2h-0.1c-0.8,1-1.5,1.6-2.3,2c-0.8,0.3-1.7,0.5-2.9,0.5c-1.5,0-2.7-0.4-3.6-1.2
		c-0.9-0.8-1.3-1.9-1.3-3.3c0-3.1,2.5-4.7,7.4-4.9l2.6-0.1v-1c0-1.2-0.3-2.1-0.8-2.7c-0.5-0.6-1.3-0.9-2.5-0.9
		c-1.3,0-2.7,0.4-4.3,1.2l-0.7-1.8c0.8-0.4,1.6-0.7,2.5-1s1.8-0.4,2.7-0.4c1.8,0,3.2,0.4,4.1,1.2c0.9,0.8,1.3,2.1,1.3,3.9v10.5
		H617.8z M612.5,89.3c1.4,0,2.6-0.4,3.4-1.2c0.8-0.8,1.2-1.9,1.2-3.3v-1.4l-2.3,0.1c-1.8,0.1-3.2,0.4-4,0.9
		c-0.8,0.5-1.2,1.3-1.2,2.4c0,0.8,0.3,1.5,0.8,1.9C610.9,89,611.6,89.3,612.5,89.3z"/>
	<path class="st2" d="M642.2,88.8h-0.1c-1.1,1.6-2.7,2.3-4.8,2.3c-2,0-3.6-0.7-4.7-2.1c-1.1-1.4-1.7-3.3-1.7-5.9
		c0-2.5,0.6-4.5,1.7-5.9c1.1-1.4,2.7-2.1,4.7-2.1c2.1,0,3.7,0.8,4.8,2.3h0.2l-0.1-1.1l-0.1-1.1v-6.2h2.3v21.8h-1.9L642.2,88.8z
		 M637.5,89.2c1.6,0,2.7-0.4,3.5-1.3c0.7-0.9,1.1-2.3,1.1-4.2v-0.5c0-2.2-0.4-3.7-1.1-4.7c-0.7-0.9-1.9-1.4-3.5-1.4
		c-1.4,0-2.4,0.5-3.1,1.6s-1.1,2.6-1.1,4.5c0,2,0.4,3.4,1.1,4.4C635.1,88.7,636.1,89.2,637.5,89.2z"/>
	<path class="st2" d="M655.8,91.2c-2.3,0-4.1-0.7-5.4-2.1s-2-3.3-2-5.8c0-2.5,0.6-4.4,1.8-5.9s2.9-2.2,4.9-2.2
		c1.9,0,3.4,0.6,4.6,1.9c1.1,1.3,1.7,2.9,1.7,5v1.5h-10.6c0,1.8,0.5,3.2,1.4,4.1c0.9,0.9,2.1,1.4,3.6,1.4c1.7,0,3.3-0.3,4.9-1v2.1
		c-0.8,0.4-1.6,0.6-2.3,0.8C657.7,91.1,656.8,91.2,655.8,91.2z M655.2,77.2c-1.2,0-2.2,0.4-2.9,1.2c-0.7,0.8-1.2,1.9-1.3,3.3h8
		c0-1.5-0.3-2.6-1-3.4C657.3,77.6,656.4,77.2,655.2,77.2z"/>
	<path class="st2" d="M667.7,90.9h-2.3V69.1h2.3V90.9z"/>
	<path class="st2" d="M689.6,90.9l-0.5-2.2H689c-0.8,1-1.5,1.6-2.3,2c-0.8,0.3-1.7,0.5-2.9,0.5c-1.5,0-2.7-0.4-3.6-1.2
		c-0.9-0.8-1.3-1.9-1.3-3.3c0-3.1,2.5-4.7,7.4-4.9l2.6-0.1v-1c0-1.2-0.3-2.1-0.8-2.7c-0.5-0.6-1.3-0.9-2.5-0.9
		c-1.3,0-2.7,0.4-4.3,1.2l-0.7-1.8c0.8-0.4,1.6-0.7,2.5-1s1.8-0.4,2.7-0.4c1.8,0,3.2,0.4,4.1,1.2c0.9,0.8,1.3,2.1,1.3,3.9v10.5
		H689.6z M684.3,89.3c1.4,0,2.6-0.4,3.4-1.2c0.8-0.8,1.2-1.9,1.2-3.3v-1.4l-2.3,0.1c-1.8,0.1-3.2,0.4-4,0.9
		c-0.8,0.5-1.2,1.3-1.2,2.4c0,0.8,0.3,1.5,0.8,1.9C682.7,89,683.4,89.3,684.3,89.3z"/>
	<path class="st2" d="M703.2,75.3c2,0,3.6,0.7,4.7,2.1c1.1,1.4,1.7,3.3,1.7,5.8c0,2.5-0.6,4.5-1.7,5.9c-1.1,1.4-2.7,2.1-4.7,2.1
		c-1,0-1.9-0.2-2.7-0.6c-0.8-0.4-1.5-0.9-2.1-1.7h-0.2l-0.5,2h-1.7V69.1h2.3v5.3c0,1.2,0,2.3-0.1,3.2h0.1
		C699.5,76.1,701.1,75.3,703.2,75.3z M702.9,77.2c-1.6,0-2.7,0.5-3.4,1.4s-1.1,2.4-1.1,4.6c0,2.2,0.4,3.7,1.1,4.6
		c0.7,0.9,1.9,1.4,3.5,1.4c1.4,0,2.5-0.5,3.2-1.6c0.7-1,1.1-2.5,1.1-4.5c0-2-0.4-3.5-1.1-4.5C705.4,77.7,704.4,77.2,702.9,77.2z"/>
	<path class="st2" d="M720.1,91.2c-2.3,0-4.1-0.7-5.4-2.1s-2-3.3-2-5.8c0-2.5,0.6-4.4,1.8-5.9s2.9-2.2,4.9-2.2
		c1.9,0,3.4,0.6,4.6,1.9c1.1,1.3,1.7,2.9,1.7,5v1.5h-10.6c0,1.8,0.5,3.2,1.4,4.1c0.9,0.9,2.1,1.4,3.6,1.4c1.7,0,3.3-0.3,4.9-1v2.1
		c-0.8,0.4-1.6,0.6-2.3,0.8C722.1,91.1,721.2,91.2,720.1,91.2z M719.5,77.2c-1.2,0-2.2,0.4-2.9,1.2c-0.7,0.8-1.2,1.9-1.3,3.3h8
		c0-1.5-0.3-2.6-1-3.4C721.7,77.6,720.7,77.2,719.5,77.2z"/>
	<path class="st2" d="M735.9,91.2c-2.2,0-3.9-0.7-5.2-2.1s-1.8-3.3-1.8-5.8c0-2.6,0.6-4.6,1.9-6c1.2-1.4,3-2.1,5.3-2.1
		c0.7,0,1.5,0.1,2.2,0.2c0.7,0.2,1.3,0.3,1.7,0.6l-0.7,2c-0.5-0.2-1.1-0.4-1.7-0.5s-1.1-0.2-1.6-0.2c-3.1,0-4.7,2-4.7,6
		c0,1.9,0.4,3.3,1.1,4.3c0.8,1,1.9,1.5,3.4,1.5c1.3,0,2.6-0.3,3.9-0.8v2.1C738.7,90.9,737.5,91.2,735.9,91.2z"/>
	<path class="st2" d="M749.9,91.2c-2.3,0-4.1-0.7-5.4-2.1s-2-3.3-2-5.8c0-2.5,0.6-4.4,1.8-5.9s2.9-2.2,4.9-2.2
		c1.9,0,3.4,0.6,4.6,1.9c1.1,1.3,1.7,2.9,1.7,5v1.5H745c0,1.8,0.5,3.2,1.4,4.1c0.9,0.9,2.1,1.4,3.6,1.4c1.7,0,3.3-0.3,4.9-1v2.1
		c-0.8,0.4-1.6,0.6-2.3,0.8C751.8,91.1,750.9,91.2,749.9,91.2z M749.3,77.2c-1.2,0-2.2,0.4-2.9,1.2c-0.7,0.8-1.2,1.9-1.3,3.3h8
		c0-1.5-0.3-2.6-1-3.4C751.4,77.6,750.5,77.2,749.3,77.2z"/>
	<path class="st2" d="M770,88.8h-0.1c-1.1,1.6-2.7,2.3-4.8,2.3c-2,0-3.6-0.7-4.7-2.1c-1.1-1.4-1.7-3.3-1.7-5.9
		c0-2.5,0.6-4.5,1.7-5.9c1.1-1.4,2.7-2.1,4.7-2.1c2.1,0,3.7,0.8,4.8,2.3h0.2l-0.1-1.1l-0.1-1.1v-6.2h2.3v21.8h-1.9L770,88.8z
		 M765.3,89.2c1.6,0,2.7-0.4,3.5-1.3c0.7-0.9,1.1-2.3,1.1-4.2v-0.5c0-2.2-0.4-3.7-1.1-4.7c-0.7-0.9-1.9-1.4-3.5-1.4
		c-1.4,0-2.4,0.5-3.1,1.6s-1.1,2.6-1.1,4.5c0,2,0.4,3.4,1.1,4.4C762.9,88.7,763.9,89.2,765.3,89.2z"/>
	<path class="st2" d="M786.5,90.9l-0.5-2.2H786c-0.8,1-1.5,1.6-2.3,2c-0.8,0.3-1.7,0.5-2.9,0.5c-1.5,0-2.7-0.4-3.6-1.2
		c-0.9-0.8-1.3-1.9-1.3-3.3c0-3.1,2.5-4.7,7.4-4.9l2.6-0.1v-1c0-1.2-0.3-2.1-0.8-2.7c-0.5-0.6-1.3-0.9-2.5-0.9
		c-1.3,0-2.7,0.4-4.3,1.2l-0.7-1.8c0.8-0.4,1.6-0.7,2.5-1s1.8-0.4,2.7-0.4c1.8,0,3.2,0.4,4.1,1.2c0.9,0.8,1.3,2.1,1.3,3.9v10.5
		H786.5z M781.3,89.3c1.4,0,2.6-0.4,3.4-1.2c0.8-0.8,1.2-1.9,1.2-3.3v-1.4l-2.3,0.1c-1.8,0.1-3.2,0.4-4,0.9
		c-0.8,0.5-1.2,1.3-1.2,2.4c0,0.8,0.3,1.5,0.8,1.9C779.7,89,780.4,89.3,781.3,89.3z"/>
	<path class="st2" d="M800.1,75.3c0.7,0,1.3,0.1,1.8,0.2l-0.3,2.2c-0.6-0.1-1.2-0.2-1.7-0.2c-1.2,0-2.3,0.5-3.2,1.5
		c-0.9,1-1.3,2.3-1.3,3.8v8.2H793V75.5h1.9l0.3,2.8h0.1c0.6-1,1.3-1.8,2.1-2.3C798.2,75.5,799.1,75.3,800.1,75.3z"/>
	<path class="st2" d="M804.6,71.4c0-0.5,0.1-0.9,0.4-1.2c0.3-0.2,0.6-0.4,1-0.4c0.4,0,0.7,0.1,1,0.4c0.3,0.3,0.4,0.6,0.4,1.2
		s-0.1,0.9-0.4,1.2c-0.3,0.3-0.6,0.4-1,0.4c-0.4,0-0.7-0.1-1-0.4C804.7,72.3,804.6,71.9,804.6,71.4z M807.1,90.9h-2.3V75.5h2.3V90.9
		z"/>
	<path class="st2" d="M825.3,83.2c0,2.5-0.6,4.5-1.9,5.9s-3,2.1-5.2,2.1c-1.4,0-2.6-0.3-3.7-1s-1.9-1.6-2.5-2.8
		c-0.6-1.2-0.9-2.6-0.9-4.2c0-2.5,0.6-4.5,1.9-5.8c1.3-1.4,3-2.1,5.2-2.1c2.1,0,3.9,0.7,5.1,2.1C824.6,78.8,825.3,80.8,825.3,83.2z
		 M813.6,83.2c0,2,0.4,3.5,1.2,4.5s1.9,1.5,3.5,1.5s2.7-0.5,3.5-1.5c0.8-1,1.2-2.5,1.2-4.5c0-2-0.4-3.4-1.2-4.4
		c-0.8-1-2-1.5-3.5-1.5c-1.5,0-2.7,0.5-3.4,1.5C814,79.7,813.6,81.2,813.6,83.2z"/>
	<path class="st2" d="M836.6,71.4c0-0.5,0.1-0.9,0.4-1.2c0.3-0.2,0.6-0.4,1-0.4c0.4,0,0.7,0.1,1,0.4c0.3,0.3,0.4,0.6,0.4,1.2
		s-0.1,0.9-0.4,1.2c-0.3,0.3-0.6,0.4-1,0.4c-0.4,0-0.7-0.1-1-0.4C836.7,72.3,836.6,71.9,836.6,71.4z M839.1,90.9h-2.3V75.5h2.3V90.9
		z"/>
	<path class="st2" d="M854.6,90.9V81c0-1.3-0.3-2.2-0.9-2.8c-0.6-0.6-1.5-0.9-2.7-0.9c-1.6,0-2.8,0.4-3.5,1.3
		c-0.7,0.9-1.1,2.3-1.1,4.3v8.1h-2.3V75.5h1.9l0.4,2.1h0.1c0.5-0.8,1.1-1.3,2-1.8s1.8-0.6,2.9-0.6c1.8,0,3.2,0.4,4.2,1.3
		c0.9,0.9,1.4,2.3,1.4,4.3v10H854.6z"/>
	<path class="st2" d="M872.1,88.8H872c-1.1,1.6-2.7,2.3-4.8,2.3c-2,0-3.6-0.7-4.7-2.1c-1.1-1.4-1.7-3.3-1.7-5.9
		c0-2.5,0.6-4.5,1.7-5.9c1.1-1.4,2.7-2.1,4.7-2.1c2.1,0,3.7,0.8,4.8,2.3h0.2l-0.1-1.1l-0.1-1.1v-6.2h2.3v21.8h-1.9L872.1,88.8z
		 M867.5,89.2c1.6,0,2.7-0.4,3.5-1.3c0.7-0.9,1.1-2.3,1.1-4.2v-0.5c0-2.2-0.4-3.7-1.1-4.7c-0.7-0.9-1.9-1.4-3.5-1.4
		c-1.4,0-2.4,0.5-3.1,1.6s-1.1,2.6-1.1,4.5c0,2,0.4,3.4,1.1,4.4C865,88.7,866.1,89.2,867.5,89.2z"/>
	<path class="st2" d="M879.1,71.4c0-0.5,0.1-0.9,0.4-1.2c0.3-0.2,0.6-0.4,1-0.4c0.4,0,0.7,0.1,1,0.4c0.3,0.3,0.4,0.6,0.4,1.2
		s-0.1,0.9-0.4,1.2c-0.3,0.3-0.6,0.4-1,0.4c-0.4,0-0.7-0.1-1-0.4C879.2,72.3,879.1,71.9,879.1,71.4z M881.6,90.9h-2.3V75.5h2.3V90.9
		z"/>
	<path class="st2" d="M892.6,91.2c-2.2,0-3.9-0.7-5.2-2.1s-1.8-3.3-1.8-5.8c0-2.6,0.6-4.6,1.9-6c1.2-1.4,3-2.1,5.3-2.1
		c0.7,0,1.5,0.1,2.2,0.2c0.7,0.2,1.3,0.3,1.7,0.6l-0.7,2c-0.5-0.2-1.1-0.4-1.7-0.5s-1.1-0.2-1.6-0.2c-3.1,0-4.7,2-4.7,6
		c0,1.9,0.4,3.3,1.1,4.3c0.8,1,1.9,1.5,3.4,1.5c1.3,0,2.6-0.3,3.9-0.8v2.1C895.5,90.9,894.2,91.2,892.6,91.2z"/>
	<path class="st2" d="M909.6,90.9l-0.5-2.2H909c-0.8,1-1.5,1.6-2.3,2c-0.8,0.3-1.7,0.5-2.9,0.5c-1.5,0-2.7-0.4-3.6-1.2
		c-0.9-0.8-1.3-1.9-1.3-3.3c0-3.1,2.5-4.7,7.4-4.9l2.6-0.1v-1c0-1.2-0.3-2.1-0.8-2.7c-0.5-0.6-1.3-0.9-2.5-0.9
		c-1.3,0-2.7,0.4-4.3,1.2l-0.7-1.8c0.8-0.4,1.6-0.7,2.5-1s1.8-0.4,2.7-0.4c1.8,0,3.2,0.4,4.1,1.2c0.9,0.8,1.3,2.1,1.3,3.9v10.5
		H909.6z M904.4,89.3c1.4,0,2.6-0.4,3.4-1.2c0.8-0.8,1.2-1.9,1.2-3.3v-1.4l-2.3,0.1c-1.8,0.1-3.2,0.4-4,0.9
		c-0.8,0.5-1.2,1.3-1.2,2.4c0,0.8,0.3,1.5,0.8,1.9C902.7,89,903.4,89.3,904.4,89.3z"/>
	<path class="st2" d="M929,91.2c-2,0-3.5-0.7-4.6-2.1s-1.7-3.3-1.7-5.8c0-2.5,0.6-4.5,1.7-5.9c1.1-1.4,2.7-2.1,4.7-2.1
		c2.1,0,3.7,0.8,4.8,2.4h0.1l0.3-2.1h1.8v22.2h-2.3v-6.6c0-0.9,0.1-1.7,0.2-2.4h-0.2C932.8,90.4,931.2,91.2,929,91.2z M929.4,89.2
		c1.5,0,2.7-0.4,3.4-1.2c0.7-0.8,1.1-2.2,1.1-4.2v-0.5c0-2.1-0.4-3.7-1.1-4.6s-1.9-1.4-3.5-1.4c-1.4,0-2.4,0.5-3.1,1.6
		s-1.1,2.6-1.1,4.5s0.4,3.4,1.1,4.4C926.9,88.7,928,89.2,929.4,89.2z"/>
	<path class="st2" d="M943.3,75.5v10c0,1.3,0.3,2.2,0.9,2.8c0.6,0.6,1.5,0.9,2.7,0.9c1.6,0,2.8-0.4,3.5-1.3c0.7-0.9,1.1-2.3,1.1-4.3
		v-8.1h2.3v15.4h-1.9l-0.3-2.1h-0.1c-0.5,0.8-1.1,1.3-2,1.7c-0.8,0.4-1.8,0.6-2.9,0.6c-1.9,0-3.3-0.4-4.2-1.3
		c-0.9-0.9-1.4-2.3-1.4-4.3v-10H943.3z"/>
	<path class="st2" d="M965.3,91.2c-2.3,0-4.1-0.7-5.4-2.1s-2-3.3-2-5.8c0-2.5,0.6-4.4,1.8-5.9s2.9-2.2,4.9-2.2
		c1.9,0,3.4,0.6,4.6,1.9c1.1,1.3,1.7,2.9,1.7,5v1.5h-10.6c0,1.8,0.5,3.2,1.4,4.1c0.9,0.9,2.1,1.4,3.6,1.4c1.7,0,3.3-0.3,4.9-1v2.1
		c-0.8,0.4-1.6,0.6-2.3,0.8C967.2,91.1,966.3,91.2,965.3,91.2z M964.6,77.2c-1.2,0-2.2,0.4-2.9,1.2c-0.7,0.8-1.2,1.9-1.3,3.3h8
		c0-1.5-0.3-2.6-1-3.4C966.8,77.6,965.8,77.2,964.6,77.2z M962.9,73.2c0.4-0.6,0.9-1.3,1.4-2.1c0.5-0.8,0.9-1.5,1.2-2.1h2.8v0.3
		c-0.4,0.6-1,1.4-1.8,2.2c-0.8,0.9-1.5,1.6-2.1,2.1h-1.6V73.2z"/>
	<path class="st2" d="M992.2,86.7c0,1.4-0.5,2.5-1.6,3.3c-1.1,0.8-2.6,1.2-4.5,1.2c-2,0-3.6-0.3-4.8-1V88c0.7,0.4,1.5,0.7,2.4,0.9
		c0.8,0.2,1.7,0.3,2.4,0.3c1.2,0,2.1-0.2,2.8-0.6c0.7-0.4,1-1,1-1.8c0-0.6-0.3-1.1-0.8-1.5c-0.5-0.4-1.5-0.9-3-1.5
		c-1.4-0.5-2.4-1-3-1.4c-0.6-0.4-1.1-0.8-1.3-1.4c-0.3-0.5-0.4-1.1-0.4-1.8c0-1.3,0.5-2.2,1.5-3c1-0.7,2.4-1.1,4.2-1.1
		c1.7,0,3.3,0.3,4.8,1l-0.8,1.9c-1.5-0.6-2.9-1-4.2-1c-1.1,0-1.9,0.2-2.5,0.5s-0.8,0.8-0.8,1.4c0,0.4,0.1,0.8,0.3,1.1s0.5,0.6,1,0.8
		s1.4,0.6,2.7,1.1c1.8,0.7,3.1,1.3,3.7,2C991.9,84.8,992.2,85.7,992.2,86.7z"/>
	<path class="st2" d="M1002.5,91.2c-2.3,0-4.1-0.7-5.4-2.1s-2-3.3-2-5.8c0-2.5,0.6-4.4,1.8-5.9s2.9-2.2,4.9-2.2
		c1.9,0,3.4,0.6,4.6,1.9c1.1,1.3,1.7,2.9,1.7,5v1.5h-10.6c0,1.8,0.5,3.2,1.4,4.1c0.9,0.9,2.1,1.4,3.6,1.4c1.7,0,3.3-0.3,4.9-1v2.1
		c-0.8,0.4-1.6,0.6-2.3,0.8C1004.4,91.1,1003.5,91.2,1002.5,91.2z M1001.9,77.2c-1.2,0-2.2,0.4-2.9,1.2c-0.7,0.8-1.2,1.9-1.3,3.3h8
		c0-1.5-0.3-2.6-1-3.4C1004,77.6,1003.1,77.2,1001.9,77.2z"/>
	<path class="st2" d="M1018.2,91.2c-2.2,0-3.9-0.7-5.2-2.1s-1.8-3.3-1.8-5.8c0-2.6,0.6-4.6,1.9-6c1.2-1.4,3-2.1,5.3-2.1
		c0.7,0,1.5,0.1,2.2,0.2c0.7,0.2,1.3,0.3,1.7,0.6l-0.7,2c-0.5-0.2-1.1-0.4-1.7-0.5s-1.1-0.2-1.6-0.2c-3.1,0-4.7,2-4.7,6
		c0,1.9,0.4,3.3,1.1,4.3c0.8,1,1.9,1.5,3.4,1.5c1.3,0,2.6-0.3,3.9-0.8v2.1C1021.1,90.9,1019.8,91.2,1018.2,91.2z"/>
	<path class="st2" d="M1031.9,91.2c-2.2,0-3.9-0.7-5.2-2.1s-1.8-3.3-1.8-5.8c0-2.6,0.6-4.6,1.9-6c1.2-1.4,3-2.1,5.3-2.1
		c0.7,0,1.5,0.1,2.2,0.2c0.7,0.2,1.3,0.3,1.7,0.6l-0.7,2c-0.5-0.2-1.1-0.4-1.7-0.5s-1.1-0.2-1.6-0.2c-3.1,0-4.7,2-4.7,6
		c0,1.9,0.4,3.3,1.1,4.3c0.8,1,1.9,1.5,3.4,1.5c1.3,0,2.6-0.3,3.9-0.8v2.1C1034.7,90.9,1033.5,91.2,1031.9,91.2z"/>
	<path class="st2" d="M1039.2,71.4c0-0.5,0.1-0.9,0.4-1.2c0.3-0.2,0.6-0.4,1-0.4c0.4,0,0.7,0.1,1,0.4c0.3,0.3,0.4,0.6,0.4,1.2
		s-0.1,0.9-0.4,1.2c-0.3,0.3-0.6,0.4-1,0.4c-0.4,0-0.7-0.1-1-0.4C1039.3,72.3,1039.2,71.9,1039.2,71.4z M1041.7,90.9h-2.3V75.5h2.3
		V90.9z"/>
	<path class="st2" d="M1059.9,83.2c0,2.5-0.6,4.5-1.9,5.9s-3,2.1-5.2,2.1c-1.4,0-2.6-0.3-3.7-1s-1.9-1.6-2.5-2.8
		c-0.6-1.2-0.9-2.6-0.9-4.2c0-2.5,0.6-4.5,1.9-5.8c1.3-1.4,3-2.1,5.2-2.1c2.1,0,3.9,0.7,5.1,2.1
		C1059.3,78.8,1059.9,80.8,1059.9,83.2z M1048.2,83.2c0,2,0.4,3.5,1.2,4.5s1.9,1.5,3.5,1.5s2.7-0.5,3.5-1.5c0.8-1,1.2-2.5,1.2-4.5
		c0-2-0.4-3.4-1.2-4.4c-0.8-1-2-1.5-3.5-1.5c-1.5,0-2.7,0.5-3.4,1.5C1048.6,79.7,1048.2,81.2,1048.2,83.2z M1050.9,73.2
		c0.4-0.6,0.9-1.3,1.5-2.1s0.9-1.5,1.2-2.1h2.8v0.3c-0.4,0.6-1,1.4-1.8,2.2c-0.8,0.9-1.5,1.6-2.1,2.1h-1.6V73.2z"/>
	<path class="st2" d="M1074.5,90.9V81c0-1.3-0.3-2.2-0.9-2.8c-0.6-0.6-1.5-0.9-2.7-0.9c-1.6,0-2.8,0.4-3.5,1.3
		c-0.7,0.9-1.1,2.3-1.1,4.3v8.1h-2.3V75.5h1.9l0.4,2.1h0.1c0.5-0.8,1.1-1.3,2-1.8s1.8-0.6,2.9-0.6c1.8,0,3.2,0.4,4.2,1.3
		c0.9,0.9,1.4,2.3,1.4,4.3v10H1074.5z"/>
	<path class="st2" d="M1095.5,91.2c-2.3,0-4.1-0.7-5.4-2.1s-2-3.3-2-5.8c0-2.5,0.6-4.4,1.8-5.9s2.9-2.2,4.9-2.2
		c1.9,0,3.4,0.6,4.6,1.9c1.1,1.3,1.7,2.9,1.7,5v1.5h-10.6c0,1.8,0.5,3.2,1.4,4.1c0.9,0.9,2.1,1.4,3.6,1.4c1.7,0,3.3-0.3,4.9-1v2.1
		c-0.8,0.4-1.6,0.6-2.3,0.8C1097.5,91.1,1096.6,91.2,1095.5,91.2z M1094.9,77.2c-1.2,0-2.2,0.4-2.9,1.2c-0.7,0.8-1.2,1.9-1.3,3.3h8
		c0-1.5-0.3-2.6-1-3.4C1097.1,77.6,1096.1,77.2,1094.9,77.2z"/>
	<path class="st2" d="M1115.1,86.7c0,1.4-0.5,2.5-1.6,3.3c-1.1,0.8-2.6,1.2-4.5,1.2c-2,0-3.6-0.3-4.8-1V88c0.7,0.4,1.5,0.7,2.4,0.9
		c0.8,0.2,1.7,0.3,2.4,0.3c1.2,0,2.1-0.2,2.8-0.6c0.7-0.4,1-1,1-1.8c0-0.6-0.3-1.1-0.8-1.5c-0.5-0.4-1.5-0.9-3-1.5
		c-1.4-0.5-2.4-1-3-1.4c-0.6-0.4-1.1-0.8-1.3-1.4c-0.3-0.5-0.4-1.1-0.4-1.8c0-1.3,0.5-2.2,1.5-3c1-0.7,2.4-1.1,4.2-1.1
		c1.7,0,3.3,0.3,4.8,1l-0.8,1.9c-1.5-0.6-2.9-1-4.2-1c-1.1,0-1.9,0.2-2.5,0.5s-0.8,0.8-0.8,1.4c0,0.4,0.1,0.8,0.3,1.1s0.5,0.6,1,0.8
		s1.4,0.6,2.7,1.1c1.8,0.7,3.1,1.3,3.7,2C1114.7,84.8,1115.1,85.7,1115.1,86.7z"/>
	<path class="st2" d="M523.5,117.5c0-2.5,0.4-4.8,1.1-6.9s1.8-4,3.1-5.7h2.3c-1.3,1.8-2.4,3.8-3,5.9c-0.7,2.2-1,4.4-1,6.7
		c0,2.2,0.3,4.4,1,6.6c0.7,2.1,1.7,4.1,3,5.9h-2.2c-1.4-1.6-2.4-3.4-3.1-5.6C523.9,122.2,523.5,119.9,523.5,117.5z"/>
	<path class="st2" d="M531.4,111.9l-0.2-0.3c0.2-0.8,0.5-1.9,1-3.1c0.5-1.3,0.9-2.4,1.5-3.6h1.7c-0.6,2.4-1.1,4.7-1.4,7H531.4z
		 M536.5,111.9l-0.2-0.3c0.5-2,1.4-4.2,2.5-6.7h1.7c-0.3,1.1-0.6,2.3-0.8,3.6c-0.3,1.4-0.5,2.5-0.6,3.4H536.5z"/>
	<path class="st2" d="M552.8,125.3l-0.5-2.2h-0.1c-0.8,1-1.5,1.6-2.3,2s-1.7,0.5-2.9,0.5c-1.5,0-2.7-0.4-3.6-1.2
		c-0.9-0.8-1.3-1.9-1.3-3.3c0-3.1,2.5-4.7,7.4-4.9l2.6-0.1v-1c0-1.2-0.3-2.1-0.8-2.7c-0.5-0.6-1.3-0.9-2.5-0.9
		c-1.3,0-2.7,0.4-4.3,1.2l-0.7-1.8c0.8-0.4,1.6-0.7,2.5-1s1.8-0.4,2.7-0.4c1.8,0,3.2,0.4,4.1,1.2c0.9,0.8,1.3,2.1,1.3,3.9v10.5
		H552.8z M547.6,123.7c1.4,0,2.6-0.4,3.4-1.2c0.8-0.8,1.2-1.9,1.2-3.3v-1.4l-2.3,0.1c-1.8,0.1-3.2,0.4-4,0.9
		c-0.8,0.5-1.2,1.3-1.2,2.4c0,0.8,0.3,1.5,0.8,1.9C545.9,123.5,546.6,123.7,547.6,123.7z"/>
	<path class="st2" d="M561.2,104.8l0.2,0.3c-0.2,0.9-0.6,2-1.1,3.3c-0.5,1.2-0.9,2.4-1.4,3.5h-1.7c0.7-2.7,1.1-5,1.4-7H561.2z
		 M566.4,104.8l0.2,0.3c-0.2,0.9-0.6,1.9-1,3.1c-0.4,1.2-0.9,2.4-1.5,3.6h-1.8c0.2-0.9,0.5-2.1,0.8-3.6c0.3-1.4,0.5-2.6,0.6-3.5
		H566.4z"/>
	<path class="st2" d="M576.6,105.8c0-0.5,0.1-0.9,0.4-1.2c0.3-0.2,0.6-0.4,1-0.4c0.4,0,0.7,0.1,1,0.4c0.3,0.3,0.4,0.6,0.4,1.2
		s-0.1,0.9-0.4,1.2s-0.6,0.4-1,0.4c-0.4,0-0.7-0.1-1-0.4S576.6,106.3,576.6,105.8z M579.1,125.3h-2.3V110h2.3V125.3z"/>
	<path class="st2" d="M594.6,125.3v-9.9c0-1.3-0.3-2.2-0.9-2.8c-0.6-0.6-1.5-0.9-2.7-0.9c-1.6,0-2.8,0.4-3.5,1.3s-1.1,2.3-1.1,4.3
		v8.1h-2.3V110h1.9l0.4,2.1h0.1c0.5-0.8,1.1-1.3,2-1.8c0.9-0.4,1.8-0.6,2.9-0.6c1.8,0,3.2,0.4,4.2,1.3c0.9,0.9,1.4,2.3,1.4,4.3v10
		H594.6z"/>
	<path class="st2" d="M612.1,123.3H612c-1.1,1.6-2.7,2.3-4.8,2.3c-2,0-3.6-0.7-4.7-2.1c-1.1-1.4-1.7-3.3-1.7-5.9
		c0-2.5,0.6-4.5,1.7-5.9c1.1-1.4,2.7-2.1,4.7-2.1c2.1,0,3.7,0.8,4.8,2.3h0.2l-0.1-1.1l-0.1-1.1v-6.2h2.3v21.8h-1.9L612.1,123.3z
		 M607.5,123.7c1.6,0,2.7-0.4,3.5-1.3c0.7-0.9,1.1-2.3,1.1-4.2v-0.5c0-2.2-0.4-3.7-1.1-4.7c-0.7-0.9-1.9-1.4-3.5-1.4
		c-1.4,0-2.4,0.5-3.1,1.6s-1.1,2.6-1.1,4.5c0,2,0.4,3.4,1.1,4.4C605,123.2,606.1,123.7,607.5,123.7z"/>
	<path class="st2" d="M619.1,105.8c0-0.5,0.1-0.9,0.4-1.2c0.3-0.2,0.6-0.4,1-0.4c0.4,0,0.7,0.1,1,0.4c0.3,0.3,0.4,0.6,0.4,1.2
		s-0.1,0.9-0.4,1.2c-0.3,0.3-0.6,0.4-1,0.4c-0.4,0-0.7-0.1-1-0.4C619.2,106.7,619.1,106.3,619.1,105.8z M621.6,125.3h-2.3V110h2.3
		V125.3z"/>
	<path class="st2" d="M632.7,125.6c-2.2,0-3.9-0.7-5.2-2.1s-1.8-3.3-1.8-5.8c0-2.6,0.6-4.6,1.9-6c1.2-1.4,3-2.1,5.3-2.1
		c0.7,0,1.5,0.1,2.2,0.2c0.7,0.2,1.3,0.3,1.7,0.6l-0.7,2c-0.5-0.2-1.1-0.4-1.7-0.5s-1.1-0.2-1.6-0.2c-3.1,0-4.7,2-4.7,6
		c0,1.9,0.4,3.3,1.1,4.3c0.8,1,1.9,1.5,3.4,1.5c1.3,0,2.6-0.3,3.9-0.8v2.1C635.5,125.3,634.2,125.6,632.7,125.6z"/>
	<path class="st2" d="M649.6,125.3l-0.5-2.2h-0.1c-0.8,1-1.5,1.6-2.3,2c-0.8,0.3-1.7,0.5-2.9,0.5c-1.5,0-2.7-0.4-3.6-1.2
		c-0.9-0.8-1.3-1.9-1.3-3.3c0-3.1,2.5-4.7,7.4-4.9l2.6-0.1v-1c0-1.2-0.3-2.1-0.8-2.7c-0.5-0.6-1.3-0.9-2.5-0.9
		c-1.3,0-2.7,0.4-4.3,1.2l-0.7-1.8c0.8-0.4,1.6-0.7,2.5-1s1.8-0.4,2.7-0.4c1.8,0,3.2,0.4,4.1,1.2c0.9,0.8,1.3,2.1,1.3,3.9v10.5
		H649.6z M644.4,123.7c1.4,0,2.6-0.4,3.4-1.2c0.8-0.8,1.2-1.9,1.2-3.3v-1.4l-2.3,0.1c-1.8,0.1-3.2,0.4-4,0.9
		c-0.8,0.5-1.2,1.3-1.2,2.4c0,0.8,0.3,1.5,0.8,1.9C642.7,123.5,643.5,123.7,644.4,123.7z"/>
	<path class="st2" d="M665.9,125.3h-2.3v-21.8h2.3V125.3z"/>
	<path class="st2" d="M680.3,125.3l-0.5-2.2h-0.1c-0.8,1-1.5,1.6-2.3,2c-0.8,0.3-1.7,0.5-2.9,0.5c-1.5,0-2.7-0.4-3.6-1.2
		c-0.9-0.8-1.3-1.9-1.3-3.3c0-3.1,2.5-4.7,7.4-4.9l2.6-0.1v-1c0-1.2-0.3-2.1-0.8-2.7c-0.5-0.6-1.3-0.9-2.5-0.9
		c-1.3,0-2.7,0.4-4.3,1.2l-0.7-1.8c0.8-0.4,1.6-0.7,2.5-1s1.8-0.4,2.7-0.4c1.8,0,3.2,0.4,4.1,1.2c0.9,0.8,1.3,2.1,1.3,3.9v10.5
		H680.3z M675,123.7c1.4,0,2.6-0.4,3.4-1.2c0.8-0.8,1.2-1.9,1.2-3.3v-1.4l-2.3,0.1c-1.8,0.1-3.2,0.4-4,0.9c-0.8,0.5-1.2,1.3-1.2,2.4
		c0,0.8,0.3,1.5,0.8,1.9C673.4,123.5,674.1,123.7,675,123.7z"/>
	<path class="st2" d="M701.4,125.6c-1,0-1.9-0.2-2.7-0.6c-0.8-0.4-1.5-0.9-2.1-1.7h-0.2c0.1,0.9,0.2,1.7,0.2,2.5v6.3h-2.3V110h1.9
		l0.3,2.1h0.1c0.6-0.8,1.3-1.4,2.1-1.8c0.8-0.4,1.7-0.6,2.7-0.6c2,0,3.6,0.7,4.7,2.1s1.7,3.3,1.7,5.9c0,2.5-0.6,4.5-1.7,5.9
		C705,124.9,703.4,125.6,701.4,125.6z M701.1,111.7c-1.6,0-2.7,0.4-3.4,1.3c-0.7,0.9-1.1,2.3-1.1,4.1v0.5c0,2.2,0.4,3.7,1.1,4.6
		c0.7,0.9,1.9,1.4,3.5,1.4c1.3,0,2.4-0.5,3.1-1.6c0.8-1.1,1.1-2.6,1.1-4.4c0-1.9-0.4-3.4-1.1-4.4
		C703.5,112.2,702.4,111.7,701.1,111.7z"/>
	<path class="st2" d="M718.8,109.7c0.7,0,1.3,0.1,1.8,0.2l-0.3,2.2c-0.6-0.1-1.2-0.2-1.7-0.2c-1.2,0-2.3,0.5-3.2,1.5
		c-0.9,1-1.3,2.3-1.3,3.8v8.2h-2.3V110h1.9l0.3,2.8h0.1c0.6-1,1.3-1.8,2.1-2.3C717,110,717.9,109.7,718.8,109.7z"/>
	<path class="st2" d="M723.4,105.8c0-0.5,0.1-0.9,0.4-1.2c0.3-0.2,0.6-0.4,1-0.4c0.4,0,0.7,0.1,1,0.4c0.3,0.3,0.4,0.6,0.4,1.2
		s-0.1,0.9-0.4,1.2c-0.3,0.3-0.6,0.4-1,0.4c-0.4,0-0.7-0.1-1-0.4C723.5,106.7,723.4,106.3,723.4,105.8z M725.9,125.3h-2.3V110h2.3
		V125.3z"/>
	<path class="st2" d="M750.4,125.3v-10c0-1.2-0.3-2.1-0.8-2.8c-0.5-0.6-1.3-0.9-2.4-0.9c-1.4,0-2.5,0.4-3.2,1.2
		c-0.7,0.8-1,2.1-1,3.8v8.6h-2.3v-10c0-1.2-0.3-2.1-0.8-2.8c-0.5-0.6-1.3-0.9-2.5-0.9c-1.5,0-2.5,0.4-3.2,1.3c-0.7,0.9-1,2.3-1,4.3
		v8.1h-2.3V110h1.9l0.4,2.1h0.1c0.4-0.7,1.1-1.3,1.9-1.8c0.8-0.4,1.7-0.6,2.7-0.6c2.4,0,4,0.9,4.7,2.6h0.1c0.5-0.8,1.1-1.4,2-1.9
		c0.9-0.5,1.9-0.7,3-0.7c1.7,0,3,0.4,3.9,1.3c0.9,0.9,1.3,2.3,1.3,4.3v10H750.4z"/>
	<path class="st2" d="M764,125.6c-2.3,0-4.1-0.7-5.4-2.1s-2-3.3-2-5.8c0-2.5,0.6-4.4,1.8-5.9s2.9-2.2,4.9-2.2c1.9,0,3.4,0.6,4.6,1.9
		c1.1,1.3,1.7,2.9,1.7,5v1.5h-10.6c0,1.8,0.5,3.2,1.4,4.1c0.9,0.9,2.1,1.4,3.6,1.4c1.7,0,3.3-0.3,4.9-1v2.1
		c-0.8,0.4-1.6,0.6-2.3,0.8C765.9,125.5,765,125.6,764,125.6z M763.4,111.6c-1.2,0-2.2,0.4-2.9,1.2c-0.7,0.8-1.2,1.9-1.3,3.3h8
		c0-1.5-0.3-2.6-1-3.4C765.5,112,764.6,111.6,763.4,111.6z"/>
	<path class="st2" d="M780.6,109.7c0.7,0,1.3,0.1,1.8,0.2l-0.3,2.2c-0.6-0.1-1.2-0.2-1.7-0.2c-1.2,0-2.3,0.5-3.2,1.5
		c-0.9,1-1.3,2.3-1.3,3.8v8.2h-2.3V110h1.9l0.3,2.8h0.1c0.6-1,1.3-1.8,2.1-2.3C778.8,110,779.6,109.7,780.6,109.7z"/>
	<path class="st2" d="M794.7,125.3l-0.5-2.2h-0.1c-0.8,1-1.5,1.6-2.3,2c-0.8,0.3-1.7,0.5-2.9,0.5c-1.5,0-2.7-0.4-3.6-1.2
		c-0.9-0.8-1.3-1.9-1.3-3.3c0-3.1,2.5-4.7,7.4-4.9l2.6-0.1v-1c0-1.2-0.3-2.1-0.8-2.7c-0.5-0.6-1.3-0.9-2.5-0.9
		c-1.3,0-2.7,0.4-4.3,1.2l-0.7-1.8c0.8-0.4,1.6-0.7,2.5-1s1.8-0.4,2.7-0.4c1.8,0,3.2,0.4,4.1,1.2c0.9,0.8,1.3,2.1,1.3,3.9v10.5
		H794.7z M789.5,123.7c1.4,0,2.6-0.4,3.4-1.2c0.8-0.8,1.2-1.9,1.2-3.3v-1.4l-2.3,0.1c-1.8,0.1-3.2,0.4-4,0.9
		c-0.8,0.5-1.2,1.3-1.2,2.4c0,0.8,0.3,1.5,0.8,1.9C787.9,123.5,788.6,123.7,789.5,123.7z"/>
	<path class="st2" d="M828.3,125.3v-10c0-1.2-0.3-2.1-0.8-2.8c-0.5-0.6-1.3-0.9-2.4-0.9c-1.4,0-2.5,0.4-3.2,1.2
		c-0.7,0.8-1,2.1-1,3.8v8.6h-2.3v-10c0-1.2-0.3-2.1-0.8-2.8c-0.5-0.6-1.3-0.9-2.5-0.9c-1.5,0-2.5,0.4-3.2,1.3c-0.7,0.9-1,2.3-1,4.3
		v8.1h-2.3V110h1.9l0.4,2.1h0.1c0.4-0.7,1.1-1.3,1.9-1.8c0.8-0.4,1.7-0.6,2.7-0.6c2.4,0,4,0.9,4.7,2.6h0.1c0.5-0.8,1.1-1.4,2-1.9
		c0.9-0.5,1.9-0.7,3-0.7c1.7,0,3,0.4,3.9,1.3c0.9,0.9,1.3,2.3,1.3,4.3v10H828.3z"/>
	<path class="st2" d="M835.2,105.8c0-0.5,0.1-0.9,0.4-1.2c0.3-0.2,0.6-0.4,1-0.4c0.4,0,0.7,0.1,1,0.4c0.3,0.3,0.4,0.6,0.4,1.2
		s-0.1,0.9-0.4,1.2c-0.3,0.3-0.6,0.4-1,0.4c-0.4,0-0.7-0.1-1-0.4C835.3,106.7,835.2,106.3,835.2,105.8z M837.7,125.3h-2.3V110h2.3
		V125.3z"/>
	<path class="st2" d="M847.6,123.7c0.4,0,0.8,0,1.2-0.1s0.7-0.1,0.9-0.2v1.8c-0.3,0.1-0.6,0.2-1.1,0.3c-0.5,0.1-0.9,0.1-1.3,0.1
		c-3,0-4.5-1.6-4.5-4.7v-9.1h-2.2v-1.1l2.2-1l1-3.3h1.3v3.6h4.5v1.8h-4.5v9c0,0.9,0.2,1.6,0.7,2.1
		C846.2,123.4,846.9,123.7,847.6,123.7z"/>
	<path class="st2" d="M862.2,125.3l-0.5-2.2h-0.1c-0.8,1-1.5,1.6-2.3,2c-0.8,0.3-1.7,0.5-2.9,0.5c-1.5,0-2.7-0.4-3.6-1.2
		c-0.9-0.8-1.3-1.9-1.3-3.3c0-3.1,2.5-4.7,7.4-4.9l2.6-0.1v-1c0-1.2-0.3-2.1-0.8-2.7c-0.5-0.6-1.3-0.9-2.5-0.9
		c-1.3,0-2.7,0.4-4.3,1.2l-0.7-1.8c0.8-0.4,1.6-0.7,2.5-1s1.8-0.4,2.7-0.4c1.8,0,3.2,0.4,4.1,1.2c0.9,0.8,1.3,2.1,1.3,3.9v10.5
		H862.2z M857,123.7c1.4,0,2.6-0.4,3.4-1.2c0.8-0.8,1.2-1.9,1.2-3.3v-1.4l-2.3,0.1c-1.8,0.1-3.2,0.4-4,0.9c-0.8,0.5-1.2,1.3-1.2,2.4
		c0,0.8,0.3,1.5,0.8,1.9C855.3,123.5,856.1,123.7,857,123.7z"/>
	<path class="st2" d="M879.2,123.3h-0.1c-1.1,1.6-2.7,2.3-4.8,2.3c-2,0-3.6-0.7-4.7-2.1c-1.1-1.4-1.7-3.3-1.7-5.9
		c0-2.5,0.6-4.5,1.7-5.9c1.1-1.4,2.7-2.1,4.7-2.1c2.1,0,3.7,0.8,4.8,2.3h0.2l-0.1-1.1l-0.1-1.1v-6.2h2.3v21.8h-1.9L879.2,123.3z
		 M874.5,123.7c1.6,0,2.7-0.4,3.5-1.3c0.7-0.9,1.1-2.3,1.1-4.2v-0.5c0-2.2-0.4-3.7-1.1-4.7c-0.7-0.9-1.9-1.4-3.5-1.4
		c-1.4,0-2.4,0.5-3.1,1.6s-1.1,2.6-1.1,4.5c0,2,0.4,3.4,1.1,4.4C872.1,123.2,873.2,123.7,874.5,123.7z"/>
	<path class="st2" d="M891.3,110h2.5l3.4,8.8c0.7,2,1.2,3.4,1.4,4.3h0.1c0.1-0.5,0.4-1.3,0.8-2.4c0.4-1.2,1.7-4.7,3.8-10.6h2.5
		l-6.6,17.5c-0.7,1.7-1.4,3-2.3,3.7c-0.9,0.7-1.9,1.1-3.2,1.1c-0.7,0-1.4-0.1-2.1-0.2v-1.9c0.5,0.1,1.1,0.2,1.7,0.2
		c1.6,0,2.7-0.9,3.4-2.7l0.9-2.2L891.3,110z"/>
	<path class="st2" d="M913.7,111.9l-0.2-0.3c0.2-0.8,0.5-1.9,1-3.1c0.5-1.3,0.9-2.4,1.5-3.6h1.7c-0.6,2.4-1.1,4.7-1.4,7H913.7z
		 M918.9,111.9l-0.2-0.3c0.5-2,1.4-4.2,2.5-6.7h1.7c-0.3,1.1-0.6,2.3-0.8,3.6c-0.3,1.4-0.5,2.5-0.6,3.4H918.9z"/>
	<path class="st2" d="M932.9,109.7c2,0,3.6,0.7,4.7,2.1c1.1,1.4,1.7,3.3,1.7,5.8c0,2.5-0.6,4.5-1.7,5.9c-1.1,1.4-2.7,2.1-4.7,2.1
		c-1,0-1.9-0.2-2.7-0.6c-0.8-0.4-1.5-0.9-2.1-1.7h-0.2l-0.5,2h-1.7v-21.8h2.3v5.3c0,1.2,0,2.3-0.1,3.2h0.1
		C929.1,110.5,930.7,109.7,932.9,109.7z M932.5,111.7c-1.6,0-2.7,0.5-3.4,1.4s-1.1,2.4-1.1,4.6c0,2.2,0.4,3.7,1.1,4.6
		c0.7,0.9,1.9,1.4,3.5,1.4c1.4,0,2.5-0.5,3.2-1.6c0.7-1,1.1-2.5,1.1-4.5c0-2-0.4-3.5-1.1-4.5C935.1,112.2,934,111.7,932.5,111.7z"/>
	<path class="st2" d="M945.2,104.8l0.2,0.3c-0.2,0.9-0.6,2-1.1,3.3c-0.5,1.2-0.9,2.4-1.4,3.5h-1.7c0.7-2.7,1.1-5,1.4-7H945.2z
		 M950.3,104.8l0.2,0.3c-0.2,0.9-0.6,1.9-1,3.1c-0.4,1.2-0.9,2.4-1.5,3.6h-1.8c0.2-0.9,0.5-2.1,0.8-3.6c0.3-1.4,0.5-2.6,0.6-3.5
		H950.3z"/>
	<path class="st2" d="M963.1,125.3h-2.3v-21.8h2.3V125.3z"/>
	<path class="st2" d="M977.5,125.3l-0.5-2.2h-0.1c-0.8,1-1.5,1.6-2.3,2c-0.8,0.3-1.7,0.5-2.9,0.5c-1.5,0-2.7-0.4-3.6-1.2
		c-0.9-0.8-1.3-1.9-1.3-3.3c0-3.1,2.5-4.7,7.4-4.9l2.6-0.1v-1c0-1.2-0.3-2.1-0.8-2.7c-0.5-0.6-1.3-0.9-2.5-0.9
		c-1.3,0-2.7,0.4-4.3,1.2l-0.7-1.8c0.8-0.4,1.6-0.7,2.5-1s1.8-0.4,2.7-0.4c1.8,0,3.2,0.4,4.1,1.2c0.9,0.8,1.3,2.1,1.3,3.9v10.5
		H977.5z M972.3,123.7c1.4,0,2.6-0.4,3.4-1.2c0.8-0.8,1.2-1.9,1.2-3.3v-1.4l-2.3,0.1c-1.8,0.1-3.2,0.4-4,0.9
		c-0.8,0.5-1.2,1.3-1.2,2.4c0,0.8,0.3,1.5,0.8,1.9C970.6,123.5,971.3,123.7,972.3,123.7z"/>
	<path class="st2" d="M1001.4,121.1c0,1.4-0.5,2.5-1.6,3.3c-1.1,0.8-2.6,1.2-4.5,1.2c-2,0-3.6-0.3-4.8-1v-2.2
		c0.7,0.4,1.5,0.7,2.4,0.9c0.8,0.2,1.7,0.3,2.4,0.3c1.2,0,2.1-0.2,2.8-0.6c0.7-0.4,1-1,1-1.8c0-0.6-0.3-1.1-0.8-1.5
		c-0.5-0.4-1.5-0.9-3-1.5c-1.4-0.5-2.4-1-3-1.4c-0.6-0.4-1.1-0.8-1.3-1.4c-0.3-0.5-0.4-1.1-0.4-1.8c0-1.3,0.5-2.2,1.5-3
		c1-0.7,2.4-1.1,4.2-1.1c1.7,0,3.3,0.3,4.8,1l-0.8,1.9c-1.5-0.6-2.9-1-4.2-1c-1.1,0-1.9,0.2-2.5,0.5s-0.8,0.8-0.8,1.4
		c0,0.4,0.1,0.8,0.3,1.1s0.5,0.6,1,0.8s1.4,0.6,2.7,1.1c1.8,0.7,3.1,1.3,3.7,2C1001.1,119.3,1001.4,120.1,1001.4,121.1z"/>
	<path class="st2" d="M1011.7,125.6c-2.3,0-4.1-0.7-5.4-2.1s-2-3.3-2-5.8c0-2.5,0.6-4.4,1.8-5.9s2.9-2.2,4.9-2.2
		c1.9,0,3.4,0.6,4.6,1.9c1.1,1.3,1.7,2.9,1.7,5v1.5h-10.6c0,1.8,0.5,3.2,1.4,4.1c0.9,0.9,2.1,1.4,3.6,1.4c1.7,0,3.3-0.3,4.9-1v2.1
		c-0.8,0.4-1.6,0.6-2.3,0.8C1013.6,125.5,1012.7,125.6,1011.7,125.6z M1011,111.6c-1.2,0-2.2,0.4-2.9,1.2c-0.7,0.8-1.2,1.9-1.3,3.3
		h8c0-1.5-0.3-2.6-1-3.4C1013.2,112,1012.2,111.6,1011,111.6z"/>
	<path class="st2" d="M1033.8,110v1.5l-2.8,0.3c0.3,0.3,0.5,0.8,0.7,1.3c0.2,0.5,0.3,1.1,0.3,1.8c0,1.5-0.5,2.7-1.5,3.6
		s-2.4,1.3-4.2,1.3c-0.5,0-0.9,0-1.3-0.1c-1,0.5-1.5,1.2-1.5,2c0,0.4,0.2,0.7,0.5,0.9c0.3,0.2,0.9,0.3,1.8,0.3h2.7
		c1.7,0,2.9,0.4,3.8,1.1c0.9,0.7,1.3,1.7,1.3,3.1c0,1.7-0.7,3-2,3.9c-1.4,0.9-3.4,1.3-6,1.3c-2,0-3.6-0.4-4.6-1.1
		c-1.1-0.7-1.6-1.8-1.6-3.2c0-0.9,0.3-1.7,0.9-2.4c0.6-0.7,1.4-1.1,2.5-1.4c-0.4-0.2-0.7-0.5-1-0.8c-0.3-0.4-0.4-0.8-0.4-1.3
		c0-0.6,0.1-1.1,0.4-1.5c0.3-0.4,0.8-0.8,1.4-1.2c-0.8-0.3-1.4-0.9-1.9-1.7c-0.5-0.8-0.8-1.7-0.8-2.7c0-1.7,0.5-3,1.5-3.9
		c1-0.9,2.4-1.4,4.3-1.4c0.8,0,1.5,0.1,2.2,0.3H1033.8z M1021.6,127.9c0,0.8,0.3,1.5,1.1,1.9c0.7,0.4,1.7,0.6,3,0.6
		c2,0,3.4-0.3,4.3-0.9c0.9-0.6,1.4-1.4,1.4-2.4c0-0.8-0.3-1.4-0.8-1.7c-0.5-0.3-1.5-0.5-2.9-0.5h-2.8c-1.1,0-1.9,0.3-2.5,0.8
		C1021.9,126.2,1021.6,127,1021.6,127.9z M1022.8,114.9c0,1.1,0.3,1.9,0.9,2.4c0.6,0.6,1.5,0.8,2.5,0.8c2.3,0,3.4-1.1,3.4-3.3
		c0-2.3-1.1-3.5-3.4-3.5c-1.1,0-1.9,0.3-2.5,0.9C1023.1,112.9,1022.8,113.7,1022.8,114.9z"/>
	<path class="st2" d="M1039.2,110v10c0,1.3,0.3,2.2,0.9,2.8c0.6,0.6,1.5,0.9,2.7,0.9c1.6,0,2.8-0.4,3.5-1.3c0.7-0.9,1.1-2.3,1.1-4.3
		V110h2.3v15.4h-1.9l-0.3-2.1h-0.1c-0.5,0.8-1.1,1.3-2,1.7c-0.8,0.4-1.8,0.6-2.9,0.6c-1.9,0-3.3-0.4-4.2-1.3
		c-0.9-0.9-1.4-2.3-1.4-4.3v-10H1039.2z"/>
	<path class="st2" d="M1065.1,125.3v-9.9c0-1.3-0.3-2.2-0.9-2.8c-0.6-0.6-1.5-0.9-2.7-0.9c-1.6,0-2.8,0.4-3.5,1.3
		c-0.7,0.9-1.1,2.3-1.1,4.3v8.1h-2.3V110h1.9l0.4,2.1h0.1c0.5-0.8,1.1-1.3,2-1.8s1.8-0.6,2.9-0.6c1.8,0,3.2,0.4,4.2,1.3
		c0.9,0.9,1.4,2.3,1.4,4.3v10H1065.1z"/>
	<path class="st2" d="M1082.6,123.3h-0.1c-1.1,1.6-2.7,2.3-4.8,2.3c-2,0-3.6-0.7-4.7-2.1c-1.1-1.4-1.7-3.3-1.7-5.9
		c0-2.5,0.6-4.5,1.7-5.9c1.1-1.4,2.7-2.1,4.7-2.1c2.1,0,3.7,0.8,4.8,2.3h0.2l-0.1-1.1l-0.1-1.1v-6.2h2.3v21.8h-1.9L1082.6,123.3z
		 M1078,123.7c1.6,0,2.7-0.4,3.5-1.3c0.7-0.9,1.1-2.3,1.1-4.2v-0.5c0-2.2-0.4-3.7-1.1-4.7c-0.7-0.9-1.9-1.4-3.5-1.4
		c-1.4,0-2.4,0.5-3.1,1.6s-1.1,2.6-1.1,4.5c0,2,0.4,3.4,1.1,4.4C1075.5,123.2,1076.6,123.7,1078,123.7z"/>
	<path class="st2" d="M1099.2,125.3l-0.5-2.2h-0.1c-0.8,1-1.5,1.6-2.3,2c-0.8,0.3-1.7,0.5-2.9,0.5c-1.5,0-2.7-0.4-3.6-1.2
		c-0.9-0.8-1.3-1.9-1.3-3.3c0-3.1,2.5-4.7,7.4-4.9l2.6-0.1v-1c0-1.2-0.3-2.1-0.8-2.7c-0.5-0.6-1.3-0.9-2.5-0.9
		c-1.3,0-2.7,0.4-4.3,1.2l-0.7-1.8c0.8-0.4,1.6-0.7,2.5-1s1.8-0.4,2.7-0.4c1.8,0,3.2,0.4,4.1,1.2c0.9,0.8,1.3,2.1,1.3,3.9v10.5
		H1099.2z M1094,123.7c1.4,0,2.6-0.4,3.4-1.2c0.8-0.8,1.2-1.9,1.2-3.3v-1.4l-2.3,0.1c-1.8,0.1-3.2,0.4-4,0.9
		c-0.8,0.5-1.2,1.3-1.2,2.4c0,0.8,0.3,1.5,0.8,1.9C1092.3,123.5,1093.1,123.7,1094,123.7z"/>
	<path class="st2" d="M1110.6,117.5c0,2.5-0.4,4.7-1.1,6.9s-1.8,4-3.1,5.5h-2.2c1.3-1.8,2.3-3.7,3-5.8c0.7-2.1,1-4.3,1-6.6
		c0-2.3-0.3-4.5-1-6.7c-0.7-2.2-1.7-4.1-3-5.9h2.3c1.4,1.6,2.4,3.5,3.1,5.7C1110.3,112.7,1110.6,115,1110.6,117.5z"/>
	<path class="st2" d="M1113.9,123.8c0-0.6,0.1-1.1,0.4-1.4s0.7-0.5,1.2-0.5c0.5,0,1,0.2,1.3,0.5c0.3,0.3,0.5,0.8,0.5,1.4
		c0,0.6-0.2,1.1-0.5,1.4c-0.3,0.3-0.7,0.5-1.3,0.5c-0.5,0-0.9-0.1-1.2-0.4C1114,125,1113.9,124.5,1113.9,123.8z"/>
	<path class="st2" d="M467.3,183.7c0-1.1,0.3-2,0.8-2.6s1.3-0.9,2.3-0.9c1,0,1.7,0.3,2.3,0.9c0.5,0.6,0.8,1.4,0.8,2.6
		c0,1.1-0.3,2-0.8,2.6c-0.5,0.6-1.3,0.9-2.3,0.9c-1,0-1.8-0.3-2.3-0.9C467.5,185.6,467.3,184.8,467.3,183.7z"/>
	<path class="st2" d="M525.2,194.2v-20.5h2.4V192h9v2.2H525.2z"/>
	<path class="st2" d="M549.2,194.2l-0.5-2.2h-0.1c-0.8,1-1.5,1.6-2.3,2s-1.7,0.5-2.9,0.5c-1.5,0-2.7-0.4-3.6-1.2
		c-0.9-0.8-1.3-1.9-1.3-3.3c0-3.1,2.5-4.7,7.4-4.9l2.6-0.1v-1c0-1.2-0.3-2.1-0.8-2.7c-0.5-0.6-1.3-0.9-2.5-0.9
		c-1.3,0-2.7,0.4-4.3,1.2l-0.7-1.8c0.8-0.4,1.6-0.7,2.5-1s1.8-0.4,2.7-0.4c1.8,0,3.2,0.4,4.1,1.2c0.9,0.8,1.3,2.1,1.3,3.9v10.5
		H549.2z M543.9,192.5c1.4,0,2.6-0.4,3.4-1.2c0.8-0.8,1.2-1.9,1.2-3.3v-1.4l-2.3,0.1c-1.8,0.1-3.2,0.4-4,0.9
		c-0.8,0.5-1.2,1.3-1.2,2.4c0,0.8,0.3,1.5,0.8,1.9C542.3,192.3,543,192.5,543.9,192.5z"/>
	<path class="st2" d="M582.7,194.2v-10c0-1.2-0.3-2.1-0.8-2.8c-0.5-0.6-1.3-0.9-2.4-0.9c-1.4,0-2.5,0.4-3.2,1.2
		c-0.7,0.8-1,2.1-1,3.8v8.6h-2.3v-10c0-1.2-0.3-2.1-0.8-2.8s-1.3-0.9-2.5-0.9c-1.5,0-2.5,0.4-3.2,1.3c-0.7,0.9-1,2.3-1,4.3v8.1h-2.3
		v-15.4h1.9l0.4,2.1h0.1c0.4-0.7,1.1-1.3,1.9-1.8c0.8-0.4,1.7-0.6,2.7-0.6c2.4,0,4,0.9,4.7,2.6h0.1c0.5-0.8,1.1-1.4,2-1.9
		c0.9-0.5,1.9-0.7,3-0.7c1.7,0,3,0.4,3.9,1.3c0.9,0.9,1.3,2.3,1.3,4.3v10H582.7z"/>
	<path class="st2" d="M599.3,194.2l-0.5-2.2h-0.1c-0.8,1-1.5,1.6-2.3,2c-0.8,0.3-1.7,0.5-2.9,0.5c-1.5,0-2.7-0.4-3.6-1.2
		c-0.9-0.8-1.3-1.9-1.3-3.3c0-3.1,2.5-4.7,7.4-4.9l2.6-0.1v-1c0-1.2-0.3-2.1-0.8-2.7c-0.5-0.6-1.3-0.9-2.5-0.9
		c-1.3,0-2.7,0.4-4.3,1.2l-0.7-1.8c0.8-0.4,1.6-0.7,2.5-1s1.8-0.4,2.7-0.4c1.8,0,3.2,0.4,4.1,1.2c0.9,0.8,1.3,2.1,1.3,3.9v10.5
		H599.3z M594,192.5c1.4,0,2.6-0.4,3.4-1.2c0.8-0.8,1.2-1.9,1.2-3.3v-1.4l-2.3,0.1c-1.8,0.1-3.2,0.4-4,0.9c-0.8,0.5-1.2,1.3-1.2,2.4
		c0,0.8,0.3,1.5,0.8,1.9S593.1,192.5,594,192.5z"/>
	<path class="st2" d="M603.3,178.8h2.5l3.4,8.8c0.7,2,1.2,3.4,1.4,4.3h0.1c0.1-0.5,0.4-1.3,0.8-2.4c0.4-1.2,1.7-4.7,3.8-10.6h2.5
		l-6.6,17.5c-0.7,1.7-1.4,3-2.3,3.7c-0.9,0.7-1.9,1.1-3.2,1.1c-0.7,0-1.4-0.1-2.1-0.2V199c0.5,0.1,1.1,0.2,1.7,0.2
		c1.6,0,2.7-0.9,3.4-2.7l0.9-2.2L603.3,178.8z"/>
	<path class="st2" d="M622.4,178.8v10c0,1.3,0.3,2.2,0.9,2.8c0.6,0.6,1.5,0.9,2.7,0.9c1.6,0,2.8-0.4,3.5-1.3
		c0.7-0.9,1.1-2.3,1.1-4.3v-8.1h2.3v15.4H631l-0.3-2.1h-0.1c-0.5,0.8-1.1,1.3-2,1.7c-0.8,0.4-1.8,0.6-2.9,0.6
		c-1.9,0-3.3-0.4-4.2-1.3c-0.9-0.9-1.4-2.3-1.4-4.3v-10H622.4z M624.9,176.4c0.4-0.6,0.9-1.3,1.4-2.1c0.5-0.8,0.9-1.5,1.2-2.1h2.8
		v0.3c-0.4,0.6-1,1.4-1.8,2.2c-0.8,0.9-1.5,1.6-2.1,2.1h-1.6V176.4z"/>
	<path class="st2" d="M647.7,190c0,1.4-0.5,2.5-1.6,3.3c-1.1,0.8-2.6,1.2-4.5,1.2c-2,0-3.6-0.3-4.8-1v-2.2c0.7,0.4,1.5,0.7,2.4,0.9
		c0.8,0.2,1.7,0.3,2.4,0.3c1.2,0,2.1-0.2,2.8-0.6c0.7-0.4,1-1,1-1.8c0-0.6-0.3-1.1-0.8-1.5c-0.5-0.4-1.5-0.9-3-1.5
		c-1.4-0.5-2.4-1-3-1.4c-0.6-0.4-1.1-0.8-1.3-1.4c-0.3-0.5-0.4-1.1-0.4-1.8c0-1.3,0.5-2.2,1.5-3c1-0.7,2.4-1.1,4.2-1.1
		c1.7,0,3.3,0.3,4.8,1l-0.8,1.9c-1.5-0.6-2.9-1-4.2-1c-1.1,0-1.9,0.2-2.5,0.5s-0.8,0.8-0.8,1.4c0,0.4,0.1,0.8,0.3,1.1s0.5,0.6,1,0.8
		s1.4,0.6,2.7,1.1c1.8,0.7,3.1,1.3,3.7,2C647.4,188.1,647.7,189,647.7,190z"/>
	<path class="st2" d="M657.7,194.5c-2.2,0-3.9-0.7-5.2-2.1s-1.8-3.3-1.8-5.8c0-2.6,0.6-4.6,1.9-6c1.2-1.4,3-2.1,5.3-2.1
		c0.7,0,1.5,0.1,2.2,0.2c0.7,0.2,1.3,0.3,1.7,0.6l-0.7,2c-0.5-0.2-1.1-0.4-1.7-0.5s-1.1-0.2-1.6-0.2c-3.1,0-4.7,2-4.7,6
		c0,1.9,0.4,3.3,1.1,4.3c0.8,1,1.9,1.5,3.4,1.5c1.3,0,2.6-0.3,3.9-0.8v2.1C660.5,194.2,659.2,194.5,657.7,194.5z"/>
	<path class="st2" d="M667.4,178.8v10c0,1.3,0.3,2.2,0.9,2.8c0.6,0.6,1.5,0.9,2.7,0.9c1.6,0,2.8-0.4,3.5-1.3
		c0.7-0.9,1.1-2.3,1.1-4.3v-8.1h2.3v15.4h-1.9l-0.3-2.1h-0.1c-0.5,0.8-1.1,1.3-2,1.7c-0.8,0.4-1.8,0.6-2.9,0.6
		c-1.9,0-3.3-0.4-4.2-1.3c-0.9-0.9-1.4-2.3-1.4-4.3v-10H667.4z"/>
	<path class="st2" d="M685.1,194.2h-2.3v-21.8h2.3V194.2z"/>
	<path class="st2" d="M699.5,194.2L699,192h-0.1c-0.8,1-1.5,1.6-2.3,2c-0.8,0.3-1.7,0.5-2.9,0.5c-1.5,0-2.7-0.4-3.6-1.2
		c-0.9-0.8-1.3-1.9-1.3-3.3c0-3.1,2.5-4.7,7.4-4.9l2.6-0.1v-1c0-1.2-0.3-2.1-0.8-2.7c-0.5-0.6-1.3-0.9-2.5-0.9
		c-1.3,0-2.7,0.4-4.3,1.2l-0.7-1.8c0.8-0.4,1.6-0.7,2.5-1s1.8-0.4,2.7-0.4c1.8,0,3.2,0.4,4.1,1.2c0.9,0.8,1.3,2.1,1.3,3.9v10.5
		H699.5z M694.2,192.5c1.4,0,2.6-0.4,3.4-1.2c0.8-0.8,1.2-1.9,1.2-3.3v-1.4l-2.3,0.1c-1.8,0.1-3.2,0.4-4,0.9
		c-0.8,0.5-1.2,1.3-1.2,2.4c0,0.8,0.3,1.5,0.8,1.9C692.6,192.3,693.3,192.5,694.2,192.5z"/>
	<path class="st2" d="M713.3,174.7c0-0.5,0.1-0.9,0.4-1.2c0.3-0.2,0.6-0.4,1-0.4c0.4,0,0.7,0.1,1,0.4c0.3,0.3,0.4,0.6,0.4,1.2
		s-0.1,0.9-0.4,1.2c-0.3,0.3-0.6,0.4-1,0.4c-0.4,0-0.7-0.1-1-0.4C713.4,175.6,713.3,175.2,713.3,174.7z M715.8,194.2h-2.3v-15.4h2.3
		V194.2z"/>
	<path class="st2" d="M731.2,194.2v-9.9c0-1.3-0.3-2.2-0.9-2.8c-0.6-0.6-1.5-0.9-2.7-0.9c-1.6,0-2.8,0.4-3.5,1.3
		c-0.7,0.9-1.1,2.3-1.1,4.3v8.1h-2.3v-15.4h1.9l0.4,2.1h0.1c0.5-0.8,1.1-1.3,2-1.8s1.8-0.6,2.9-0.6c1.8,0,3.2,0.4,4.2,1.3
		c0.9,0.9,1.4,2.3,1.4,4.3v10H731.2z"/>
	<path class="st2" d="M748.8,192.1h-0.1c-1.1,1.6-2.7,2.3-4.8,2.3c-2,0-3.6-0.7-4.7-2.1c-1.1-1.4-1.7-3.3-1.7-5.9
		c0-2.5,0.6-4.5,1.7-5.9c1.1-1.4,2.7-2.1,4.7-2.1c2.1,0,3.7,0.8,4.8,2.3h0.2l-0.1-1.1l-0.1-1.1v-6.2h2.3v21.8h-1.9L748.8,192.1z
		 M744.1,192.5c1.6,0,2.7-0.4,3.5-1.3c0.7-0.9,1.1-2.3,1.1-4.2v-0.5c0-2.2-0.4-3.7-1.1-4.7c-0.7-0.9-1.9-1.4-3.5-1.4
		c-1.4,0-2.4,0.5-3.1,1.6s-1.1,2.6-1.1,4.5c0,2,0.4,3.4,1.1,4.4C741.7,192,742.7,192.5,744.1,192.5z"/>
	<path class="st2" d="M755.7,174.7c0-0.5,0.1-0.9,0.4-1.2c0.3-0.2,0.6-0.4,1-0.4c0.4,0,0.7,0.1,1,0.4c0.3,0.3,0.4,0.6,0.4,1.2
		s-0.1,0.9-0.4,1.2c-0.3,0.3-0.6,0.4-1,0.4c-0.4,0-0.7-0.1-1-0.4C755.8,175.6,755.7,175.2,755.7,174.7z M758.2,194.2h-2.3v-15.4h2.3
		V194.2z"/>
	<path class="st2" d="M769.3,194.5c-2.2,0-3.9-0.7-5.2-2.1s-1.8-3.3-1.8-5.8c0-2.6,0.6-4.6,1.9-6c1.2-1.4,3-2.1,5.3-2.1
		c0.7,0,1.5,0.1,2.2,0.2c0.7,0.2,1.3,0.3,1.7,0.6l-0.7,2c-0.5-0.2-1.1-0.4-1.7-0.5s-1.1-0.2-1.6-0.2c-3.1,0-4.7,2-4.7,6
		c0,1.9,0.4,3.3,1.1,4.3c0.8,1,1.9,1.5,3.4,1.5c1.3,0,2.6-0.3,3.9-0.8v2.1C772.2,194.2,770.9,194.5,769.3,194.5z"/>
	<path class="st2" d="M786.3,194.2l-0.5-2.2h-0.1c-0.8,1-1.5,1.6-2.3,2c-0.8,0.3-1.7,0.5-2.9,0.5c-1.5,0-2.7-0.4-3.6-1.2
		c-0.9-0.8-1.3-1.9-1.3-3.3c0-3.1,2.5-4.7,7.4-4.9l2.6-0.1v-1c0-1.2-0.3-2.1-0.8-2.7c-0.5-0.6-1.3-0.9-2.5-0.9
		c-1.3,0-2.7,0.4-4.3,1.2l-0.7-1.8c0.8-0.4,1.6-0.7,2.5-1s1.8-0.4,2.7-0.4c1.8,0,3.2,0.4,4.1,1.2c0.9,0.8,1.3,2.1,1.3,3.9v10.5
		H786.3z M781,192.5c1.4,0,2.6-0.4,3.4-1.2c0.8-0.8,1.2-1.9,1.2-3.3v-1.4l-2.3,0.1c-1.8,0.1-3.2,0.4-4,0.9c-0.8,0.5-1.2,1.3-1.2,2.4
		c0,0.8,0.3,1.5,0.8,1.9C779.4,192.3,780.1,192.5,781,192.5z"/>
	<path class="st2" d="M805.7,194.5c-2,0-3.5-0.7-4.6-2.1s-1.7-3.3-1.7-5.8c0-2.5,0.6-4.5,1.7-5.9c1.1-1.4,2.7-2.1,4.7-2.1
		c2.1,0,3.7,0.8,4.8,2.4h0.1l0.3-2.1h1.8v22.2h-2.3v-6.6c0-0.9,0.1-1.7,0.2-2.4h-0.2C809.5,193.7,807.8,194.5,805.7,194.5z
		 M806,192.5c1.5,0,2.7-0.4,3.4-1.2c0.7-0.8,1.1-2.2,1.1-4.2v-0.5c0-2.1-0.4-3.7-1.1-4.6s-1.9-1.4-3.5-1.4c-1.4,0-2.4,0.5-3.1,1.6
		s-1.1,2.6-1.1,4.5s0.4,3.4,1.1,4.4C803.6,192,804.6,192.5,806,192.5z"/>
	<path class="st2" d="M820,178.8v10c0,1.3,0.3,2.2,0.9,2.8c0.6,0.6,1.5,0.9,2.7,0.9c1.6,0,2.8-0.4,3.5-1.3c0.7-0.9,1.1-2.3,1.1-4.3
		v-8.1h2.3v15.4h-1.9l-0.3-2.1h-0.1c-0.5,0.8-1.1,1.3-2,1.7c-0.8,0.4-1.8,0.6-2.9,0.6c-1.9,0-3.3-0.4-4.2-1.3
		c-0.9-0.9-1.4-2.3-1.4-4.3v-10H820z"/>
	<path class="st2" d="M841.9,194.5c-2.3,0-4.1-0.7-5.4-2.1s-2-3.3-2-5.8c0-2.5,0.6-4.4,1.8-5.9s2.9-2.2,4.9-2.2
		c1.9,0,3.4,0.6,4.6,1.9c1.1,1.3,1.7,2.9,1.7,5v1.5H837c0,1.8,0.5,3.2,1.4,4.1c0.9,0.9,2.1,1.4,3.6,1.4c1.7,0,3.3-0.3,4.9-1v2.1
		c-0.8,0.4-1.6,0.6-2.3,0.8C843.8,194.4,843,194.5,841.9,194.5z M841.3,180.5c-1.2,0-2.2,0.4-2.9,1.2c-0.7,0.8-1.2,1.9-1.3,3.3h8
		c0-1.5-0.3-2.6-1-3.4C843.4,180.9,842.5,180.5,841.3,180.5z"/>
	<path class="st2" d="M865.5,194.5c-2.3,0-4.1-0.7-5.4-2.1s-2-3.3-2-5.8c0-2.5,0.6-4.4,1.8-5.9s2.9-2.2,4.9-2.2
		c1.9,0,3.4,0.6,4.6,1.9c1.1,1.3,1.7,2.9,1.7,5v1.5h-10.6c0,1.8,0.5,3.2,1.4,4.1c0.9,0.9,2.1,1.4,3.6,1.4c1.7,0,3.3-0.3,4.9-1v2.1
		c-0.8,0.4-1.6,0.6-2.3,0.8C867.4,194.4,866.5,194.5,865.5,194.5z M864.8,180.5c-1.2,0-2.2,0.4-2.9,1.2c-0.7,0.8-1.2,1.9-1.3,3.3h8
		c0-1.5-0.3-2.6-1-3.4C867,180.9,866,180.5,864.8,180.5z"/>
	<path class="st2" d="M877.4,194.2h-2.3v-21.8h2.3V194.2z"/>
	<path class="st2" d="M894.7,192.5c0.4,0,0.8,0,1.2-0.1s0.7-0.1,0.9-0.2v1.8c-0.3,0.1-0.6,0.2-1.1,0.3c-0.5,0.1-0.9,0.1-1.3,0.1
		c-3,0-4.5-1.6-4.5-4.7v-9.1h-2.2v-1.1l2.2-1l1-3.3h1.3v3.6h4.5v1.8h-4.5v9c0,0.9,0.2,1.6,0.7,2.1
		C893.4,192.3,894,192.5,894.7,192.5z"/>
	<path class="st2" d="M906.4,194.5c-2.3,0-4.1-0.7-5.4-2.1s-2-3.3-2-5.8c0-2.5,0.6-4.4,1.8-5.9s2.9-2.2,4.9-2.2
		c1.9,0,3.4,0.6,4.6,1.9c1.1,1.3,1.7,2.9,1.7,5v1.5h-10.6c0,1.8,0.5,3.2,1.4,4.1c0.9,0.9,2.1,1.4,3.6,1.4c1.7,0,3.3-0.3,4.9-1v2.1
		c-0.8,0.4-1.6,0.6-2.3,0.8C908.3,194.4,907.4,194.5,906.4,194.5z M905.8,180.5c-1.2,0-2.2,0.4-2.9,1.2c-0.7,0.8-1.2,1.9-1.3,3.3h8
		c0-1.5-0.3-2.6-1-3.4C907.9,180.9,907,180.5,905.8,180.5z"/>
	<path class="st2" d="M919.7,186.3l-5.3-7.5h2.6l4,5.9l4-5.9h2.6l-5.3,7.5l5.6,7.9h-2.6l-4.3-6.2l-4.3,6.2h-2.6L919.7,186.3z"/>
	<path class="st2" d="M936,192.5c0.4,0,0.8,0,1.2-0.1s0.7-0.1,0.9-0.2v1.8c-0.3,0.1-0.6,0.2-1.1,0.3c-0.5,0.1-0.9,0.1-1.3,0.1
		c-3,0-4.5-1.6-4.5-4.7v-9.1H929v-1.1l2.2-1l1-3.3h1.3v3.6h4.5v1.8h-4.5v9c0,0.9,0.2,1.6,0.7,2.1C934.6,192.3,935.2,192.5,936,192.5
		z"/>
	<path class="st2" d="M954.4,186.5c0,2.5-0.6,4.5-1.9,5.9s-3,2.1-5.2,2.1c-1.4,0-2.6-0.3-3.7-1s-1.9-1.6-2.5-2.8
		c-0.6-1.2-0.9-2.6-0.9-4.2c0-2.5,0.6-4.5,1.9-5.8c1.3-1.4,3-2.1,5.2-2.1c2.1,0,3.9,0.7,5.1,2.1
		C953.8,182.1,954.4,184.1,954.4,186.5z M942.7,186.5c0,2,0.4,3.5,1.2,4.5s1.9,1.5,3.5,1.5s2.7-0.5,3.5-1.5c0.8-1,1.2-2.5,1.2-4.5
		c0-2-0.4-3.4-1.2-4.4c-0.8-1-2-1.5-3.5-1.5c-1.5,0-2.7,0.5-3.4,1.5C943.1,183,942.7,184.5,942.7,186.5z"/>
	<path class="st2" d="M975.9,190c0,1.4-0.5,2.5-1.6,3.3c-1.1,0.8-2.6,1.2-4.5,1.2c-2,0-3.6-0.3-4.8-1v-2.2c0.7,0.4,1.5,0.7,2.4,0.9
		c0.8,0.2,1.7,0.3,2.4,0.3c1.2,0,2.1-0.2,2.8-0.6c0.7-0.4,1-1,1-1.8c0-0.6-0.3-1.1-0.8-1.5c-0.5-0.4-1.5-0.9-3-1.5
		c-1.4-0.5-2.4-1-3-1.4c-0.6-0.4-1.1-0.8-1.3-1.4c-0.3-0.5-0.4-1.1-0.4-1.8c0-1.3,0.5-2.2,1.5-3c1-0.7,2.4-1.1,4.2-1.1
		c1.7,0,3.3,0.3,4.8,1l-0.8,1.9c-1.5-0.6-2.9-1-4.2-1c-1.1,0-1.9,0.2-2.5,0.5s-0.8,0.8-0.8,1.4c0,0.4,0.1,0.8,0.3,1.1s0.5,0.6,1,0.8
		s1.4,0.6,2.7,1.1c1.8,0.7,3.1,1.3,3.7,2C975.5,188.1,975.9,189,975.9,190z"/>
	<path class="st2" d="M986.1,194.5c-2.3,0-4.1-0.7-5.4-2.1s-2-3.3-2-5.8c0-2.5,0.6-4.4,1.8-5.9s2.9-2.2,4.9-2.2
		c1.9,0,3.4,0.6,4.6,1.9c1.1,1.3,1.7,2.9,1.7,5v1.5h-10.6c0,1.8,0.5,3.2,1.4,4.1c0.9,0.9,2.1,1.4,3.6,1.4c1.7,0,3.3-0.3,4.9-1v2.1
		c-0.8,0.4-1.6,0.6-2.3,0.8C988,194.4,987.2,194.5,986.1,194.5z M985.5,180.5c-1.2,0-2.2,0.4-2.9,1.2c-0.7,0.8-1.2,1.9-1.3,3.3h8
		c0-1.5-0.3-2.6-1-3.4C987.6,180.9,986.7,180.5,985.5,180.5z"/>
	<path class="st2" d="M1010.2,178.5c0.7,0,1.3,0.1,1.8,0.2l-0.3,2.2c-0.6-0.1-1.2-0.2-1.7-0.2c-1.2,0-2.3,0.5-3.2,1.5
		c-0.9,1-1.3,2.3-1.3,3.8v8.2h-2.3v-15.4h1.9l0.3,2.8h0.1c0.6-1,1.3-1.8,2.1-2.3C1008.3,178.8,1009.2,178.5,1010.2,178.5z"/>
	<path class="st2" d="M1021.4,194.5c-2.3,0-4.1-0.7-5.4-2.1s-2-3.3-2-5.8c0-2.5,0.6-4.4,1.8-5.9s2.9-2.2,4.9-2.2
		c1.9,0,3.4,0.6,4.6,1.9c1.1,1.3,1.7,2.9,1.7,5v1.5h-10.6c0,1.8,0.5,3.2,1.4,4.1c0.9,0.9,2.1,1.4,3.6,1.4c1.7,0,3.3-0.3,4.9-1v2.1
		c-0.8,0.4-1.6,0.6-2.3,0.8C1023.3,194.4,1022.4,194.5,1021.4,194.5z M1020.8,180.5c-1.2,0-2.2,0.4-2.9,1.2
		c-0.7,0.8-1.2,1.9-1.3,3.3h8c0-1.5-0.3-2.6-1-3.4C1022.9,180.9,1022,180.5,1020.8,180.5z"/>
	<path class="st2" d="M1038.1,194.5c-1,0-1.9-0.2-2.7-0.6c-0.8-0.4-1.5-0.9-2.1-1.7h-0.2c0.1,0.9,0.2,1.7,0.2,2.5v6.3h-2.3v-22.2
		h1.9l0.3,2.1h0.1c0.6-0.8,1.3-1.4,2.1-1.8c0.8-0.4,1.7-0.6,2.7-0.6c2,0,3.6,0.7,4.7,2.1s1.7,3.3,1.7,5.9c0,2.5-0.6,4.5-1.7,5.9
		C1041.7,193.8,1040.1,194.5,1038.1,194.5z M1037.8,180.5c-1.6,0-2.7,0.4-3.4,1.3c-0.7,0.9-1.1,2.3-1.1,4.1v0.5
		c0,2.2,0.4,3.7,1.1,4.6c0.7,0.9,1.9,1.4,3.5,1.4c1.3,0,2.4-0.5,3.1-1.6c0.8-1.1,1.1-2.6,1.1-4.4c0-1.9-0.4-3.4-1.1-4.4
		C1040.2,181,1039.2,180.5,1037.8,180.5z"/>
	<path class="st2" d="M1048.4,174.7c0-0.5,0.1-0.9,0.4-1.2c0.3-0.2,0.6-0.4,1-0.4c0.4,0,0.7,0.1,1,0.4c0.3,0.3,0.4,0.6,0.4,1.2
		s-0.1,0.9-0.4,1.2c-0.3,0.3-0.6,0.4-1,0.4c-0.4,0-0.7-0.1-1-0.4C1048.5,175.6,1048.4,175.2,1048.4,174.7z M1050.9,194.2h-2.3v-15.4
		h2.3V194.2z"/>
	<path class="st2" d="M1060.8,192.5c0.4,0,0.8,0,1.2-0.1s0.7-0.1,0.9-0.2v1.8c-0.3,0.1-0.6,0.2-1.1,0.3c-0.5,0.1-0.9,0.1-1.3,0.1
		c-3,0-4.5-1.6-4.5-4.7v-9.1h-2.2v-1.1l2.2-1l1-3.3h1.3v3.6h4.5v1.8h-4.5v9c0,0.9,0.2,1.6,0.7,2.1
		C1059.4,192.3,1060,192.5,1060.8,192.5z"/>
	<path class="st2" d="M1072.5,194.5c-2.3,0-4.1-0.7-5.4-2.1s-2-3.3-2-5.8c0-2.5,0.6-4.4,1.8-5.9s2.9-2.2,4.9-2.2
		c1.9,0,3.4,0.6,4.6,1.9c1.1,1.3,1.7,2.9,1.7,5v1.5h-10.6c0,1.8,0.5,3.2,1.4,4.1c0.9,0.9,2.1,1.4,3.6,1.4c1.7,0,3.3-0.3,4.9-1v2.1
		c-0.8,0.4-1.6,0.6-2.3,0.8C1074.4,194.4,1073.5,194.5,1072.5,194.5z M1071.8,180.5c-1.2,0-2.2,0.4-2.9,1.2
		c-0.7,0.8-1.2,1.9-1.3,3.3h8c0-1.5-0.3-2.6-1-3.4C1074,180.9,1073,180.5,1071.8,180.5z"/>
	<path class="st2" d="M524.6,209.1c0-0.5,0.1-0.9,0.4-1.2c0.3-0.2,0.6-0.4,1-0.4c0.4,0,0.7,0.1,1,0.4c0.3,0.3,0.4,0.6,0.4,1.2
		s-0.1,0.9-0.4,1.2s-0.6,0.4-1,0.4c-0.4,0-0.7-0.1-1-0.4S524.6,209.6,524.6,209.1z M527.2,228.6h-2.3v-15.4h2.3V228.6z"/>
	<path class="st2" d="M544.7,213.3v1.5l-2.8,0.3c0.3,0.3,0.5,0.8,0.7,1.3c0.2,0.5,0.3,1.1,0.3,1.8c0,1.5-0.5,2.7-1.5,3.6
		c-1,0.9-2.4,1.3-4.2,1.3c-0.5,0-0.9,0-1.3-0.1c-1,0.5-1.5,1.2-1.5,2c0,0.4,0.2,0.7,0.5,0.9c0.3,0.2,0.9,0.3,1.8,0.3h2.7
		c1.7,0,2.9,0.4,3.8,1.1c0.9,0.7,1.3,1.7,1.3,3.1c0,1.7-0.7,3-2,3.9c-1.4,0.9-3.4,1.3-6,1.3c-2,0-3.6-0.4-4.6-1.1
		c-1.1-0.7-1.6-1.8-1.6-3.2c0-0.9,0.3-1.7,0.9-2.4s1.4-1.1,2.5-1.4c-0.4-0.2-0.7-0.5-1-0.8s-0.4-0.8-0.4-1.3c0-0.6,0.1-1.1,0.4-1.5
		s0.8-0.8,1.4-1.2c-0.8-0.3-1.4-0.9-1.9-1.7c-0.5-0.8-0.7-1.7-0.7-2.7c0-1.7,0.5-3,1.5-3.9c1-0.9,2.4-1.4,4.3-1.4
		c0.8,0,1.5,0.1,2.2,0.3H544.7z M532.4,231.2c0,0.8,0.4,1.5,1.1,1.9c0.7,0.4,1.7,0.6,3,0.6c2,0,3.4-0.3,4.3-0.9
		c0.9-0.6,1.4-1.4,1.4-2.4c0-0.8-0.3-1.4-0.8-1.7c-0.5-0.3-1.5-0.5-2.9-0.5h-2.8c-1.1,0-1.9,0.3-2.5,0.8S532.4,230.2,532.4,231.2z
		 M533.7,218.2c0,1.1,0.3,1.9,0.9,2.4c0.6,0.6,1.5,0.8,2.5,0.8c2.3,0,3.4-1.1,3.4-3.3c0-2.3-1.1-3.5-3.4-3.5c-1.1,0-1.9,0.3-2.5,0.9
		S533.7,217,533.7,218.2z"/>
	<path class="st2" d="M550,213.3v10c0,1.3,0.3,2.2,0.9,2.8c0.6,0.6,1.5,0.9,2.7,0.9c1.6,0,2.8-0.4,3.5-1.3s1.1-2.3,1.1-4.3v-8.1h2.3
		v15.4h-1.9l-0.3-2.1h-0.1c-0.5,0.8-1.1,1.3-2,1.7s-1.8,0.6-2.9,0.6c-1.9,0-3.3-0.4-4.2-1.3c-0.9-0.9-1.4-2.3-1.4-4.3v-10H550z"/>
	<path class="st2" d="M574.9,228.6l-0.5-2.2h-0.1c-0.8,1-1.5,1.6-2.3,2s-1.7,0.5-2.9,0.5c-1.5,0-2.7-0.4-3.6-1.2
		c-0.9-0.8-1.3-1.9-1.3-3.3c0-3.1,2.5-4.7,7.4-4.9l2.6-0.1v-1c0-1.2-0.3-2.1-0.8-2.7c-0.5-0.6-1.3-0.9-2.5-0.9
		c-1.3,0-2.7,0.4-4.3,1.2l-0.7-1.8c0.8-0.4,1.6-0.7,2.5-1s1.8-0.4,2.7-0.4c1.8,0,3.2,0.4,4.1,1.2c0.9,0.8,1.3,2.1,1.3,3.9v10.5
		H574.9z M569.6,227c1.4,0,2.6-0.4,3.4-1.2c0.8-0.8,1.2-1.9,1.2-3.3v-1.4l-2.3,0.1c-1.8,0.1-3.2,0.4-4,0.9c-0.8,0.5-1.2,1.3-1.2,2.4
		c0,0.8,0.3,1.5,0.8,1.9C568,226.8,568.7,227,569.6,227z"/>
	<path class="st2" d="M583.7,228.6h-2.3v-21.8h2.3V228.6z"/>
	<path class="st2" d="M601.5,228.9c-2,0-3.5-0.7-4.6-2.1s-1.7-3.3-1.7-5.8c0-2.5,0.6-4.5,1.7-5.9c1.1-1.4,2.7-2.1,4.7-2.1
		c2.1,0,3.7,0.8,4.8,2.4h0.1l0.3-2.1h1.8v22.2h-2.3v-6.6c0-0.9,0.1-1.7,0.2-2.4h-0.2C605.3,228.1,603.7,228.9,601.5,228.9z
		 M601.9,226.9c1.5,0,2.7-0.4,3.4-1.2c0.7-0.8,1.1-2.2,1.1-4.2V221c0-2.1-0.4-3.7-1.1-4.6s-1.9-1.4-3.5-1.4c-1.4,0-2.4,0.5-3.1,1.6
		s-1.1,2.6-1.1,4.5s0.4,3.4,1.1,4.4C599.4,226.4,600.5,226.9,601.9,226.9z"/>
	<path class="st2" d="M615.8,213.3v10c0,1.3,0.3,2.2,0.9,2.8c0.6,0.6,1.5,0.9,2.7,0.9c1.6,0,2.8-0.4,3.5-1.3
		c0.7-0.9,1.1-2.3,1.1-4.3v-8.1h2.3v15.4h-1.9l-0.3-2.1H624c-0.5,0.8-1.1,1.3-2,1.7c-0.8,0.4-1.8,0.6-2.9,0.6
		c-1.9,0-3.3-0.4-4.2-1.3c-0.9-0.9-1.4-2.3-1.4-4.3v-10H615.8z"/>
	<path class="st2" d="M637.8,228.9c-2.3,0-4.1-0.7-5.4-2.1s-2-3.3-2-5.8c0-2.5,0.6-4.4,1.8-5.9s2.9-2.2,4.9-2.2
		c1.9,0,3.4,0.6,4.6,1.9c1.1,1.3,1.7,2.9,1.7,5v1.5h-10.6c0,1.8,0.5,3.2,1.4,4.1c0.9,0.9,2.1,1.4,3.6,1.4c1.7,0,3.3-0.3,4.9-1v2.1
		c-0.8,0.4-1.6,0.6-2.3,0.8C639.7,228.8,638.8,228.9,637.8,228.9z M637.1,214.9c-1.2,0-2.2,0.4-2.9,1.2c-0.7,0.8-1.2,1.9-1.3,3.3h8
		c0-1.5-0.3-2.6-1-3.4C639.3,215.3,638.3,214.9,637.1,214.9z"/>
	<path class="st2" d="M668.1,220.9c0,2.5-0.6,4.5-1.9,5.9s-3,2.1-5.2,2.1c-1.4,0-2.6-0.3-3.7-1s-1.9-1.6-2.5-2.8
		c-0.6-1.2-0.9-2.6-0.9-4.2c0-2.5,0.6-4.5,1.9-5.8c1.3-1.4,3-2.1,5.2-2.1c2.1,0,3.9,0.7,5.1,2.1
		C667.4,216.5,668.1,218.5,668.1,220.9z M656.4,220.9c0,2,0.4,3.5,1.2,4.5s1.9,1.5,3.5,1.5s2.7-0.5,3.5-1.5c0.8-1,1.2-2.5,1.2-4.5
		c0-2-0.4-3.4-1.2-4.4c-0.8-1-2-1.5-3.5-1.5c-1.5,0-2.7,0.5-3.4,1.5C656.8,217.4,656.4,218.9,656.4,220.9z"/>
	<path class="st2" d="M677.1,227c0.4,0,0.8,0,1.2-0.1s0.7-0.1,0.9-0.2v1.8c-0.3,0.1-0.6,0.2-1.1,0.3c-0.5,0.1-0.9,0.1-1.3,0.1
		c-3,0-4.5-1.6-4.5-4.7v-9.1h-2.2v-1.1l2.2-1l1-3.3h1.3v3.6h4.5v1.8h-4.5v9c0,0.9,0.2,1.6,0.7,2.1C675.7,226.7,676.3,227,677.1,227z
		"/>
	<path class="st2" d="M689.3,213c0.7,0,1.3,0.1,1.8,0.2l-0.3,2.2c-0.6-0.1-1.2-0.2-1.7-0.2c-1.2,0-2.3,0.5-3.2,1.5
		c-0.9,1-1.3,2.3-1.3,3.8v8.2h-2.3v-15.4h1.9l0.3,2.8h0.1c0.6-1,1.3-1.8,2.1-2.3C687.4,213.2,688.3,213,689.3,213z"/>
	<path class="st2" d="M703.4,228.6l-0.5-2.2h-0.1c-0.8,1-1.5,1.6-2.3,2c-0.8,0.3-1.7,0.5-2.9,0.5c-1.5,0-2.7-0.4-3.6-1.2
		c-0.9-0.8-1.3-1.9-1.3-3.3c0-3.1,2.5-4.7,7.4-4.9l2.6-0.1v-1c0-1.2-0.3-2.1-0.8-2.7c-0.5-0.6-1.3-0.9-2.5-0.9
		c-1.3,0-2.7,0.4-4.3,1.2l-0.7-1.8c0.8-0.4,1.6-0.7,2.5-1s1.8-0.4,2.7-0.4c1.8,0,3.2,0.4,4.1,1.2c0.9,0.8,1.3,2.1,1.3,3.9v10.5
		H703.4z M698.2,227c1.4,0,2.6-0.4,3.4-1.2c0.8-0.8,1.2-1.9,1.2-3.3v-1.4l-2.3,0.1c-1.8,0.1-3.2,0.4-4,0.9c-0.8,0.5-1.2,1.3-1.2,2.4
		c0,0.8,0.3,1.5,0.8,1.9C696.6,226.8,697.3,227,698.2,227z"/>
	<path class="st2" d="M727.3,224.4c0,1.4-0.5,2.5-1.6,3.3c-1.1,0.8-2.6,1.2-4.5,1.2c-2,0-3.6-0.3-4.8-1v-2.2
		c0.7,0.4,1.5,0.7,2.4,0.9c0.8,0.2,1.7,0.3,2.4,0.3c1.2,0,2.1-0.2,2.8-0.6c0.7-0.4,1-1,1-1.8c0-0.6-0.3-1.1-0.8-1.5
		c-0.5-0.4-1.5-0.9-3-1.5c-1.4-0.5-2.4-1-3-1.4c-0.6-0.4-1.1-0.8-1.3-1.4c-0.3-0.5-0.4-1.1-0.4-1.8c0-1.3,0.5-2.2,1.5-3
		c1-0.7,2.4-1.1,4.2-1.1c1.7,0,3.3,0.3,4.8,1l-0.8,1.9c-1.5-0.6-2.9-1-4.2-1c-1.1,0-1.9,0.2-2.5,0.5s-0.8,0.8-0.8,1.4
		c0,0.4,0.1,0.8,0.3,1.1s0.5,0.6,1,0.8s1.4,0.6,2.7,1.1c1.8,0.7,3.1,1.3,3.7,2C727,222.6,727.3,223.4,727.3,224.4z"/>
	<path class="st2" d="M737.6,228.9c-2.3,0-4.1-0.7-5.4-2.1s-2-3.3-2-5.8c0-2.5,0.6-4.4,1.8-5.9s2.9-2.2,4.9-2.2
		c1.9,0,3.4,0.6,4.6,1.9c1.1,1.3,1.7,2.9,1.7,5v1.5h-10.6c0,1.8,0.5,3.2,1.4,4.1c0.9,0.9,2.1,1.4,3.6,1.4c1.7,0,3.3-0.3,4.9-1v2.1
		c-0.8,0.4-1.6,0.6-2.3,0.8C739.5,228.8,738.6,228.9,737.6,228.9z M736.9,214.9c-1.2,0-2.2,0.4-2.9,1.2c-0.7,0.8-1.2,1.9-1.3,3.3h8
		c0-1.5-0.3-2.6-1-3.4C739.1,215.3,738.2,214.9,736.9,214.9z"/>
	<path class="st2" d="M753.3,228.9c-2.2,0-3.9-0.7-5.2-2.1s-1.8-3.3-1.8-5.8c0-2.6,0.6-4.6,1.9-6c1.2-1.4,3-2.1,5.3-2.1
		c0.7,0,1.5,0.1,2.2,0.2c0.7,0.2,1.3,0.3,1.7,0.6l-0.7,2c-0.5-0.2-1.1-0.4-1.7-0.5s-1.1-0.2-1.6-0.2c-3.1,0-4.7,2-4.7,6
		c0,1.9,0.4,3.3,1.1,4.3c0.8,1,1.9,1.5,3.4,1.5c1.3,0,2.6-0.3,3.9-0.8v2.1C756.2,228.6,754.9,228.9,753.3,228.9z"/>
	<path class="st2" d="M767,228.9c-2.2,0-3.9-0.7-5.2-2.1s-1.8-3.3-1.8-5.8c0-2.6,0.6-4.6,1.9-6c1.2-1.4,3-2.1,5.3-2.1
		c0.7,0,1.5,0.1,2.2,0.2c0.7,0.2,1.3,0.3,1.7,0.6l-0.7,2c-0.5-0.2-1.1-0.4-1.7-0.5s-1.1-0.2-1.6-0.2c-3.1,0-4.7,2-4.7,6
		c0,1.9,0.4,3.3,1.1,4.3c0.8,1,1.9,1.5,3.4,1.5c1.3,0,2.6-0.3,3.9-0.8v2.1C769.8,228.6,768.5,228.9,767,228.9z"/>
	<path class="st2" d="M774.3,209.1c0-0.5,0.1-0.9,0.4-1.2c0.3-0.2,0.6-0.4,1-0.4c0.4,0,0.7,0.1,1,0.4c0.3,0.3,0.4,0.6,0.4,1.2
		s-0.1,0.9-0.4,1.2c-0.3,0.3-0.6,0.4-1,0.4c-0.4,0-0.7-0.1-1-0.4C774.4,210,774.3,209.6,774.3,209.1z M776.8,228.6h-2.3v-15.4h2.3
		V228.6z"/>
	<path class="st2" d="M795,220.9c0,2.5-0.6,4.5-1.9,5.9s-3,2.1-5.2,2.1c-1.4,0-2.6-0.3-3.7-1s-1.9-1.6-2.5-2.8
		c-0.6-1.2-0.9-2.6-0.9-4.2c0-2.5,0.6-4.5,1.9-5.8c1.3-1.4,3-2.1,5.2-2.1c2.1,0,3.9,0.7,5.1,2.1C794.4,216.5,795,218.5,795,220.9z
		 M783.3,220.9c0,2,0.4,3.5,1.2,4.5s1.9,1.5,3.5,1.5s2.7-0.5,3.5-1.5c0.8-1,1.2-2.5,1.2-4.5c0-2-0.4-3.4-1.2-4.4
		c-0.8-1-2-1.5-3.5-1.5c-1.5,0-2.7,0.5-3.4,1.5C783.7,217.4,783.3,218.9,783.3,220.9z M786,210.9c0.4-0.6,0.9-1.3,1.5-2.1
		s0.9-1.5,1.2-2.1h2.8v0.3c-0.4,0.6-1,1.4-1.8,2.2c-0.8,0.9-1.5,1.6-2.1,2.1H786V210.9z"/>
	<path class="st2" d="M809.6,228.6v-9.9c0-1.3-0.3-2.2-0.9-2.8c-0.6-0.6-1.5-0.9-2.7-0.9c-1.6,0-2.8,0.4-3.5,1.3
		c-0.7,0.9-1.1,2.3-1.1,4.3v8.1h-2.3v-15.4h1.9l0.4,2.1h0.1c0.5-0.8,1.1-1.3,2-1.8s1.8-0.6,2.9-0.6c1.8,0,3.2,0.4,4.2,1.3
		c0.9,0.9,1.4,2.3,1.4,4.3v10H809.6z"/>
	<path class="st2" d="M834.6,226.5h-0.1c-1.1,1.6-2.7,2.3-4.8,2.3c-2,0-3.6-0.7-4.7-2.1c-1.1-1.4-1.7-3.3-1.7-5.9
		c0-2.5,0.6-4.5,1.7-5.9c1.1-1.4,2.7-2.1,4.7-2.1c2.1,0,3.7,0.8,4.8,2.3h0.2l-0.1-1.1l-0.1-1.1v-6.2h2.3v21.8h-1.9L834.6,226.5z
		 M830,226.9c1.6,0,2.7-0.4,3.5-1.3c0.7-0.9,1.1-2.3,1.1-4.2V221c0-2.2-0.4-3.7-1.1-4.7c-0.7-0.9-1.9-1.4-3.5-1.4
		c-1.4,0-2.4,0.5-3.1,1.6s-1.1,2.6-1.1,4.5c0,2,0.4,3.4,1.1,4.4C827.5,226.4,828.6,226.9,830,226.9z"/>
	<path class="st2" d="M848.2,228.9c-2.3,0-4.1-0.7-5.4-2.1s-2-3.3-2-5.8c0-2.5,0.6-4.4,1.8-5.9s2.9-2.2,4.9-2.2
		c1.9,0,3.4,0.6,4.6,1.9c1.1,1.3,1.7,2.9,1.7,5v1.5h-10.6c0,1.8,0.5,3.2,1.4,4.1c0.9,0.9,2.1,1.4,3.6,1.4c1.7,0,3.3-0.3,4.9-1v2.1
		c-0.8,0.4-1.6,0.6-2.3,0.8C850.1,228.8,849.3,228.9,848.2,228.9z M847.6,214.9c-1.2,0-2.2,0.4-2.9,1.2c-0.7,0.8-1.2,1.9-1.3,3.3h8
		c0-1.5-0.3-2.6-1-3.4C849.7,215.3,848.8,214.9,847.6,214.9z"/>
	<path class="st2" d="M868.3,228.6v-9.9c0-1.3-0.3-2.2-0.9-2.8c-0.6-0.6-1.5-0.9-2.7-0.9c-1.6,0-2.8,0.4-3.5,1.3
		c-0.7,0.9-1.1,2.3-1.1,4.3v8.1h-2.3v-15.4h1.9l0.4,2.1h0.1c0.5-0.8,1.1-1.3,2-1.8s1.8-0.6,2.9-0.6c1.8,0,3.2,0.4,4.2,1.3
		c0.9,0.9,1.4,2.3,1.4,4.3v10H868.3z"/>
	<path class="st2" d="M888.7,220.9c0,2.5-0.6,4.5-1.9,5.9s-3,2.1-5.2,2.1c-1.4,0-2.6-0.3-3.7-1s-1.9-1.6-2.5-2.8
		c-0.6-1.2-0.9-2.6-0.9-4.2c0-2.5,0.6-4.5,1.9-5.8c1.3-1.4,3-2.1,5.2-2.1c2.1,0,3.9,0.7,5.1,2.1
		C888.1,216.5,888.7,218.5,888.7,220.9z M877,220.9c0,2,0.4,3.5,1.2,4.5s1.9,1.5,3.5,1.5s2.7-0.5,3.5-1.5c0.8-1,1.2-2.5,1.2-4.5
		c0-2-0.4-3.4-1.2-4.4c-0.8-1-2-1.5-3.5-1.5c-1.5,0-2.7,0.5-3.4,1.5C877.4,217.4,877,218.9,877,220.9z"/>
	<path class="st2" d="M897.7,227c0.4,0,0.8,0,1.2-0.1s0.7-0.1,0.9-0.2v1.8c-0.3,0.1-0.6,0.2-1.1,0.3c-0.5,0.1-0.9,0.1-1.3,0.1
		c-3,0-4.5-1.6-4.5-4.7v-9.1h-2.2v-1.1l2.2-1l1-3.3h1.3v3.6h4.5v1.8h-4.5v9c0,0.9,0.2,1.6,0.7,2.1C896.4,226.7,897,227,897.7,227z"
		/>
	<path class="st2" d="M912.3,228.6l-0.5-2.2h-0.1c-0.8,1-1.5,1.6-2.3,2c-0.8,0.3-1.7,0.5-2.9,0.5c-1.5,0-2.7-0.4-3.6-1.2
		c-0.9-0.8-1.3-1.9-1.3-3.3c0-3.1,2.5-4.7,7.4-4.9l2.6-0.1v-1c0-1.2-0.3-2.1-0.8-2.7c-0.5-0.6-1.3-0.9-2.5-0.9
		c-1.3,0-2.7,0.4-4.3,1.2l-0.7-1.8c0.8-0.4,1.6-0.7,2.5-1s1.8-0.4,2.7-0.4c1.8,0,3.2,0.4,4.1,1.2c0.9,0.8,1.3,2.1,1.3,3.9v10.5
		H912.3z M907.1,227c1.4,0,2.6-0.4,3.4-1.2c0.8-0.8,1.2-1.9,1.2-3.3v-1.4l-2.3,0.1c-1.8,0.1-3.2,0.4-4,0.9c-0.8,0.5-1.2,1.3-1.2,2.4
		c0,0.8,0.3,1.5,0.8,1.9C905.5,226.8,906.2,227,907.1,227z"/>
	<path class="st2" d="M929.3,226.5h-0.1c-1.1,1.6-2.7,2.3-4.8,2.3c-2,0-3.6-0.7-4.7-2.1c-1.1-1.4-1.7-3.3-1.7-5.9
		c0-2.5,0.6-4.5,1.7-5.9c1.1-1.4,2.7-2.1,4.7-2.1c2.1,0,3.7,0.8,4.8,2.3h0.2l-0.1-1.1l-0.1-1.1v-6.2h2.3v21.8h-1.9L929.3,226.5z
		 M924.7,226.9c1.6,0,2.7-0.4,3.5-1.3c0.7-0.9,1.1-2.3,1.1-4.2V221c0-2.2-0.4-3.7-1.1-4.7c-0.7-0.9-1.9-1.4-3.5-1.4
		c-1.4,0-2.4,0.5-3.1,1.6s-1.1,2.6-1.1,4.5c0,2,0.4,3.4,1.1,4.4C922.2,226.4,923.3,226.9,924.7,226.9z"/>
	<path class="st2" d="M945.9,228.6l-0.5-2.2h-0.1c-0.8,1-1.5,1.6-2.3,2c-0.8,0.3-1.7,0.5-2.9,0.5c-1.5,0-2.7-0.4-3.6-1.2
		c-0.9-0.8-1.3-1.9-1.3-3.3c0-3.1,2.5-4.7,7.4-4.9l2.6-0.1v-1c0-1.2-0.3-2.1-0.8-2.7c-0.5-0.6-1.3-0.9-2.5-0.9
		c-1.3,0-2.7,0.4-4.3,1.2l-0.7-1.8c0.8-0.4,1.6-0.7,2.5-1s1.8-0.4,2.7-0.4c1.8,0,3.2,0.4,4.1,1.2c0.9,0.8,1.3,2.1,1.3,3.9v10.5
		H945.9z M940.6,227c1.4,0,2.6-0.4,3.4-1.2c0.8-0.8,1.2-1.9,1.2-3.3v-1.4l-2.3,0.1c-1.8,0.1-3.2,0.4-4,0.9c-0.8,0.5-1.2,1.3-1.2,2.4
		c0,0.8,0.3,1.5,0.8,1.9C939,226.8,939.7,227,940.6,227z"/>
	<path class="st2" d="M967,228.9c-1,0-1.9-0.2-2.7-0.6c-0.8-0.4-1.5-0.9-2.1-1.7H962c0.1,0.9,0.2,1.7,0.2,2.5v6.3h-2.3v-22.2h1.9
		l0.3,2.1h0.1c0.6-0.8,1.3-1.4,2.1-1.8c0.8-0.4,1.7-0.6,2.7-0.6c2,0,3.6,0.7,4.7,2.1s1.7,3.3,1.7,5.9c0,2.5-0.6,4.5-1.7,5.9
		C970.5,228.2,969,228.9,967,228.9z M966.7,215c-1.6,0-2.7,0.4-3.4,1.3c-0.7,0.9-1.1,2.3-1.1,4.1v0.5c0,2.2,0.4,3.7,1.1,4.6
		c0.7,0.9,1.9,1.4,3.5,1.4c1.3,0,2.4-0.5,3.1-1.6c0.8-1.1,1.1-2.6,1.1-4.4c0-1.9-0.4-3.4-1.1-4.4C969.1,215.5,968,215,966.7,215z"/>
	<path class="st2" d="M990.7,220.9c0,2.5-0.6,4.5-1.9,5.9s-3,2.1-5.2,2.1c-1.4,0-2.6-0.3-3.7-1s-1.9-1.6-2.5-2.8
		c-0.6-1.2-0.9-2.6-0.9-4.2c0-2.5,0.6-4.5,1.9-5.8c1.3-1.4,3-2.1,5.2-2.1c2.1,0,3.9,0.7,5.1,2.1C990,216.5,990.7,218.5,990.7,220.9z
		 M979,220.9c0,2,0.4,3.5,1.2,4.5s1.9,1.5,3.5,1.5s2.7-0.5,3.5-1.5c0.8-1,1.2-2.5,1.2-4.5c0-2-0.4-3.4-1.2-4.4c-0.8-1-2-1.5-3.5-1.5
		c-1.5,0-2.7,0.5-3.4,1.5C979.4,217.4,979,218.9,979,220.9z"/>
	<path class="st2" d="M1001.8,213c0.7,0,1.3,0.1,1.8,0.2l-0.3,2.2c-0.6-0.1-1.2-0.2-1.7-0.2c-1.2,0-2.3,0.5-3.2,1.5
		c-0.9,1-1.3,2.3-1.3,3.8v8.2h-2.3v-15.4h1.9l0.3,2.8h0.1c0.6-1,1.3-1.8,2.1-2.3C999.9,213.2,1000.8,213,1001.8,213z"/>
	<path class="st2" d="M1016.2,228.6h-2.3v-21.8h2.3V228.6z"/>
	<path class="st2" d="M1030.6,228.6l-0.5-2.2h-0.1c-0.8,1-1.5,1.6-2.3,2c-0.8,0.3-1.7,0.5-2.9,0.5c-1.5,0-2.7-0.4-3.6-1.2
		c-0.9-0.8-1.3-1.9-1.3-3.3c0-3.1,2.5-4.7,7.4-4.9l2.6-0.1v-1c0-1.2-0.3-2.1-0.8-2.7c-0.5-0.6-1.3-0.9-2.5-0.9
		c-1.3,0-2.7,0.4-4.3,1.2l-0.7-1.8c0.8-0.4,1.6-0.7,2.5-1s1.8-0.4,2.7-0.4c1.8,0,3.2,0.4,4.1,1.2c0.9,0.8,1.3,2.1,1.3,3.9v10.5
		H1030.6z M1025.4,227c1.4,0,2.6-0.4,3.4-1.2c0.8-0.8,1.2-1.9,1.2-3.3v-1.4l-2.3,0.1c-1.8,0.1-3.2,0.4-4,0.9
		c-0.8,0.5-1.2,1.3-1.2,2.4c0,0.8,0.3,1.5,0.8,1.9C1023.7,226.8,1024.4,227,1025.4,227z"/>
	<path class="st2" d="M1064.2,228.6v-10c0-1.2-0.3-2.1-0.8-2.8c-0.5-0.6-1.3-0.9-2.4-0.9c-1.4,0-2.5,0.4-3.2,1.2
		c-0.7,0.8-1,2.1-1,3.8v8.6h-2.3v-10c0-1.2-0.3-2.1-0.8-2.8c-0.5-0.6-1.3-0.9-2.5-0.9c-1.5,0-2.5,0.4-3.2,1.3c-0.7,0.9-1,2.3-1,4.3
		v8.1h-2.3v-15.4h1.9l0.4,2.1h0.1c0.4-0.7,1.1-1.3,1.9-1.8c0.8-0.4,1.7-0.6,2.7-0.6c2.4,0,4,0.9,4.7,2.6h0.1c0.5-0.8,1.1-1.4,2-1.9
		c0.9-0.5,1.9-0.7,3-0.7c1.7,0,3,0.4,3.9,1.3c0.9,0.9,1.3,2.3,1.3,4.3v10H1064.2z"/>
	<path class="st2" d="M1071.1,209.1c0-0.5,0.1-0.9,0.4-1.2c0.3-0.2,0.6-0.4,1-0.4c0.4,0,0.7,0.1,1,0.4c0.3,0.3,0.4,0.6,0.4,1.2
		s-0.1,0.9-0.4,1.2c-0.3,0.3-0.6,0.4-1,0.4c-0.4,0-0.7-0.1-1-0.4C1071.2,210,1071.1,209.6,1071.1,209.1z M1073.6,228.6h-2.3v-15.4
		h2.3V228.6z"/>
	<path class="st2" d="M1088.4,224.4c0,1.4-0.5,2.5-1.6,3.3c-1.1,0.8-2.6,1.2-4.5,1.2c-2,0-3.6-0.3-4.8-1v-2.2
		c0.7,0.4,1.5,0.7,2.4,0.9c0.8,0.2,1.7,0.3,2.4,0.3c1.2,0,2.1-0.2,2.8-0.6c0.7-0.4,1-1,1-1.8c0-0.6-0.3-1.1-0.8-1.5
		c-0.5-0.4-1.5-0.9-3-1.5c-1.4-0.5-2.4-1-3-1.4c-0.6-0.4-1.1-0.8-1.3-1.4c-0.3-0.5-0.4-1.1-0.4-1.8c0-1.3,0.5-2.2,1.5-3
		c1-0.7,2.4-1.1,4.2-1.1c1.7,0,3.3,0.3,4.8,1l-0.8,1.9c-1.5-0.6-2.9-1-4.2-1c-1.1,0-1.9,0.2-2.5,0.5s-0.8,0.8-0.8,1.4
		c0,0.4,0.1,0.8,0.3,1.1s0.5,0.6,1,0.8s1.4,0.6,2.7,1.1c1.8,0.7,3.1,1.3,3.7,2C1088.1,222.6,1088.4,223.4,1088.4,224.4z"/>
	<path class="st2" d="M1111.8,228.6v-10c0-1.2-0.3-2.1-0.8-2.8c-0.5-0.6-1.3-0.9-2.4-0.9c-1.4,0-2.5,0.4-3.2,1.2
		c-0.7,0.8-1,2.1-1,3.8v8.6h-2.3v-10c0-1.2-0.3-2.1-0.8-2.8c-0.5-0.6-1.3-0.9-2.5-0.9c-1.5,0-2.5,0.4-3.2,1.3c-0.7,0.9-1,2.3-1,4.3
		v8.1h-2.3v-15.4h1.9l0.4,2.1h0.1c0.4-0.7,1.1-1.3,1.9-1.8c0.8-0.4,1.7-0.6,2.7-0.6c2.4,0,4,0.9,4.7,2.6h0.1c0.5-0.8,1.1-1.4,2-1.9
		c0.9-0.5,1.9-0.7,3-0.7c1.7,0,3,0.4,3.9,1.3c0.9,0.9,1.3,2.3,1.3,4.3v10H1111.8z"/>
	<path class="st2" d="M1128.3,228.6l-0.5-2.2h-0.1c-0.8,1-1.5,1.6-2.3,2c-0.8,0.3-1.7,0.5-2.9,0.5c-1.5,0-2.7-0.4-3.6-1.2
		c-0.9-0.8-1.3-1.9-1.3-3.3c0-3.1,2.5-4.7,7.4-4.9l2.6-0.1v-1c0-1.2-0.3-2.1-0.8-2.7c-0.5-0.6-1.3-0.9-2.5-0.9
		c-1.3,0-2.7,0.4-4.3,1.2l-0.7-1.8c0.8-0.4,1.6-0.7,2.5-1s1.8-0.4,2.7-0.4c1.8,0,3.2,0.4,4.1,1.2c0.9,0.8,1.3,2.1,1.3,3.9v10.5
		H1128.3z M1123.1,227c1.4,0,2.6-0.4,3.4-1.2c0.8-0.8,1.2-1.9,1.2-3.3v-1.4l-2.3,0.1c-1.8,0.1-3.2,0.4-4,0.9
		c-0.8,0.5-1.2,1.3-1.2,2.4c0,0.8,0.3,1.5,0.8,1.9C1121.5,226.8,1122.2,227,1123.1,227z"/>
	<path class="st2" d="M527.2,263h-2.3v-21.8h2.3V263z"/>
	<path class="st2" d="M538.6,263.3c-2.3,0-4.1-0.7-5.4-2.1c-1.3-1.4-2-3.3-2-5.8c0-2.5,0.6-4.4,1.8-5.9c1.2-1.5,2.9-2.2,4.9-2.2
		c1.9,0,3.4,0.6,4.6,1.9s1.7,2.9,1.7,5v1.5h-10.6c0,1.8,0.5,3.2,1.4,4.1c0.9,0.9,2.1,1.4,3.6,1.4c1.7,0,3.3-0.3,4.9-1v2.1
		c-0.8,0.4-1.6,0.6-2.3,0.8C540.5,263.2,539.6,263.3,538.6,263.3z M537.9,249.4c-1.2,0-2.2,0.4-2.9,1.2c-0.7,0.8-1.2,1.9-1.3,3.3h8
		c0-1.5-0.3-2.6-1-3.4S539.2,249.4,537.9,249.4z"/>
	<path class="st2" d="M553.1,261.4c0.4,0,0.8,0,1.2-0.1c0.4-0.1,0.7-0.1,0.9-0.2v1.8c-0.3,0.1-0.6,0.2-1.1,0.3
		c-0.5,0.1-0.9,0.1-1.3,0.1c-3,0-4.5-1.6-4.5-4.7v-9.1h-2.2v-1.1l2.2-1l1-3.3h1.3v3.6h4.5v1.8h-4.5v9c0,0.9,0.2,1.6,0.7,2.1
		S552.4,261.4,553.1,261.4z"/>
	<path class="st2" d="M565.3,247.4c0.7,0,1.3,0.1,1.8,0.2l-0.3,2.2c-0.6-0.1-1.2-0.2-1.7-0.2c-1.2,0-2.3,0.5-3.2,1.5
		c-0.9,1-1.3,2.3-1.3,3.8v8.2h-2.3v-15.4h1.9l0.3,2.8h0.1c0.6-1,1.3-1.8,2.1-2.3C563.5,247.7,564.4,247.4,565.3,247.4z"/>
	<path class="st2" d="M579.5,263l-0.5-2.2h-0.1c-0.8,1-1.5,1.6-2.3,2s-1.7,0.5-2.9,0.5c-1.5,0-2.7-0.4-3.6-1.2
		c-0.9-0.8-1.3-1.9-1.3-3.3c0-3.1,2.5-4.7,7.4-4.9l2.6-0.1v-1c0-1.2-0.3-2.1-0.8-2.7c-0.5-0.6-1.3-0.9-2.5-0.9
		c-1.3,0-2.7,0.4-4.3,1.2l-0.7-1.8c0.8-0.4,1.6-0.7,2.5-1s1.8-0.4,2.7-0.4c1.8,0,3.2,0.4,4.1,1.2c0.9,0.8,1.3,2.1,1.3,3.9V263H579.5
		z M574.2,261.4c1.4,0,2.6-0.4,3.4-1.2c0.8-0.8,1.2-1.9,1.2-3.3v-1.4l-2.3,0.1c-1.8,0.1-3.2,0.4-4,0.9c-0.8,0.5-1.2,1.3-1.2,2.4
		c0,0.8,0.3,1.5,0.8,1.9C572.6,261.2,573.3,261.4,574.2,261.4z"/>
	<path class="st2" d="M613,263v-10c0-1.2-0.3-2.1-0.8-2.8c-0.5-0.6-1.3-0.9-2.4-0.9c-1.4,0-2.5,0.4-3.2,1.2c-0.7,0.8-1,2.1-1,3.8
		v8.6h-2.3v-10c0-1.2-0.3-2.1-0.8-2.8c-0.5-0.6-1.3-0.9-2.5-0.9c-1.5,0-2.5,0.4-3.2,1.3c-0.7,0.9-1,2.3-1,4.3v8.1h-2.3v-15.4h1.9
		l0.4,2.1h0.1c0.4-0.7,1.1-1.3,1.9-1.8c0.8-0.4,1.7-0.6,2.7-0.6c2.4,0,4,0.9,4.7,2.6h0.1c0.5-0.8,1.1-1.4,2-1.9
		c0.9-0.5,1.9-0.7,3-0.7c1.7,0,3,0.4,3.9,1.3c0.9,0.9,1.3,2.3,1.3,4.3v10H613z"/>
	<path class="st2" d="M629.6,263l-0.5-2.2H629c-0.8,1-1.5,1.6-2.3,2c-0.8,0.3-1.7,0.5-2.9,0.5c-1.5,0-2.7-0.4-3.6-1.2
		c-0.9-0.8-1.3-1.9-1.3-3.3c0-3.1,2.5-4.7,7.4-4.9l2.6-0.1v-1c0-1.2-0.3-2.1-0.8-2.7c-0.5-0.6-1.3-0.9-2.5-0.9
		c-1.3,0-2.7,0.4-4.3,1.2l-0.7-1.8c0.8-0.4,1.6-0.7,2.5-1s1.8-0.4,2.7-0.4c1.8,0,3.2,0.4,4.1,1.2c0.9,0.8,1.3,2.1,1.3,3.9V263H629.6
		z M624.3,261.4c1.4,0,2.6-0.4,3.4-1.2c0.8-0.8,1.2-1.9,1.2-3.3v-1.4l-2.3,0.1c-1.8,0.1-3.2,0.4-4,0.9c-0.8,0.5-1.2,1.3-1.2,2.4
		c0,0.8,0.3,1.5,0.8,1.9C622.7,261.2,623.4,261.4,624.3,261.4z"/>
	<path class="st2" d="M633.6,247.7h2.5l3.4,8.8c0.7,2,1.2,3.4,1.4,4.3h0.1c0.1-0.5,0.4-1.3,0.8-2.4c0.4-1.2,1.7-4.7,3.8-10.6h2.5
		l-6.6,17.5c-0.7,1.7-1.4,3-2.3,3.7c-0.9,0.7-1.9,1.1-3.2,1.1c-0.7,0-1.4-0.1-2.1-0.2v-1.9c0.5,0.1,1.1,0.2,1.7,0.2
		c1.6,0,2.7-0.9,3.4-2.7l0.9-2.2L633.6,247.7z"/>
	<path class="st2" d="M652.7,247.7v10c0,1.3,0.3,2.2,0.9,2.8c0.6,0.6,1.5,0.9,2.7,0.9c1.6,0,2.8-0.4,3.5-1.3
		c0.7-0.9,1.1-2.3,1.1-4.3v-8.1h2.3V263h-1.9L661,261h-0.1c-0.5,0.8-1.1,1.3-2,1.7c-0.8,0.4-1.8,0.6-2.9,0.6c-1.9,0-3.3-0.4-4.2-1.3
		c-0.9-0.9-1.4-2.3-1.4-4.3v-10H652.7z M655.2,245.3c0.4-0.6,0.9-1.3,1.4-2.1c0.5-0.8,0.9-1.5,1.2-2.1h2.8v0.3
		c-0.4,0.6-1,1.4-1.8,2.2c-0.8,0.9-1.5,1.6-2.1,2.1h-1.6V245.3z"/>
	<path class="st2" d="M678,258.8c0,1.4-0.5,2.5-1.6,3.3c-1.1,0.8-2.6,1.2-4.5,1.2c-2,0-3.6-0.3-4.8-1v-2.2c0.7,0.4,1.5,0.7,2.4,0.9
		c0.8,0.2,1.7,0.3,2.4,0.3c1.2,0,2.1-0.2,2.8-0.6c0.7-0.4,1-1,1-1.8c0-0.6-0.3-1.1-0.8-1.5c-0.5-0.4-1.5-0.9-3-1.5
		c-1.4-0.5-2.4-1-3-1.4c-0.6-0.4-1.1-0.8-1.3-1.4c-0.3-0.5-0.4-1.1-0.4-1.8c0-1.3,0.5-2.2,1.5-3c1-0.7,2.4-1.1,4.2-1.1
		c1.7,0,3.3,0.3,4.8,1l-0.8,1.9c-1.5-0.6-2.9-1-4.2-1c-1.1,0-1.9,0.2-2.5,0.5s-0.8,0.8-0.8,1.4c0,0.4,0.1,0.8,0.3,1.1s0.5,0.6,1,0.8
		s1.4,0.6,2.7,1.1c1.8,0.7,3.1,1.3,3.7,2C677.7,257,678,257.8,678,258.8z"/>
	<path class="st2" d="M688,263.3c-2.2,0-3.9-0.7-5.2-2.1s-1.8-3.3-1.8-5.8c0-2.6,0.6-4.6,1.9-6c1.2-1.4,3-2.1,5.3-2.1
		c0.7,0,1.5,0.1,2.2,0.2c0.7,0.2,1.3,0.3,1.7,0.6l-0.7,2c-0.5-0.2-1.1-0.4-1.7-0.5s-1.1-0.2-1.6-0.2c-3.1,0-4.7,2-4.7,6
		c0,1.9,0.4,3.3,1.1,4.3c0.8,1,1.9,1.5,3.4,1.5c1.3,0,2.6-0.3,3.9-0.8v2.1C690.8,263.1,689.5,263.3,688,263.3z"/>
	<path class="st2" d="M697.7,247.7v10c0,1.3,0.3,2.2,0.9,2.8c0.6,0.6,1.5,0.9,2.7,0.9c1.6,0,2.8-0.4,3.5-1.3
		c0.7-0.9,1.1-2.3,1.1-4.3v-8.1h2.3V263h-1.9l-0.3-2.1h-0.1c-0.5,0.8-1.1,1.3-2,1.7c-0.8,0.4-1.8,0.6-2.9,0.6
		c-1.9,0-3.3-0.4-4.2-1.3c-0.9-0.9-1.4-2.3-1.4-4.3v-10H697.7z"/>
	<path class="st2" d="M715.4,263h-2.3v-21.8h2.3V263z"/>
	<path class="st2" d="M729.8,263l-0.5-2.2h-0.1c-0.8,1-1.5,1.6-2.3,2c-0.8,0.3-1.7,0.5-2.9,0.5c-1.5,0-2.7-0.4-3.6-1.2
		c-0.9-0.8-1.3-1.9-1.3-3.3c0-3.1,2.5-4.7,7.4-4.9l2.6-0.1v-1c0-1.2-0.3-2.1-0.8-2.7c-0.5-0.6-1.3-0.9-2.5-0.9
		c-1.3,0-2.7,0.4-4.3,1.2l-0.7-1.8c0.8-0.4,1.6-0.7,2.5-1s1.8-0.4,2.7-0.4c1.8,0,3.2,0.4,4.1,1.2c0.9,0.8,1.3,2.1,1.3,3.9V263H729.8
		z M724.5,261.4c1.4,0,2.6-0.4,3.4-1.2c0.8-0.8,1.2-1.9,1.2-3.3v-1.4l-2.3,0.1c-1.8,0.1-3.2,0.4-4,0.9c-0.8,0.5-1.2,1.3-1.2,2.4
		c0,0.8,0.3,1.5,0.8,1.9C722.9,261.2,723.6,261.4,724.5,261.4z"/>
	<path class="st2" d="M736,261.6c0-0.6,0.1-1.1,0.4-1.4s0.7-0.5,1.2-0.5c0.5,0,1,0.2,1.3,0.5c0.3,0.3,0.5,0.8,0.5,1.4
		c0,0.6-0.2,1.1-0.5,1.4c-0.3,0.3-0.7,0.5-1.3,0.5c-0.5,0-0.9-0.1-1.2-0.4C736.1,262.7,736,262.2,736,261.6z"/>
	<path class="st2" d="M467.3,321.4c0-1.1,0.3-2,0.8-2.6s1.3-0.9,2.3-0.9c1,0,1.7,0.3,2.3,0.9c0.5,0.6,0.8,1.4,0.8,2.6
		c0,1.1-0.3,2-0.8,2.6c-0.5,0.6-1.3,0.9-2.3,0.9c-1,0-1.8-0.3-2.3-0.9C467.5,323.4,467.3,322.5,467.3,321.4z"/>
	<path class="st2" d="M525.2,331.9v-20.5h2.4v18.3h9v2.2H525.2z"/>
	<path class="st2" d="M549.2,331.9l-0.5-2.2h-0.1c-0.8,1-1.5,1.6-2.3,2s-1.7,0.5-2.9,0.5c-1.5,0-2.7-0.4-3.6-1.2
		c-0.9-0.8-1.3-1.9-1.3-3.3c0-3.1,2.5-4.7,7.4-4.9l2.6-0.1v-1c0-1.2-0.3-2.1-0.8-2.7c-0.5-0.6-1.3-0.9-2.5-0.9
		c-1.3,0-2.7,0.4-4.3,1.2l-0.7-1.8c0.8-0.4,1.6-0.7,2.5-1s1.8-0.4,2.7-0.4c1.8,0,3.2,0.4,4.1,1.2c0.9,0.8,1.3,2.1,1.3,3.9v10.5
		H549.2z M543.9,330.3c1.4,0,2.6-0.4,3.4-1.2c0.8-0.8,1.2-1.9,1.2-3.3v-1.4l-2.3,0.1c-1.8,0.1-3.2,0.4-4,0.9
		c-0.8,0.5-1.2,1.3-1.2,2.4c0,0.8,0.3,1.5,0.8,1.9C542.3,330,543,330.3,543.9,330.3z"/>
	<path class="st2" d="M565.5,331.9h-2.3v-21.8h2.3V331.9z"/>
	<path class="st2" d="M576.9,332.2c-2.3,0-4.1-0.7-5.4-2.1c-1.3-1.4-2-3.3-2-5.8c0-2.5,0.6-4.4,1.8-5.9c1.2-1.5,2.9-2.2,4.9-2.2
		c1.9,0,3.4,0.6,4.6,1.9s1.7,2.9,1.7,5v1.5h-10.6c0,1.8,0.5,3.2,1.4,4.1c0.9,0.9,2.1,1.4,3.6,1.4c1.7,0,3.3-0.3,4.9-1v2.1
		c-0.8,0.4-1.6,0.6-2.3,0.8C578.8,332.1,577.9,332.2,576.9,332.2z M576.2,318.2c-1.2,0-2.2,0.4-2.9,1.2c-0.7,0.8-1.2,1.9-1.3,3.3h8
		c0-1.5-0.3-2.6-1-3.4S577.5,318.2,576.2,318.2z"/>
	<path class="st2" d="M591.4,330.3c0.4,0,0.8,0,1.2-0.1s0.7-0.1,0.9-0.2v1.8c-0.3,0.1-0.6,0.2-1.1,0.3c-0.5,0.1-0.9,0.1-1.3,0.1
		c-3,0-4.5-1.6-4.5-4.7v-9.1h-2.2v-1.1l2.2-1l1-3.3h1.3v3.6h4.5v1.8H589v9c0,0.9,0.2,1.6,0.7,2.1S590.7,330.3,591.4,330.3z"/>
	<path class="st2" d="M603.6,316.3c0.7,0,1.3,0.1,1.8,0.2l-0.3,2.2c-0.6-0.1-1.2-0.2-1.7-0.2c-1.2,0-2.3,0.5-3.2,1.5
		c-0.9,1-1.3,2.3-1.3,3.8v8.2h-2.3v-15.4h1.9l0.3,2.8h0.1c0.6-1,1.3-1.8,2.1-2.3C601.8,316.5,602.7,316.3,603.6,316.3z"/>
	<path class="st2" d="M617.8,331.9l-0.5-2.2h-0.1c-0.8,1-1.5,1.6-2.3,2c-0.8,0.3-1.7,0.5-2.9,0.5c-1.5,0-2.7-0.4-3.6-1.2
		c-0.9-0.8-1.3-1.9-1.3-3.3c0-3.1,2.5-4.7,7.4-4.9l2.6-0.1v-1c0-1.2-0.3-2.1-0.8-2.7c-0.5-0.6-1.3-0.9-2.5-0.9
		c-1.3,0-2.7,0.4-4.3,1.2l-0.7-1.8c0.8-0.4,1.6-0.7,2.5-1s1.8-0.4,2.7-0.4c1.8,0,3.2,0.4,4.1,1.2c0.9,0.8,1.3,2.1,1.3,3.9v10.5
		H617.8z M612.5,330.3c1.4,0,2.6-0.4,3.4-1.2c0.8-0.8,1.2-1.9,1.2-3.3v-1.4l-2.3,0.1c-1.8,0.1-3.2,0.4-4,0.9
		c-0.8,0.5-1.2,1.3-1.2,2.4c0,0.8,0.3,1.5,0.8,1.9C610.9,330,611.6,330.3,612.5,330.3z"/>
	<path class="st2" d="M651.3,331.9v-10c0-1.2-0.3-2.1-0.8-2.8c-0.5-0.6-1.3-0.9-2.4-0.9c-1.4,0-2.5,0.4-3.2,1.2
		c-0.7,0.8-1,2.1-1,3.8v8.6h-2.3v-10c0-1.2-0.3-2.1-0.8-2.8c-0.5-0.6-1.3-0.9-2.5-0.9c-1.5,0-2.5,0.4-3.2,1.3c-0.7,0.9-1,2.3-1,4.3
		v8.1h-2.3v-15.4h1.9l0.4,2.1h0.1c0.4-0.7,1.1-1.3,1.9-1.8c0.8-0.4,1.7-0.6,2.7-0.6c2.4,0,4,0.9,4.7,2.6h0.1c0.5-0.8,1.1-1.4,2-1.9
		c0.9-0.5,1.9-0.7,3-0.7c1.7,0,3,0.4,3.9,1.3c0.9,0.9,1.3,2.3,1.3,4.3v10H651.3z"/>
	<path class="st2" d="M658.2,312.4c0-0.5,0.1-0.9,0.4-1.2c0.3-0.2,0.6-0.4,1-0.4c0.4,0,0.7,0.1,1,0.4c0.3,0.3,0.4,0.6,0.4,1.2
		s-0.1,0.9-0.4,1.2c-0.3,0.3-0.6,0.4-1,0.4c-0.4,0-0.7-0.1-1-0.4C658.4,313.3,658.2,312.9,658.2,312.4z M660.7,331.9h-2.3v-15.4h2.3
		V331.9z"/>
	<path class="st2" d="M676.2,331.9V322c0-1.3-0.3-2.2-0.9-2.8c-0.6-0.6-1.5-0.9-2.7-0.9c-1.6,0-2.8,0.4-3.5,1.3
		c-0.7,0.9-1.1,2.3-1.1,4.3v8.1h-2.3v-15.4h1.9l0.4,2.1h0.1c0.5-0.8,1.1-1.3,2-1.8s1.8-0.6,2.9-0.6c1.8,0,3.2,0.4,4.2,1.3
		c0.9,0.9,1.4,2.3,1.4,4.3v10H676.2z"/>
	<path class="st2" d="M685.5,316.5v10c0,1.3,0.3,2.2,0.9,2.8c0.6,0.6,1.5,0.9,2.7,0.9c1.6,0,2.8-0.4,3.5-1.3
		c0.7-0.9,1.1-2.3,1.1-4.3v-8.1h2.3v15.4H694l-0.3-2.1h-0.1c-0.5,0.8-1.1,1.3-2,1.7c-0.8,0.4-1.8,0.6-2.9,0.6
		c-1.9,0-3.3-0.4-4.2-1.3c-0.9-0.9-1.4-2.3-1.4-4.3v-10H685.5z M687.9,314.2c0.4-0.6,0.9-1.3,1.4-2.1c0.5-0.8,0.9-1.5,1.2-2.1h2.8
		v0.3c-0.4,0.6-1,1.4-1.8,2.2c-0.8,0.9-1.5,1.6-2.1,2.1h-1.6V314.2z"/>
	<path class="st2" d="M710.8,327.7c0,1.4-0.5,2.5-1.6,3.3c-1.1,0.8-2.6,1.2-4.5,1.2c-2,0-3.6-0.3-4.8-1v-2.2
		c0.7,0.4,1.5,0.7,2.4,0.9c0.8,0.2,1.7,0.3,2.4,0.3c1.2,0,2.1-0.2,2.8-0.6c0.7-0.4,1-1,1-1.8c0-0.6-0.3-1.1-0.8-1.5
		c-0.5-0.4-1.5-0.9-3-1.5c-1.4-0.5-2.4-1-3-1.4c-0.6-0.4-1.1-0.8-1.3-1.4c-0.3-0.5-0.4-1.1-0.4-1.8c0-1.3,0.5-2.2,1.5-3
		c1-0.7,2.4-1.1,4.2-1.1c1.7,0,3.3,0.3,4.8,1l-0.8,1.9c-1.5-0.6-2.9-1-4.2-1c-1.1,0-1.9,0.2-2.5,0.5s-0.8,0.8-0.8,1.4
		c0,0.4,0.1,0.8,0.3,1.1s0.5,0.6,1,0.8s1.4,0.6,2.7,1.1c1.8,0.7,3.1,1.3,3.7,2C710.5,325.8,710.8,326.7,710.8,327.7z"/>
	<path class="st2" d="M720.7,332.2c-2.2,0-3.9-0.7-5.2-2.1s-1.8-3.3-1.8-5.8c0-2.6,0.6-4.6,1.9-6c1.2-1.4,3-2.1,5.3-2.1
		c0.7,0,1.5,0.1,2.2,0.2c0.7,0.2,1.3,0.3,1.7,0.6l-0.7,2c-0.5-0.2-1.1-0.4-1.7-0.5s-1.1-0.2-1.6-0.2c-3.1,0-4.7,2-4.7,6
		c0,1.9,0.4,3.3,1.1,4.3c0.8,1,1.9,1.5,3.4,1.5c1.3,0,2.6-0.3,3.9-0.8v2.1C723.6,331.9,722.3,332.2,720.7,332.2z"/>
	<path class="st2" d="M730.4,316.5v10c0,1.3,0.3,2.2,0.9,2.8c0.6,0.6,1.5,0.9,2.7,0.9c1.6,0,2.8-0.4,3.5-1.3
		c0.7-0.9,1.1-2.3,1.1-4.3v-8.1h2.3v15.4H739l-0.3-2.1h-0.1c-0.5,0.8-1.1,1.3-2,1.7c-0.8,0.4-1.8,0.6-2.9,0.6
		c-1.9,0-3.3-0.4-4.2-1.3c-0.9-0.9-1.4-2.3-1.4-4.3v-10H730.4z"/>
	<path class="st2" d="M748.2,331.9h-2.3v-21.8h2.3V331.9z"/>
	<path class="st2" d="M762.6,331.9l-0.5-2.2H762c-0.8,1-1.5,1.6-2.3,2c-0.8,0.3-1.7,0.5-2.9,0.5c-1.5,0-2.7-0.4-3.6-1.2
		c-0.9-0.8-1.3-1.9-1.3-3.3c0-3.1,2.5-4.7,7.4-4.9l2.6-0.1v-1c0-1.2-0.3-2.1-0.8-2.7c-0.5-0.6-1.3-0.9-2.5-0.9
		c-1.3,0-2.7,0.4-4.3,1.2l-0.7-1.8c0.8-0.4,1.6-0.7,2.5-1s1.8-0.4,2.7-0.4c1.8,0,3.2,0.4,4.1,1.2c0.9,0.8,1.3,2.1,1.3,3.9v10.5
		H762.6z M757.3,330.3c1.4,0,2.6-0.4,3.4-1.2c0.8-0.8,1.2-1.9,1.2-3.3v-1.4l-2.3,0.1c-1.8,0.1-3.2,0.4-4,0.9
		c-0.8,0.5-1.2,1.3-1.2,2.4c0,0.8,0.3,1.5,0.8,1.9C755.7,330,756.4,330.3,757.3,330.3z"/>
	<path class="st2" d="M776.3,312.4c0-0.5,0.1-0.9,0.4-1.2c0.3-0.2,0.6-0.4,1-0.4c0.4,0,0.7,0.1,1,0.4c0.3,0.3,0.4,0.6,0.4,1.2
		s-0.1,0.9-0.4,1.2c-0.3,0.3-0.6,0.4-1,0.4c-0.4,0-0.7-0.1-1-0.4C776.5,313.3,776.3,312.9,776.3,312.4z M778.8,331.9h-2.3v-15.4h2.3
		V331.9z"/>
	<path class="st2" d="M794.3,331.9V322c0-1.3-0.3-2.2-0.9-2.8c-0.6-0.6-1.5-0.9-2.7-0.9c-1.6,0-2.8,0.4-3.5,1.3
		c-0.7,0.9-1.1,2.3-1.1,4.3v8.1h-2.3v-15.4h1.9l0.4,2.1h0.1c0.5-0.8,1.1-1.3,2-1.8s1.8-0.6,2.9-0.6c1.8,0,3.2,0.4,4.2,1.3
		c0.9,0.9,1.4,2.3,1.4,4.3v10H794.3z"/>
	<path class="st2" d="M811.8,329.8h-0.1c-1.1,1.6-2.7,2.3-4.8,2.3c-2,0-3.6-0.7-4.7-2.1c-1.1-1.4-1.7-3.3-1.7-5.9
		c0-2.5,0.6-4.5,1.7-5.9c1.1-1.4,2.7-2.1,4.7-2.1c2.1,0,3.7,0.8,4.8,2.3h0.2l-0.1-1.1l-0.1-1.1v-6.2h2.3v21.8h-1.9L811.8,329.8z
		 M807.2,330.2c1.6,0,2.7-0.4,3.5-1.3c0.7-0.9,1.1-2.3,1.1-4.2v-0.5c0-2.2-0.4-3.7-1.1-4.7c-0.7-0.9-1.9-1.4-3.5-1.4
		c-1.4,0-2.4,0.5-3.1,1.6s-1.1,2.6-1.1,4.5c0,2,0.4,3.4,1.1,4.4C804.7,329.7,805.8,330.2,807.2,330.2z"/>
	<path class="st2" d="M818.8,312.4c0-0.5,0.1-0.9,0.4-1.2c0.3-0.2,0.6-0.4,1-0.4c0.4,0,0.7,0.1,1,0.4c0.3,0.3,0.4,0.6,0.4,1.2
		s-0.1,0.9-0.4,1.2c-0.3,0.3-0.6,0.4-1,0.4c-0.4,0-0.7-0.1-1-0.4C818.9,313.3,818.8,312.9,818.8,312.4z M821.3,331.9H819v-15.4h2.3
		V331.9z"/>
	<path class="st2" d="M832.4,332.2c-2.2,0-3.9-0.7-5.2-2.1s-1.8-3.3-1.8-5.8c0-2.6,0.6-4.6,1.9-6c1.2-1.4,3-2.1,5.3-2.1
		c0.7,0,1.5,0.1,2.2,0.2c0.7,0.2,1.3,0.3,1.7,0.6l-0.7,2c-0.5-0.2-1.1-0.4-1.7-0.5s-1.1-0.2-1.6-0.2c-3.1,0-4.7,2-4.7,6
		c0,1.9,0.4,3.3,1.1,4.3c0.8,1,1.9,1.5,3.4,1.5c1.3,0,2.6-0.3,3.9-0.8v2.1C835.2,331.9,833.9,332.2,832.4,332.2z"/>
	<path class="st2" d="M849.3,331.9l-0.5-2.2h-0.1c-0.8,1-1.5,1.6-2.3,2c-0.8,0.3-1.7,0.5-2.9,0.5c-1.5,0-2.7-0.4-3.6-1.2
		c-0.9-0.8-1.3-1.9-1.3-3.3c0-3.1,2.5-4.7,7.4-4.9l2.6-0.1v-1c0-1.2-0.3-2.1-0.8-2.7c-0.5-0.6-1.3-0.9-2.5-0.9
		c-1.3,0-2.7,0.4-4.3,1.2l-0.7-1.8c0.8-0.4,1.6-0.7,2.5-1s1.8-0.4,2.7-0.4c1.8,0,3.2,0.4,4.1,1.2c0.9,0.8,1.3,2.1,1.3,3.9v10.5
		H849.3z M844.1,330.3c1.4,0,2.6-0.4,3.4-1.2c0.8-0.8,1.2-1.9,1.2-3.3v-1.4l-2.3,0.1c-1.8,0.1-3.2,0.4-4,0.9
		c-0.8,0.5-1.2,1.3-1.2,2.4c0,0.8,0.3,1.5,0.8,1.9C842.4,330,843.2,330.3,844.1,330.3z"/>
	<path class="st2" d="M865.5,316.5v10c0,1.3,0.3,2.2,0.9,2.8c0.6,0.6,1.5,0.9,2.7,0.9c1.6,0,2.8-0.4,3.5-1.3
		c0.7-0.9,1.1-2.3,1.1-4.3v-8.1h2.3v15.4h-1.9l-0.3-2.1h-0.1c-0.5,0.8-1.1,1.3-2,1.7c-0.8,0.4-1.8,0.6-2.9,0.6
		c-1.9,0-3.3-0.4-4.2-1.3c-0.9-0.9-1.4-2.3-1.4-4.3v-10H865.5z"/>
	<path class="st2" d="M891.4,331.9V322c0-1.3-0.3-2.2-0.9-2.8c-0.6-0.6-1.5-0.9-2.7-0.9c-1.6,0-2.8,0.4-3.5,1.3
		c-0.7,0.9-1.1,2.3-1.1,4.3v8.1h-2.3v-15.4h1.9l0.4,2.1h0.1c0.5-0.8,1.1-1.3,2-1.8s1.8-0.6,2.9-0.6c1.8,0,3.2,0.4,4.2,1.3
		c0.9,0.9,1.4,2.3,1.4,4.3v10H891.4z"/>
	<path class="st2" d="M910.9,330.3c0.4,0,0.8,0,1.2-0.1s0.7-0.1,0.9-0.2v1.8c-0.3,0.1-0.6,0.2-1.1,0.3c-0.5,0.1-0.9,0.1-1.3,0.1
		c-3,0-4.5-1.6-4.5-4.7v-9.1h-2.2v-1.1l2.2-1l1-3.3h1.3v3.6h4.5v1.8h-4.5v9c0,0.9,0.2,1.6,0.7,2.1
		C909.6,330,910.2,330.3,910.9,330.3z"/>
	<path class="st2" d="M922.6,332.2c-2.3,0-4.1-0.7-5.4-2.1s-2-3.3-2-5.8c0-2.5,0.6-4.4,1.8-5.9s2.9-2.2,4.9-2.2
		c1.9,0,3.4,0.6,4.6,1.9c1.1,1.3,1.7,2.9,1.7,5v1.5h-10.6c0,1.8,0.5,3.2,1.4,4.1c0.9,0.9,2.1,1.4,3.6,1.4c1.7,0,3.3-0.3,4.9-1v2.1
		c-0.8,0.4-1.6,0.6-2.3,0.8C924.5,332.1,923.6,332.2,922.6,332.2z M921.9,318.2c-1.2,0-2.2,0.4-2.9,1.2c-0.7,0.8-1.2,1.9-1.3,3.3h8
		c0-1.5-0.3-2.6-1-3.4C924.1,318.6,923.2,318.2,921.9,318.2z"/>
	<path class="st2" d="M935.9,324l-5.3-7.5h2.6l4,5.9l4-5.9h2.6l-5.3,7.5l5.6,7.9h-2.6l-4.3-6.2l-4.3,6.2h-2.6L935.9,324z"/>
	<path class="st2" d="M952.2,330.3c0.4,0,0.8,0,1.2-0.1s0.7-0.1,0.9-0.2v1.8c-0.3,0.1-0.6,0.2-1.1,0.3c-0.5,0.1-0.9,0.1-1.3,0.1
		c-3,0-4.5-1.6-4.5-4.7v-9.1h-2.2v-1.1l2.2-1l1-3.3h1.3v3.6h4.5v1.8h-4.5v9c0,0.9,0.2,1.6,0.7,2.1
		C950.8,330,951.4,330.3,952.2,330.3z"/>
	<path class="st2" d="M970.6,324.2c0,2.5-0.6,4.5-1.9,5.9s-3,2.1-5.2,2.1c-1.4,0-2.6-0.3-3.7-1s-1.9-1.6-2.5-2.8
		c-0.6-1.2-0.9-2.6-0.9-4.2c0-2.5,0.6-4.5,1.9-5.8c1.3-1.4,3-2.1,5.2-2.1c2.1,0,3.9,0.7,5.1,2.1C970,319.8,970.6,321.8,970.6,324.2z
		 M958.9,324.2c0,2,0.4,3.5,1.2,4.5s1.9,1.5,3.5,1.5s2.7-0.5,3.5-1.5c0.8-1,1.2-2.5,1.2-4.5c0-2-0.4-3.4-1.2-4.4
		c-0.8-1-2-1.5-3.5-1.5c-1.5,0-2.7,0.5-3.4,1.5C959.3,320.7,958.9,322.2,958.9,324.2z"/>
	<path class="st2" d="M992.6,331.9V322c0-1.3-0.3-2.2-0.9-2.8c-0.6-0.6-1.5-0.9-2.7-0.9c-1.6,0-2.8,0.4-3.5,1.3
		c-0.7,0.9-1.1,2.3-1.1,4.3v8.1h-2.3v-15.4h1.9l0.4,2.1h0.1c0.5-0.8,1.1-1.3,2-1.8s1.8-0.6,2.9-0.6c1.8,0,3.2,0.4,4.2,1.3
		c0.9,0.9,1.4,2.3,1.4,4.3v10H992.6z"/>
	<path class="st2" d="M1001.9,316.5v10c0,1.3,0.3,2.2,0.9,2.8c0.6,0.6,1.5,0.9,2.7,0.9c1.6,0,2.8-0.4,3.5-1.3
		c0.7-0.9,1.1-2.3,1.1-4.3v-8.1h2.3v15.4h-1.9l-0.3-2.1h-0.1c-0.5,0.8-1.1,1.3-2,1.7c-0.8,0.4-1.8,0.6-2.9,0.6
		c-1.9,0-3.3-0.4-4.2-1.3c-0.9-0.9-1.4-2.3-1.4-4.3v-10H1001.9z"/>
	<path class="st2" d="M1023.8,332.2c-2.3,0-4.1-0.7-5.4-2.1s-2-3.3-2-5.8c0-2.5,0.6-4.4,1.8-5.9s2.9-2.2,4.9-2.2
		c1.9,0,3.4,0.6,4.6,1.9c1.1,1.3,1.7,2.9,1.7,5v1.5h-10.6c0,1.8,0.5,3.2,1.4,4.1c0.9,0.9,2.1,1.4,3.6,1.4c1.7,0,3.3-0.3,4.9-1v2.1
		c-0.8,0.4-1.6,0.6-2.3,0.8C1025.8,332.1,1024.9,332.2,1023.8,332.2z M1023.2,318.2c-1.2,0-2.2,0.4-2.9,1.2
		c-0.7,0.8-1.2,1.9-1.3,3.3h8c0-1.5-0.3-2.6-1-3.4C1025.4,318.6,1024.4,318.2,1023.2,318.2z"/>
	<path class="st2" d="M1036.8,331.9l-5.8-15.4h2.5l3.3,9.1c0.7,2.1,1.2,3.5,1.3,4.1h0.1c0.1-0.5,0.4-1.5,1-3.1
		c0.5-1.6,1.8-4.9,3.7-10.2h2.5l-5.8,15.4H1036.8z"/>
	<path class="st2" d="M1061.1,324.2c0,2.5-0.6,4.5-1.9,5.9s-3,2.1-5.2,2.1c-1.4,0-2.6-0.3-3.7-1s-1.9-1.6-2.5-2.8
		c-0.6-1.2-0.9-2.6-0.9-4.2c0-2.5,0.6-4.5,1.9-5.8c1.3-1.4,3-2.1,5.2-2.1c2.1,0,3.9,0.7,5.1,2.1
		C1060.4,319.8,1061.1,321.8,1061.1,324.2z M1049.4,324.2c0,2,0.4,3.5,1.2,4.5s1.9,1.5,3.5,1.5s2.7-0.5,3.5-1.5
		c0.8-1,1.2-2.5,1.2-4.5c0-2-0.4-3.4-1.2-4.4c-0.8-1-2-1.5-3.5-1.5c-1.5,0-2.7,0.5-3.4,1.5C1049.8,320.7,1049.4,322.2,1049.4,324.2z
		"/>
	<path class="st2" d="M1067.6,328.6l0.2,0.3c-0.2,0.9-0.6,2-1.1,3.3s-0.9,2.4-1.4,3.5h-1.8c0.3-1,0.5-2.2,0.8-3.6
		c0.3-1.4,0.5-2.6,0.6-3.4H1067.6z"/>
	<path class="st2" d="M535.3,364.3h-0.1c-1.1,1.6-2.7,2.3-4.8,2.3c-2,0-3.6-0.7-4.7-2.1c-1.1-1.4-1.7-3.3-1.7-5.9
		c0-2.5,0.6-4.5,1.7-5.9c1.1-1.4,2.7-2.1,4.7-2.1c2.1,0,3.7,0.8,4.8,2.3h0.2l-0.1-1.1l-0.1-1.1v-6.2h2.3v21.8h-1.9L535.3,364.3z
		 M530.6,364.7c1.6,0,2.7-0.4,3.5-1.3s1.1-2.3,1.1-4.2v-0.5c0-2.2-0.4-3.7-1.1-4.7s-1.9-1.4-3.5-1.4c-1.4,0-2.4,0.5-3.1,1.6
		c-0.7,1.1-1.1,2.6-1.1,4.5c0,2,0.4,3.4,1.1,4.4S529.2,364.7,530.6,364.7z"/>
	<path class="st2" d="M542.2,346.8c0-0.5,0.1-0.9,0.4-1.2c0.3-0.2,0.6-0.4,1-0.4c0.4,0,0.7,0.1,1,0.4c0.3,0.3,0.4,0.6,0.4,1.2
		s-0.1,0.9-0.4,1.2s-0.6,0.4-1,0.4c-0.4,0-0.7-0.1-1-0.4S542.2,347.3,542.2,346.8z M544.7,366.3h-2.3V351h2.3V366.3z"/>
	<path class="st2" d="M556.6,352.8h-3.9v13.5h-2.3v-13.5h-2.7v-1.1l2.7-0.8V350c0-3.8,1.6-5.7,4.9-5.7c0.8,0,1.8,0.2,2.9,0.5
		l-0.6,1.9c-0.9-0.3-1.7-0.4-2.3-0.4c-0.9,0-1.5,0.3-1.9,0.9c-0.4,0.6-0.6,1.5-0.6,2.8v1h3.9V352.8z"/>
	<path class="st2" d="M565.9,366.6c-2.3,0-4.1-0.7-5.4-2.1c-1.3-1.4-2-3.3-2-5.8c0-2.5,0.6-4.4,1.8-5.9c1.2-1.5,2.9-2.2,4.9-2.2
		c1.9,0,3.4,0.6,4.6,1.9s1.7,2.9,1.7,5v1.5h-10.6c0,1.8,0.5,3.2,1.4,4.1c0.9,0.9,2.1,1.4,3.6,1.4c1.7,0,3.3-0.3,4.9-1v2.1
		c-0.8,0.4-1.6,0.6-2.3,0.8C567.8,366.5,566.9,366.6,565.9,366.6z M565.2,352.6c-1.2,0-2.2,0.4-2.9,1.2c-0.7,0.8-1.2,1.9-1.3,3.3h8
		c0-1.5-0.3-2.6-1-3.4S566.5,352.6,565.2,352.6z"/>
	<path class="st2" d="M582.5,350.7c0.7,0,1.3,0.1,1.8,0.2L584,353c-0.6-0.1-1.2-0.2-1.7-0.2c-1.2,0-2.3,0.5-3.2,1.5
		c-0.9,1-1.3,2.3-1.3,3.8v8.2h-2.3V351h1.9l0.3,2.8h0.1c0.6-1,1.3-1.8,2.1-2.3C580.6,351,581.5,350.7,582.5,350.7z"/>
	<path class="st2" d="M593.7,366.6c-2.3,0-4.1-0.7-5.4-2.1c-1.3-1.4-2-3.3-2-5.8c0-2.5,0.6-4.4,1.8-5.9c1.2-1.5,2.9-2.2,4.9-2.2
		c1.9,0,3.4,0.6,4.6,1.9c1.1,1.3,1.7,2.9,1.7,5v1.5h-10.6c0,1.8,0.5,3.2,1.4,4.1c0.9,0.9,2.1,1.4,3.6,1.4c1.7,0,3.3-0.3,4.9-1v2.1
		c-0.8,0.4-1.6,0.6-2.3,0.8C595.6,366.5,594.7,366.6,593.7,366.6z M593.1,352.6c-1.2,0-2.2,0.4-2.9,1.2c-0.7,0.8-1.2,1.9-1.3,3.3h8
		c0-1.5-0.3-2.6-1-3.4C595.2,353,594.3,352.6,593.1,352.6z"/>
	<path class="st2" d="M613.8,366.3v-9.9c0-1.3-0.3-2.2-0.9-2.8c-0.6-0.6-1.5-0.9-2.7-0.9c-1.6,0-2.8,0.4-3.5,1.3
		c-0.7,0.9-1.1,2.3-1.1,4.3v8.1h-2.3V351h1.9l0.4,2.1h0.1c0.5-0.8,1.1-1.3,2-1.8s1.8-0.6,2.9-0.6c1.8,0,3.2,0.4,4.2,1.3
		c0.9,0.9,1.4,2.3,1.4,4.3v10H613.8z"/>
	<path class="st2" d="M625.9,364.7c0.4,0,0.8,0,1.2-0.1s0.7-0.1,0.9-0.2v1.8c-0.3,0.1-0.6,0.2-1.1,0.3c-0.5,0.1-0.9,0.1-1.3,0.1
		c-3,0-4.5-1.6-4.5-4.7v-9.1h-2.2v-1.1l2.2-1l1-3.3h1.3v3.6h4.5v1.8h-4.5v9c0,0.9,0.2,1.6,0.7,2.1
		C624.5,364.4,625.1,364.7,625.9,364.7z"/>
	<path class="st2" d="M637.5,366.6c-2.3,0-4.1-0.7-5.4-2.1s-2-3.3-2-5.8c0-2.5,0.6-4.4,1.8-5.9s2.9-2.2,4.9-2.2
		c1.9,0,3.4,0.6,4.6,1.9c1.1,1.3,1.7,2.9,1.7,5v1.5h-10.6c0,1.8,0.5,3.2,1.4,4.1c0.9,0.9,2.1,1.4,3.6,1.4c1.7,0,3.3-0.3,4.9-1v2.1
		c-0.8,0.4-1.6,0.6-2.3,0.8C639.4,366.5,638.6,366.6,637.5,366.6z M636.9,352.6c-1.2,0-2.2,0.4-2.9,1.2c-0.7,0.8-1.2,1.9-1.3,3.3h8
		c0-1.5-0.3-2.6-1-3.4C639,353,638.1,352.6,636.9,352.6z"/>
	<path class="st2" d="M649.6,363l0.2,0.3c-0.2,0.9-0.6,2-1.1,3.3s-0.9,2.4-1.4,3.5h-1.8c0.3-1,0.5-2.2,0.8-3.6
		c0.3-1.4,0.5-2.6,0.6-3.4H649.6z"/>
	<path class="st2" d="M667.1,366.6c-2,0-3.5-0.7-4.6-2.1s-1.7-3.3-1.7-5.8c0-2.5,0.6-4.5,1.7-5.9c1.1-1.4,2.7-2.1,4.7-2.1
		c2.1,0,3.7,0.8,4.8,2.4h0.1l0.3-2.1h1.8v22.2h-2.3v-6.6c0-0.9,0.1-1.7,0.2-2.4h-0.2C670.8,365.8,669.2,366.6,667.1,366.6z
		 M667.4,364.7c1.5,0,2.7-0.4,3.4-1.2c0.7-0.8,1.1-2.2,1.1-4.2v-0.5c0-2.1-0.4-3.7-1.1-4.6s-1.9-1.4-3.5-1.4c-1.4,0-2.4,0.5-3.1,1.6
		s-1.1,2.6-1.1,4.5s0.4,3.4,1.1,4.4C665,364.2,666,364.7,667.4,364.7z"/>
	<path class="st2" d="M681.4,351v10c0,1.3,0.3,2.2,0.9,2.8c0.6,0.6,1.5,0.9,2.7,0.9c1.6,0,2.8-0.4,3.5-1.3c0.7-0.9,1.1-2.3,1.1-4.3
		V351h2.3v15.4H690l-0.3-2.1h-0.1c-0.5,0.8-1.1,1.3-2,1.7c-0.8,0.4-1.8,0.6-2.9,0.6c-1.9,0-3.3-0.4-4.2-1.3
		c-0.9-0.9-1.4-2.3-1.4-4.3v-10H681.4z"/>
	<path class="st2" d="M703.3,366.6c-2.3,0-4.1-0.7-5.4-2.1s-2-3.3-2-5.8c0-2.5,0.6-4.4,1.8-5.9s2.9-2.2,4.9-2.2
		c1.9,0,3.4,0.6,4.6,1.9c1.1,1.3,1.7,2.9,1.7,5v1.5h-10.6c0,1.8,0.5,3.2,1.4,4.1c0.9,0.9,2.1,1.4,3.6,1.4c1.7,0,3.3-0.3,4.9-1v2.1
		c-0.8,0.4-1.6,0.6-2.3,0.8C705.2,366.5,704.3,366.6,703.3,366.6z M702.7,352.6c-1.2,0-2.2,0.4-2.9,1.2c-0.7,0.8-1.2,1.9-1.3,3.3h8
		c0-1.5-0.3-2.6-1-3.4C704.8,353,703.9,352.6,702.7,352.6z"/>
	<path class="st2" d="M730.9,366.3v-9.9c0-1.3-0.3-2.2-0.9-2.8c-0.6-0.6-1.5-0.9-2.7-0.9c-1.6,0-2.8,0.4-3.5,1.3
		c-0.7,0.9-1.1,2.3-1.1,4.3v8.1h-2.3V351h1.9l0.4,2.1h0.1c0.5-0.8,1.1-1.3,2-1.8s1.8-0.6,2.9-0.6c1.8,0,3.2,0.4,4.2,1.3
		c0.9,0.9,1.4,2.3,1.4,4.3v10H730.9z"/>
	<path class="st2" d="M751.2,358.6c0,2.5-0.6,4.5-1.9,5.9s-3,2.1-5.2,2.1c-1.4,0-2.6-0.3-3.7-1s-1.9-1.6-2.5-2.8
		c-0.6-1.2-0.9-2.6-0.9-4.2c0-2.5,0.6-4.5,1.9-5.8c1.3-1.4,3-2.1,5.2-2.1c2.1,0,3.9,0.7,5.1,2.1
		C750.6,354.3,751.2,356.2,751.2,358.6z M739.5,358.6c0,2,0.4,3.5,1.2,4.5s1.9,1.5,3.5,1.5s2.7-0.5,3.5-1.5c0.8-1,1.2-2.5,1.2-4.5
		c0-2-0.4-3.4-1.2-4.4c-0.8-1-2-1.5-3.5-1.5c-1.5,0-2.7,0.5-3.4,1.5C739.9,355.2,739.5,356.7,739.5,358.6z"/>
	<path class="st2" d="M772.7,362.1c0,1.4-0.5,2.5-1.6,3.3c-1.1,0.8-2.6,1.2-4.5,1.2c-2,0-3.6-0.3-4.8-1v-2.2
		c0.7,0.4,1.5,0.7,2.4,0.9c0.8,0.2,1.7,0.3,2.4,0.3c1.2,0,2.1-0.2,2.8-0.6c0.7-0.4,1-1,1-1.8c0-0.6-0.3-1.1-0.8-1.5
		c-0.5-0.4-1.5-0.9-3-1.5c-1.4-0.5-2.4-1-3-1.4c-0.6-0.4-1.1-0.8-1.3-1.4c-0.3-0.5-0.4-1.1-0.4-1.8c0-1.3,0.5-2.2,1.5-3
		c1-0.7,2.4-1.1,4.2-1.1c1.7,0,3.3,0.3,4.8,1l-0.8,1.9c-1.5-0.6-2.9-1-4.2-1c-1.1,0-1.9,0.2-2.5,0.5s-0.8,0.8-0.8,1.4
		c0,0.4,0.1,0.8,0.3,1.1s0.5,0.6,1,0.8s1.4,0.6,2.7,1.1c1.8,0.7,3.1,1.3,3.7,2C772.3,360.3,772.7,361.1,772.7,362.1z"/>
	<path class="st2" d="M782.9,366.6c-2.3,0-4.1-0.7-5.4-2.1s-2-3.3-2-5.8c0-2.5,0.6-4.4,1.8-5.9s2.9-2.2,4.9-2.2
		c1.9,0,3.4,0.6,4.6,1.9c1.1,1.3,1.7,2.9,1.7,5v1.5H778c0,1.8,0.5,3.2,1.4,4.1c0.9,0.9,2.1,1.4,3.6,1.4c1.7,0,3.3-0.3,4.9-1v2.1
		c-0.8,0.4-1.6,0.6-2.3,0.8C784.8,366.5,784,366.6,782.9,366.6z M782.3,352.6c-1.2,0-2.2,0.4-2.9,1.2c-0.7,0.8-1.2,1.9-1.3,3.3h8
		c0-1.5-0.3-2.6-1-3.4C784.4,353,783.5,352.6,782.3,352.6z"/>
	<path class="st2" d="M807,350.7c0.7,0,1.3,0.1,1.8,0.2l-0.3,2.2c-0.6-0.1-1.2-0.2-1.7-0.2c-1.2,0-2.3,0.5-3.2,1.5
		c-0.9,1-1.3,2.3-1.3,3.8v8.2H800V351h1.9l0.3,2.8h0.1c0.6-1,1.3-1.8,2.1-2.3C805.1,351,806,350.7,807,350.7z"/>
	<path class="st2" d="M818.2,366.6c-2.3,0-4.1-0.7-5.4-2.1s-2-3.3-2-5.8c0-2.5,0.6-4.4,1.8-5.9s2.9-2.2,4.9-2.2
		c1.9,0,3.4,0.6,4.6,1.9c1.1,1.3,1.7,2.9,1.7,5v1.5h-10.6c0,1.8,0.5,3.2,1.4,4.1c0.9,0.9,2.1,1.4,3.6,1.4c1.7,0,3.3-0.3,4.9-1v2.1
		c-0.8,0.4-1.6,0.6-2.3,0.8C820.1,366.5,819.2,366.6,818.2,366.6z M817.6,352.6c-1.2,0-2.2,0.4-2.9,1.2c-0.7,0.8-1.2,1.9-1.3,3.3h8
		c0-1.5-0.3-2.6-1-3.4C819.7,353,818.8,352.6,817.6,352.6z"/>
	<path class="st2" d="M834.9,366.6c-1,0-1.9-0.2-2.7-0.6c-0.8-0.4-1.5-0.9-2.1-1.7H830c0.1,0.9,0.2,1.7,0.2,2.5v6.3h-2.3V351h1.9
		l0.3,2.1h0.1c0.6-0.8,1.3-1.4,2.1-1.8c0.8-0.4,1.7-0.6,2.7-0.6c2,0,3.6,0.7,4.7,2.1s1.7,3.3,1.7,5.9c0,2.5-0.6,4.5-1.7,5.9
		C838.5,365.9,836.9,366.6,834.9,366.6z M834.6,352.7c-1.6,0-2.7,0.4-3.4,1.3c-0.7,0.9-1.1,2.3-1.1,4.1v0.5c0,2.2,0.4,3.7,1.1,4.6
		c0.7,0.9,1.9,1.4,3.5,1.4c1.3,0,2.4-0.5,3.1-1.6c0.8-1.1,1.1-2.6,1.1-4.4c0-1.9-0.4-3.4-1.1-4.4C837,353.2,836,352.7,834.6,352.7z"
		/>
	<path class="st2" d="M845.2,346.8c0-0.5,0.1-0.9,0.4-1.2c0.3-0.2,0.6-0.4,1-0.4c0.4,0,0.7,0.1,1,0.4c0.3,0.3,0.4,0.6,0.4,1.2
		s-0.1,0.9-0.4,1.2c-0.3,0.3-0.6,0.4-1,0.4c-0.4,0-0.7-0.1-1-0.4C845.3,347.7,845.2,347.3,845.2,346.8z M847.7,366.3h-2.3V351h2.3
		V366.3z"/>
	<path class="st2" d="M857.6,364.7c0.4,0,0.8,0,1.2-0.1s0.7-0.1,0.9-0.2v1.8c-0.3,0.1-0.6,0.2-1.1,0.3c-0.5,0.1-0.9,0.1-1.3,0.1
		c-3,0-4.5-1.6-4.5-4.7v-9.1h-2.2v-1.1l2.2-1l1-3.3h1.3v3.6h4.5v1.8h-4.5v9c0,0.9,0.2,1.6,0.7,2.1
		C856.2,364.4,856.8,364.7,857.6,364.7z"/>
	<path class="st2" d="M869.2,366.6c-2.3,0-4.1-0.7-5.4-2.1s-2-3.3-2-5.8c0-2.5,0.6-4.4,1.8-5.9s2.9-2.2,4.9-2.2
		c1.9,0,3.4,0.6,4.6,1.9c1.1,1.3,1.7,2.9,1.7,5v1.5h-10.6c0,1.8,0.5,3.2,1.4,4.1c0.9,0.9,2.1,1.4,3.6,1.4c1.7,0,3.3-0.3,4.9-1v2.1
		c-0.8,0.4-1.6,0.6-2.3,0.8C871.2,366.5,870.3,366.6,869.2,366.6z M868.6,352.6c-1.2,0-2.2,0.4-2.9,1.2c-0.7,0.8-1.2,1.9-1.3,3.3h8
		c0-1.5-0.3-2.6-1-3.4C870.8,353,869.8,352.6,868.6,352.6z"/>
	<path class="st2" d="M878.5,364.8c0-0.6,0.1-1.1,0.4-1.4s0.7-0.5,1.2-0.5c0.5,0,1,0.2,1.3,0.5c0.3,0.3,0.5,0.8,0.5,1.4
		c0,0.6-0.2,1.1-0.5,1.4c-0.3,0.3-0.7,0.5-1.3,0.5c-0.5,0-0.9-0.1-1.2-0.4C878.7,366,878.5,365.5,878.5,364.8z"/>
</g>
</svg>
