<?xml version="1.0" encoding="utf-8"?>
<!-- Generator: Adobe Illustrator 21.1.0, SVG Export Plug-In . SVG Version: 6.00 Build 0)  -->
<svg version="1.1" id="Capa_1" xmlns="http://www.w3.org/2000/svg" xmlns:xlink="http://www.w3.org/1999/xlink" x="0px" y="0px"
	 viewBox="0 0 1190 580" style="enable-background:new 0 0 1190 580;" xml:space="preserve">
<style type="text/css">
	.st0{fill:#EF9754;}
	.st1{fill:#666666;}
</style>
<g>
	<path class="st0" d="M142.7,258.2l-4.1-13.4h-0.1c0.1,2.7,0.2,4.6,0.2,5.5v8h-3.2v-17.1h4.9l4.1,13.1h0.1l4.3-13.1h4.9v17.1h-3.4
		v-8.1c0-0.4,0-0.8,0-1.3s0.1-1.8,0.2-4h-0.1l-4.4,13.4H142.7z"/>
	<path class="st0" d="M157.7,241.8c0-1.2,0.6-1.7,1.9-1.7s1.9,0.6,1.9,1.7c0,0.6-0.2,1-0.5,1.3s-0.8,0.5-1.5,0.5
		C158.3,243.5,157.7,242.9,157.7,241.8z M161.4,258.2h-3.6v-13.1h3.6V258.2z"/>
	<path class="st0" d="M174.3,254.3c0,1.3-0.5,2.4-1.4,3.1s-2.3,1.1-4.2,1.1c-1,0-1.8-0.1-2.4-0.2s-1.3-0.3-1.9-0.6v-3
		c0.7,0.3,1.4,0.6,2.2,0.8s1.6,0.3,2.2,0.3c1.3,0,1.9-0.4,1.9-1.1c0-0.3-0.1-0.5-0.3-0.7s-0.5-0.4-0.9-0.6s-1-0.5-1.7-0.8
		c-1-0.4-1.7-0.8-2.2-1.2s-0.8-0.8-1-1.2s-0.3-1-0.3-1.7c0-1.2,0.5-2.1,1.4-2.7s2.2-1,3.8-1c1.6,0,3.1,0.3,4.6,1l-1.1,2.6
		c-0.7-0.3-1.3-0.5-1.8-0.7s-1.2-0.3-1.7-0.3c-1.1,0-1.6,0.3-1.6,0.9c0,0.3,0.2,0.6,0.5,0.8s1.1,0.6,2.2,1c1,0.4,1.8,0.8,2.3,1.2
		s0.8,0.8,1.1,1.2S174.3,253.7,174.3,254.3z"/>
	<path class="st0" d="M185.4,258.2l-0.7-1.8h-0.1c-0.6,0.8-1.2,1.3-1.9,1.6s-1.5,0.4-2.5,0.4c-1.3,0-2.2-0.4-3-1.1s-1.1-1.7-1.1-3.1
		c0-1.4,0.5-2.4,1.5-3.1s2.4-1,4.4-1.1l2.3-0.1v-0.6c0-1.3-0.7-2-2-2c-1,0-2.3,0.3-3.7,0.9l-1.2-2.4c1.5-0.8,3.2-1.2,5-1.2
		c1.8,0,3.1,0.4,4,1.1s1.4,1.9,1.4,3.5v8.7H185.4z M184.3,252.2l-1.4,0c-1,0-1.8,0.2-2.3,0.6s-0.8,0.9-0.8,1.6c0,1,0.6,1.5,1.7,1.5
		c0.8,0,1.5-0.2,2-0.7s0.7-1.1,0.7-1.9V252.2z"/>
	<path class="st1" d="M55.9,287h-9.6v-17.1h9.6v1.8h-7.6v5.5h7.1v1.8h-7.1v6.3h7.6V287z"/>
	<path class="st1" d="M67.7,283.5c0,1.2-0.4,2.1-1.3,2.8s-2.1,1-3.8,1c-1.7,0-3-0.3-4-0.8v-1.8c0.6,0.3,1.3,0.6,2,0.7s1.4,0.3,2,0.3
		c1,0,1.8-0.2,2.3-0.5s0.8-0.8,0.8-1.5c0-0.5-0.2-0.9-0.7-1.3s-1.3-0.8-2.5-1.3c-1.2-0.4-2-0.8-2.5-1.2s-0.9-0.7-1.1-1.1
		s-0.4-0.9-0.4-1.5c0-1,0.4-1.9,1.3-2.5s2-0.9,3.5-0.9c1.4,0,2.7,0.3,4.1,0.8l-0.7,1.6c-1.3-0.5-2.5-0.8-3.5-0.8
		c-0.9,0-1.6,0.1-2.1,0.4s-0.7,0.7-0.7,1.2c0,0.3,0.1,0.6,0.3,0.9s0.5,0.5,0.8,0.7s1.1,0.5,2.3,0.9c1.5,0.6,2.6,1.1,3.1,1.7
		S67.7,282.7,67.7,283.5z"/>
	<path class="st1" d="M75,285.7c0.3,0,0.7,0,1-0.1s0.6-0.1,0.8-0.2v1.5c-0.2,0.1-0.5,0.2-0.9,0.3s-0.8,0.1-1.1,0.1
		c-2.5,0-3.7-1.3-3.7-3.9v-7.6h-1.8v-0.9L71,274l0.8-2.7h1.1v3h3.7v1.5h-3.7v7.6c0,0.8,0.2,1.4,0.6,1.8S74.3,285.7,75,285.7z"/>
	<path class="st1" d="M85.2,274c0.6,0,1.1,0,1.5,0.1l-0.3,1.8c-0.5-0.1-1-0.2-1.4-0.2c-1,0-1.9,0.4-2.7,1.3s-1.1,1.9-1.1,3.2v6.9
		h-1.9v-12.8h1.6l0.2,2.4h0.1c0.5-0.8,1.1-1.5,1.7-1.9S84.4,274,85.2,274z"/>
	<path class="st1" d="M90.9,274.2v8.3c0,1,0.2,1.8,0.7,2.3s1.2,0.8,2.2,0.8c1.3,0,2.3-0.4,2.9-1.1s0.9-1.9,0.9-3.6v-6.8h1.9V287
		h-1.6l-0.3-1.7h-0.1c-0.4,0.6-1,1.1-1.7,1.5s-1.5,0.5-2.4,0.5c-1.6,0-2.7-0.4-3.5-1.1s-1.2-1.9-1.2-3.6v-8.4H90.9z"/>
	<path class="st1" d="M109,287.3c-1.9,0-3.3-0.6-4.3-1.7s-1.5-2.8-1.5-4.9c0-2.1,0.5-3.8,1.6-5s2.5-1.8,4.4-1.8
		c0.6,0,1.2,0.1,1.9,0.2s1.1,0.3,1.5,0.5l-0.6,1.7c-0.4-0.2-0.9-0.3-1.4-0.4s-1-0.2-1.3-0.2c-2.6,0-3.9,1.7-3.9,5
		c0,1.6,0.3,2.8,1,3.6s1.6,1.3,2.8,1.3c1.1,0,2.2-0.2,3.3-0.7v1.7C111.4,287.1,110.3,287.3,109,287.3z"/>
	<path class="st1" d="M119.4,285.7c0.3,0,0.7,0,1-0.1s0.6-0.1,0.8-0.2v1.5c-0.2,0.1-0.5,0.2-0.9,0.3s-0.8,0.1-1.1,0.1
		c-2.5,0-3.7-1.3-3.7-3.9v-7.6h-1.8v-0.9l1.8-0.8l0.8-2.7h1.1v3h3.7v1.5h-3.7v7.6c0,0.8,0.2,1.4,0.6,1.8S118.8,285.7,119.4,285.7z"
		/>
	<path class="st1" d="M125.6,274.2v8.3c0,1,0.2,1.8,0.7,2.3s1.2,0.8,2.2,0.8c1.3,0,2.3-0.4,2.9-1.1s0.9-1.9,0.9-3.6v-6.8h1.9V287
		h-1.6l-0.3-1.7h-0.1c-0.4,0.6-1,1.1-1.7,1.5s-1.5,0.5-2.4,0.5c-1.6,0-2.7-0.4-3.5-1.1s-1.2-1.9-1.2-3.6v-8.4H125.6z"/>
	<path class="st1" d="M144.3,274c0.6,0,1.1,0,1.5,0.1l-0.3,1.8c-0.5-0.1-1-0.2-1.4-0.2c-1,0-1.9,0.4-2.7,1.3s-1.1,1.9-1.1,3.2v6.9
		h-1.9v-12.8h1.6l0.2,2.4h0.1c0.5-0.8,1.1-1.5,1.7-1.9S143.5,274,144.3,274z"/>
	<path class="st1" d="M156.2,287l-0.4-1.8h-0.1c-0.6,0.8-1.3,1.3-1.9,1.6s-1.4,0.4-2.4,0.4c-1.3,0-2.3-0.3-3-1s-1.1-1.6-1.1-2.8
		c0-2.6,2.1-4,6.2-4.1l2.2-0.1v-0.8c0-1-0.2-1.8-0.7-2.2s-1.1-0.7-2.1-0.7c-1.1,0-2.3,0.3-3.6,1l-0.6-1.5c0.6-0.3,1.3-0.6,2.1-0.8
		s1.5-0.3,2.3-0.3c1.5,0,2.7,0.3,3.4,1s1.1,1.8,1.1,3.3v8.8H156.2z M151.8,285.7c1.2,0,2.2-0.3,2.9-1s1-1.6,1-2.8v-1.2l-1.9,0.1
		c-1.5,0.1-2.7,0.3-3.3,0.7s-1,1.1-1,2c0,0.7,0.2,1.2,0.6,1.6S151,285.7,151.8,285.7z"/>
	<path class="st1" d="M176.6,285.3h-0.1c-0.9,1.3-2.2,2-4,2c-1.7,0-3-0.6-3.9-1.7s-1.4-2.8-1.4-4.9s0.5-3.8,1.4-4.9s2.2-1.8,3.9-1.8
		c1.7,0,3.1,0.6,4,1.9h0.2l-0.1-0.9l0-0.9v-5.2h1.9V287h-1.6L176.6,285.3z M172.7,285.6c1.3,0,2.3-0.4,2.9-1.1s0.9-1.9,0.9-3.5v-0.4
		c0-1.8-0.3-3.1-0.9-3.9s-1.6-1.2-2.9-1.2c-1.1,0-2,0.4-2.6,1.3s-0.9,2.1-0.9,3.8c0,1.6,0.3,2.9,0.9,3.7S171.5,285.6,172.7,285.6z"
		/>
	<path class="st1" d="M188,287.3c-1.9,0-3.4-0.6-4.5-1.7s-1.6-2.8-1.6-4.8c0-2.1,0.5-3.7,1.5-4.9s2.4-1.8,4.1-1.8
		c1.6,0,2.9,0.5,3.8,1.6s1.4,2.5,1.4,4.2v1.2h-8.8c0,1.5,0.4,2.7,1.1,3.4s1.7,1.2,3.1,1.2c1.4,0,2.8-0.3,4.1-0.9v1.7
		c-0.7,0.3-1.3,0.5-2,0.6S188.8,287.3,188,287.3z M187.4,275.6c-1,0-1.9,0.3-2.5,1s-1,1.6-1.1,2.8h6.7c0-1.2-0.3-2.2-0.8-2.8
		S188.5,275.6,187.4,275.6z"/>
	<path class="st1" d="M204.2,287h-1.9v-18.2h1.9V287z"/>
	<path class="st1" d="M216.2,287l-0.4-1.8h-0.1c-0.6,0.8-1.3,1.3-1.9,1.6s-1.4,0.4-2.4,0.4c-1.3,0-2.3-0.3-3-1s-1.1-1.6-1.1-2.8
		c0-2.6,2.1-4,6.2-4.1l2.2-0.1v-0.8c0-1-0.2-1.8-0.7-2.2s-1.1-0.7-2.1-0.7c-1.1,0-2.3,0.3-3.6,1l-0.6-1.5c0.6-0.3,1.3-0.6,2.1-0.8
		s1.5-0.3,2.3-0.3c1.5,0,2.7,0.3,3.4,1s1.1,1.8,1.1,3.3v8.8H216.2z M211.8,285.7c1.2,0,2.2-0.3,2.9-1s1-1.6,1-2.8v-1.2l-1.9,0.1
		c-1.5,0.1-2.7,0.3-3.3,0.7s-1,1.1-1,2c0,0.7,0.2,1.2,0.6,1.6S211.1,285.7,211.8,285.7z"/>
	<path class="st1" d="M244.3,287v-8.4c0-1-0.2-1.8-0.7-2.3s-1.1-0.8-2-0.8c-1.2,0-2.1,0.3-2.7,1s-0.9,1.8-0.9,3.2v7.2h-1.9v-8.4
		c0-1-0.2-1.8-0.7-2.3s-1.1-0.8-2.1-0.8c-1.2,0-2.1,0.4-2.7,1.1s-0.8,1.9-0.8,3.6v6.7h-1.9v-12.8h1.6l0.3,1.8h0.1
		c0.4-0.6,0.9-1.1,1.6-1.5s1.4-0.5,2.2-0.5c2,0,3.3,0.7,3.9,2.2h0.1c0.4-0.7,0.9-1.2,1.7-1.6s1.6-0.6,2.5-0.6c1.5,0,2.5,0.4,3.3,1.1
		s1.1,1.9,1.1,3.6v8.4H244.3z"/>
	<path class="st1" d="M250.1,270.7c0-0.4,0.1-0.8,0.3-1s0.5-0.3,0.8-0.3c0.3,0,0.6,0.1,0.8,0.3s0.3,0.5,0.3,1s-0.1,0.8-0.3,1
		s-0.5,0.3-0.8,0.3c-0.3,0-0.6-0.1-0.8-0.3S250.1,271.2,250.1,270.7z M252.2,287h-1.9v-12.8h1.9V287z"/>
	<path class="st1" d="M264.6,283.5c0,1.2-0.4,2.1-1.3,2.8s-2.1,1-3.8,1c-1.7,0-3-0.3-4-0.8v-1.8c0.6,0.3,1.3,0.6,2,0.7
		s1.4,0.3,2,0.3c1,0,1.8-0.2,2.3-0.5s0.8-0.8,0.8-1.5c0-0.5-0.2-0.9-0.7-1.3s-1.3-0.8-2.5-1.3c-1.2-0.4-2-0.8-2.5-1.2
		s-0.9-0.7-1.1-1.1s-0.4-0.9-0.4-1.5c0-1,0.4-1.9,1.3-2.5s2-0.9,3.5-0.9c1.4,0,2.7,0.3,4.1,0.8l-0.7,1.6c-1.3-0.5-2.5-0.8-3.5-0.8
		c-0.9,0-1.6,0.1-2.1,0.4s-0.7,0.7-0.7,1.2c0,0.3,0.1,0.6,0.3,0.9s0.5,0.5,0.8,0.7s1.1,0.5,2.3,0.9c1.5,0.6,2.6,1.1,3.1,1.7
		S264.6,282.7,264.6,283.5z"/>
	<path class="st1" d="M275.6,287l-0.4-1.8h-0.1c-0.6,0.8-1.3,1.3-1.9,1.6s-1.4,0.4-2.4,0.4c-1.3,0-2.3-0.3-3-1s-1.1-1.6-1.1-2.8
		c0-2.6,2.1-4,6.2-4.1l2.2-0.1v-0.8c0-1-0.2-1.8-0.7-2.2s-1.1-0.7-2.1-0.7c-1.1,0-2.3,0.3-3.6,1l-0.6-1.5c0.6-0.3,1.3-0.6,2.1-0.8
		s1.5-0.3,2.3-0.3c1.5,0,2.7,0.3,3.4,1s1.1,1.8,1.1,3.3v8.8H275.6z M271.2,285.7c1.2,0,2.2-0.3,2.9-1s1-1.6,1-2.8v-1.2l-1.9,0.1
		c-1.5,0.1-2.7,0.3-3.3,0.7s-1,1.1-1,2c0,0.7,0.2,1.2,0.6,1.6S270.5,285.7,271.2,285.7z"/>
	<path class="st1" d="M42.7,309.3c0-2.1,0.3-4,0.9-5.8s1.5-3.4,2.6-4.7h1.9c-1.1,1.5-2,3.2-2.5,5s-0.8,3.7-0.8,5.6
		c0,1.9,0.3,3.7,0.9,5.5s1.4,3.4,2.5,4.9h-1.9c-1.1-1.3-2-2.9-2.6-4.7S42.7,311.3,42.7,309.3z"/>
	<path class="st1" d="M62,309.4c0,2.1-0.5,3.7-1.6,4.9s-2.5,1.8-4.4,1.8c-1.1,0-2.2-0.3-3.1-0.8s-1.6-1.3-2.1-2.3s-0.7-2.2-0.7-3.5
		c0-2.1,0.5-3.7,1.6-4.9s2.5-1.8,4.4-1.8c1.8,0,3.2,0.6,4.3,1.8S62,307.4,62,309.4z M52.2,309.4c0,1.6,0.3,2.9,1,3.8
		s1.6,1.3,2.9,1.3s2.2-0.4,2.9-1.3s1-2.1,1-3.8c0-1.6-0.3-2.9-1-3.7s-1.6-1.3-2.9-1.3c-1.3,0-2.2,0.4-2.9,1.3S52.2,307.8,52.2,309.4
		z"/>
	<path class="st1" d="M71.3,302.8c0.6,0,1.1,0,1.5,0.1l-0.3,1.8c-0.5-0.1-1-0.2-1.4-0.2c-1,0-1.9,0.4-2.7,1.3s-1.1,1.9-1.1,3.2v6.9
		h-1.9V303H67l0.2,2.4h0.1c0.5-0.8,1.1-1.5,1.7-1.9S70.5,302.8,71.3,302.8z"/>
	<path class="st1" d="M84,314.1h-0.1c-0.9,1.3-2.2,2-4,2c-1.7,0-3-0.6-3.9-1.7s-1.4-2.8-1.4-4.9s0.5-3.8,1.4-4.9s2.2-1.8,3.9-1.8
		c1.7,0,3.1,0.6,4,1.9H84l-0.1-0.9l0-0.9v-5.2h1.9v18.2h-1.6L84,314.1z M80.1,314.4c1.3,0,2.3-0.4,2.9-1.1s0.9-1.9,0.9-3.5v-0.4
		c0-1.8-0.3-3.1-0.9-3.9s-1.6-1.2-2.9-1.2c-1.1,0-2,0.4-2.6,1.3s-0.9,2.1-0.9,3.8c0,1.6,0.3,2.9,0.9,3.7S78.9,314.4,80.1,314.4z"/>
	<path class="st1" d="M89.8,299.5c0-0.4,0.1-0.8,0.3-1s0.5-0.3,0.8-0.3c0.3,0,0.6,0.1,0.8,0.3s0.3,0.5,0.3,1s-0.1,0.8-0.3,1
		s-0.5,0.3-0.8,0.3c-0.3,0-0.6-0.1-0.8-0.3S89.8,300,89.8,299.5z M91.9,315.8h-1.9V303h1.9V315.8z"/>
	<path class="st1" d="M104.8,315.8v-8.3c0-1-0.2-1.8-0.7-2.3s-1.2-0.8-2.2-0.8c-1.3,0-2.3,0.4-3,1.1s-0.9,1.9-0.9,3.6v6.7H96V303
		h1.6l0.3,1.8H98c0.4-0.6,1-1.1,1.7-1.5s1.5-0.5,2.4-0.5c1.5,0,2.7,0.4,3.5,1.1s1.2,1.9,1.2,3.6v8.4H104.8z"/>
	<path class="st1" d="M118.6,315.8l-0.4-1.8h-0.1c-0.6,0.8-1.3,1.3-1.9,1.6s-1.4,0.4-2.4,0.4c-1.3,0-2.3-0.3-3-1s-1.1-1.6-1.1-2.8
		c0-2.6,2.1-4,6.2-4.1l2.2-0.1v-0.8c0-1-0.2-1.8-0.7-2.2s-1.1-0.7-2.1-0.7c-1.1,0-2.3,0.3-3.6,1l-0.6-1.5c0.6-0.3,1.3-0.6,2.1-0.8
		s1.5-0.3,2.3-0.3c1.5,0,2.7,0.3,3.4,1s1.1,1.8,1.1,3.3v8.8H118.6z M114.2,314.5c1.2,0,2.2-0.3,2.9-1s1-1.6,1-2.8v-1.2l-1.9,0.1
		c-1.5,0.1-2.7,0.3-3.3,0.7s-1,1.1-1,2c0,0.7,0.2,1.2,0.6,1.6S113.5,314.5,114.2,314.5z"/>
	<path class="st1" d="M129.9,302.8c0.6,0,1.1,0,1.5,0.1l-0.3,1.8c-0.5-0.1-1-0.2-1.4-0.2c-1,0-1.9,0.4-2.7,1.3s-1.1,1.9-1.1,3.2v6.9
		h-1.9V303h1.6l0.2,2.4h0.1c0.5-0.8,1.1-1.5,1.7-1.9S129.1,302.8,129.9,302.8z"/>
	<path class="st1" d="M133.7,299.5c0-0.4,0.1-0.8,0.3-1s0.5-0.3,0.8-0.3c0.3,0,0.6,0.1,0.8,0.3s0.3,0.5,0.3,1s-0.1,0.8-0.3,1
		s-0.5,0.3-0.8,0.3c-0.3,0-0.6-0.1-0.8-0.3S133.7,300,133.7,299.5z M135.8,315.8h-1.9V303h1.9V315.8z"/>
	<path class="st1" d="M151,309.4c0,2.1-0.5,3.7-1.6,4.9s-2.5,1.8-4.4,1.8c-1.1,0-2.2-0.3-3.1-0.8s-1.6-1.3-2.1-2.3s-0.7-2.2-0.7-3.5
		c0-2.1,0.5-3.7,1.6-4.9s2.5-1.8,4.4-1.8c1.8,0,3.2,0.6,4.3,1.8S151,307.4,151,309.4z M141.3,309.4c0,1.6,0.3,2.9,1,3.8
		s1.6,1.3,2.9,1.3s2.2-0.4,2.9-1.3s1-2.1,1-3.8c0-1.6-0.3-2.9-1-3.7s-1.6-1.3-2.9-1.3c-1.3,0-2.2,0.4-2.9,1.3
		S141.3,307.8,141.3,309.4z"/>
	<path class="st1" d="M162.7,312.3c0,1.2-0.4,2.1-1.3,2.8s-2.1,1-3.8,1c-1.7,0-3-0.3-4-0.8v-1.8c0.6,0.3,1.3,0.6,2,0.7
		s1.4,0.3,2,0.3c1,0,1.8-0.2,2.3-0.5s0.8-0.8,0.8-1.5c0-0.5-0.2-0.9-0.7-1.3s-1.3-0.8-2.5-1.3c-1.2-0.4-2-0.8-2.5-1.2
		s-0.9-0.7-1.1-1.1s-0.4-0.9-0.4-1.5c0-1,0.4-1.9,1.3-2.5s2-0.9,3.5-0.9c1.4,0,2.7,0.3,4.1,0.8l-0.7,1.6c-1.3-0.5-2.5-0.8-3.5-0.8
		c-0.9,0-1.6,0.1-2.1,0.4s-0.7,0.7-0.7,1.2c0,0.3,0.1,0.6,0.3,0.9s0.5,0.5,0.8,0.7s1.1,0.5,2.3,0.9c1.5,0.6,2.6,1.1,3.1,1.7
		S162.7,311.5,162.7,312.3z"/>
	<path class="st1" d="M170.1,303h2.1l2.8,7.3c0.6,1.7,1,2.9,1.1,3.6h0.1c0.1-0.4,0.3-1.1,0.6-2s1.4-3.9,3.2-8.9h2.1l-5.5,14.6
		c-0.5,1.4-1.2,2.5-1.9,3.1s-1.6,0.9-2.7,0.9c-0.6,0-1.2-0.1-1.8-0.2v-1.6c0.4,0.1,0.9,0.1,1.4,0.1c1.3,0,2.3-0.8,2.9-2.3l0.7-1.8
		L170.1,303z"/>
	<path class="st1" d="M196.4,316.1c-0.8,0-1.6-0.2-2.3-0.5s-1.3-0.8-1.7-1.4h-0.1c0.1,0.8,0.1,1.5,0.1,2.1v5.3h-1.9V303h1.6l0.3,1.8
		h0.1c0.5-0.7,1.1-1.2,1.7-1.5s1.4-0.5,2.3-0.5c1.7,0,3,0.6,3.9,1.7s1.4,2.8,1.4,4.9c0,2.1-0.5,3.7-1.4,4.9S198.1,316.1,196.4,316.1
		z M196.2,304.4c-1.3,0-2.3,0.4-2.8,1.1s-0.9,1.9-0.9,3.5v0.4c0,1.8,0.3,3.1,0.9,3.9s1.6,1.2,2.9,1.2c1.1,0,2-0.4,2.6-1.3
		s0.9-2.1,0.9-3.7c0-1.6-0.3-2.8-0.9-3.7S197.3,304.4,196.2,304.4z"/>
	<path class="st1" d="M211,302.8c0.6,0,1.1,0,1.5,0.1l-0.3,1.8c-0.5-0.1-1-0.2-1.4-0.2c-1,0-1.9,0.4-2.7,1.3s-1.1,1.9-1.1,3.2v6.9
		h-1.9V303h1.6l0.2,2.4h0.1c0.5-0.8,1.1-1.5,1.7-1.9S210.2,302.8,211,302.8z"/>
	<path class="st1" d="M226.1,309.4c0,2.1-0.5,3.7-1.6,4.9s-2.5,1.8-4.4,1.8c-1.1,0-2.2-0.3-3.1-0.8s-1.6-1.3-2.1-2.3
		s-0.7-2.2-0.7-3.5c0-2.1,0.5-3.7,1.6-4.9s2.5-1.8,4.4-1.8c1.8,0,3.2,0.6,4.3,1.8S226.1,307.4,226.1,309.4z M216.3,309.4
		c0,1.6,0.3,2.9,1,3.8s1.6,1.3,2.9,1.3s2.2-0.4,2.9-1.3s1-2.1,1-3.8c0-1.6-0.3-2.9-1-3.7s-1.6-1.3-2.9-1.3c-1.3,0-2.2,0.4-2.9,1.3
		S216.3,307.8,216.3,309.4z"/>
	<path class="st1" d="M235.4,316.1c-0.8,0-1.6-0.2-2.3-0.5s-1.3-0.8-1.7-1.4h-0.1c0.1,0.8,0.1,1.5,0.1,2.1v5.3h-1.9V303h1.6l0.3,1.8
		h0.1c0.5-0.7,1.1-1.2,1.7-1.5s1.4-0.5,2.3-0.5c1.7,0,3,0.6,3.9,1.7s1.4,2.8,1.4,4.9c0,2.1-0.5,3.7-1.4,4.9S237.1,316.1,235.4,316.1
		z M235.2,304.4c-1.3,0-2.3,0.4-2.8,1.1s-0.9,1.9-0.9,3.5v0.4c0,1.8,0.3,3.1,0.9,3.9s1.6,1.2,2.9,1.2c1.1,0,2-0.4,2.6-1.3
		s0.9-2.1,0.9-3.7c0-1.6-0.3-2.8-0.9-3.7S236.3,304.4,235.2,304.4z"/>
	<path class="st1" d="M244,299.5c0-0.4,0.1-0.8,0.3-1s0.5-0.3,0.8-0.3c0.3,0,0.6,0.1,0.8,0.3s0.3,0.5,0.3,1s-0.1,0.8-0.3,1
		s-0.5,0.3-0.8,0.3c-0.3,0-0.6-0.1-0.8-0.3S244,300,244,299.5z M246.1,315.8h-1.9V303h1.9V315.8z"/>
	<path class="st1" d="M261.3,309.4c0,2.1-0.5,3.7-1.6,4.9s-2.5,1.8-4.4,1.8c-1.1,0-2.2-0.3-3.1-0.8s-1.6-1.3-2.1-2.3
		s-0.7-2.2-0.7-3.5c0-2.1,0.5-3.7,1.6-4.9s2.5-1.8,4.4-1.8c1.8,0,3.2,0.6,4.3,1.8S261.3,307.4,261.3,309.4z M251.5,309.4
		c0,1.6,0.3,2.9,1,3.8s1.6,1.3,2.9,1.3s2.2-0.4,2.9-1.3s1-2.1,1-3.8c0-1.6-0.3-2.9-1-3.7s-1.6-1.3-2.9-1.3c-1.3,0-2.2,0.4-2.9,1.3
		S251.5,307.8,251.5,309.4z"/>
	<path class="st1" d="M273,312.3c0,1.2-0.4,2.1-1.3,2.8s-2.1,1-3.8,1c-1.7,0-3-0.3-4-0.8v-1.8c0.6,0.3,1.3,0.6,2,0.7s1.4,0.3,2,0.3
		c1,0,1.8-0.2,2.3-0.5s0.8-0.8,0.8-1.5c0-0.5-0.2-0.9-0.7-1.3s-1.3-0.8-2.5-1.3c-1.2-0.4-2-0.8-2.5-1.2s-0.9-0.7-1.1-1.1
		s-0.4-0.9-0.4-1.5c0-1,0.4-1.9,1.3-2.5s2-0.9,3.5-0.9c1.4,0,2.7,0.3,4.1,0.8l-0.7,1.6c-1.3-0.5-2.5-0.8-3.5-0.8
		c-0.9,0-1.6,0.1-2.1,0.4s-0.7,0.7-0.7,1.2c0,0.3,0.1,0.6,0.3,0.9s0.5,0.5,0.8,0.7s1.1,0.5,2.3,0.9c1.5,0.6,2.6,1.1,3.1,1.7
		S273,311.5,273,312.3z"/>
	<path class="st1" d="M280.3,309.3c0,2.1-0.3,4-0.9,5.7s-1.5,3.3-2.6,4.6h-1.9c1.1-1.5,1.9-3.1,2.5-4.9s0.9-3.6,0.9-5.5
		c0-1.9-0.3-3.8-0.8-5.6s-1.4-3.5-2.5-5h1.9c1.1,1.4,2,3,2.6,4.8S280.3,307.2,280.3,309.3z"/>
</g>
<g>
	<path class="st0" d="M404.9,151.5c0,1.8-0.6,3.3-1.7,4.2s-2.8,1.5-4.9,1.5h-1.6v6.1h-3.6v-17.1h5.5c2.1,0,3.7,0.4,4.7,1.3
		S404.9,149.7,404.9,151.5z M396.7,154.2h1.2c1.1,0,2-0.2,2.5-0.7s0.8-1.1,0.8-1.9c0-0.9-0.2-1.5-0.7-1.9s-1.2-0.6-2.2-0.6h-1.7
		V154.2z"/>
	<path class="st0" d="M416.2,163.2l-0.7-1.8h-0.1c-0.6,0.8-1.2,1.3-1.9,1.6s-1.5,0.4-2.5,0.4c-1.3,0-2.2-0.4-3-1.1s-1.1-1.7-1.1-3.1
		c0-1.4,0.5-2.4,1.5-3.1s2.4-1,4.4-1.1l2.3-0.1v-0.6c0-1.3-0.7-2-2-2c-1,0-2.3,0.3-3.7,0.9l-1.2-2.4c1.5-0.8,3.2-1.2,5-1.2
		c1.8,0,3.1,0.4,4,1.1s1.4,1.9,1.4,3.5v8.7H416.2z M415.1,157.2l-1.4,0c-1,0-1.8,0.2-2.3,0.6s-0.8,0.9-0.8,1.6c0,1,0.6,1.5,1.7,1.5
		c0.8,0,1.5-0.2,2-0.7s0.7-1.1,0.7-1.9V157.2z"/>
	<path class="st0" d="M429.7,149.9c0.5,0,0.9,0,1.2,0.1l-0.3,3.4c-0.3-0.1-0.6-0.1-1.1-0.1c-1.1,0-2,0.3-2.7,0.9s-1,1.4-1,2.5v6.7
		h-3.6v-13.1h2.7l0.5,2.2h0.2c0.4-0.7,1-1.3,1.6-1.8S428.9,149.9,429.7,149.9z"/>
	<path class="st0" d="M438.8,160.6c0.6,0,1.4-0.1,2.3-0.4v2.7c-0.9,0.4-2,0.6-3.3,0.6c-1.4,0-2.5-0.4-3.1-1.1s-1-1.8-1-3.3v-6.3
		h-1.7v-1.5l2-1.2l1-2.8h2.3v2.8h3.7v2.7h-3.7v6.3c0,0.5,0.1,0.9,0.4,1.1S438.3,160.6,438.8,160.6z"/>
	<path class="st0" d="M449.6,163.5c-2.1,0-3.8-0.6-4.9-1.7s-1.8-2.8-1.8-4.9c0-2.2,0.5-3.9,1.6-5.1s2.6-1.8,4.6-1.8
		c1.9,0,3.3,0.5,4.3,1.6s1.5,2.5,1.5,4.4v1.7h-8.4c0,1,0.3,1.8,0.9,2.4s1.4,0.9,2.4,0.9c0.8,0,1.5-0.1,2.2-0.2s1.4-0.4,2.2-0.8v2.8
		c-0.6,0.3-1.3,0.5-2,0.7S450.6,163.5,449.6,163.5z M449.1,152.4c-0.8,0-1.4,0.2-1.8,0.7s-0.7,1.2-0.7,2h5c0-0.9-0.2-1.6-0.7-2
		S449.9,152.4,449.1,152.4z"/>
	<path class="st0" d="M472.4,163.2l-0.7-1.8h-0.1c-0.6,0.8-1.2,1.3-1.9,1.6s-1.5,0.4-2.5,0.4c-1.3,0-2.2-0.4-3-1.1s-1.1-1.7-1.1-3.1
		c0-1.4,0.5-2.4,1.5-3.1s2.4-1,4.4-1.1l2.3-0.1v-0.6c0-1.3-0.7-2-2-2c-1,0-2.3,0.3-3.7,0.9l-1.2-2.4c1.5-0.8,3.2-1.2,5-1.2
		c1.8,0,3.1,0.4,4,1.1s1.4,1.9,1.4,3.5v8.7H472.4z M471.4,157.2l-1.4,0c-1,0-1.8,0.2-2.3,0.6s-0.8,0.9-0.8,1.6c0,1,0.6,1.5,1.7,1.5
		c0.8,0,1.5-0.2,2-0.7s0.7-1.1,0.7-1.9V157.2z"/>
	<path class="st0" d="M490.7,163.2h-3.6v-7.7c0-0.9-0.2-1.7-0.5-2.1s-0.9-0.7-1.6-0.7c-1,0-1.7,0.3-2.2,1s-0.7,1.8-0.7,3.3v6.2h-3.6
		v-13.1h2.7l0.5,1.7h0.2c0.4-0.6,0.9-1.1,1.6-1.4s1.5-0.5,2.4-0.5c1.5,0,2.7,0.4,3.5,1.2s1.2,2,1.2,3.6V163.2z"/>
	<path class="st0" d="M499.9,160.6c0.6,0,1.4-0.1,2.3-0.4v2.7c-0.9,0.4-2,0.6-3.3,0.6c-1.4,0-2.5-0.4-3.1-1.1s-1-1.8-1-3.3v-6.3H493
		v-1.5l2-1.2l1-2.8h2.3v2.8h3.7v2.7h-3.7v6.3c0,0.5,0.1,0.9,0.4,1.1S499.4,160.6,499.9,160.6z"/>
	<path class="st0" d="M504.6,146.8c0-1.2,0.6-1.7,1.9-1.7s1.9,0.6,1.9,1.7c0,0.6-0.2,1-0.5,1.3s-0.8,0.5-1.5,0.5
		C505.3,148.5,504.6,147.9,504.6,146.8z M508.4,163.2h-3.6v-13.1h3.6V163.2z"/>
	<path class="st0" d="M523.5,150.1v1.8l-2.1,0.5c0.4,0.6,0.6,1.2,0.6,2c0,1.4-0.5,2.5-1.5,3.3s-2.3,1.2-4.1,1.2l-0.6,0l-0.5-0.1
		c-0.4,0.3-0.6,0.6-0.6,0.9c0,0.5,0.7,0.8,2,0.8h2.2c1.4,0,2.5,0.3,3.3,0.9s1.1,1.5,1.1,2.7c0,1.5-0.6,2.7-1.9,3.6s-3.1,1.3-5.5,1.3
		c-1.8,0-3.2-0.3-4.2-1s-1.4-1.5-1.4-2.7c0-0.8,0.2-1.4,0.7-2s1.2-0.9,2.2-1.1c-0.4-0.2-0.7-0.4-1-0.8s-0.4-0.7-0.4-1.1
		c0-0.5,0.1-0.9,0.4-1.2s0.7-0.7,1.3-1c-0.7-0.3-1.2-0.8-1.6-1.4s-0.6-1.4-0.6-2.3c0-1.4,0.5-2.5,1.4-3.3s2.3-1.2,4-1.2
		c0.4,0,0.8,0,1.3,0.1s0.8,0.1,1,0.1H523.5z M513.4,165.1c0,0.5,0.2,0.9,0.7,1.2s1.1,0.4,2,0.4c1.3,0,2.3-0.2,3-0.5s1.1-0.8,1.1-1.4
		c0-0.5-0.2-0.8-0.6-1s-1.1-0.3-2-0.3h-1.9c-0.7,0-1.2,0.2-1.6,0.5S513.4,164.6,513.4,165.1z M514.7,154.4c0,0.7,0.2,1.3,0.5,1.7
		s0.8,0.6,1.5,0.6c0.7,0,1.2-0.2,1.5-0.6s0.5-1,0.5-1.7c0-1.6-0.6-2.4-1.9-2.4C515.4,152.1,514.7,152.8,514.7,154.4z"/>
	<path class="st0" d="M535,163.2l-0.5-1.7h-0.2c-0.4,0.6-0.9,1.1-1.6,1.4s-1.5,0.5-2.4,0.5c-1.5,0-2.7-0.4-3.5-1.2s-1.2-2-1.2-3.6
		v-8.5h3.6v7.7c0,0.9,0.2,1.7,0.5,2.1s0.9,0.7,1.6,0.7c1,0,1.7-0.3,2.2-1s0.7-1.8,0.7-3.3v-6.2h3.6v13.1H535z"/>
	<path class="st0" d="M549.8,163.2l-0.7-1.8H549c-0.6,0.8-1.2,1.3-1.9,1.6s-1.5,0.4-2.5,0.4c-1.3,0-2.2-0.4-3-1.1s-1.1-1.7-1.1-3.1
		c0-1.4,0.5-2.4,1.5-3.1s2.4-1,4.4-1.1l2.3-0.1v-0.6c0-1.3-0.7-2-2-2c-1,0-2.3,0.3-3.7,0.9l-1.2-2.4c1.5-0.8,3.2-1.2,5-1.2
		c1.8,0,3.1,0.4,4,1.1s1.4,1.9,1.4,3.5v8.7H549.8z M548.7,157.2l-1.4,0c-1,0-1.8,0.2-2.3,0.6s-0.8,0.9-0.8,1.6c0,1,0.6,1.5,1.7,1.5
		c0.8,0,1.5-0.2,2-0.7s0.7-1.1,0.7-1.9V157.2z"/>
</g>
<g>
	<path class="st0" d="M425.3,363.2h-9.9v-17.1h9.9v3h-6.2v3.8h5.8v3h-5.8v4.4h6.2V363.2z"/>
	<path class="st0" d="M437.9,363.2l-0.5-1.7h-0.2c-0.4,0.6-0.9,1.1-1.6,1.4s-1.5,0.5-2.4,0.5c-1.5,0-2.7-0.4-3.5-1.2s-1.2-2-1.2-3.6
		v-8.5h3.6v7.7c0,0.9,0.2,1.7,0.5,2.1s0.9,0.7,1.6,0.7c1,0,1.7-0.3,2.2-1s0.7-1.8,0.7-3.3v-6.2h3.6v13.1H437.9z"/>
	<path class="st0" d="M449.7,363.5c-4.1,0-6.1-2.2-6.1-6.7c0-2.2,0.6-3.9,1.7-5.1s2.7-1.8,4.8-1.8c1.5,0,2.9,0.3,4.1,0.9l-1.1,2.8
		c-0.6-0.2-1.1-0.4-1.6-0.6s-1-0.2-1.5-0.2c-1.9,0-2.8,1.3-2.8,4c0,2.6,0.9,3.8,2.8,3.8c0.7,0,1.3-0.1,1.9-0.3s1.2-0.5,1.8-0.9v3.1
		c-0.6,0.4-1.2,0.6-1.8,0.8S450.6,363.5,449.7,363.5z"/>
	<path class="st0" d="M465,363.2l-0.7-1.8h-0.1c-0.6,0.8-1.2,1.3-1.9,1.6s-1.5,0.4-2.5,0.4c-1.3,0-2.2-0.4-3-1.1s-1.1-1.7-1.1-3.1
		c0-1.4,0.5-2.4,1.5-3.1s2.4-1,4.4-1.1l2.3-0.1v-0.6c0-1.3-0.7-2-2-2c-1,0-2.3,0.3-3.7,0.9l-1.2-2.4c1.5-0.8,3.2-1.2,5-1.2
		c1.8,0,3.1,0.4,4,1.1s1.4,1.9,1.4,3.5v8.7H465z M464,357.2l-1.4,0c-1,0-1.8,0.2-2.3,0.6s-0.8,0.9-0.8,1.6c0,1,0.6,1.5,1.7,1.5
		c0.8,0,1.5-0.2,2-0.7s0.7-1.1,0.7-1.9V357.2z"/>
	<path class="st0" d="M478.5,349.9c0.5,0,0.9,0,1.2,0.1l-0.3,3.4c-0.3-0.1-0.6-0.1-1.1-0.1c-1.1,0-2,0.3-2.7,0.9s-1,1.4-1,2.5v6.7
		h-3.6v-13.1h2.7l0.5,2.2h0.2c0.4-0.7,1-1.3,1.6-1.8S477.7,349.9,478.5,349.9z"/>
	<path class="st0" d="M482,346.8c0-1.2,0.6-1.7,1.9-1.7s1.9,0.6,1.9,1.7c0,0.6-0.2,1-0.5,1.3s-0.8,0.5-1.5,0.5
		C482.6,348.5,482,347.9,482,346.8z M485.7,363.2h-3.6v-13.1h3.6V363.2z"/>
	<path class="st0" d="M498.6,359.3c0,1.3-0.5,2.4-1.4,3.1s-2.3,1.1-4.2,1.1c-1,0-1.8-0.1-2.4-0.2s-1.3-0.3-1.9-0.6v-3
		c0.7,0.3,1.4,0.6,2.2,0.8s1.6,0.3,2.2,0.3c1.3,0,1.9-0.4,1.9-1.1c0-0.3-0.1-0.5-0.3-0.7s-0.5-0.4-0.9-0.6s-1-0.5-1.7-0.8
		c-1-0.4-1.7-0.8-2.2-1.2s-0.8-0.8-1-1.2s-0.3-1-0.3-1.7c0-1.2,0.5-2.1,1.4-2.7s2.2-1,3.8-1c1.6,0,3.1,0.3,4.6,1l-1.1,2.6
		c-0.7-0.3-1.3-0.5-1.8-0.7s-1.2-0.3-1.7-0.3c-1.1,0-1.6,0.3-1.6,0.9c0,0.3,0.2,0.6,0.5,0.8s1.1,0.6,2.2,1c1,0.4,1.8,0.8,2.3,1.2
		s0.8,0.8,1.1,1.2S498.6,358.7,498.6,359.3z"/>
	<path class="st0" d="M506.9,360.6c0.6,0,1.4-0.1,2.3-0.4v2.7c-0.9,0.4-2,0.6-3.3,0.6c-1.4,0-2.5-0.4-3.1-1.1s-1-1.8-1-3.3v-6.3H500
		v-1.5l2-1.2l1-2.8h2.3v2.8h3.7v2.7h-3.7v6.3c0,0.5,0.1,0.9,0.4,1.1S506.4,360.6,506.9,360.6z"/>
	<path class="st0" d="M511.6,348.7v-0.3c1.3-1.6,2.3-2.7,2.8-3.5h4v0.2c-0.4,0.4-1.1,1-2.1,1.8s-1.7,1.4-2.3,1.8H511.6z
		 M515.3,363.2h-3.6v-13.1h3.6V363.2z"/>
	<path class="st0" d="M527.4,363.2l-0.7-1.8h-0.1c-0.6,0.8-1.2,1.3-1.9,1.6s-1.5,0.4-2.5,0.4c-1.3,0-2.2-0.4-3-1.1s-1.1-1.7-1.1-3.1
		c0-1.4,0.5-2.4,1.5-3.1s2.4-1,4.4-1.1l2.3-0.1v-0.6c0-1.3-0.7-2-2-2c-1,0-2.3,0.3-3.7,0.9l-1.2-2.4c1.5-0.8,3.2-1.2,5-1.2
		c1.8,0,3.1,0.4,4,1.1s1.4,1.9,1.4,3.5v8.7H527.4z M526.4,357.2l-1.4,0c-1,0-1.8,0.2-2.3,0.6s-0.8,0.9-0.8,1.6c0,1,0.6,1.5,1.7,1.5
		c0.8,0,1.5-0.2,2-0.7s0.7-1.1,0.7-1.9V357.2z"/>
	<path class="st1" d="M378.4,385.5c0-2.1,0.3-4,0.9-5.8s1.5-3.4,2.6-4.7h1.9c-1.1,1.5-2,3.2-2.5,5s-0.8,3.7-0.8,5.6
		c0,1.9,0.3,3.7,0.9,5.5s1.4,3.4,2.5,4.9h-1.9c-1.1-1.3-2-2.9-2.6-4.7S378.4,387.5,378.4,385.5z"/>
	<path class="st1" d="M388.8,384.9v7.1h-2v-17.1h4.7c2.1,0,3.7,0.4,4.7,1.2s1.5,2,1.5,3.6c0,2.3-1.1,3.8-3.4,4.6l4.7,7.7h-2.4
		l-4.1-7.1H388.8z M388.8,383.2h2.7c1.4,0,2.4-0.3,3.1-0.8s1-1.4,1-2.5c0-1.1-0.3-1.9-1-2.4s-1.7-0.8-3.2-0.8h-2.6V383.2z"/>
	<path class="st1" d="M406.8,392.3c-1.9,0-3.4-0.6-4.5-1.7s-1.6-2.8-1.6-4.8c0-2.1,0.5-3.7,1.5-4.9s2.4-1.8,4.1-1.8
		c1.6,0,2.9,0.5,3.8,1.6s1.4,2.5,1.4,4.2v1.2h-8.8c0,1.5,0.4,2.7,1.1,3.4s1.7,1.2,3.1,1.2c1.4,0,2.8-0.3,4.1-0.9v1.7
		c-0.7,0.3-1.3,0.5-2,0.6S407.7,392.3,406.8,392.3z M406.3,380.6c-1,0-1.9,0.3-2.5,1s-1,1.6-1.1,2.8h6.7c0-1.2-0.3-2.2-0.8-2.8
		S407.3,380.6,406.3,380.6z"/>
	<path class="st1" d="M420,392.3c-1.9,0-3.3-0.6-4.3-1.7s-1.5-2.8-1.5-4.9c0-2.1,0.5-3.8,1.6-5s2.5-1.8,4.4-1.8
		c0.6,0,1.2,0.1,1.9,0.2s1.1,0.3,1.5,0.5l-0.6,1.7c-0.4-0.2-0.9-0.3-1.4-0.4s-1-0.2-1.3-0.2c-2.6,0-3.9,1.7-3.9,5
		c0,1.6,0.3,2.8,1,3.6s1.6,1.3,2.8,1.3c1.1,0,2.2-0.2,3.3-0.7v1.7C422.4,392.1,421.3,392.3,420,392.3z"/>
	<path class="st1" d="M432.1,379c0.6,0,1.1,0,1.5,0.1l-0.3,1.8c-0.5-0.1-1-0.2-1.4-0.2c-1,0-1.9,0.4-2.7,1.3s-1.1,1.9-1.1,3.2v6.9
		h-1.9v-12.8h1.6l0.2,2.4h0.1c0.5-0.8,1.1-1.5,1.7-1.9S431.3,379,432.1,379z"/>
	<path class="st1" d="M441.5,392.3c-1.9,0-3.4-0.6-4.5-1.7s-1.6-2.8-1.6-4.8c0-2.1,0.5-3.7,1.5-4.9s2.4-1.8,4.1-1.8
		c1.6,0,2.9,0.5,3.8,1.6s1.4,2.5,1.4,4.2v1.2h-8.8c0,1.5,0.4,2.7,1.1,3.4s1.7,1.2,3.1,1.2c1.4,0,2.8-0.3,4.1-0.9v1.7
		c-0.7,0.3-1.3,0.5-2,0.6S442.4,392.3,441.5,392.3z M441,380.6c-1,0-1.9,0.3-2.5,1s-1,1.6-1.1,2.8h6.7c0-1.2-0.3-2.2-0.8-2.8
		S442,380.6,441,380.6z"/>
	<path class="st1" d="M457.4,392l-0.4-1.8H457c-0.6,0.8-1.3,1.3-1.9,1.6s-1.4,0.4-2.4,0.4c-1.3,0-2.3-0.3-3-1s-1.1-1.6-1.1-2.8
		c0-2.6,2.1-4,6.2-4.1l2.2-0.1v-0.8c0-1-0.2-1.8-0.7-2.2s-1.1-0.7-2.1-0.7c-1.1,0-2.3,0.3-3.6,1l-0.6-1.5c0.6-0.3,1.3-0.6,2.1-0.8
		s1.5-0.3,2.3-0.3c1.5,0,2.7,0.3,3.4,1s1.1,1.8,1.1,3.3v8.8H457.4z M453,390.7c1.2,0,2.2-0.3,2.9-1s1-1.6,1-2.8v-1.2l-1.9,0.1
		c-1.5,0.1-2.7,0.3-3.3,0.7s-1,1.1-1,2c0,0.7,0.2,1.2,0.6,1.6S452.3,390.7,453,390.7z"/>
	<path class="st1" d="M468,392.3c-1.9,0-3.3-0.6-4.3-1.7s-1.5-2.8-1.5-4.9c0-2.1,0.5-3.8,1.6-5s2.5-1.8,4.4-1.8
		c0.6,0,1.2,0.1,1.9,0.2s1.1,0.3,1.5,0.5l-0.6,1.7c-0.4-0.2-0.9-0.3-1.4-0.4s-1-0.2-1.3-0.2c-2.6,0-3.9,1.7-3.9,5
		c0,1.6,0.3,2.8,1,3.6s1.6,1.3,2.8,1.3c1.1,0,2.2-0.2,3.3-0.7v1.7C470.4,392.1,469.3,392.3,468,392.3z"/>
	<path class="st1" d="M474.2,375.7c0-0.4,0.1-0.8,0.3-1s0.5-0.3,0.8-0.3c0.3,0,0.6,0.1,0.8,0.3s0.3,0.5,0.3,1s-0.1,0.8-0.3,1
		s-0.5,0.3-0.8,0.3c-0.3,0-0.6-0.1-0.8-0.3S474.2,376.2,474.2,375.7z M476.3,392h-1.9v-12.8h1.9V392z"/>
	<path class="st1" d="M491.5,385.6c0,2.1-0.5,3.7-1.6,4.9s-2.5,1.8-4.4,1.8c-1.1,0-2.2-0.3-3.1-0.8s-1.6-1.3-2.1-2.3
		s-0.7-2.2-0.7-3.5c0-2.1,0.5-3.7,1.6-4.9s2.5-1.8,4.4-1.8c1.8,0,3.2,0.6,4.3,1.8S491.5,383.6,491.5,385.6z M481.7,385.6
		c0,1.6,0.3,2.9,1,3.8s1.6,1.3,2.9,1.3s2.2-0.4,2.9-1.3s1-2.1,1-3.8c0-1.6-0.3-2.9-1-3.7s-1.6-1.3-2.9-1.3c-1.3,0-2.2,0.4-2.9,1.3
		S481.7,384,481.7,385.6z M483.9,377.2c0.4-0.5,0.8-1.1,1.2-1.8s0.8-1.3,1-1.8h2.4v0.2c-0.3,0.5-0.9,1.1-1.5,1.9s-1.3,1.3-1.8,1.7
		h-1.3V377.2z"/>
	<path class="st1" d="M503.7,392v-8.3c0-1-0.2-1.8-0.7-2.3s-1.2-0.8-2.2-0.8c-1.3,0-2.3,0.4-3,1.1s-0.9,1.9-0.9,3.6v6.7h-1.9v-12.8
		h1.6l0.3,1.8h0.1c0.4-0.6,1-1.1,1.7-1.5s1.5-0.5,2.4-0.5c1.5,0,2.7,0.4,3.5,1.1s1.2,1.9,1.2,3.6v8.4H503.7z"/>
	<path class="st1" d="M524.6,390.3h-0.1c-0.9,1.3-2.2,2-4,2c-1.7,0-3-0.6-3.9-1.7s-1.4-2.8-1.4-4.9s0.5-3.8,1.4-4.9s2.2-1.8,3.9-1.8
		c1.7,0,3.1,0.6,4,1.9h0.2l-0.1-0.9l0-0.9v-5.2h1.9V392h-1.6L524.6,390.3z M520.7,390.6c1.3,0,2.3-0.4,2.9-1.1s0.9-1.9,0.9-3.5v-0.4
		c0-1.8-0.3-3.1-0.9-3.9s-1.6-1.2-2.9-1.2c-1.1,0-2,0.4-2.6,1.3s-0.9,2.1-0.9,3.8c0,1.6,0.3,2.9,0.9,3.7S519.5,390.6,520.7,390.6z"
		/>
	<path class="st1" d="M536,392.3c-1.9,0-3.4-0.6-4.5-1.7s-1.6-2.8-1.6-4.8c0-2.1,0.5-3.7,1.5-4.9s2.4-1.8,4.1-1.8
		c1.6,0,2.9,0.5,3.8,1.6s1.4,2.5,1.4,4.2v1.2h-8.8c0,1.5,0.4,2.7,1.1,3.4s1.7,1.2,3.1,1.2c1.4,0,2.8-0.3,4.1-0.9v1.7
		c-0.7,0.3-1.3,0.5-2,0.6S536.8,392.3,536,392.3z M535.5,380.6c-1,0-1.9,0.3-2.5,1s-1,1.6-1.1,2.8h6.7c0-1.2-0.3-2.2-0.8-2.8
		S536.5,380.6,535.5,380.6z"/>
	<path class="st1" d="M552.2,392h-1.9v-18.2h1.9V392z"/>
	<path class="st1" d="M564.2,392l-0.4-1.8h-0.1c-0.6,0.8-1.3,1.3-1.9,1.6s-1.4,0.4-2.4,0.4c-1.3,0-2.3-0.3-3-1s-1.1-1.6-1.1-2.8
		c0-2.6,2.1-4,6.2-4.1l2.2-0.1v-0.8c0-1-0.2-1.8-0.7-2.2s-1.1-0.7-2.1-0.7c-1.1,0-2.3,0.3-3.6,1l-0.6-1.5c0.6-0.3,1.3-0.6,2.1-0.8
		s1.5-0.3,2.3-0.3c1.5,0,2.7,0.3,3.4,1s1.1,1.8,1.1,3.3v8.8H564.2z M559.8,390.7c1.2,0,2.2-0.3,2.9-1s1-1.6,1-2.8v-1.2l-1.9,0.1
		c-1.5,0.1-2.7,0.3-3.3,0.7s-1,1.1-1,2c0,0.7,0.2,1.2,0.6,1.6S559.1,390.7,559.8,390.7z"/>
	<path class="st1" d="M407.7,408v8.3c0,1,0.2,1.8,0.7,2.3s1.2,0.8,2.2,0.8c1.3,0,2.3-0.4,2.9-1.1s0.9-1.9,0.9-3.6V408h1.9v12.8h-1.6
		l-0.3-1.7h-0.1c-0.4,0.6-1,1.1-1.7,1.5s-1.5,0.5-2.4,0.5c-1.6,0-2.7-0.4-3.5-1.1s-1.2-1.9-1.2-3.6V408H407.7z M409.8,406
		c0.4-0.5,0.8-1.1,1.2-1.8s0.8-1.3,1-1.8h2.4v0.2c-0.3,0.5-0.9,1.1-1.5,1.9s-1.3,1.3-1.8,1.7h-1.3V406z"/>
	<path class="st1" d="M422.6,420.8h-1.9v-18.2h1.9V420.8z"/>
	<path class="st1" d="M430.9,419.5c0.3,0,0.7,0,1-0.1s0.6-0.1,0.8-0.2v1.5c-0.2,0.1-0.5,0.2-0.9,0.3s-0.8,0.1-1.1,0.1
		c-2.5,0-3.7-1.3-3.7-3.9v-7.6H425v-0.9l1.8-0.8l0.8-2.7h1.1v3h3.7v1.5h-3.7v7.6c0,0.8,0.2,1.4,0.6,1.8S430.2,419.5,430.9,419.5z"/>
	<path class="st1" d="M435,404.5c0-0.4,0.1-0.8,0.3-1s0.5-0.3,0.8-0.3c0.3,0,0.6,0.1,0.8,0.3s0.3,0.5,0.3,1s-0.1,0.8-0.3,1
		s-0.5,0.3-0.8,0.3c-0.3,0-0.6-0.1-0.8-0.3S435,405,435,404.5z M437.1,420.8h-1.9V408h1.9V420.8z"/>
	<path class="st1" d="M457.6,420.8v-8.4c0-1-0.2-1.8-0.7-2.3s-1.1-0.8-2-0.8c-1.2,0-2.1,0.3-2.7,1s-0.9,1.8-0.9,3.2v7.2h-1.9v-8.4
		c0-1-0.2-1.8-0.7-2.3s-1.1-0.8-2.1-0.8c-1.2,0-2.1,0.4-2.7,1.1s-0.8,1.9-0.8,3.6v6.7h-1.9V408h1.6l0.3,1.8h0.1
		c0.4-0.6,0.9-1.1,1.6-1.5s1.4-0.5,2.2-0.5c2,0,3.3,0.7,3.9,2.2h0.1c0.4-0.7,0.9-1.2,1.7-1.6s1.6-0.6,2.5-0.6c1.5,0,2.5,0.4,3.3,1.1
		s1.1,1.9,1.1,3.6v8.4H457.6z"/>
	<path class="st1" d="M471.5,420.8l-0.4-1.8H471c-0.6,0.8-1.3,1.3-1.9,1.6s-1.4,0.4-2.4,0.4c-1.3,0-2.3-0.3-3-1s-1.1-1.6-1.1-2.8
		c0-2.6,2.1-4,6.2-4.1l2.2-0.1v-0.8c0-1-0.2-1.8-0.7-2.2s-1.1-0.7-2.1-0.7c-1.1,0-2.3,0.3-3.6,1l-0.6-1.5c0.6-0.3,1.3-0.6,2.1-0.8
		s1.5-0.3,2.3-0.3c1.5,0,2.7,0.3,3.4,1s1.1,1.8,1.1,3.3v8.8H471.5z M467.1,419.5c1.2,0,2.2-0.3,2.9-1s1-1.6,1-2.8v-1.2l-1.9,0.1
		c-1.5,0.1-2.7,0.3-3.3,0.7s-1,1.1-1,2c0,0.7,0.2,1.2,0.6,1.6S466.3,419.5,467.1,419.5z"/>
	<path class="st1" d="M488.3,421.1c-1.9,0-3.3-0.6-4.3-1.7s-1.5-2.8-1.5-4.9c0-2.1,0.5-3.8,1.6-5s2.5-1.8,4.4-1.8
		c0.6,0,1.2,0.1,1.9,0.2s1.1,0.3,1.5,0.5l-0.6,1.7c-0.4-0.2-0.9-0.3-1.4-0.4s-1-0.2-1.3-0.2c-2.6,0-3.9,1.7-3.9,5
		c0,1.6,0.3,2.8,1,3.6s1.6,1.3,2.8,1.3c1.1,0,2.2-0.2,3.3-0.7v1.7C490.7,420.9,489.6,421.1,488.3,421.1z"/>
	<path class="st1" d="M500,421.1c-1.9,0-3.4-0.6-4.5-1.7s-1.6-2.8-1.6-4.8c0-2.1,0.5-3.7,1.5-4.9s2.4-1.8,4.1-1.8
		c1.6,0,2.9,0.5,3.8,1.6s1.4,2.5,1.4,4.2v1.2h-8.8c0,1.5,0.4,2.7,1.1,3.4s1.7,1.2,3.1,1.2c1.4,0,2.8-0.3,4.1-0.9v1.7
		c-0.7,0.3-1.3,0.5-2,0.6S500.9,421.1,500,421.1z M499.5,409.4c-1,0-1.9,0.3-2.5,1s-1,1.6-1.1,2.8h6.7c0-1.2-0.3-2.2-0.8-2.8
		S500.5,409.4,499.5,409.4z"/>
	<path class="st1" d="M516.8,420.8v-8.3c0-1-0.2-1.8-0.7-2.3s-1.2-0.8-2.2-0.8c-1.3,0-2.3,0.4-3,1.1s-0.9,1.9-0.9,3.6v6.7H508V408
		h1.6l0.3,1.8h0.1c0.4-0.6,1-1.1,1.7-1.5s1.5-0.5,2.4-0.5c1.5,0,2.7,0.4,3.5,1.1s1.2,1.9,1.2,3.6v8.4H516.8z"/>
	<path class="st1" d="M530.7,420.8l-0.4-1.8h-0.1c-0.6,0.8-1.3,1.3-1.9,1.6s-1.4,0.4-2.4,0.4c-1.3,0-2.3-0.3-3-1s-1.1-1.6-1.1-2.8
		c0-2.6,2.1-4,6.2-4.1l2.2-0.1v-0.8c0-1-0.2-1.8-0.7-2.2s-1.1-0.7-2.1-0.7c-1.1,0-2.3,0.3-3.6,1l-0.6-1.5c0.6-0.3,1.3-0.6,2.1-0.8
		s1.5-0.3,2.3-0.3c1.5,0,2.7,0.3,3.4,1s1.1,1.8,1.1,3.3v8.8H530.7z M526.3,419.5c1.2,0,2.2-0.3,2.9-1s1-1.6,1-2.8v-1.2l-1.9,0.1
		c-1.5,0.1-2.7,0.3-3.3,0.7s-1,1.1-1,2c0,0.7,0.2,1.2,0.6,1.6S525.5,419.5,526.3,419.5z"/>
	<path class="st1" d="M540.2,414.3c0,2.1-0.3,4-0.9,5.7s-1.5,3.3-2.6,4.6h-1.9c1.1-1.5,1.9-3.1,2.5-4.9s0.9-3.6,0.9-5.5
		c0-1.9-0.3-3.8-0.8-5.6s-1.4-3.5-2.5-5h1.9c1.1,1.4,2,3,2.6,4.8S540.2,412.2,540.2,414.3z"/>
</g>
<g>
	<path class="st1" d="M672.4,73.2V56.1h2v17.1H672.4z"/>
	<path class="st1" d="M687.5,73.2v-8.3c0-1-0.2-1.8-0.7-2.3s-1.2-0.8-2.2-0.8c-1.3,0-2.3,0.4-3,1.1s-0.9,1.9-0.9,3.6v6.7h-1.9V60.4
		h1.6l0.3,1.8h0.1c0.4-0.6,1-1.1,1.7-1.5s1.5-0.5,2.4-0.5c1.5,0,2.7,0.4,3.5,1.1s1.2,1.9,1.2,3.6v8.4H687.5z"/>
	<path class="st1" d="M697.6,71.9c0.3,0,0.7,0,1-0.1s0.6-0.1,0.8-0.2v1.5c-0.2,0.1-0.5,0.2-0.9,0.3s-0.8,0.1-1.1,0.1
		c-2.5,0-3.7-1.3-3.7-3.9v-7.6h-1.8V61l1.8-0.8l0.8-2.7h1.1v3h3.7v1.5h-3.7v7.6c0,0.8,0.2,1.4,0.6,1.8S697,71.9,697.6,71.9z"/>
	<path class="st1" d="M707.8,60.2c0.6,0,1.1,0,1.5,0.1l-0.3,1.8c-0.5-0.1-1-0.2-1.4-0.2c-1,0-1.9,0.4-2.7,1.3s-1.1,1.9-1.1,3.2v6.9
		H702V60.4h1.6l0.2,2.4h0.1c0.5-0.8,1.1-1.5,1.7-1.9S707,60.2,707.8,60.2z"/>
	<path class="st1" d="M722.8,66.8c0,2.1-0.5,3.7-1.6,4.9s-2.5,1.8-4.4,1.8c-1.1,0-2.2-0.3-3.1-0.8s-1.6-1.3-2.1-2.3
		s-0.7-2.2-0.7-3.5c0-2.1,0.5-3.7,1.6-4.9s2.5-1.8,4.4-1.8c1.8,0,3.2,0.6,4.3,1.8S722.8,64.8,722.8,66.8z M713.1,66.8
		c0,1.6,0.3,2.9,1,3.8s1.6,1.3,2.9,1.3s2.2-0.4,2.9-1.3s1-2.1,1-3.8c0-1.6-0.3-2.9-1-3.7s-1.6-1.3-2.9-1.3c-1.3,0-2.2,0.4-2.9,1.3
		S713.1,65.1,713.1,66.8z"/>
	<path class="st1" d="M726.1,56.9c0-0.4,0.1-0.8,0.3-1s0.5-0.3,0.8-0.3c0.3,0,0.6,0.1,0.8,0.3s0.3,0.5,0.3,1s-0.1,0.8-0.3,1
		s-0.5,0.3-0.8,0.3c-0.3,0-0.6-0.1-0.8-0.3S726.1,57.4,726.1,56.9z M728.2,73.2h-1.9V60.4h1.9V73.2z"/>
	<path class="st1" d="M736.5,71.9c0.3,0,0.7,0,1-0.1s0.6-0.1,0.8-0.2v1.5c-0.2,0.1-0.5,0.2-0.9,0.3s-0.8,0.1-1.1,0.1
		c-2.5,0-3.7-1.3-3.7-3.9v-7.6h-1.8V61l1.8-0.8l0.8-2.7h1.1v3h3.7v1.5h-3.7v7.6c0,0.8,0.2,1.4,0.6,1.8S735.8,71.9,736.5,71.9z"/>
	<path class="st1" d="M751.9,66.8c0,2.1-0.5,3.7-1.6,4.9s-2.5,1.8-4.4,1.8c-1.1,0-2.2-0.3-3.1-0.8s-1.6-1.3-2.1-2.3
		s-0.7-2.2-0.7-3.5c0-2.1,0.5-3.7,1.6-4.9s2.5-1.8,4.4-1.8c1.8,0,3.2,0.6,4.3,1.8S751.9,64.8,751.9,66.8z M742.1,66.8
		c0,1.6,0.3,2.9,1,3.8s1.6,1.3,2.9,1.3s2.2-0.4,2.9-1.3s1-2.1,1-3.8c0-1.6-0.3-2.9-1-3.7s-1.6-1.3-2.9-1.3c-1.3,0-2.2,0.4-2.9,1.3
		S742.1,65.1,742.1,66.8z"/>
	<path class="st1" d="M684.7,102h-2.3l-6.2-8.3l-1.8,1.6v6.7h-2V84.9h2v8.5l7.8-8.5h2.4l-6.9,7.4L684.7,102z"/>
	<path class="st1" d="M686.6,85.7c0-0.4,0.1-0.8,0.3-1s0.5-0.3,0.8-0.3c0.3,0,0.6,0.1,0.8,0.3s0.3,0.5,0.3,1s-0.1,0.8-0.3,1
		s-0.5,0.3-0.8,0.3c-0.3,0-0.6-0.1-0.8-0.3S686.6,86.2,686.6,85.7z M688.7,102h-1.9V89.2h1.9V102z"/>
	<path class="st1" d="M698.7,89c0.6,0,1.1,0,1.5,0.1l-0.3,1.8c-0.5-0.1-1-0.2-1.4-0.2c-1,0-1.9,0.4-2.7,1.3s-1.1,1.9-1.1,3.2v6.9
		h-1.9V89.2h1.6l0.2,2.4h0.1c0.5-0.8,1.1-1.5,1.7-1.9S697.9,89,698.7,89z"/>
	<path class="st1" d="M702.5,85.7c0-0.4,0.1-0.8,0.3-1s0.5-0.3,0.8-0.3c0.3,0,0.6,0.1,0.8,0.3s0.3,0.5,0.3,1s-0.1,0.8-0.3,1
		S704,87,703.6,87c-0.3,0-0.6-0.1-0.8-0.3S702.5,86.2,702.5,85.7z M704.6,102h-1.9V89.2h1.9V102z"/>
	<path class="st1" d="M714.2,102.3c-1.9,0-3.4-0.6-4.5-1.7s-1.6-2.8-1.6-4.8c0-2.1,0.5-3.7,1.5-4.9s2.4-1.8,4.1-1.8
		c1.6,0,2.9,0.5,3.8,1.6s1.4,2.5,1.4,4.2V96H710c0,1.5,0.4,2.7,1.1,3.4s1.7,1.2,3.1,1.2c1.4,0,2.8-0.3,4.1-0.9v1.7
		c-0.7,0.3-1.3,0.5-2,0.6S715,102.3,714.2,102.3z M713.6,90.6c-1,0-1.9,0.3-2.5,1s-1,1.6-1.1,2.8h6.7c0-1.2-0.3-2.2-0.8-2.8
		S714.6,90.6,713.6,90.6z"/>
	<path class="st1" d="M679.9,121.9h5.8v8.3c-0.9,0.3-1.8,0.5-2.8,0.7s-2,0.2-3.3,0.2c-2.6,0-4.6-0.8-6.1-2.3s-2.2-3.7-2.2-6.5
		c0-1.8,0.4-3.3,1.1-4.7s1.7-2.4,3.1-3.1s2.9-1.1,4.7-1.1c1.8,0,3.5,0.3,5.1,1l-0.8,1.8c-1.5-0.7-3-1-4.5-1c-2.1,0-3.7,0.6-4.9,1.9
		s-1.8,3-1.8,5.2c0,2.3,0.6,4.1,1.7,5.3s2.8,1.8,5,1.8c1.2,0,2.3-0.1,3.5-0.4v-5.3h-3.8V121.9z"/>
	<path class="st1" d="M691.5,130.8h-1.9v-18.2h1.9V130.8z"/>
	<path class="st1" d="M706.7,124.4c0,2.1-0.5,3.7-1.6,4.9s-2.5,1.8-4.4,1.8c-1.1,0-2.2-0.3-3.1-0.8s-1.6-1.3-2.1-2.3
		s-0.7-2.2-0.7-3.5c0-2.1,0.5-3.7,1.6-4.9s2.5-1.8,4.4-1.8c1.8,0,3.2,0.6,4.3,1.8S706.7,122.4,706.7,124.4z M696.9,124.4
		c0,1.6,0.3,2.9,1,3.8s1.6,1.3,2.9,1.3s2.2-0.4,2.9-1.3s1-2.1,1-3.8c0-1.6-0.3-2.9-1-3.7s-1.6-1.3-2.9-1.3c-1.3,0-2.2,0.4-2.9,1.3
		S696.9,122.8,696.9,124.4z"/>
	<path class="st1" d="M716,117.8c0.6,0,1.1,0,1.5,0.1l-0.3,1.8c-0.5-0.1-1-0.2-1.4-0.2c-1,0-1.9,0.4-2.7,1.3s-1.1,1.9-1.1,3.2v6.9
		h-1.9V118h1.6l0.2,2.4h0.1c0.5-0.8,1.1-1.5,1.7-1.9S715.2,117.8,716,117.8z"/>
	<path class="st1" d="M719.7,114.5c0-0.4,0.1-0.8,0.3-1s0.5-0.3,0.8-0.3c0.3,0,0.6,0.1,0.8,0.3s0.3,0.5,0.3,1s-0.1,0.8-0.3,1
		s-0.5,0.3-0.8,0.3c-0.3,0-0.6-0.1-0.8-0.3S719.7,115,719.7,114.5z M721.8,130.8h-1.9V118h1.9V130.8z"/>
	<path class="st1" d="M733.9,130.8l-0.4-1.8h-0.1c-0.6,0.8-1.3,1.3-1.9,1.6s-1.4,0.4-2.4,0.4c-1.3,0-2.3-0.3-3-1s-1.1-1.6-1.1-2.8
		c0-2.6,2.1-4,6.2-4.1l2.2-0.1v-0.8c0-1-0.2-1.8-0.7-2.2s-1.1-0.7-2.1-0.7c-1.1,0-2.3,0.3-3.6,1l-0.6-1.5c0.6-0.3,1.3-0.6,2.1-0.8
		s1.5-0.3,2.3-0.3c1.5,0,2.7,0.3,3.4,1s1.1,1.8,1.1,3.3v8.8H733.9z M729.5,129.5c1.2,0,2.2-0.3,2.9-1s1-1.6,1-2.8v-1.2l-1.9,0.1
		c-1.5,0.1-2.7,0.3-3.3,0.7s-1,1.1-1,2c0,0.7,0.2,1.2,0.6,1.6S728.7,129.5,729.5,129.5z"/>
	<path class="st1" d="M679.9,150.7h5.8v8.3c-0.9,0.3-1.8,0.5-2.8,0.7s-2,0.2-3.3,0.2c-2.6,0-4.6-0.8-6.1-2.3s-2.2-3.7-2.2-6.5
		c0-1.8,0.4-3.3,1.1-4.7s1.7-2.4,3.1-3.1s2.9-1.1,4.7-1.1c1.8,0,3.5,0.3,5.1,1l-0.8,1.8c-1.5-0.7-3-1-4.5-1c-2.1,0-3.7,0.6-4.9,1.9
		s-1.8,3-1.8,5.2c0,2.3,0.6,4.1,1.7,5.3s2.8,1.8,5,1.8c1.2,0,2.3-0.1,3.5-0.4v-5.3h-3.8V150.7z"/>
	<path class="st1" d="M695.4,146.6c0.6,0,1.1,0,1.5,0.1l-0.3,1.8c-0.5-0.1-1-0.2-1.4-0.2c-1,0-1.9,0.4-2.7,1.3s-1.1,1.9-1.1,3.2v6.9
		h-1.9v-12.8h1.6l0.2,2.4h0.1c0.5-0.8,1.1-1.5,1.7-1.9S694.6,146.6,695.4,146.6z"/>
	<path class="st1" d="M707.2,159.6l-0.4-1.8h-0.1c-0.6,0.8-1.3,1.3-1.9,1.6s-1.4,0.4-2.4,0.4c-1.3,0-2.3-0.3-3-1s-1.1-1.6-1.1-2.8
		c0-2.6,2.1-4,6.2-4.1l2.2-0.1v-0.8c0-1-0.2-1.8-0.7-2.2s-1.1-0.7-2.1-0.7c-1.1,0-2.3,0.3-3.6,1l-0.6-1.5c0.6-0.3,1.3-0.6,2.1-0.8
		s1.5-0.3,2.3-0.3c1.5,0,2.7,0.3,3.4,1s1.1,1.8,1.1,3.3v8.8H707.2z M702.8,158.3c1.2,0,2.2-0.3,2.9-1s1-1.6,1-2.8v-1.2l-1.9,0.1
		c-1.5,0.1-2.7,0.3-3.3,0.7s-1,1.1-1,2c0,0.7,0.2,1.2,0.6,1.6S702.1,158.3,702.8,158.3z"/>
	<path class="st1" d="M721.4,157.9h-0.1c-0.9,1.3-2.2,2-4,2c-1.7,0-3-0.6-3.9-1.7s-1.4-2.8-1.4-4.9s0.5-3.8,1.4-4.9s2.2-1.8,3.9-1.8
		c1.7,0,3.1,0.6,4,1.9h0.2l-0.1-0.9l0-0.9v-5.2h1.9v18.2h-1.6L721.4,157.9z M717.5,158.2c1.3,0,2.3-0.4,2.9-1.1s0.9-1.9,0.9-3.5
		v-0.4c0-1.8-0.3-3.1-0.9-3.9s-1.6-1.2-2.9-1.2c-1.1,0-2,0.4-2.6,1.3s-0.9,2.1-0.9,3.8c0,1.6,0.3,2.9,0.9,3.7
		S716.4,158.2,717.5,158.2z"/>
	<path class="st1" d="M729.2,146.8v8.3c0,1,0.2,1.8,0.7,2.3s1.2,0.8,2.2,0.8c1.3,0,2.3-0.4,2.9-1.1s0.9-1.9,0.9-3.6v-6.8h1.9v12.8
		h-1.6l-0.3-1.7H736c-0.4,0.6-1,1.1-1.7,1.5s-1.5,0.5-2.4,0.5c-1.6,0-2.7-0.4-3.5-1.1s-1.2-1.9-1.2-3.6v-8.4H729.2z"/>
	<path class="st1" d="M750,159.6l-0.4-1.8h-0.1c-0.6,0.8-1.3,1.3-1.9,1.6s-1.4,0.4-2.4,0.4c-1.3,0-2.3-0.3-3-1s-1.1-1.6-1.1-2.8
		c0-2.6,2.1-4,6.2-4.1l2.2-0.1v-0.8c0-1-0.2-1.8-0.7-2.2s-1.1-0.7-2.1-0.7c-1.1,0-2.3,0.3-3.6,1l-0.6-1.5c0.6-0.3,1.3-0.6,2.1-0.8
		s1.5-0.3,2.3-0.3c1.5,0,2.7,0.3,3.4,1s1.1,1.8,1.1,3.3v8.8H750z M745.6,158.3c1.2,0,2.2-0.3,2.9-1s1-1.6,1-2.8v-1.2l-1.9,0.1
		c-1.5,0.1-2.7,0.3-3.3,0.7s-1,1.1-1,2c0,0.7,0.2,1.2,0.6,1.6S744.9,158.3,745.6,158.3z"/>
	<path class="st1" d="M757.4,159.6h-1.9v-18.2h1.9V159.6z"/>
	<path class="st1" d="M683.1,188.4L681,183h-6.9l-2.1,5.4h-2l6.8-17.2h1.7l6.7,17.2H683.1z M680.4,181.2l-2-5.3
		c-0.3-0.7-0.5-1.5-0.8-2.5c-0.2,0.8-0.4,1.6-0.7,2.5l-2,5.3H680.4z"/>
	<path class="st1" d="M689.2,188.4h-1.9v-18.2h1.9V188.4z"/>
	<path class="st1" d="M698.7,188.7c-1.9,0-3.4-0.6-4.5-1.7s-1.6-2.8-1.6-4.8c0-2.1,0.5-3.7,1.5-4.9s2.4-1.8,4.1-1.8
		c1.6,0,2.9,0.5,3.8,1.6s1.4,2.5,1.4,4.2v1.2h-8.8c0,1.5,0.4,2.7,1.1,3.4s1.7,1.2,3.1,1.2c1.4,0,2.8-0.3,4.1-0.9v1.7
		c-0.7,0.3-1.3,0.5-2,0.6S699.6,188.7,698.7,188.7z M698.2,177c-1,0-1.9,0.3-2.5,1s-1,1.6-1.1,2.8h6.7c0-1.2-0.3-2.2-0.8-2.8
		S699.2,177,698.2,177z"/>
	<path class="st1" d="M708.7,188.4h-1.9v-18.2h1.9V188.4z"/>
	<path class="st1" d="M714.7,175.6v8.3c0,1,0.2,1.8,0.7,2.3s1.2,0.8,2.2,0.8c1.3,0,2.3-0.4,2.9-1.1s0.9-1.9,0.9-3.6v-6.8h1.9v12.8
		h-1.6l-0.3-1.7h-0.1c-0.4,0.6-1,1.1-1.7,1.5s-1.5,0.5-2.4,0.5c-1.6,0-2.7-0.4-3.5-1.1s-1.2-1.9-1.2-3.6v-8.4H714.7z"/>
	<path class="st1" d="M725.5,175.6h2.1l2.8,7.3c0.6,1.7,1,2.9,1.1,3.6h0.1c0.1-0.4,0.3-1.1,0.6-2s1.4-3.9,3.2-8.9h2.1l-5.5,14.6
		c-0.5,1.4-1.2,2.5-1.9,3.1s-1.6,0.9-2.7,0.9c-0.6,0-1.2-0.1-1.8-0.2v-1.6c0.4,0.1,0.9,0.1,1.4,0.1c1.3,0,2.3-0.8,2.9-2.3l0.7-1.8
		L725.5,175.6z"/>
	<path class="st1" d="M747.6,188.4l-0.4-1.8h-0.1c-0.6,0.8-1.3,1.3-1.9,1.6s-1.4,0.4-2.4,0.4c-1.3,0-2.3-0.3-3-1s-1.1-1.6-1.1-2.8
		c0-2.6,2.1-4,6.2-4.1l2.2-0.1v-0.8c0-1-0.2-1.8-0.7-2.2s-1.1-0.7-2.1-0.7c-1.1,0-2.3,0.3-3.6,1l-0.6-1.5c0.6-0.3,1.3-0.6,2.1-0.8
		s1.5-0.3,2.3-0.3c1.5,0,2.7,0.3,3.4,1s1.1,1.8,1.1,3.3v8.8H747.6z M743.2,187.1c1.2,0,2.2-0.3,2.9-1s1-1.6,1-2.8v-1.2l-1.9,0.1
		c-1.5,0.1-2.7,0.3-3.3,0.7s-1,1.1-1,2c0,0.7,0.2,1.2,0.6,1.6S742.4,187.1,743.2,187.1z"/>
	<path class="st1" d="M758.2,181.9c0-2.1,0.3-4,0.9-5.8s1.5-3.4,2.6-4.7h1.9c-1.1,1.5-2,3.2-2.5,5s-0.8,3.7-0.8,5.6
		c0,1.9,0.3,3.7,0.9,5.5s1.4,3.4,2.5,4.9h-1.9c-1.1-1.3-2-2.9-2.6-4.7S758.2,183.9,758.2,181.9z"/>
	<path class="st1" d="M770.5,187.1c0.3,0,0.7,0,1-0.1s0.6-0.1,0.8-0.2v1.5c-0.2,0.1-0.5,0.2-0.9,0.3s-0.8,0.1-1.1,0.1
		c-2.5,0-3.7-1.3-3.7-3.9v-7.6h-1.8v-0.9l1.8-0.8l0.8-2.7h1.1v3h3.7v1.5h-3.7v7.6c0,0.8,0.2,1.4,0.6,1.8S769.9,187.1,770.5,187.1z"
		/>
	<path class="st1" d="M780.7,175.4c0.6,0,1.1,0,1.5,0.1l-0.3,1.8c-0.5-0.1-1-0.2-1.4-0.2c-1,0-1.9,0.4-2.7,1.3s-1.1,1.9-1.1,3.2v6.9
		h-1.9v-12.8h1.6l0.2,2.4h0.1c0.5-0.8,1.1-1.5,1.7-1.9S779.9,175.4,780.7,175.4z"/>
	<path class="st1" d="M792.5,188.4l-0.4-1.8h-0.1c-0.6,0.8-1.3,1.3-1.9,1.6s-1.4,0.4-2.4,0.4c-1.3,0-2.3-0.3-3-1s-1.1-1.6-1.1-2.8
		c0-2.6,2.1-4,6.2-4.1l2.2-0.1v-0.8c0-1-0.2-1.8-0.7-2.2s-1.1-0.7-2.1-0.7c-1.1,0-2.3,0.3-3.6,1l-0.6-1.5c0.6-0.3,1.3-0.6,2.1-0.8
		s1.5-0.3,2.3-0.3c1.5,0,2.7,0.3,3.4,1s1.1,1.8,1.1,3.3v8.8H792.5z M788.1,187.1c1.2,0,2.2-0.3,2.9-1s1-1.6,1-2.8v-1.2l-1.9,0.1
		c-1.5,0.1-2.7,0.3-3.3,0.7s-1,1.1-1,2c0,0.7,0.2,1.2,0.6,1.6S787.4,187.1,788.1,187.1z"/>
	<path class="st1" d="M803.1,188.7c-1.9,0-3.3-0.6-4.3-1.7s-1.5-2.8-1.5-4.9c0-2.1,0.5-3.8,1.6-5s2.5-1.8,4.4-1.8
		c0.6,0,1.2,0.1,1.9,0.2s1.1,0.3,1.5,0.5l-0.6,1.7c-0.4-0.2-0.9-0.3-1.4-0.4s-1-0.2-1.3-0.2c-2.6,0-3.9,1.7-3.9,5
		c0,1.6,0.3,2.8,1,3.6s1.6,1.3,2.8,1.3c1.1,0,2.2-0.2,3.3-0.7v1.7C805.5,188.5,804.4,188.7,803.1,188.7z"/>
	<path class="st1" d="M813.6,187.1c0.3,0,0.7,0,1-0.1s0.6-0.1,0.8-0.2v1.5c-0.2,0.1-0.5,0.2-0.9,0.3s-0.8,0.1-1.1,0.1
		c-2.5,0-3.7-1.3-3.7-3.9v-7.6h-1.8v-0.9l1.8-0.8l0.8-2.7h1.1v3h3.7v1.5h-3.7v7.6c0,0.8,0.2,1.4,0.6,1.8S812.9,187.1,813.6,187.1z"
		/>
	<path class="st1" d="M829,182c0,2.1-0.5,3.7-1.6,4.9s-2.5,1.8-4.4,1.8c-1.1,0-2.2-0.3-3.1-0.8s-1.6-1.3-2.1-2.3s-0.7-2.2-0.7-3.5
		c0-2.1,0.5-3.7,1.6-4.9s2.5-1.8,4.4-1.8c1.8,0,3.2,0.6,4.3,1.8S829,180,829,182z M819.2,182c0,1.6,0.3,2.9,1,3.8s1.6,1.3,2.9,1.3
		s2.2-0.4,2.9-1.3s1-2.1,1-3.8c0-1.6-0.3-2.9-1-3.7s-1.6-1.3-2.9-1.3c-1.3,0-2.2,0.4-2.9,1.3S819.2,180.4,819.2,182z"/>
	<path class="st1" d="M836.5,181.9c0,2.1-0.3,4-0.9,5.7s-1.5,3.3-2.6,4.6h-1.9c1.1-1.5,1.9-3.1,2.5-4.9s0.9-3.6,0.9-5.5
		c0-1.9-0.3-3.8-0.8-5.6s-1.4-3.5-2.5-5h1.9c1.1,1.4,2,3,2.6,4.8S836.5,179.8,836.5,181.9z"/>
	<path class="st1" d="M682,212.7c0,1.5-0.5,2.7-1.6,3.5s-2.6,1.3-4.5,1.3c-2,0-3.6-0.3-4.7-0.8v-1.9c0.7,0.3,1.5,0.5,2.3,0.7
		s1.6,0.3,2.5,0.3c1.3,0,2.3-0.3,3-0.8s1-1.2,1-2.1c0-0.6-0.1-1.1-0.4-1.5s-0.6-0.7-1.2-1s-1.4-0.7-2.5-1.1c-1.6-0.6-2.7-1.2-3.4-2
		s-1-1.8-1-3.1c0-1.3,0.5-2.4,1.5-3.2s2.3-1.2,3.9-1.2c1.7,0,3.3,0.3,4.7,0.9l-0.6,1.7c-1.4-0.6-2.8-0.9-4.1-0.9
		c-1.1,0-1.9,0.2-2.5,0.7s-0.9,1.1-0.9,1.9c0,0.6,0.1,1.1,0.3,1.5s0.6,0.7,1.1,1s1.3,0.7,2.4,1c1.8,0.6,3,1.3,3.7,2.1
		S682,211.5,682,212.7z"/>
	<path class="st1" d="M690.7,217.5c-1.9,0-3.4-0.6-4.5-1.7s-1.6-2.8-1.6-4.8c0-2.1,0.5-3.7,1.5-4.9s2.4-1.8,4.1-1.8
		c1.6,0,2.9,0.5,3.8,1.6s1.4,2.5,1.4,4.2v1.2h-8.8c0,1.5,0.4,2.7,1.1,3.4s1.7,1.2,3.1,1.2c1.4,0,2.8-0.3,4.1-0.9v1.7
		c-0.7,0.3-1.3,0.5-2,0.6S691.5,217.5,690.7,217.5z M690.1,205.8c-1,0-1.9,0.3-2.5,1s-1,1.6-1.1,2.8h6.7c0-1.2-0.3-2.2-0.8-2.8
		S691.1,205.8,690.1,205.8z"/>
	<path class="st1" d="M703.8,217.5c-1.9,0-3.3-0.6-4.3-1.7s-1.5-2.8-1.5-4.9c0-2.1,0.5-3.8,1.6-5s2.5-1.8,4.4-1.8
		c0.6,0,1.2,0.1,1.9,0.2s1.1,0.3,1.5,0.5l-0.6,1.7c-0.4-0.2-0.9-0.3-1.4-0.4s-1-0.2-1.3-0.2c-2.6,0-3.9,1.7-3.9,5
		c0,1.6,0.3,2.8,1,3.6s1.6,1.3,2.8,1.3c1.1,0,2.2-0.2,3.3-0.7v1.7C706.2,217.3,705.1,217.5,703.8,217.5z"/>
	<path class="st1" d="M712,204.4v8.3c0,1,0.2,1.8,0.7,2.3s1.2,0.8,2.2,0.8c1.3,0,2.3-0.4,2.9-1.1s0.9-1.9,0.9-3.6v-6.8h1.9v12.8
		h-1.6l-0.3-1.7h-0.1c-0.4,0.6-1,1.1-1.7,1.5s-1.5,0.5-2.4,0.5c-1.6,0-2.7-0.4-3.5-1.1s-1.2-1.9-1.2-3.6v-8.4H712z"/>
	<path class="st1" d="M730.3,217.5c-1.9,0-3.4-0.6-4.5-1.7s-1.6-2.8-1.6-4.8c0-2.1,0.5-3.7,1.5-4.9s2.4-1.8,4.1-1.8
		c1.6,0,2.9,0.5,3.8,1.6s1.4,2.5,1.4,4.2v1.2h-8.8c0,1.5,0.4,2.7,1.1,3.4s1.7,1.2,3.1,1.2c1.4,0,2.8-0.3,4.1-0.9v1.7
		c-0.7,0.3-1.3,0.5-2,0.6S731.1,217.5,730.3,217.5z M729.8,205.8c-1,0-1.9,0.3-2.5,1s-1,1.6-1.1,2.8h6.7c0-1.2-0.3-2.2-0.8-2.8
		S730.8,205.8,729.8,205.8z"/>
	<path class="st1" d="M747.1,217.2v-8.3c0-1-0.2-1.8-0.7-2.3s-1.2-0.8-2.2-0.8c-1.3,0-2.3,0.4-3,1.1s-0.9,1.9-0.9,3.6v6.7h-1.9
		v-12.8h1.6l0.3,1.8h0.1c0.4-0.6,1-1.1,1.7-1.5s1.5-0.5,2.4-0.5c1.5,0,2.7,0.4,3.5,1.1s1.2,1.9,1.2,3.6v8.4H747.1z"/>
	<path class="st1" d="M758.2,217.5c-1.9,0-3.3-0.6-4.3-1.7s-1.5-2.8-1.5-4.9c0-2.1,0.5-3.8,1.6-5s2.5-1.8,4.4-1.8
		c0.6,0,1.2,0.1,1.9,0.2s1.1,0.3,1.5,0.5l-0.6,1.7c-0.4-0.2-0.9-0.3-1.4-0.4s-1-0.2-1.3-0.2c-2.6,0-3.9,1.7-3.9,5
		c0,1.6,0.3,2.8,1,3.6s1.6,1.3,2.8,1.3c1.1,0,2.2-0.2,3.3-0.7v1.7C760.6,217.3,759.5,217.5,758.2,217.5z"/>
	<path class="st1" d="M764.3,200.9c0-0.4,0.1-0.8,0.3-1s0.5-0.3,0.8-0.3c0.3,0,0.6,0.1,0.8,0.3s0.3,0.5,0.3,1s-0.1,0.8-0.3,1
		s-0.5,0.3-0.8,0.3c-0.3,0-0.6-0.1-0.8-0.3S764.3,201.4,764.3,200.9z M766.4,217.2h-1.9v-12.8h1.9V217.2z"/>
	<path class="st1" d="M778.4,217.2l-0.4-1.8H778c-0.6,0.8-1.3,1.3-1.9,1.6s-1.4,0.4-2.4,0.4c-1.3,0-2.3-0.3-3-1s-1.1-1.6-1.1-2.8
		c0-2.6,2.1-4,6.2-4.1l2.2-0.1v-0.8c0-1-0.2-1.8-0.7-2.2s-1.1-0.7-2.1-0.7c-1.1,0-2.3,0.3-3.6,1l-0.6-1.5c0.6-0.3,1.3-0.6,2.1-0.8
		s1.5-0.3,2.3-0.3c1.5,0,2.7,0.3,3.4,1s1.1,1.8,1.1,3.3v8.8H778.4z M774.1,215.9c1.2,0,2.2-0.3,2.9-1s1-1.6,1-2.8v-1.2L776,211
		c-1.5,0.1-2.7,0.3-3.3,0.7s-1,1.1-1,2c0,0.7,0.2,1.2,0.6,1.6S773.3,215.9,774.1,215.9z"/>
	<path class="st1" d="M679.7,230.4c-1.9,0-3.4,0.6-4.5,1.9s-1.6,3-1.6,5.2c0,2.2,0.5,4,1.6,5.2s2.5,1.8,4.5,1.8
		c1.2,0,2.6-0.2,4.1-0.6v1.7c-1.2,0.4-2.7,0.7-4.4,0.7c-2.5,0-4.5-0.8-5.8-2.3s-2.1-3.7-2.1-6.5c0-1.8,0.3-3.3,1-4.6
		s1.6-2.4,2.9-3.1s2.7-1.1,4.4-1.1c1.8,0,3.4,0.3,4.7,1l-0.8,1.7C682.3,230.7,681,230.4,679.7,230.4z"/>
	<path class="st1" d="M693.1,233c0.6,0,1.1,0,1.5,0.1l-0.3,1.8c-0.5-0.1-1-0.2-1.4-0.2c-1,0-1.9,0.4-2.7,1.3s-1.1,1.9-1.1,3.2v6.9
		h-1.9v-12.8h1.6l0.2,2.4h0.1c0.5-0.8,1.1-1.5,1.7-1.9S692.3,233,693.1,233z"/>
	<path class="st1" d="M702.4,246.3c-1.9,0-3.4-0.6-4.5-1.7s-1.6-2.8-1.6-4.8c0-2.1,0.5-3.7,1.5-4.9s2.4-1.8,4.1-1.8
		c1.6,0,2.9,0.5,3.8,1.6s1.4,2.5,1.4,4.2v1.2h-8.8c0,1.5,0.4,2.7,1.1,3.4s1.7,1.2,3.1,1.2c1.4,0,2.8-0.3,4.1-0.9v1.7
		c-0.7,0.3-1.3,0.5-2,0.6S703.3,246.3,702.4,246.3z M701.9,234.6c-1,0-1.9,0.3-2.5,1s-1,1.6-1.1,2.8h6.7c0-1.2-0.3-2.2-0.8-2.8
		S702.9,234.6,701.9,234.6z"/>
	<path class="st1" d="M719.2,244.3h-0.1c-0.9,1.3-2.2,2-4,2c-1.7,0-3-0.6-3.9-1.7s-1.4-2.8-1.4-4.9s0.5-3.8,1.4-4.9s2.2-1.8,3.9-1.8
		c1.7,0,3.1,0.6,4,1.9h0.2l-0.1-0.9l0-0.9v-5.2h1.9V246h-1.6L719.2,244.3z M715.3,244.6c1.3,0,2.3-0.4,2.9-1.1s0.9-1.9,0.9-3.5v-0.4
		c0-1.8-0.3-3.1-0.9-3.9s-1.6-1.2-2.9-1.2c-1.1,0-2,0.4-2.6,1.3s-0.9,2.1-0.9,3.8c0,1.6,0.3,2.9,0.9,3.7S714.2,244.6,715.3,244.6z"
		/>
	<path class="st1" d="M736.3,239.6c0,2.1-0.5,3.7-1.6,4.9s-2.5,1.8-4.4,1.8c-1.1,0-2.2-0.3-3.1-0.8s-1.6-1.3-2.1-2.3
		s-0.7-2.2-0.7-3.5c0-2.1,0.5-3.7,1.6-4.9s2.5-1.8,4.4-1.8c1.8,0,3.2,0.6,4.3,1.8S736.3,237.6,736.3,239.6z M726.5,239.6
		c0,1.6,0.3,2.9,1,3.8s1.6,1.3,2.9,1.3s2.2-0.4,2.9-1.3s1-2.1,1-3.8c0-1.6-0.3-2.9-1-3.7s-1.6-1.3-2.9-1.3c-1.3,0-2.2,0.4-2.9,1.3
		S726.5,238,726.5,239.6z"/>
</g>
<g>
	<path class="st1" d="M671.2,327.6c0,2.7-0.7,4.9-2.1,6.5s-3.3,2.4-5.8,2.4c-2.5,0-4.5-0.8-5.8-2.3s-2.1-3.7-2.1-6.5
		c0-2.8,0.7-5,2.1-6.5s3.3-2.3,5.9-2.3c2.5,0,4.4,0.8,5.8,2.3S671.2,324.9,671.2,327.6z M657.6,327.6c0,2.3,0.5,4.1,1.5,5.3
		s2.4,1.8,4.3,1.8c1.9,0,3.3-0.6,4.3-1.8s1.5-3,1.5-5.3c0-2.3-0.5-4.1-1.4-5.2s-2.4-1.8-4.3-1.8c-1.9,0-3.3,0.6-4.3,1.8
		S657.6,325.4,657.6,327.6z"/>
	<path class="st1" d="M680.5,324.9h-3.3v11.3h-1.9v-11.3H673V324l2.3-0.7v-0.7c0-3.2,1.4-4.7,4.1-4.7c0.7,0,1.5,0.1,2.4,0.4
		l-0.5,1.6c-0.8-0.2-1.4-0.4-1.9-0.4c-0.7,0-1.3,0.2-1.6,0.7s-0.5,1.3-0.5,2.3v0.8h3.3V324.9z"/>
	<path class="st1" d="M688.3,336.5c-1.9,0-3.4-0.6-4.5-1.7s-1.6-2.8-1.6-4.8c0-2.1,0.5-3.7,1.5-4.9s2.4-1.8,4.1-1.8
		c1.6,0,2.9,0.5,3.8,1.6s1.4,2.5,1.4,4.2v1.2h-8.8c0,1.5,0.4,2.7,1.1,3.4s1.7,1.2,3.1,1.2c1.4,0,2.8-0.3,4.1-0.9v1.7
		c-0.7,0.3-1.3,0.5-2,0.6S689.2,336.5,688.3,336.5z M687.8,324.8c-1,0-1.9,0.3-2.5,1s-1,1.6-1.1,2.8h6.7c0-1.2-0.3-2.2-0.8-2.8
		S688.8,324.8,687.8,324.8z"/>
	<path class="st1" d="M702.2,323.2c0.6,0,1.1,0,1.5,0.1l-0.3,1.8c-0.5-0.1-1-0.2-1.4-0.2c-1,0-1.9,0.4-2.7,1.3s-1.1,1.9-1.1,3.2v6.9
		h-1.9v-12.8h1.6l0.2,2.4h0.1c0.5-0.8,1.1-1.5,1.7-1.9S701.4,323.2,702.2,323.2z"/>
	<path class="st1" d="M710.3,334.9c0.3,0,0.7,0,1-0.1s0.6-0.1,0.8-0.2v1.5c-0.2,0.1-0.5,0.2-0.9,0.3s-0.8,0.1-1.1,0.1
		c-2.5,0-3.7-1.3-3.7-3.9v-7.6h-1.8V324l1.8-0.8l0.8-2.7h1.1v3h3.7v1.5h-3.7v7.6c0,0.8,0.2,1.4,0.6,1.8S709.7,334.9,710.3,334.9z"/>
	<path class="st1" d="M725.7,329.8c0,2.1-0.5,3.7-1.6,4.9s-2.5,1.8-4.4,1.8c-1.1,0-2.2-0.3-3.1-0.8s-1.6-1.3-2.1-2.3
		s-0.7-2.2-0.7-3.5c0-2.1,0.5-3.7,1.6-4.9s2.5-1.8,4.4-1.8c1.8,0,3.2,0.6,4.3,1.8S725.7,327.8,725.7,329.8z M715.9,329.8
		c0,1.6,0.3,2.9,1,3.8s1.6,1.3,2.9,1.3s2.2-0.4,2.9-1.3s1-2.1,1-3.8c0-1.6-0.3-2.9-1-3.7s-1.6-1.3-2.9-1.3c-1.3,0-2.2,0.4-2.9,1.3
		S715.9,328.1,715.9,329.8z"/>
	<path class="st1" d="M735,323.2c0.6,0,1.1,0,1.5,0.1l-0.3,1.8c-0.5-0.1-1-0.2-1.4-0.2c-1,0-1.9,0.4-2.7,1.3s-1.1,1.9-1.1,3.2v6.9
		h-1.9v-12.8h1.6l0.2,2.4h0.1c0.5-0.8,1.1-1.5,1.7-1.9S734.2,323.2,735,323.2z"/>
	<path class="st1" d="M738.8,319.9c0-0.4,0.1-0.8,0.3-1s0.5-0.3,0.8-0.3c0.3,0,0.6,0.1,0.8,0.3s0.3,0.5,0.3,1s-0.1,0.8-0.3,1
		s-0.5,0.3-0.8,0.3c-0.3,0-0.6-0.1-0.8-0.3S738.8,320.4,738.8,319.9z M740.9,336.2h-1.9v-12.8h1.9V336.2z"/>
	<path class="st1" d="M756.1,329.8c0,2.1-0.5,3.7-1.6,4.9s-2.5,1.8-4.4,1.8c-1.1,0-2.2-0.3-3.1-0.8s-1.6-1.3-2.1-2.3
		s-0.7-2.2-0.7-3.5c0-2.1,0.5-3.7,1.6-4.9s2.5-1.8,4.4-1.8c1.8,0,3.2,0.6,4.3,1.8S756.1,327.8,756.1,329.8z M746.3,329.8
		c0,1.6,0.3,2.9,1,3.8s1.6,1.3,2.9,1.3s2.2-0.4,2.9-1.3s1-2.1,1-3.8c0-1.6-0.3-2.9-1-3.7s-1.6-1.3-2.9-1.3c-1.3,0-2.2,0.4-2.9,1.3
		S746.3,328.1,746.3,329.8z"/>
	<path class="st1" d="M666,360.5c0,1.5-0.5,2.7-1.6,3.5s-2.6,1.3-4.5,1.3c-2,0-3.6-0.3-4.7-0.8v-1.9c0.7,0.3,1.5,0.5,2.3,0.7
		s1.6,0.3,2.5,0.3c1.3,0,2.3-0.3,3-0.8s1-1.2,1-2.1c0-0.6-0.1-1.1-0.4-1.5s-0.6-0.7-1.2-1s-1.4-0.7-2.5-1.1c-1.6-0.6-2.7-1.2-3.4-2
		s-1-1.8-1-3.1c0-1.3,0.5-2.4,1.5-3.2s2.3-1.2,3.9-1.2c1.7,0,3.3,0.3,4.7,0.9l-0.6,1.7c-1.4-0.6-2.8-0.9-4.1-0.9
		c-1.1,0-1.9,0.2-2.5,0.7s-0.9,1.1-0.9,1.9c0,0.6,0.1,1.1,0.3,1.5s0.6,0.7,1.1,1s1.3,0.7,2.4,1c1.8,0.6,3,1.3,3.7,2.1
		S666,359.3,666,360.5z"/>
	<path class="st1" d="M677.1,365l-0.4-1.8h-0.1c-0.6,0.8-1.3,1.3-1.9,1.6s-1.4,0.4-2.4,0.4c-1.3,0-2.3-0.3-3-1s-1.1-1.6-1.1-2.8
		c0-2.6,2.1-4,6.2-4.1l2.2-0.1v-0.8c0-1-0.2-1.8-0.7-2.2s-1.1-0.7-2.1-0.7c-1.1,0-2.3,0.3-3.6,1l-0.6-1.5c0.6-0.3,1.3-0.6,2.1-0.8
		s1.5-0.3,2.3-0.3c1.5,0,2.7,0.3,3.4,1s1.1,1.8,1.1,3.3v8.8H677.1z M672.7,363.7c1.2,0,2.2-0.3,2.9-1s1-1.6,1-2.8v-1.2l-1.9,0.1
		c-1.5,0.1-2.7,0.3-3.3,0.7s-1,1.1-1,2c0,0.7,0.2,1.2,0.6,1.6S672,363.7,672.7,363.7z"/>
	<path class="st1" d="M691.4,365v-8.3c0-1-0.2-1.8-0.7-2.3s-1.2-0.8-2.2-0.8c-1.3,0-2.3,0.4-3,1.1s-0.9,1.9-0.9,3.6v6.7h-1.9v-12.8
		h1.6l0.3,1.8h0.1c0.4-0.6,1-1.1,1.7-1.5s1.5-0.5,2.4-0.5c1.5,0,2.7,0.4,3.5,1.1s1.2,1.9,1.2,3.6v8.4H691.4z"/>
	<path class="st1" d="M702.4,365.3c-1.9,0-3.3-0.6-4.3-1.7s-1.5-2.8-1.5-4.9c0-2.1,0.5-3.8,1.6-5s2.5-1.8,4.4-1.8
		c0.6,0,1.2,0.1,1.9,0.2s1.1,0.3,1.5,0.5l-0.6,1.7c-0.4-0.2-0.9-0.3-1.4-0.4s-1-0.2-1.3-0.2c-2.6,0-3.9,1.7-3.9,5
		c0,1.6,0.3,2.8,1,3.6s1.6,1.3,2.8,1.3c1.1,0,2.2-0.2,3.3-0.7v1.7C704.8,365.1,703.8,365.3,702.4,365.3z"/>
	<path class="st1" d="M712.9,363.7c0.3,0,0.7,0,1-0.1s0.6-0.1,0.8-0.2v1.5c-0.2,0.1-0.5,0.2-0.9,0.3s-0.8,0.1-1.1,0.1
		c-2.5,0-3.7-1.3-3.7-3.9v-7.6H707v-0.9l1.8-0.8l0.8-2.7h1.1v3h3.7v1.5h-3.7v7.6c0,0.8,0.2,1.4,0.6,1.8S712.2,363.7,712.9,363.7z"/>
	<path class="st1" d="M719,352.2v8.3c0,1,0.2,1.8,0.7,2.3s1.2,0.8,2.2,0.8c1.3,0,2.3-0.4,2.9-1.1s0.9-1.9,0.9-3.6v-6.8h1.9V365h-1.6
		l-0.3-1.7h-0.1c-0.4,0.6-1,1.1-1.7,1.5s-1.5,0.5-2.4,0.5c-1.6,0-2.7-0.4-3.5-1.1s-1.2-1.9-1.2-3.6v-8.4H719z"/>
	<path class="st1" d="M740.2,361.5c0,1.2-0.4,2.1-1.3,2.8s-2.1,1-3.8,1c-1.7,0-3-0.3-4-0.8v-1.8c0.6,0.3,1.3,0.6,2,0.7
		s1.4,0.3,2,0.3c1,0,1.8-0.2,2.3-0.5s0.8-0.8,0.8-1.5c0-0.5-0.2-0.9-0.7-1.3s-1.3-0.8-2.5-1.3c-1.2-0.4-2-0.8-2.5-1.2
		s-0.9-0.7-1.1-1.1s-0.4-0.9-0.4-1.5c0-1,0.4-1.9,1.3-2.5s2-0.9,3.5-0.9c1.4,0,2.7,0.3,4.1,0.8l-0.7,1.6c-1.3-0.5-2.5-0.8-3.5-0.8
		c-0.9,0-1.6,0.1-2.1,0.4s-0.7,0.7-0.7,1.2c0,0.3,0.1,0.6,0.3,0.9s0.5,0.5,0.8,0.7s1.1,0.5,2.3,0.9c1.5,0.6,2.6,1.1,3.1,1.7
		S740.2,360.7,740.2,361.5z"/>
	<path class="st1" d="M663.5,388.4h-5.8l-2.9,5.4h-2.2l9.4-17.1h2l2.2,17.1h-2L663.5,388.4z M663.3,386.6l-0.4-3.5
		c-0.2-1.4-0.3-2.8-0.3-4.1c-0.3,0.7-0.6,1.4-0.9,2.1s-1.3,2.5-2.9,5.6H663.3z"/>
	<path class="st1" d="M680.2,381l-0.3,1.3l-2.5,0.3c0.3,0.5,0.5,1.1,0.5,1.9c0,1.5-0.5,2.7-1.4,3.6s-2.1,1.3-3.7,1.3
		c-0.4,0-0.8,0-1-0.1c-1.1,0.4-1.6,0.9-1.6,1.5c0,0.3,0.1,0.5,0.4,0.6s0.6,0.2,1.1,0.3l1.4,0.2c1.4,0.2,2.4,0.5,3.1,1s1,1.3,1,2.3
		c0,1.4-0.6,2.6-1.7,3.3s-2.7,1.2-4.8,1.2c-1.5,0-2.7-0.3-3.6-0.9s-1.3-1.4-1.3-2.4c0-0.8,0.3-1.5,0.8-2.1s1.5-1.1,2.7-1.5
		c-0.6-0.3-0.9-0.8-0.9-1.4c0-0.5,0.2-1,0.6-1.4s1-0.7,1.7-1.1c-0.5-0.3-0.9-0.6-1.2-1.1s-0.5-1.1-0.5-1.7c0-1.5,0.5-2.8,1.4-3.7
		s2.1-1.5,3.6-1.5c0.6,0,1.2,0.1,1.8,0.2H680.2z M667.7,396.1c0,0.6,0.3,1.1,0.8,1.4s1.3,0.5,2.3,0.5c1.4,0,2.5-0.2,3.3-0.7
		s1.2-1.2,1.2-2.1c0-0.5-0.2-0.9-0.6-1.1s-1.1-0.5-2.2-0.6l-1.9-0.2c-0.9,0.2-1.7,0.5-2.2,1S667.7,395.4,667.7,396.1z M671,385.9
		c0,0.7,0.2,1.2,0.5,1.5s0.8,0.5,1.5,0.5c0.6,0,1.2-0.2,1.6-0.5s0.8-0.8,1.1-1.4s0.4-1.2,0.4-1.9c0-0.6-0.2-1.1-0.5-1.5
		s-0.8-0.5-1.5-0.5c-0.6,0-1.1,0.2-1.6,0.5s-0.8,0.8-1.1,1.3S671,385.2,671,385.9z"/>
	<path class="st1" d="M687.9,393.8l1.7-8.1c0.2-0.8,0.2-1.4,0.2-1.7c0-0.5-0.1-0.9-0.4-1.2s-0.7-0.4-1.3-0.4c-0.7,0-1.4,0.2-2,0.7
		s-1.2,1.1-1.7,2s-0.9,1.9-1.1,3.2l-1.2,5.6h-2l2.7-12.8h1.6l-0.3,2.4h0.1c0.8-1,1.5-1.6,2.2-2s1.4-0.6,2.2-0.6c1,0,1.8,0.3,2.3,0.8
		s0.9,1.3,0.9,2.3c0,0.6-0.1,1.3-0.3,2.1l-1.7,7.9H687.9z"/>
	<path class="st1" d="M698.5,381l-1.8,8.1c-0.1,0.7-0.2,1.2-0.2,1.6c0,1.1,0.6,1.7,1.7,1.7c0.7,0,1.4-0.2,2-0.7s1.3-1.1,1.8-2
		s0.9-1.9,1.2-3.2l1.2-5.6h1.9l-2.7,12.8H702l0.3-2.4h-0.1c-0.8,1-1.5,1.7-2.2,2s-1.4,0.6-2.2,0.6c-1,0-1.8-0.3-2.4-0.8
		s-0.9-1.3-0.9-2.3c0-0.5,0.1-1.2,0.3-2l1.7-7.9H698.5z"/>
	<path class="st1" d="M715.7,390.2c0,1.2-0.4,2.2-1.3,2.9s-2.1,1-3.7,1c-1.3,0-2.5-0.3-3.6-0.8v-1.9c0.5,0.3,1.1,0.6,1.8,0.8
		s1.2,0.3,1.8,0.3c1,0,1.7-0.2,2.2-0.6s0.8-0.9,0.8-1.5c0-0.4-0.1-0.8-0.4-1.1s-0.9-0.7-1.8-1.3c-1-0.6-1.7-1.1-2.2-1.7
		s-0.6-1.2-0.6-1.9c0-1.1,0.4-1.9,1.2-2.6s1.8-1,3.1-1c1.3,0,2.6,0.3,3.9,0.9l-0.6,1.6l-0.7-0.3c-0.8-0.3-1.6-0.5-2.6-0.5
		c-0.7,0-1.3,0.2-1.7,0.5s-0.6,0.8-0.6,1.3c0,0.4,0.1,0.8,0.4,1.1s0.8,0.7,1.7,1.2c0.8,0.5,1.4,0.9,1.8,1.2s0.6,0.7,0.8,1.1
		S715.7,389.7,715.7,390.2z"/>
	<path class="st1" d="M738.8,383.6c0,2-0.4,3.8-1.2,5.4s-2,2.8-3.5,3.6s-3.3,1.3-5.4,1.3h-4.1l3.6-17.1h4c2.2,0,3.8,0.6,4.9,1.8
		S738.8,381.3,738.8,383.6z M728.8,392.1c1.6,0,3-0.4,4.2-1.1s2.1-1.7,2.7-3s1-2.8,1-4.5s-0.4-3-1.2-3.8s-2-1.3-3.5-1.3h-2.1
		l-2.9,13.7H728.8z"/>
	<path class="st1" d="M745.3,394.1c-1.4,0-2.6-0.4-3.4-1.3s-1.2-2-1.2-3.5c0-1.5,0.3-2.9,0.9-4.2s1.4-2.4,2.3-3.1s2-1.1,3.2-1.1
		c1.2,0,2.1,0.3,2.7,0.8s0.9,1.2,0.9,2.2c0,1.4-0.6,2.5-1.9,3.3s-3.2,1.2-5.6,1.2h-0.4l0,0.9c0,1,0.2,1.8,0.7,2.4s1.2,0.9,2.2,0.9
		c0.5,0,1-0.1,1.5-0.2s1.2-0.4,1.9-0.8v1.7c-0.7,0.3-1.4,0.6-1.9,0.7S746,394.1,745.3,394.1z M746.9,382.4c-0.8,0-1.6,0.4-2.3,1.1
		s-1.2,1.8-1.6,3.1h0.1c1.8,0,3.1-0.2,4.1-0.7s1.4-1.1,1.4-2c0-0.4-0.1-0.8-0.4-1S747.6,382.4,746.9,382.4z"/>
	<path class="st1" d="M754,393.8h-2l2.7-12.8h2L754,393.8z M755.4,377.7c0-0.4,0.1-0.8,0.4-1.1s0.6-0.4,1-0.4c0.7,0,1,0.4,1,1.1
		c0,0.4-0.1,0.8-0.4,1.1s-0.6,0.4-0.9,0.4c-0.3,0-0.6-0.1-0.8-0.3S755.4,378.1,755.4,377.7z"/>
	<path class="st1" d="M663.7,407c-1.9,0-3.4,0.6-4.5,1.9s-1.6,3-1.6,5.2c0,2.2,0.5,4,1.6,5.2s2.5,1.8,4.5,1.8c1.2,0,2.6-0.2,4.1-0.6
		v1.7c-1.2,0.4-2.7,0.7-4.4,0.7c-2.5,0-4.5-0.8-5.8-2.3s-2.1-3.7-2.1-6.5c0-1.8,0.3-3.3,1-4.6s1.6-2.4,2.9-3.1s2.7-1.1,4.4-1.1
		c1.8,0,3.4,0.3,4.7,1l-0.8,1.7C666.3,407.3,665,407,663.7,407z"/>
	<path class="st1" d="M682.3,416.2c0,2.1-0.5,3.7-1.6,4.9s-2.5,1.8-4.4,1.8c-1.1,0-2.2-0.3-3.1-0.8s-1.6-1.3-2.1-2.3
		s-0.7-2.2-0.7-3.5c0-2.1,0.5-3.7,1.6-4.9s2.5-1.8,4.4-1.8c1.8,0,3.2,0.6,4.3,1.8S682.3,414.2,682.3,416.2z M672.5,416.2
		c0,1.6,0.3,2.9,1,3.8s1.6,1.3,2.9,1.3s2.2-0.4,2.9-1.3s1-2.1,1-3.8c0-1.6-0.3-2.9-1-3.7s-1.6-1.3-2.9-1.3c-1.3,0-2.2,0.4-2.9,1.3
		S672.5,414.5,672.5,416.2z"/>
	<path class="st1" d="M702.1,422.6v-8.4c0-1-0.2-1.8-0.7-2.3s-1.1-0.8-2-0.8c-1.2,0-2.1,0.3-2.7,1s-0.9,1.8-0.9,3.2v7.2h-1.9v-8.4
		c0-1-0.2-1.8-0.7-2.3s-1.1-0.8-2.1-0.8c-1.2,0-2.1,0.4-2.7,1.1s-0.8,1.9-0.8,3.6v6.7h-1.9v-12.8h1.6l0.3,1.8h0.1
		c0.4-0.6,0.9-1.1,1.6-1.5s1.4-0.5,2.2-0.5c2,0,3.3,0.7,3.9,2.2h0.1c0.4-0.7,0.9-1.2,1.7-1.6s1.6-0.6,2.5-0.6c1.5,0,2.5,0.4,3.3,1.1
		s1.1,1.9,1.1,3.6v8.4H702.1z"/>
	<path class="st1" d="M709.9,409.8v8.3c0,1,0.2,1.8,0.7,2.3s1.2,0.8,2.2,0.8c1.3,0,2.3-0.4,2.9-1.1s0.9-1.9,0.9-3.6v-6.8h1.9v12.8
		H717l-0.3-1.7h-0.1c-0.4,0.6-1,1.1-1.7,1.5s-1.5,0.5-2.4,0.5c-1.6,0-2.7-0.4-3.5-1.1s-1.2-1.9-1.2-3.6v-8.4H709.9z"/>
	<path class="st1" d="M731.5,422.6v-8.3c0-1-0.2-1.8-0.7-2.3s-1.2-0.8-2.2-0.8c-1.3,0-2.3,0.4-3,1.1s-0.9,1.9-0.9,3.6v6.7h-1.9
		v-12.8h1.6l0.3,1.8h0.1c0.4-0.6,1-1.1,1.7-1.5s1.5-0.5,2.4-0.5c1.5,0,2.7,0.4,3.5,1.1s1.2,1.9,1.2,3.6v8.4H731.5z"/>
	<path class="st1" d="M737.3,406.3c0-0.4,0.1-0.8,0.3-1s0.5-0.3,0.8-0.3c0.3,0,0.6,0.1,0.8,0.3s0.3,0.5,0.3,1s-0.1,0.8-0.3,1
		s-0.5,0.3-0.8,0.3c-0.3,0-0.6-0.1-0.8-0.3S737.3,406.8,737.3,406.3z M739.4,422.6h-1.9v-12.8h1.9V422.6z"/>
	<path class="st1" d="M754.6,416.2c0,2.1-0.5,3.7-1.6,4.9s-2.5,1.8-4.4,1.8c-1.1,0-2.2-0.3-3.1-0.8s-1.6-1.3-2.1-2.3
		s-0.7-2.2-0.7-3.5c0-2.1,0.5-3.7,1.6-4.9s2.5-1.8,4.4-1.8c1.8,0,3.2,0.6,4.3,1.8S754.6,414.2,754.6,416.2z M744.9,416.2
		c0,1.6,0.3,2.9,1,3.8s1.6,1.3,2.9,1.3s2.2-0.4,2.9-1.3s1-2.1,1-3.8c0-1.6-0.3-2.9-1-3.7s-1.6-1.3-2.9-1.3c-1.3,0-2.2,0.4-2.9,1.3
		S744.9,414.5,744.9,416.2z M747.1,407.8c0.4-0.5,0.8-1.1,1.2-1.8s0.8-1.3,1-1.8h2.4v0.2c-0.3,0.5-0.9,1.1-1.5,1.9s-1.3,1.3-1.8,1.7
		h-1.3V407.8z"/>
	<path class="st1" d="M766.8,422.6v-8.3c0-1-0.2-1.8-0.7-2.3s-1.2-0.8-2.2-0.8c-1.3,0-2.3,0.4-3,1.1s-0.9,1.9-0.9,3.6v6.7h-1.9
		v-12.8h1.6l0.3,1.8h0.1c0.4-0.6,1-1.1,1.7-1.5s1.5-0.5,2.4-0.5c1.5,0,2.7,0.4,3.5,1.1s1.2,1.9,1.2,3.6v8.4H766.8z"/>
	<path class="st1" d="M655,481.4l3.8-17.8h2.1l-3.8,17.8H655z"/>
	<path class="st1" d="M665.6,480c0.4,0,1-0.1,1.8-0.3v1.6c-0.3,0.1-0.6,0.2-1,0.3c-0.4,0.1-0.7,0.1-1,0.1c-1,0-1.8-0.2-2.3-0.7
		c-0.5-0.5-0.8-1.2-0.8-2.2c0-0.5,0.1-1.1,0.2-1.8l1.5-7.3h-2.1l0.2-0.9l2.3-1l1.5-2.8h1.2l-0.7,3.1h3.3l-0.3,1.6h-3.3l-1.6,7.4
		c-0.1,0.7-0.2,1.2-0.2,1.6c0,0.5,0.1,0.8,0.4,1S665.2,480,665.6,480z"/>
	<path class="st1" d="M674.9,481.7c-1.5,0-2.7-0.4-3.5-1.3s-1.3-2.1-1.3-3.7c0-1.5,0.3-3,0.9-4.4c0.6-1.4,1.4-2.5,2.4-3.3
		c1-0.8,2.1-1.2,3.3-1.2c1.2,0,2.2,0.3,2.8,0.8c0.6,0.5,0.9,1.3,0.9,2.3c0,1.5-0.7,2.6-2,3.4c-1.4,0.8-3.3,1.3-5.8,1.3h-0.4l0,1
		c0,1.1,0.3,1.9,0.8,2.5c0.5,0.6,1.3,0.9,2.3,0.9c0.5,0,1-0.1,1.6-0.2c0.5-0.1,1.2-0.4,2-0.8v1.8c-0.8,0.4-1.4,0.6-2,0.8
		S675.6,481.7,674.9,481.7z M676.6,469.6c-0.8,0-1.6,0.4-2.4,1.1s-1.3,1.8-1.7,3.2h0.1c1.9,0,3.3-0.2,4.3-0.7s1.5-1.2,1.5-2.1
		c0-0.4-0.1-0.8-0.4-1.1S677.3,469.6,676.6,469.6z"/>
	<path class="st1" d="M696.2,481.4l1.8-8.4c0.1-0.8,0.2-1.3,0.2-1.6c0-0.6-0.1-1-0.4-1.3c-0.3-0.3-0.7-0.5-1.3-0.5
		c-0.7,0-1.3,0.2-2,0.7c-0.6,0.5-1.2,1.2-1.7,2.1c-0.5,0.9-0.9,2-1.1,3.3l-1.2,5.8h-2.1l2.9-13.4h1.7l-0.3,2.5h0.1
		c0.7-1,1.4-1.7,2.1-2.1c0.7-0.4,1.4-0.6,2.2-0.6c0.9,0,1.6,0.3,2.1,0.8c0.5,0.5,0.8,1.3,0.9,2.2h0.1c0.7-1,1.4-1.8,2.2-2.3
		c0.8-0.5,1.6-0.7,2.4-0.7c1,0,1.8,0.3,2.4,0.8c0.6,0.6,0.8,1.4,0.8,2.4c0,0.6-0.1,1.3-0.3,2.2l-1.8,8.2H704l1.8-8.4
		c0.2-0.8,0.2-1.4,0.2-1.8c0-0.5-0.1-0.9-0.4-1.2c-0.3-0.3-0.7-0.5-1.3-0.5c-0.7,0-1.3,0.2-2,0.7c-0.6,0.5-1.2,1.1-1.7,2
		c-0.5,0.9-0.9,1.9-1.1,3.1l-1.3,6.1H696.2z"/>
	<path class="st1" d="M712.3,481.4h-2.1l2.9-13.4h2.1L712.3,481.4z M713.7,464.6c0-0.5,0.1-0.8,0.4-1.1c0.3-0.3,0.6-0.4,1-0.4
		c0.7,0,1.1,0.4,1.1,1.1c0,0.4-0.1,0.8-0.4,1.1c-0.3,0.3-0.6,0.5-0.9,0.5c-0.3,0-0.6-0.1-0.8-0.3C713.8,465.3,713.7,465,713.7,464.6
		z"/>
	<path class="st1" d="M724.9,477.6c0,1.3-0.5,2.3-1.3,3c-0.9,0.7-2.2,1.1-3.8,1.1c-1.4,0-2.6-0.3-3.7-0.8v-1.9
		c0.6,0.3,1.2,0.6,1.8,0.8s1.3,0.3,1.8,0.3c1,0,1.8-0.2,2.3-0.6c0.5-0.4,0.8-0.9,0.8-1.6c0-0.5-0.1-0.9-0.4-1.2
		c-0.3-0.3-0.9-0.8-1.8-1.3c-1.1-0.6-1.8-1.2-2.2-1.7s-0.7-1.2-0.7-2c0-1.1,0.4-2,1.2-2.7c0.8-0.7,1.9-1,3.2-1c1.4,0,2.7,0.3,4,0.9
		l-0.7,1.7l-0.7-0.3c-0.8-0.3-1.7-0.5-2.7-0.5c-0.8,0-1.4,0.2-1.8,0.5c-0.4,0.4-0.6,0.8-0.6,1.4c0,0.5,0.1,0.8,0.4,1.2
		c0.3,0.3,0.9,0.7,1.8,1.3c0.9,0.5,1.5,0.9,1.9,1.3c0.4,0.4,0.7,0.7,0.8,1.1C724.8,476.7,724.9,477.1,724.9,477.6z"/>
	<path class="st1" d="M735.6,477.6c0,1.3-0.5,2.3-1.3,3c-0.9,0.7-2.2,1.1-3.8,1.1c-1.4,0-2.6-0.3-3.7-0.8v-1.9
		c0.6,0.3,1.2,0.6,1.8,0.8c0.7,0.2,1.3,0.3,1.8,0.3c1,0,1.8-0.2,2.3-0.6c0.5-0.4,0.8-0.9,0.8-1.6c0-0.5-0.1-0.9-0.4-1.2
		s-0.9-0.8-1.8-1.3c-1.1-0.6-1.8-1.2-2.2-1.7s-0.7-1.2-0.7-2c0-1.1,0.4-2,1.2-2.7c0.8-0.7,1.9-1,3.2-1c1.4,0,2.7,0.3,4,0.9l-0.7,1.7
		l-0.7-0.3c-0.8-0.3-1.7-0.5-2.7-0.5c-0.8,0-1.4,0.2-1.8,0.5s-0.6,0.8-0.6,1.4c0,0.5,0.1,0.8,0.4,1.2c0.3,0.3,0.9,0.7,1.8,1.3
		c0.9,0.5,1.5,0.9,1.9,1.3c0.4,0.4,0.7,0.7,0.8,1.1C735.5,476.7,735.6,477.1,735.6,477.6z"/>
	<path class="st1" d="M745.1,467.8c0.7,0,1.4,0.2,2,0.6c0.6,0.4,1,1,1.4,1.7h0.1l0.8-2.1h1.5l-2.8,13.4h-1.6l0.3-2.6h-0.1
		c-1.5,1.9-3,2.8-4.6,2.8c-1.1,0-2-0.4-2.7-1.2c-0.6-0.8-1-1.9-1-3.3c0-1.7,0.3-3.3,0.9-4.7c0.6-1.4,1.4-2.6,2.4-3.4
		C742.8,468.2,743.9,467.8,745.1,467.8z M742.8,480c0.8,0,1.6-0.4,2.4-1.1c0.8-0.8,1.4-1.7,1.9-2.9s0.7-2.4,0.7-3.6
		c0-0.8-0.2-1.5-0.7-2c-0.5-0.5-1.1-0.7-1.8-0.7c-0.8,0-1.6,0.4-2.4,1c-0.7,0.7-1.3,1.6-1.7,2.8c-0.4,1.2-0.6,2.5-0.6,3.8
		c0,0.9,0.2,1.6,0.6,2.1C741.6,479.8,742.1,480,742.8,480z"/>
	<path class="st1" d="M763.9,481.7c-1.5,0-2.7-0.4-3.5-1.3c-0.9-0.9-1.3-2.1-1.3-3.7c0-1.5,0.3-3,0.9-4.4c0.6-1.4,1.4-2.5,2.4-3.3
		s2.1-1.2,3.3-1.2c1.2,0,2.2,0.3,2.8,0.8s0.9,1.3,0.9,2.3c0,1.5-0.7,2.6-2,3.4c-1.4,0.8-3.3,1.3-5.8,1.3h-0.4l0,1
		c0,1.1,0.3,1.9,0.8,2.5c0.5,0.6,1.3,0.9,2.3,0.9c0.5,0,1-0.1,1.6-0.2c0.5-0.1,1.2-0.4,2-0.8v1.8c-0.8,0.4-1.4,0.6-2,0.8
		S764.6,481.7,763.9,481.7z M765.6,469.6c-0.8,0-1.6,0.4-2.4,1.1s-1.3,1.8-1.7,3.2h0.1c1.9,0,3.3-0.2,4.3-0.7c1-0.5,1.5-1.2,1.5-2.1
		c0-0.4-0.1-0.8-0.4-1.1S766.3,469.6,765.6,469.6z"/>
	<path class="st1" d="M779.2,477.6c0,1.3-0.5,2.3-1.3,3c-0.9,0.7-2.2,1.1-3.8,1.1c-1.4,0-2.6-0.3-3.7-0.8v-1.9
		c0.6,0.3,1.2,0.6,1.8,0.8c0.7,0.2,1.3,0.3,1.8,0.3c1,0,1.8-0.2,2.3-0.6c0.5-0.4,0.8-0.9,0.8-1.6c0-0.5-0.1-0.9-0.4-1.2
		s-0.9-0.8-1.8-1.3c-1.1-0.6-1.8-1.2-2.2-1.7s-0.7-1.2-0.7-2c0-1.1,0.4-2,1.2-2.7c0.8-0.7,1.9-1,3.2-1c1.4,0,2.7,0.3,4,0.9l-0.7,1.7
		l-0.7-0.3c-0.8-0.3-1.7-0.5-2.7-0.5c-0.8,0-1.4,0.2-1.8,0.5s-0.6,0.8-0.6,1.4c0,0.5,0.1,0.8,0.4,1.2c0.3,0.3,0.9,0.7,1.8,1.3
		c0.9,0.5,1.5,0.9,1.9,1.3c0.4,0.4,0.7,0.7,0.8,1.1C779.1,476.7,779.2,477.1,779.2,477.6z"/>
	<path class="st1" d="M785.8,480c0.4,0,1-0.1,1.8-0.3v1.6c-0.3,0.1-0.6,0.2-1,0.3c-0.4,0.1-0.7,0.1-1,0.1c-1,0-1.8-0.2-2.3-0.7
		c-0.5-0.5-0.8-1.2-0.8-2.2c0-0.5,0.1-1.1,0.2-1.8l1.6-7.3h-2.1l0.2-0.9l2.3-1l1.5-2.8h1.2l-0.7,3.1h3.3l-0.3,1.6h-3.3l-1.6,7.4
		c-0.1,0.7-0.2,1.2-0.2,1.6c0,0.5,0.1,0.8,0.4,1C785,479.9,785.4,480,785.8,480z"/>
	<path class="st1" d="M797.1,471v-1.7h11.2v1.7H797.1z M797.1,476v-1.7h11.2v1.7H797.1z"/>
	<path class="st1" d="M825.2,463.6c3.5,0,5.3,1.4,5.3,4.1c0,1.1-0.4,2.1-1.1,2.9c-0.7,0.8-1.7,1.3-3,1.5v0.1
		c0.9,0.3,1.7,0.7,2.2,1.3s0.8,1.4,0.8,2.3c0,1.7-0.6,3.1-1.9,4.1c-1.2,1-2.9,1.5-5,1.5h-5.7l3.8-17.8H825.2z M819.3,479.7h3.2
		c1.5,0,2.6-0.3,3.4-1c0.8-0.7,1.2-1.6,1.2-2.8c0-0.9-0.3-1.7-0.9-2.2c-0.6-0.5-1.5-0.8-2.6-0.8h-2.9L819.3,479.7z M821.1,471.2h3
		c1.3,0,2.3-0.3,3-0.9s1.1-1.4,1.1-2.4c0-0.8-0.3-1.5-0.8-1.9c-0.5-0.4-1.4-0.6-2.6-0.6h-2.6L821.1,471.2z"/>
	<path class="st1" d="M836.8,481.7c-1.5,0-2.7-0.4-3.5-1.3c-0.9-0.9-1.3-2.1-1.3-3.7c0-1.5,0.3-3,0.9-4.4c0.6-1.4,1.4-2.5,2.4-3.3
		s2.1-1.2,3.3-1.2c1.2,0,2.2,0.3,2.8,0.8s0.9,1.3,0.9,2.3c0,1.5-0.7,2.6-2,3.4c-1.4,0.8-3.3,1.3-5.8,1.3h-0.4l0,1
		c0,1.1,0.3,1.9,0.8,2.5c0.5,0.6,1.3,0.9,2.3,0.9c0.5,0,1-0.1,1.6-0.2c0.5-0.1,1.2-0.4,2-0.8v1.8c-0.8,0.4-1.4,0.6-2,0.8
		S837.5,481.7,836.8,481.7z M838.5,469.6c-0.8,0-1.6,0.4-2.4,1.1s-1.3,1.8-1.7,3.2h0.1c1.9,0,3.3-0.2,4.3-0.7c1-0.5,1.5-1.2,1.5-2.1
		c0-0.4-0.1-0.8-0.4-1.1S839.1,469.6,838.5,469.6z"/>
	<path class="st1" d="M852,481.4l1.8-8.4c0.2-0.8,0.2-1.4,0.2-1.8c0-0.5-0.1-0.9-0.4-1.2c-0.3-0.3-0.8-0.5-1.4-0.5
		c-0.7,0-1.4,0.2-2.1,0.7c-0.7,0.5-1.3,1.2-1.8,2.1c-0.5,0.9-0.9,2-1.2,3.3l-1.2,5.8h-2.1l2.9-13.4h1.7l-0.3,2.5h0.1
		c0.8-1,1.5-1.7,2.3-2.1c0.7-0.4,1.5-0.6,2.3-0.6c1,0,1.8,0.3,2.4,0.8c0.6,0.6,0.9,1.4,0.9,2.4c0,0.6-0.1,1.4-0.3,2.2l-1.7,8.2H852z
		"/>
	<path class="st1" d="M863.5,481.7c-1.5,0-2.7-0.4-3.5-1.3c-0.9-0.9-1.3-2.1-1.3-3.7c0-1.5,0.3-3,0.9-4.4c0.6-1.4,1.4-2.5,2.4-3.3
		s2.1-1.2,3.3-1.2c1.2,0,2.2,0.3,2.8,0.8s0.9,1.3,0.9,2.3c0,1.5-0.7,2.6-2,3.4c-1.4,0.8-3.3,1.3-5.8,1.3h-0.4l0,1
		c0,1.1,0.3,1.9,0.8,2.5c0.5,0.6,1.3,0.9,2.3,0.9c0.5,0,1-0.1,1.6-0.2c0.5-0.1,1.2-0.4,2-0.8v1.8c-0.8,0.4-1.4,0.6-2,0.8
		S864.3,481.7,863.5,481.7z M865.2,469.6c-0.8,0-1.6,0.4-2.4,1.1s-1.3,1.8-1.7,3.2h0.1c1.9,0,3.3-0.2,4.3-0.7c1-0.5,1.5-1.2,1.5-2.1
		c0-0.4-0.1-0.8-0.4-1.1S865.9,469.6,865.2,469.6z"/>
	<path class="st1" d="M877.7,467.8c1.6,0,2.7,0.8,3.4,2.3h0.1c0.1-1.3,0.3-2.4,0.5-3.3l1-4.4h2l-4,19H879l0.3-2.6h-0.1
		c-0.8,1-1.6,1.7-2.3,2.2c-0.7,0.4-1.5,0.6-2.2,0.6c-1.1,0-2-0.4-2.6-1.2c-0.6-0.8-1-1.9-1-3.3c0-1.7,0.3-3.3,0.9-4.8
		c0.6-1.4,1.4-2.6,2.4-3.4C875.3,468.2,876.4,467.8,877.7,467.8z M875.3,480c0.8,0,1.6-0.4,2.4-1.1c0.8-0.8,1.5-1.7,1.9-2.9
		c0.5-1.2,0.7-2.4,0.7-3.6c0-0.9-0.2-1.6-0.7-2.1c-0.4-0.5-1.1-0.7-1.9-0.7c-0.8,0-1.6,0.3-2.3,1s-1.3,1.6-1.7,2.8
		c-0.4,1.2-0.6,2.5-0.6,3.8C873.2,479.1,873.9,480,875.3,480z"/>
	<path class="st1" d="M887.1,481.4H885l2.9-13.4h2.1L887.1,481.4z M888.4,464.6c0-0.5,0.1-0.8,0.4-1.1c0.3-0.3,0.6-0.4,1-0.4
		c0.7,0,1.1,0.4,1.1,1.1c0,0.4-0.1,0.8-0.4,1.1c-0.3,0.3-0.6,0.5-0.9,0.5c-0.3,0-0.6-0.1-0.8-0.3C888.6,465.3,888.4,465,888.4,464.6
		z"/>
	<path class="st1" d="M896.8,481.7c-1.6,0-2.8-0.4-3.7-1.3c-0.9-0.9-1.3-2.1-1.3-3.7c0-1.6,0.3-3.1,0.9-4.5s1.4-2.4,2.5-3.2
		c1.1-0.8,2.3-1.2,3.6-1.2c1.1,0,2.2,0.2,3.3,0.6l-0.6,1.7c-1-0.4-1.9-0.6-2.7-0.6c-0.9,0-1.7,0.3-2.5,0.9c-0.8,0.6-1.3,1.5-1.8,2.6
		c-0.4,1.1-0.6,2.3-0.6,3.6c0,1,0.3,1.9,0.8,2.4c0.5,0.6,1.3,0.9,2.2,0.9c0.6,0,1.1-0.1,1.7-0.2s1-0.4,1.5-0.6v1.7
		C899.2,481.4,898.1,481.7,896.8,481.7z"/>
	<path class="st1" d="M909.7,467.8c0.7,0,1.4,0.2,2,0.6c0.6,0.4,1,1,1.4,1.7h0.1l0.8-2.1h1.6l-2.8,13.4h-1.6l0.3-2.6h-0.1
		c-1.5,1.9-3,2.8-4.6,2.8c-1.1,0-2-0.4-2.7-1.2s-1-1.9-1-3.3c0-1.7,0.3-3.3,0.9-4.7c0.6-1.4,1.4-2.6,2.4-3.4
		C907.4,468.2,908.5,467.8,909.7,467.8z M907.4,480c0.8,0,1.6-0.4,2.4-1.1c0.8-0.8,1.4-1.7,1.9-2.9s0.7-2.4,0.7-3.6
		c0-0.8-0.2-1.5-0.7-2s-1.1-0.7-1.8-0.7c-0.8,0-1.6,0.4-2.4,1c-0.7,0.7-1.3,1.6-1.7,2.8c-0.4,1.2-0.6,2.5-0.6,3.8
		c0,0.9,0.2,1.6,0.6,2.1C906.2,479.8,906.7,480,907.4,480z"/>
	<path class="st1" d="M924.5,481.4l1.8-8.4c0.1-0.8,0.2-1.3,0.2-1.6c0-0.6-0.1-1-0.4-1.3c-0.3-0.3-0.7-0.5-1.3-0.5
		c-0.7,0-1.3,0.2-2,0.7c-0.6,0.5-1.2,1.2-1.7,2.1c-0.5,0.9-0.9,2-1.1,3.3l-1.2,5.8h-2.1l2.9-13.4h1.7l-0.3,2.5h0.1
		c0.7-1,1.4-1.7,2.1-2.1c0.7-0.4,1.4-0.6,2.2-0.6c0.9,0,1.6,0.3,2.1,0.8c0.5,0.5,0.8,1.3,0.9,2.2h0.1c0.7-1,1.4-1.8,2.2-2.3
		c0.8-0.5,1.6-0.7,2.4-0.7c1,0,1.8,0.3,2.4,0.8c0.6,0.6,0.8,1.4,0.8,2.4c0,0.6-0.1,1.3-0.3,2.2l-1.8,8.2h-2.1l1.8-8.4
		c0.2-0.8,0.2-1.4,0.2-1.8c0-0.5-0.1-0.9-0.4-1.2c-0.3-0.3-0.7-0.5-1.3-0.5c-0.7,0-1.3,0.2-2,0.7c-0.6,0.5-1.2,1.1-1.7,2
		c-0.5,0.9-0.9,1.9-1.1,3.1l-1.3,6.1H924.5z"/>
	<path class="st1" d="M943.3,468.1l-1.8,8.5c-0.1,0.7-0.2,1.3-0.2,1.7c0,1.2,0.6,1.7,1.8,1.7c0.7,0,1.4-0.2,2.1-0.7
		c0.7-0.5,1.3-1.2,1.8-2.1s0.9-2,1.2-3.3l1.2-5.8h2l-2.8,13.4H947l0.3-2.5h-0.1c-0.8,1-1.6,1.7-2.3,2.1c-0.7,0.4-1.5,0.6-2.2,0.6
		c-1,0-1.9-0.3-2.5-0.8c-0.6-0.6-0.9-1.4-0.9-2.4c0-0.5,0.1-1.2,0.3-2.1l1.8-8.3H943.3z"/>
	<path class="st1" d="M961.2,477.6c0,1.3-0.4,2.3-1.3,3c-0.9,0.7-2.2,1.1-3.8,1.1c-1.4,0-2.6-0.3-3.7-0.8v-1.9
		c0.6,0.3,1.2,0.6,1.8,0.8s1.3,0.3,1.8,0.3c1,0,1.8-0.2,2.3-0.6c0.5-0.4,0.8-0.9,0.8-1.6c0-0.5-0.1-0.9-0.4-1.2s-0.9-0.8-1.8-1.3
		c-1.1-0.6-1.8-1.2-2.2-1.7s-0.7-1.2-0.7-2c0-1.1,0.4-2,1.2-2.7c0.8-0.7,1.9-1,3.2-1c1.4,0,2.7,0.3,4,0.9l-0.7,1.7l-0.7-0.3
		c-0.8-0.3-1.7-0.5-2.7-0.5c-0.8,0-1.4,0.2-1.8,0.5s-0.6,0.8-0.6,1.4c0,0.5,0.1,0.8,0.4,1.2c0.3,0.3,0.9,0.7,1.8,1.3
		c0.9,0.5,1.5,0.9,1.9,1.3c0.4,0.4,0.7,0.7,0.8,1.1C961.1,476.7,961.2,477.1,961.2,477.6z"/>
	<path class="st1" d="M985.3,470.7c0,2.1-0.4,4-1.3,5.6c-0.9,1.6-2.1,2.9-3.7,3.8c-1.6,0.9-3.4,1.3-5.6,1.3h-4.3l3.8-17.8h4.2
		c2.2,0,4,0.6,5.1,1.8C984.7,466.6,985.3,468.4,985.3,470.7z M974.9,479.6c1.6,0,3.1-0.4,4.3-1.1c1.2-0.7,2.2-1.8,2.9-3.2
		c0.7-1.4,1-2.9,1-4.7c0-1.7-0.4-3.1-1.3-4c-0.8-0.9-2.1-1.3-3.7-1.3H976l-3.1,14.3H974.9z"/>
	<path class="st1" d="M994,467.9c1.5,0,2.8,0.5,3.7,1.4c0.9,0.9,1.3,2.2,1.3,3.8c0,1.5-0.3,3-0.9,4.3s-1.4,2.4-2.4,3.1
		c-1,0.7-2.1,1.1-3.4,1.1c-1.6,0-2.8-0.5-3.7-1.4s-1.3-2.2-1.3-3.8c0-1.5,0.3-3,0.9-4.4c0.6-1.4,1.4-2.4,2.4-3.1
		S992.7,467.9,994,467.9z M996.8,472.8c0-0.9-0.3-1.7-0.8-2.3s-1.2-0.9-2.1-0.9c-0.9,0-1.7,0.3-2.4,0.9s-1.2,1.4-1.6,2.5
		s-0.6,2.3-0.6,3.6c0,1.1,0.3,1.9,0.8,2.5c0.5,0.6,1.3,0.9,2.2,0.9c0.8,0,1.6-0.3,2.3-0.9c0.7-0.6,1.2-1.4,1.6-2.5
		C996.6,475.4,996.8,474.2,996.8,472.8z"/>
	<path class="st1" d="M1008.6,481.4l1.8-8.4c0.1-0.8,0.2-1.3,0.2-1.6c0-0.6-0.1-1-0.4-1.3c-0.3-0.3-0.7-0.5-1.3-0.5
		c-0.7,0-1.3,0.2-2,0.7s-1.2,1.2-1.7,2.1c-0.5,0.9-0.9,2-1.1,3.3l-1.2,5.8h-2.1l2.9-13.4h1.7l-0.3,2.5h0.1c0.7-1,1.4-1.7,2.1-2.1
		c0.7-0.4,1.4-0.6,2.2-0.6c0.9,0,1.6,0.3,2.1,0.8c0.5,0.5,0.8,1.3,0.9,2.2h0.1c0.7-1,1.4-1.8,2.2-2.3c0.8-0.5,1.6-0.7,2.4-0.7
		c1,0,1.8,0.3,2.4,0.8c0.6,0.6,0.8,1.4,0.8,2.4c0,0.6-0.1,1.3-0.3,2.2l-1.8,8.2h-2.1l1.8-8.4c0.2-0.8,0.2-1.4,0.2-1.8
		c0-0.5-0.1-0.9-0.4-1.2s-0.7-0.5-1.3-0.5c-0.7,0-1.3,0.2-2,0.7c-0.6,0.5-1.2,1.1-1.7,2s-0.9,1.9-1.1,3.1l-1.3,6.1H1008.6z"/>
	<path class="st1" d="M1024.7,481.4h-2.1l2.9-13.4h2.1L1024.7,481.4z M1026.1,464.6c0-0.5,0.1-0.8,0.4-1.1c0.3-0.3,0.6-0.4,1-0.4
		c0.7,0,1.1,0.4,1.1,1.1c0,0.4-0.1,0.8-0.4,1.1c-0.3,0.3-0.6,0.5-0.9,0.5c-0.3,0-0.6-0.1-0.8-0.3
		C1026.2,465.3,1026.1,465,1026.1,464.6z"/>
	<path class="st1" d="M1037.2,481.4l1.8-8.4c0.2-0.8,0.2-1.4,0.2-1.8c0-0.5-0.1-0.9-0.4-1.2c-0.3-0.3-0.8-0.5-1.4-0.5
		c-0.7,0-1.4,0.2-2.1,0.7s-1.3,1.2-1.8,2.1c-0.5,0.9-0.9,2-1.2,3.3l-1.2,5.8h-2.1l2.9-13.4h1.7l-0.3,2.5h0.1c0.8-1,1.5-1.7,2.3-2.1
		c0.7-0.4,1.5-0.6,2.3-0.6c1,0,1.8,0.3,2.4,0.8c0.6,0.6,0.9,1.4,0.9,2.4c0,0.6-0.1,1.4-0.3,2.2l-1.7,8.2H1037.2z"/>
	<path class="st1" d="M1050.6,467.9c1.5,0,2.8,0.5,3.7,1.4s1.3,2.2,1.3,3.8c0,1.5-0.3,3-0.9,4.3s-1.4,2.4-2.4,3.1
		c-1,0.7-2.1,1.1-3.4,1.1c-1.6,0-2.8-0.5-3.7-1.4c-0.9-0.9-1.3-2.2-1.3-3.8c0-1.5,0.3-3,0.9-4.4c0.6-1.4,1.4-2.4,2.4-3.1
		C1048.2,468.3,1049.3,467.9,1050.6,467.9z M1053.4,472.8c0-0.9-0.3-1.7-0.8-2.3c-0.5-0.6-1.2-0.9-2.1-0.9c-0.9,0-1.7,0.3-2.4,0.9
		c-0.7,0.6-1.3,1.4-1.6,2.5s-0.6,2.3-0.6,3.6c0,1.1,0.3,1.9,0.8,2.5c0.5,0.6,1.3,0.9,2.2,0.9c0.8,0,1.6-0.3,2.3-0.9
		c0.7-0.6,1.2-1.4,1.6-2.5C1053.3,475.4,1053.4,474.2,1053.4,472.8z"/>
</g>
<g>
	<g>
		<rect x="353" y="35" class="st0" width="5" height="503"/>
	</g>
	<g>
		
			<rect x="378" y="10" transform="matrix(-7.790095e-08 1 -1 -7.790095e-08 418.0001 -342.9997)" class="st0" width="5" height="55"/>
	</g>
	<g>
		
			<rect x="378" y="508" transform="matrix(-7.790095e-08 1 -1 -7.790095e-08 916.0001 155.0003)" class="st0" width="5" height="55"/>
	</g>
</g>
<g>
	<g>
		<rect x="635" y="44" class="st0" width="2.2" height="224"/>
	</g>
	<g>
		
			<rect x="646.1" y="32.9" transform="matrix(-7.790103e-08 1 -1 -7.790103e-08 692.3572 -602.1308)" class="st0" width="2.2" height="24.5"/>
	</g>
	<g>
		
			<rect x="646.1" y="254.6" transform="matrix(-7.790103e-08 1 -1 -7.790103e-08 914.088 -380.4)" class="st0" width="2.2" height="24.5"/>
	</g>
</g>
<g>
	<g>
		<rect x="635" y="294" class="st0" width="2.2" height="224"/>
	</g>
	<g>
		
			<rect x="646.1" y="282.9" transform="matrix(-7.790103e-08 1 -1 -7.790103e-08 942.3572 -352.1308)" class="st0" width="2.2" height="24.5"/>
	</g>
	<g>
		
			<rect x="646.1" y="504.6" transform="matrix(-7.790103e-08 1 -1 -7.790103e-08 1164.088 -130.4)" class="st0" width="2.2" height="24.5"/>
	</g>
</g>
</svg>
