<?xml version="1.0" encoding="utf-8"?>
<!-- Generator: Adobe Illustrator 21.1.0, SVG Export Plug-In . SVG Version: 6.00 Build 0)  -->
<svg version="1.1" id="Capa_1" xmlns="http://www.w3.org/2000/svg" xmlns:xlink="http://www.w3.org/1999/xlink" x="0px" y="0px"
	 viewBox="0 0 1190 580" style="enable-background:new 0 0 1190 580;" xml:space="preserve">
<style type="text/css">
	.st0{fill:#EF9754;}
	.st1{fill:#666666;}
</style>
<g>
	<path class="st0" d="M96.7,297.2l-4.1-13.4h-0.1c0.1,2.7,0.2,4.6,0.2,5.5v8h-3.2v-17.1h4.9l4.1,13.1h0.1l4.3-13.1h4.9v17.1h-3.4
		v-8.1c0-0.4,0-0.8,0-1.3s0.1-1.8,0.2-4h-0.1l-4.4,13.4H96.7z"/>
	<path class="st0" d="M111.7,280.8c0-1.2,0.6-1.7,1.9-1.7s1.9,0.6,1.9,1.7c0,0.6-0.2,1-0.5,1.3s-0.8,0.5-1.5,0.5
		C112.3,282.5,111.7,281.9,111.7,280.8z M115.4,297.2h-3.6v-13.1h3.6V297.2z"/>
	<path class="st0" d="M128.3,293.3c0,1.3-0.5,2.4-1.4,3.1s-2.3,1.1-4.2,1.1c-1,0-1.8-0.1-2.4-0.2s-1.3-0.3-1.9-0.6v-3
		c0.7,0.3,1.4,0.6,2.2,0.8s1.6,0.3,2.2,0.3c1.3,0,1.9-0.4,1.9-1.1c0-0.3-0.1-0.5-0.3-0.7s-0.5-0.4-0.9-0.6s-1-0.5-1.7-0.8
		c-1-0.4-1.7-0.8-2.2-1.2s-0.8-0.8-1-1.2s-0.3-1-0.3-1.7c0-1.2,0.5-2.1,1.4-2.7s2.2-1,3.8-1c1.6,0,3.1,0.3,4.6,1l-1.1,2.6
		c-0.7-0.3-1.3-0.5-1.8-0.7s-1.2-0.3-1.7-0.3c-1.1,0-1.6,0.3-1.6,0.9c0,0.3,0.2,0.6,0.5,0.8s1.1,0.6,2.2,1c1,0.4,1.8,0.8,2.3,1.2
		s0.8,0.8,1.1,1.2S128.3,292.7,128.3,293.3z"/>
	<path class="st0" d="M139.4,297.2l-0.7-1.8h-0.1c-0.6,0.8-1.2,1.3-1.9,1.6s-1.5,0.4-2.5,0.4c-1.3,0-2.2-0.4-3-1.1s-1.1-1.7-1.1-3.1
		c0-1.4,0.5-2.4,1.5-3.1s2.4-1,4.4-1.1l2.3-0.1v-0.6c0-1.3-0.7-2-2-2c-1,0-2.3,0.3-3.7,0.9l-1.2-2.4c1.5-0.8,3.2-1.2,5-1.2
		c1.8,0,3.1,0.4,4,1.1s1.4,1.9,1.4,3.5v8.7H139.4z M138.3,291.2l-1.4,0c-1,0-1.8,0.2-2.3,0.6s-0.8,0.9-0.8,1.6c0,1,0.6,1.5,1.7,1.5
		c0.8,0,1.5-0.2,2-0.7s0.7-1.1,0.7-1.9V291.2z"/>
</g>
<g>
	<path class="st0" d="M385.3,164.6c0,2.8-0.7,5-2.1,6.5s-3.4,2.3-6,2.3s-4.6-0.8-6-2.3s-2.1-3.7-2.1-6.6s0.7-5,2.1-6.5
		s3.4-2.3,6.1-2.3s4.6,0.8,6,2.3S385.3,161.8,385.3,164.6z M372.8,164.6c0,1.9,0.4,3.4,1.1,4.3s1.8,1.5,3.3,1.5
		c2.9,0,4.3-1.9,4.3-5.8c0-3.9-1.4-5.8-4.3-5.8c-1.4,0-2.5,0.5-3.3,1.5S372.8,162.7,372.8,164.6z"/>
	<path class="st0" d="M395.9,159.9c0.5,0,0.9,0,1.2,0.1l-0.3,3.4c-0.3-0.1-0.6-0.1-1.1-0.1c-1.1,0-2,0.3-2.7,0.9s-1,1.4-1,2.5v6.7
		h-3.6v-13.1h2.7l0.5,2.2h0.2c0.4-0.7,1-1.3,1.6-1.8S395,159.9,395.9,159.9z"/>
	<path class="st0" d="M403.6,173.5c-1.5,0-2.7-0.6-3.6-1.8s-1.3-2.9-1.3-5c0-2.1,0.4-3.8,1.3-5s2.1-1.8,3.7-1.8
		c1.6,0,2.9,0.6,3.8,1.9h0.1c-0.2-1-0.3-1.8-0.3-2.6V155h3.6v18.2h-2.7l-0.7-1.7h-0.2C406.5,172.8,405.3,173.5,403.6,173.5z
		 M404.8,170.6c0.9,0,1.6-0.3,2-0.8s0.7-1.4,0.7-2.7v-0.4c0-1.4-0.2-2.4-0.7-3s-1.1-0.9-2.1-0.9c-0.8,0-1.4,0.3-1.9,1
		s-0.7,1.7-0.7,2.9s0.2,2.3,0.7,2.9S404,170.6,404.8,170.6z"/>
	<path class="st0" d="M414.5,156.8c0-1.2,0.6-1.7,1.9-1.7s1.9,0.6,1.9,1.7c0,0.6-0.2,1-0.5,1.3s-0.8,0.5-1.5,0.5
		C415.1,158.5,414.5,157.9,414.5,156.8z M418.2,173.2h-3.6v-13.1h3.6V173.2z"/>
	<path class="st0" d="M434,173.2h-3.6v-7.7c0-0.9-0.2-1.7-0.5-2.1s-0.9-0.7-1.6-0.7c-1,0-1.7,0.3-2.2,1s-0.7,1.8-0.7,3.3v6.2H422
		v-13.1h2.7l0.5,1.7h0.2c0.4-0.6,0.9-1.1,1.6-1.4s1.5-0.5,2.4-0.5c1.5,0,2.7,0.4,3.5,1.2s1.2,2,1.2,3.6V173.2z"/>
	<path class="st0" d="M446,173.2l-0.7-1.8h-0.1c-0.6,0.8-1.2,1.3-1.9,1.6s-1.5,0.4-2.5,0.4c-1.3,0-2.2-0.4-3-1.1s-1.1-1.7-1.1-3.1
		c0-1.4,0.5-2.4,1.5-3.1s2.4-1,4.4-1.1l2.3-0.1v-0.6c0-1.3-0.7-2-2-2c-1,0-2.3,0.3-3.7,0.9l-1.2-2.4c1.5-0.8,3.2-1.2,5-1.2
		c1.8,0,3.1,0.4,4,1.1s1.4,1.9,1.4,3.5v8.7H446z M445,167.2l-1.4,0c-1,0-1.8,0.2-2.3,0.6s-0.8,0.9-0.8,1.6c0,1,0.6,1.5,1.7,1.5
		c0.8,0,1.5-0.2,2-0.7s0.7-1.1,0.7-1.9V167.2z"/>
	<path class="st0" d="M459.5,159.9c0.5,0,0.9,0,1.2,0.1l-0.3,3.4c-0.3-0.1-0.6-0.1-1.1-0.1c-1.1,0-2,0.3-2.7,0.9s-1,1.4-1,2.5v6.7
		h-3.6v-13.1h2.7l0.5,2.2h0.2c0.4-0.7,1-1.3,1.6-1.8S458.7,159.9,459.5,159.9z"/>
	<path class="st0" d="M463,156.8c0-1.2,0.6-1.7,1.9-1.7s1.9,0.6,1.9,1.7c0,0.6-0.2,1-0.5,1.3s-0.8,0.5-1.5,0.5
		C463.6,158.5,463,157.9,463,156.8z M466.7,173.2h-3.6v-13.1h3.6V173.2z"/>
	<path class="st0" d="M482.4,166.7c0,2.1-0.6,3.8-1.7,5s-2.7,1.8-4.7,1.8c-1.3,0-2.4-0.3-3.3-0.8s-1.7-1.3-2.2-2.4s-0.8-2.2-0.8-3.6
		c0-2.1,0.6-3.8,1.7-5s2.7-1.8,4.7-1.8c1.3,0,2.4,0.3,3.3,0.8s1.7,1.3,2.2,2.4S482.4,165.3,482.4,166.7z M473.3,166.7
		c0,1.3,0.2,2.3,0.6,2.9s1.1,1,2.1,1c1,0,1.6-0.3,2.1-1s0.6-1.6,0.6-2.9c0-1.3-0.2-2.3-0.6-2.9s-1.1-1-2.1-1c-1,0-1.6,0.3-2.1,1
		S473.3,165.4,473.3,166.7z"/>
</g>
<g>
	<path class="st0" d="M394.4,404.5c0,1.8-0.6,3.3-1.7,4.2s-2.8,1.5-4.9,1.5h-1.6v6.1h-3.6v-17.1h5.5c2.1,0,3.7,0.4,4.7,1.3
		C393.9,401.3,394.4,402.7,394.4,404.5z M386.2,407.2h1.2c1.1,0,2-0.2,2.5-0.7s0.8-1.1,0.8-1.9c0-0.9-0.2-1.5-0.7-1.9
		s-1.2-0.6-2.2-0.6h-1.7V407.2z"/>
	<path class="st0" d="M404.7,402.9c0.5,0,0.9,0,1.2,0.1l-0.3,3.4c-0.3-0.1-0.6-0.1-1.1-0.1c-1.1,0-2,0.3-2.7,0.9s-1,1.4-1,2.5v6.7
		h-3.6v-13.1h2.7l0.5,2.2h0.2c0.4-0.7,1-1.3,1.6-1.8S403.9,402.9,404.7,402.9z"/>
	<path class="st0" d="M420.2,409.7c0,2.1-0.6,3.8-1.7,5s-2.7,1.8-4.7,1.8c-1.3,0-2.4-0.3-3.3-0.8s-1.7-1.3-2.2-2.4s-0.8-2.2-0.8-3.6
		c0-2.1,0.6-3.8,1.7-5s2.7-1.8,4.7-1.8c1.3,0,2.4,0.3,3.3,0.8s1.7,1.3,2.2,2.4S420.2,408.3,420.2,409.7z M411.1,409.7
		c0,1.3,0.2,2.3,0.6,2.9s1.1,1,2.1,1c1,0,1.6-0.3,2.1-1s0.6-1.6,0.6-2.9c0-1.3-0.2-2.3-0.6-2.9s-1.1-1-2.1-1c-1,0-1.6,0.3-2.1,1
		S411.1,408.4,411.1,409.7z"/>
	<path class="st0" d="M430.3,416.5c-1.5,0-2.7-0.6-3.6-1.7h-0.2c0.1,1.1,0.2,1.7,0.2,1.9v5.3h-3.6v-18.9h2.9l0.5,1.7h0.2
		c0.8-1.3,2.1-1.9,3.7-1.9c1.5,0,2.8,0.6,3.6,1.8s1.3,2.9,1.3,5c0,1.4-0.2,2.6-0.6,3.6s-1,1.8-1.8,2.4S431.4,416.5,430.3,416.5z
		 M429.3,405.8c-0.9,0-1.5,0.3-1.9,0.8s-0.6,1.4-0.6,2.7v0.4c0,1.4,0.2,2.4,0.6,3s1.1,0.9,2,0.9c1.6,0,2.4-1.3,2.4-4
		c0-1.3-0.2-2.3-0.6-2.9S430.1,405.8,429.3,405.8z"/>
	<path class="st0" d="M438.2,399.8c0-1.2,0.6-1.7,1.9-1.7s1.9,0.6,1.9,1.7c0,0.6-0.2,1-0.5,1.3c-0.3,0.3-0.8,0.5-1.5,0.5
		C438.8,401.5,438.2,400.9,438.2,399.8z M441.9,416.2h-3.6v-13.1h3.6V416.2z"/>
	<path class="st0" d="M457.6,409.7c0,2.1-0.6,3.8-1.7,5s-2.7,1.8-4.7,1.8c-1.3,0-2.4-0.3-3.3-0.8s-1.7-1.3-2.2-2.4s-0.8-2.2-0.8-3.6
		c0-2.1,0.6-3.8,1.7-5s2.7-1.8,4.7-1.8c1.3,0,2.4,0.3,3.3,0.8s1.7,1.3,2.2,2.4S457.6,408.3,457.6,409.7z M448.5,409.7
		c0,1.3,0.2,2.3,0.6,2.9s1.1,1,2.1,1c1,0,1.6-0.3,2.1-1s0.6-1.6,0.6-2.9c0-1.3-0.2-2.3-0.6-2.9s-1.1-1-2.1-1c-1,0-1.6,0.3-2.1,1
		S448.5,408.4,448.5,409.7z"/>
	<path class="st0" d="M469.7,412.3c0,1.3-0.5,2.4-1.4,3.1s-2.3,1.1-4.2,1.1c-1,0-1.8-0.1-2.4-0.2s-1.3-0.3-1.9-0.6v-3
		c0.7,0.3,1.4,0.6,2.2,0.8s1.6,0.3,2.2,0.3c1.3,0,1.9-0.4,1.9-1.1c0-0.3-0.1-0.5-0.3-0.7s-0.5-0.4-0.9-0.6s-1-0.5-1.7-0.8
		c-1-0.4-1.7-0.8-2.2-1.2s-0.8-0.8-1-1.2s-0.3-1-0.3-1.7c0-1.2,0.5-2.1,1.4-2.7s2.2-1,3.8-1c1.6,0,3.1,0.3,4.6,1l-1.1,2.6
		c-0.7-0.3-1.3-0.5-1.8-0.7s-1.2-0.3-1.7-0.3c-1.1,0-1.6,0.3-1.6,0.9c0,0.3,0.2,0.6,0.5,0.8s1.1,0.6,2.2,1c1,0.4,1.8,0.8,2.3,1.2
		s0.8,0.8,1.1,1.2S469.7,411.7,469.7,412.3z"/>
</g>
<g>
	<path class="st1" d="M637.7,82.2h-2.3l-6.2-8.3l-1.8,1.6v6.7h-2V65.1h2v8.5l7.8-8.5h2.4l-6.9,7.4L637.7,82.2z"/>
	<path class="st1" d="M639.6,65.9c0-0.4,0.1-0.8,0.3-1s0.5-0.3,0.8-0.3c0.3,0,0.6,0.1,0.8,0.3s0.3,0.5,0.3,1s-0.1,0.8-0.3,1
		s-0.5,0.3-0.8,0.3c-0.3,0-0.6-0.1-0.8-0.3S639.6,66.4,639.6,65.9z M641.7,82.2h-1.9V69.4h1.9V82.2z"/>
	<path class="st1" d="M651.7,69.2c0.6,0,1.1,0,1.5,0.1l-0.3,1.8c-0.5-0.1-1-0.2-1.4-0.2c-1,0-1.9,0.4-2.7,1.3s-1.1,1.9-1.1,3.2v6.9
		h-1.9V69.4h1.6l0.2,2.4h0.1c0.5-0.8,1.1-1.5,1.7-1.9S650.9,69.2,651.7,69.2z"/>
	<path class="st1" d="M655.5,65.9c0-0.4,0.1-0.8,0.3-1s0.5-0.3,0.8-0.3c0.3,0,0.6,0.1,0.8,0.3s0.3,0.5,0.3,1s-0.1,0.8-0.3,1
		s-0.5,0.3-0.8,0.3c-0.3,0-0.6-0.1-0.8-0.3S655.5,66.4,655.5,65.9z M657.6,82.2h-1.9V69.4h1.9V82.2z"/>
	<path class="st1" d="M667.2,82.5c-1.9,0-3.4-0.6-4.5-1.7S661,78,661,75.9c0-2.1,0.5-3.7,1.5-4.9s2.4-1.8,4.1-1.8
		c1.6,0,2.9,0.5,3.8,1.6s1.4,2.5,1.4,4.2v1.2H663c0,1.5,0.4,2.7,1.1,3.4s1.7,1.2,3.1,1.2c1.4,0,2.8-0.3,4.1-0.9v1.7
		c-0.7,0.3-1.3,0.5-2,0.6S668,82.5,667.2,82.5z M666.6,70.8c-1,0-1.9,0.3-2.5,1s-1,1.6-1.1,2.8h6.7c0-1.2-0.3-2.2-0.8-2.8
		S667.6,70.8,666.6,70.8z"/>
	<path class="st1" d="M632.9,102.1h5.8v8.3c-0.9,0.3-1.8,0.5-2.8,0.7s-2,0.2-3.3,0.2c-2.6,0-4.6-0.8-6.1-2.3s-2.2-3.7-2.2-6.5
		c0-1.8,0.4-3.3,1.1-4.7s1.7-2.4,3.1-3.1s2.9-1.1,4.7-1.1c1.8,0,3.5,0.3,5.1,1l-0.8,1.8c-1.5-0.7-3-1-4.5-1c-2.1,0-3.7,0.6-4.9,1.9
		s-1.8,3-1.8,5.2c0,2.3,0.6,4.1,1.7,5.3s2.8,1.8,5,1.8c1.2,0,2.3-0.1,3.5-0.4v-5.3h-3.8V102.1z"/>
	<path class="st1" d="M644.5,111h-1.9V92.8h1.9V111z"/>
	<path class="st1" d="M659.7,104.6c0,2.1-0.5,3.7-1.6,4.9s-2.5,1.8-4.4,1.8c-1.1,0-2.2-0.3-3.1-0.8s-1.6-1.3-2.1-2.3
		s-0.7-2.2-0.7-3.5c0-2.1,0.5-3.7,1.6-4.9s2.5-1.8,4.4-1.8c1.8,0,3.2,0.6,4.3,1.8S659.7,102.6,659.7,104.6z M649.9,104.6
		c0,1.6,0.3,2.9,1,3.8s1.6,1.3,2.9,1.3s2.2-0.4,2.9-1.3s1-2.1,1-3.8c0-1.6-0.3-2.9-1-3.7s-1.6-1.3-2.9-1.3c-1.3,0-2.2,0.4-2.9,1.3
		S649.9,103,649.9,104.6z"/>
	<path class="st1" d="M669,98c0.6,0,1.1,0,1.5,0.1l-0.3,1.8c-0.5-0.1-1-0.2-1.4-0.2c-1,0-1.9,0.4-2.7,1.3s-1.1,1.9-1.1,3.2v6.9h-1.9
		V98.2h1.6l0.2,2.4h0.1c0.5-0.8,1.1-1.5,1.7-1.9S668.2,98,669,98z"/>
	<path class="st1" d="M672.7,94.7c0-0.4,0.1-0.8,0.3-1s0.5-0.3,0.8-0.3c0.3,0,0.6,0.1,0.8,0.3s0.3,0.5,0.3,1s-0.1,0.8-0.3,1
		s-0.5,0.3-0.8,0.3c-0.3,0-0.6-0.1-0.8-0.3S672.7,95.2,672.7,94.7z M674.8,111h-1.9V98.2h1.9V111z"/>
	<path class="st1" d="M686.9,111l-0.4-1.8h-0.1c-0.6,0.8-1.3,1.3-1.9,1.6s-1.4,0.4-2.4,0.4c-1.3,0-2.3-0.3-3-1s-1.1-1.6-1.1-2.8
		c0-2.6,2.1-4,6.2-4.1l2.2-0.1v-0.8c0-1-0.2-1.8-0.7-2.2s-1.1-0.7-2.1-0.7c-1.1,0-2.3,0.3-3.6,1l-0.6-1.5c0.6-0.3,1.3-0.6,2.1-0.8
		s1.5-0.3,2.3-0.3c1.5,0,2.7,0.3,3.4,1s1.1,1.8,1.1,3.3v8.8H686.9z M682.5,109.7c1.2,0,2.2-0.3,2.9-1s1-1.6,1-2.8v-1.2l-1.9,0.1
		c-1.5,0.1-2.7,0.3-3.3,0.7s-1,1.1-1,2c0,0.7,0.2,1.2,0.6,1.6S681.7,109.7,682.5,109.7z"/>
	<path class="st1" d="M632.7,124.2c-1.9,0-3.4,0.6-4.5,1.9s-1.6,3-1.6,5.2c0,2.2,0.5,4,1.6,5.2s2.5,1.8,4.5,1.8
		c1.2,0,2.6-0.2,4.1-0.6v1.7c-1.2,0.4-2.7,0.7-4.4,0.7c-2.5,0-4.5-0.8-5.8-2.3s-2.1-3.7-2.1-6.5c0-1.8,0.3-3.3,1-4.6
		s1.6-2.4,2.9-3.1s2.7-1.1,4.4-1.1c1.8,0,3.4,0.3,4.7,1l-0.8,1.7C635.3,124.5,634,124.2,632.7,124.2z"/>
	<path class="st1" d="M646.1,126.8c0.6,0,1.1,0,1.5,0.1l-0.3,1.8c-0.5-0.1-1-0.2-1.4-0.2c-1,0-1.9,0.4-2.7,1.3s-1.1,1.9-1.1,3.2v6.9
		h-1.9V127h1.6l0.2,2.4h0.1c0.5-0.8,1.1-1.5,1.7-1.9S645.3,126.8,646.1,126.8z"/>
	<path class="st1" d="M655.4,140.1c-1.9,0-3.4-0.6-4.5-1.7s-1.6-2.8-1.6-4.8c0-2.1,0.5-3.7,1.5-4.9s2.4-1.8,4.1-1.8
		c1.6,0,2.9,0.5,3.8,1.6s1.4,2.5,1.4,4.2v1.2h-8.8c0,1.5,0.4,2.7,1.1,3.4s1.7,1.2,3.1,1.2c1.4,0,2.8-0.3,4.1-0.9v1.7
		c-0.7,0.3-1.3,0.5-2,0.6S656.3,140.1,655.4,140.1z M654.9,128.4c-1,0-1.9,0.3-2.5,1s-1,1.6-1.1,2.8h6.7c0-1.2-0.3-2.2-0.8-2.8
		S655.9,128.4,654.9,128.4z"/>
	<path class="st1" d="M672.2,138.1h-0.1c-0.9,1.3-2.2,2-4,2c-1.7,0-3-0.6-3.9-1.7s-1.4-2.8-1.4-4.9s0.5-3.8,1.4-4.9s2.2-1.8,3.9-1.8
		c1.7,0,3.1,0.6,4,1.9h0.2l-0.1-0.9l0-0.9v-5.2h1.9v18.2h-1.6L672.2,138.1z M668.3,138.4c1.3,0,2.3-0.4,2.9-1.1s0.9-1.9,0.9-3.5
		v-0.4c0-1.8-0.3-3.1-0.9-3.9s-1.6-1.2-2.9-1.2c-1.1,0-2,0.4-2.6,1.3s-0.9,2.1-0.9,3.8c0,1.6,0.3,2.9,0.9,3.7
		S667.2,138.4,668.3,138.4z"/>
	<path class="st1" d="M689.3,133.4c0,2.1-0.5,3.7-1.6,4.9s-2.5,1.8-4.4,1.8c-1.1,0-2.2-0.3-3.1-0.8s-1.6-1.3-2.1-2.3
		s-0.7-2.2-0.7-3.5c0-2.1,0.5-3.7,1.6-4.9s2.5-1.8,4.4-1.8c1.8,0,3.2,0.6,4.3,1.8S689.3,131.4,689.3,133.4z M679.5,133.4
		c0,1.6,0.3,2.9,1,3.8s1.6,1.3,2.9,1.3s2.2-0.4,2.9-1.3s1-2.1,1-3.8c0-1.6-0.3-2.9-1-3.7s-1.6-1.3-2.9-1.3c-1.3,0-2.2,0.4-2.9,1.3
		S679.5,131.8,679.5,133.4z"/>
	<path class="st1" d="M635,164.1c0,1.5-0.5,2.7-1.6,3.5s-2.6,1.3-4.5,1.3c-2,0-3.6-0.3-4.7-0.8v-1.9c0.7,0.3,1.5,0.5,2.3,0.7
		s1.6,0.3,2.5,0.3c1.3,0,2.3-0.3,3-0.8s1-1.2,1-2.1c0-0.6-0.1-1.1-0.4-1.5s-0.6-0.7-1.2-1s-1.4-0.7-2.5-1.1c-1.6-0.6-2.7-1.2-3.4-2
		s-1-1.8-1-3.1c0-1.3,0.5-2.4,1.5-3.2s2.3-1.2,3.9-1.2c1.7,0,3.3,0.3,4.7,0.9l-0.6,1.7c-1.4-0.6-2.8-0.9-4.1-0.9
		c-1.1,0-1.9,0.2-2.5,0.7s-0.9,1.1-0.9,1.9c0,0.6,0.1,1.1,0.3,1.5s0.6,0.7,1.1,1s1.3,0.7,2.4,1c1.8,0.6,3,1.3,3.7,2.1
		S635,162.9,635,164.1z"/>
	<path class="st1" d="M646.1,168.6l-0.4-1.8h-0.1c-0.6,0.8-1.3,1.3-1.9,1.6s-1.4,0.4-2.4,0.4c-1.3,0-2.3-0.3-3-1s-1.1-1.6-1.1-2.8
		c0-2.6,2.1-4,6.2-4.1l2.2-0.1v-0.8c0-1-0.2-1.8-0.7-2.2s-1.1-0.7-2.1-0.7c-1.1,0-2.3,0.3-3.6,1l-0.6-1.5c0.6-0.3,1.3-0.6,2.1-0.8
		s1.5-0.3,2.3-0.3c1.5,0,2.7,0.3,3.4,1s1.1,1.8,1.1,3.3v8.8H646.1z M641.7,167.3c1.2,0,2.2-0.3,2.9-1s1-1.6,1-2.8v-1.2l-1.9,0.1
		c-1.5,0.1-2.7,0.3-3.3,0.7s-1,1.1-1,2c0,0.7,0.2,1.2,0.6,1.6S641,167.3,641.7,167.3z"/>
	<path class="st1" d="M660.4,168.6v-8.3c0-1-0.2-1.8-0.7-2.3s-1.2-0.8-2.2-0.8c-1.3,0-2.3,0.4-3,1.1s-0.9,1.9-0.9,3.6v6.7h-1.9
		v-12.8h1.6l0.3,1.8h0.1c0.4-0.6,1-1.1,1.7-1.5s1.5-0.5,2.4-0.5c1.5,0,2.7,0.4,3.5,1.1s1.2,1.9,1.2,3.6v8.4H660.4z"/>
	<path class="st1" d="M671.4,168.9c-1.9,0-3.3-0.6-4.3-1.7s-1.5-2.8-1.5-4.9c0-2.1,0.5-3.8,1.6-5s2.5-1.8,4.4-1.8
		c0.6,0,1.2,0.1,1.9,0.2s1.1,0.3,1.5,0.5l-0.6,1.7c-0.4-0.2-0.9-0.3-1.4-0.4s-1-0.2-1.3-0.2c-2.6,0-3.9,1.7-3.9,5
		c0,1.6,0.3,2.8,1,3.6s1.6,1.3,2.8,1.3c1.1,0,2.2-0.2,3.3-0.7v1.7C673.8,168.7,672.8,168.9,671.4,168.9z"/>
	<path class="st1" d="M681.9,167.3c0.3,0,0.7,0,1-0.1s0.6-0.1,0.8-0.2v1.5c-0.2,0.1-0.5,0.2-0.9,0.3s-0.8,0.1-1.1,0.1
		c-2.5,0-3.7-1.3-3.7-3.9v-7.6H676v-0.9l1.8-0.8l0.8-2.7h1.1v3h3.7v1.5h-3.7v7.6c0,0.8,0.2,1.4,0.6,1.8S681.2,167.3,681.9,167.3z"/>
	<path class="st1" d="M688,155.8v8.3c0,1,0.2,1.8,0.7,2.3s1.2,0.8,2.2,0.8c1.3,0,2.3-0.4,2.9-1.1s0.9-1.9,0.9-3.6v-6.8h1.9v12.8
		h-1.6l-0.3-1.7h-0.1c-0.4,0.6-1,1.1-1.7,1.5s-1.5,0.5-2.4,0.5c-1.6,0-2.7-0.4-3.5-1.1s-1.2-1.9-1.2-3.6v-8.4H688z"/>
	<path class="st1" d="M709.2,165.1c0,1.2-0.4,2.1-1.3,2.8s-2.1,1-3.8,1c-1.7,0-3-0.3-4-0.8v-1.8c0.6,0.3,1.3,0.6,2,0.7
		s1.4,0.3,2,0.3c1,0,1.8-0.2,2.3-0.5s0.8-0.8,0.8-1.5c0-0.5-0.2-0.9-0.7-1.3s-1.3-0.8-2.5-1.3c-1.2-0.4-2-0.8-2.5-1.2
		s-0.9-0.7-1.1-1.1s-0.4-0.9-0.4-1.5c0-1,0.4-1.9,1.3-2.5s2-0.9,3.5-0.9c1.4,0,2.7,0.3,4.1,0.8l-0.7,1.6c-1.3-0.5-2.5-0.8-3.5-0.8
		c-0.9,0-1.6,0.1-2.1,0.4s-0.7,0.7-0.7,1.2c0,0.3,0.1,0.6,0.3,0.9s0.5,0.5,0.8,0.7s1.1,0.5,2.3,0.9c1.5,0.6,2.6,1.1,3.1,1.7
		S709.2,164.3,709.2,165.1z"/>
	<path class="st1" d="M632.5,192h-5.8l-2.9,5.4h-2.2l9.4-17.1h2l2.2,17.1h-2L632.5,192z M632.3,190.2l-0.4-3.5
		c-0.2-1.4-0.3-2.8-0.3-4.1c-0.3,0.7-0.6,1.4-0.9,2.1s-1.3,2.5-2.9,5.6H632.3z"/>
	<path class="st1" d="M649.2,184.6l-0.3,1.3l-2.5,0.3c0.3,0.5,0.5,1.1,0.5,1.9c0,1.5-0.5,2.7-1.4,3.6s-2.1,1.3-3.7,1.3
		c-0.4,0-0.8,0-1-0.1c-1.1,0.4-1.6,0.9-1.6,1.5c0,0.3,0.1,0.5,0.4,0.6s0.6,0.2,1.1,0.3l1.4,0.2c1.4,0.2,2.4,0.5,3.1,1s1,1.3,1,2.3
		c0,1.4-0.6,2.6-1.7,3.3s-2.7,1.2-4.8,1.2c-1.5,0-2.7-0.3-3.6-0.9s-1.3-1.4-1.3-2.4c0-0.8,0.3-1.5,0.8-2.1s1.5-1.1,2.7-1.5
		c-0.6-0.3-0.9-0.8-0.9-1.4c0-0.5,0.2-1,0.6-1.4s1-0.7,1.7-1.1c-0.5-0.3-0.9-0.6-1.2-1.1s-0.5-1.1-0.5-1.7c0-1.5,0.5-2.8,1.4-3.7
		s2.1-1.5,3.6-1.5c0.6,0,1.2,0.1,1.8,0.2H649.2z M636.7,199.7c0,0.6,0.3,1.1,0.8,1.4s1.3,0.5,2.3,0.5c1.4,0,2.5-0.2,3.3-0.7
		s1.2-1.2,1.2-2.1c0-0.5-0.2-0.9-0.6-1.1s-1.1-0.5-2.2-0.6l-1.9-0.2c-0.9,0.2-1.7,0.5-2.2,1S636.7,199,636.7,199.7z M640,189.5
		c0,0.7,0.2,1.2,0.5,1.5s0.8,0.5,1.5,0.5c0.6,0,1.2-0.2,1.6-0.5s0.8-0.8,1.1-1.4s0.4-1.2,0.4-1.9c0-0.6-0.2-1.1-0.5-1.5
		s-0.8-0.5-1.5-0.5c-0.6,0-1.1,0.2-1.6,0.5s-0.8,0.8-1.1,1.3S640,188.8,640,189.5z"/>
	<path class="st1" d="M656.9,197.4l1.7-8.1c0.2-0.8,0.2-1.4,0.2-1.7c0-0.5-0.1-0.9-0.4-1.2s-0.7-0.4-1.3-0.4c-0.7,0-1.4,0.2-2,0.7
		s-1.2,1.1-1.7,2s-0.9,1.9-1.1,3.2l-1.2,5.6h-2l2.7-12.8h1.6l-0.3,2.4h0.1c0.8-1,1.5-1.6,2.2-2s1.4-0.6,2.2-0.6c1,0,1.8,0.3,2.3,0.8
		s0.9,1.3,0.9,2.3c0,0.6-0.1,1.3-0.3,2.1l-1.7,7.9H656.9z"/>
	<path class="st1" d="M667.5,184.6l-1.8,8.1c-0.1,0.7-0.2,1.2-0.2,1.6c0,1.1,0.6,1.7,1.7,1.7c0.7,0,1.4-0.2,2-0.7s1.3-1.1,1.8-2
		s0.9-1.9,1.2-3.2l1.2-5.6h1.9l-2.7,12.8H671l0.3-2.4h-0.1c-0.8,1-1.5,1.7-2.2,2s-1.4,0.6-2.2,0.6c-1,0-1.8-0.3-2.4-0.8
		s-0.9-1.3-0.9-2.3c0-0.5,0.1-1.2,0.3-2l1.7-7.9H667.5z"/>
	<path class="st1" d="M684.7,193.8c0,1.2-0.4,2.2-1.3,2.9s-2.1,1-3.7,1c-1.3,0-2.5-0.3-3.6-0.8V195c0.5,0.3,1.1,0.6,1.8,0.8
		s1.2,0.3,1.8,0.3c1,0,1.7-0.2,2.2-0.6s0.8-0.9,0.8-1.5c0-0.4-0.1-0.8-0.4-1.1s-0.9-0.7-1.8-1.3c-1-0.6-1.7-1.1-2.2-1.7
		s-0.6-1.2-0.6-1.9c0-1.1,0.4-1.9,1.2-2.6s1.8-1,3.1-1c1.3,0,2.6,0.3,3.9,0.9l-0.6,1.6l-0.7-0.3c-0.8-0.3-1.6-0.5-2.6-0.5
		c-0.7,0-1.3,0.2-1.7,0.5s-0.6,0.8-0.6,1.3c0,0.4,0.1,0.8,0.4,1.1s0.8,0.7,1.7,1.2c0.8,0.5,1.4,0.9,1.8,1.2s0.6,0.7,0.8,1.1
		S684.7,193.3,684.7,193.8z"/>
	<path class="st1" d="M707.8,187.2c0,2-0.4,3.8-1.2,5.4s-2,2.8-3.5,3.6s-3.3,1.3-5.4,1.3h-4.1l3.6-17.1h4c2.2,0,3.8,0.6,4.9,1.8
		S707.8,184.9,707.8,187.2z M697.8,195.7c1.6,0,3-0.4,4.2-1.1s2.1-1.7,2.7-3s1-2.8,1-4.5s-0.4-3-1.2-3.8s-2-1.3-3.5-1.3h-2.1
		l-2.9,13.7H697.8z"/>
	<path class="st1" d="M714.3,197.7c-1.4,0-2.6-0.4-3.4-1.3s-1.2-2-1.2-3.5c0-1.5,0.3-2.9,0.9-4.2s1.4-2.4,2.3-3.1s2-1.1,3.2-1.1
		c1.2,0,2.1,0.3,2.7,0.8s0.9,1.2,0.9,2.2c0,1.4-0.6,2.5-1.9,3.3s-3.2,1.2-5.6,1.2h-0.4l0,0.9c0,1,0.2,1.8,0.7,2.4s1.2,0.9,2.2,0.9
		c0.5,0,1-0.1,1.5-0.2s1.2-0.4,1.9-0.8v1.7c-0.7,0.3-1.4,0.6-1.9,0.7S715,197.7,714.3,197.7z M715.9,186c-0.8,0-1.6,0.4-2.3,1.1
		s-1.2,1.8-1.6,3.1h0.1c1.8,0,3.1-0.2,4.1-0.7s1.4-1.1,1.4-2c0-0.4-0.1-0.8-0.4-1S716.6,186,715.9,186z"/>
	<path class="st1" d="M723,197.4h-2l2.7-12.8h2L723,197.4z M724.4,181.3c0-0.4,0.1-0.8,0.4-1.1s0.6-0.4,1-0.4c0.7,0,1,0.4,1,1.1
		c0,0.4-0.1,0.8-0.4,1.1s-0.6,0.4-0.9,0.4c-0.3,0-0.6-0.1-0.8-0.3S724.4,181.7,724.4,181.3z"/>
	<path class="st1" d="M624,255l3.6-17.1h2L626,255H624z"/>
	<path class="st1" d="M634.2,253.7c0.4,0,1-0.1,1.7-0.3v1.5c-0.3,0.1-0.6,0.2-1,0.3s-0.7,0.1-0.9,0.1c-1,0-1.7-0.2-2.2-0.7
		s-0.8-1.2-0.8-2.1c0-0.5,0.1-1.1,0.2-1.8l1.5-7.1h-2l0.2-0.9l2.2-0.9l1.5-2.7h1.1l-0.6,3h3.2l-0.3,1.5h-3.2l-1.5,7.1
		c-0.1,0.7-0.2,1.2-0.2,1.5c0,0.4,0.1,0.8,0.3,1S633.8,253.7,634.2,253.7z"/>
	<path class="st1" d="M643.1,255.3c-1.4,0-2.6-0.4-3.4-1.3s-1.2-2-1.2-3.5c0-1.5,0.3-2.9,0.9-4.2s1.4-2.4,2.3-3.1s2-1.1,3.2-1.1
		c1.2,0,2.1,0.3,2.7,0.8s0.9,1.2,0.9,2.2c0,1.4-0.6,2.5-1.9,3.3s-3.2,1.2-5.6,1.2h-0.4l0,0.9c0,1,0.2,1.8,0.7,2.4s1.2,0.9,2.2,0.9
		c0.5,0,1-0.1,1.5-0.2s1.2-0.4,1.9-0.8v1.7c-0.7,0.3-1.4,0.6-1.9,0.7S643.8,255.3,643.1,255.3z M644.7,243.6c-0.8,0-1.6,0.4-2.3,1.1
		s-1.2,1.8-1.6,3.1h0.1c1.8,0,3.1-0.2,4.1-0.7s1.4-1.1,1.4-2c0-0.4-0.1-0.8-0.4-1S645.3,243.6,644.7,243.6z"/>
	<path class="st1" d="M663.6,255l1.7-8.1c0.1-0.7,0.2-1.3,0.2-1.6c0-0.5-0.1-1-0.4-1.3s-0.7-0.5-1.2-0.5c-0.7,0-1.3,0.2-1.9,0.7
		s-1.2,1.1-1.6,2s-0.8,1.9-1.1,3.1l-1.2,5.6h-2l2.7-12.8h1.6l-0.3,2.4h0.1c0.7-0.9,1.4-1.6,2-2s1.4-0.6,2.1-0.6c0.9,0,1.6,0.3,2,0.8
		s0.8,1.2,0.8,2.1h0.1c0.7-1,1.4-1.7,2.1-2.2s1.5-0.7,2.3-0.7c1,0,1.8,0.3,2.3,0.8s0.8,1.3,0.8,2.3c0,0.5-0.1,1.2-0.3,2.1L673,255
		h-2l1.7-8.1c0.2-0.8,0.2-1.4,0.2-1.7c0-0.5-0.1-0.9-0.4-1.2s-0.7-0.4-1.3-0.4c-0.6,0-1.3,0.2-1.9,0.7s-1.2,1.1-1.6,1.9
		s-0.8,1.8-1.1,3l-1.3,5.9H663.6z"/>
	<path class="st1" d="M679,255h-2l2.7-12.8h2L679,255z M680.3,238.9c0-0.4,0.1-0.8,0.4-1.1s0.6-0.4,1-0.4c0.7,0,1,0.4,1,1.1
		c0,0.4-0.1,0.8-0.4,1.1s-0.6,0.4-0.9,0.4c-0.3,0-0.6-0.1-0.8-0.3S680.3,239.3,680.3,238.9z"/>
	<path class="st1" d="M691,251.4c0,1.2-0.4,2.2-1.3,2.9s-2.1,1-3.7,1c-1.3,0-2.5-0.3-3.6-0.8v-1.9c0.5,0.3,1.1,0.6,1.8,0.8
		s1.2,0.3,1.8,0.3c1,0,1.7-0.2,2.2-0.6s0.8-0.9,0.8-1.5c0-0.4-0.1-0.8-0.4-1.1s-0.9-0.7-1.8-1.3c-1-0.6-1.7-1.1-2.2-1.7
		s-0.6-1.2-0.6-1.9c0-1.1,0.4-1.9,1.2-2.6s1.8-1,3.1-1c1.3,0,2.6,0.3,3.9,0.9l-0.6,1.6l-0.7-0.3c-0.8-0.3-1.6-0.5-2.6-0.5
		c-0.7,0-1.3,0.2-1.7,0.5s-0.6,0.8-0.6,1.3c0,0.4,0.1,0.8,0.4,1.1s0.8,0.7,1.7,1.2c0.8,0.5,1.4,0.9,1.8,1.2s0.6,0.7,0.8,1.1
		S691,250.9,691,251.4z"/>
	<path class="st1" d="M701.3,251.4c0,1.2-0.4,2.2-1.3,2.9s-2.1,1-3.7,1c-1.3,0-2.5-0.3-3.6-0.8v-1.9c0.5,0.3,1.1,0.6,1.8,0.8
		s1.2,0.3,1.8,0.3c1,0,1.7-0.2,2.2-0.6s0.8-0.9,0.8-1.5c0-0.4-0.1-0.8-0.4-1.1s-0.9-0.7-1.8-1.3c-1-0.6-1.7-1.1-2.2-1.7
		s-0.6-1.2-0.6-1.9c0-1.1,0.4-1.9,1.2-2.6s1.8-1,3.1-1c1.3,0,2.6,0.3,3.9,0.9l-0.6,1.6l-0.7-0.3c-0.8-0.3-1.6-0.5-2.6-0.5
		c-0.7,0-1.3,0.2-1.7,0.5s-0.6,0.8-0.6,1.3c0,0.4,0.1,0.8,0.4,1.1s0.8,0.7,1.7,1.2c0.8,0.5,1.4,0.9,1.8,1.2s0.6,0.7,0.8,1.1
		S701.3,250.9,701.3,251.4z"/>
	<path class="st1" d="M710.5,242c0.7,0,1.4,0.2,1.9,0.6s1,0.9,1.3,1.7h0.1l0.8-2h1.5l-2.7,12.8h-1.6l0.3-2.4H712
		c-1.4,1.8-2.9,2.7-4.4,2.7c-1.1,0-1.9-0.4-2.6-1.2s-0.9-1.8-0.9-3.2c0-1.6,0.3-3.1,0.8-4.5s1.3-2.5,2.3-3.3S709.3,242,710.5,242z
		 M708.2,253.6c0.8,0,1.5-0.4,2.3-1.1s1.4-1.7,1.8-2.8s0.7-2.3,0.7-3.5c0-0.8-0.2-1.4-0.7-1.9s-1-0.7-1.7-0.7c-0.8,0-1.6,0.3-2.3,1
		s-1.2,1.6-1.6,2.7s-0.6,2.4-0.6,3.6c0,0.9,0.2,1.6,0.6,2S707.6,253.6,708.2,253.6z"/>
	<path class="st1" d="M728.5,255.3c-1.4,0-2.6-0.4-3.4-1.3s-1.2-2-1.2-3.5c0-1.5,0.3-2.9,0.9-4.2s1.4-2.4,2.3-3.1s2-1.1,3.2-1.1
		c1.2,0,2.1,0.3,2.7,0.8s0.9,1.2,0.9,2.2c0,1.4-0.6,2.5-1.9,3.3s-3.2,1.2-5.6,1.2H726l0,0.9c0,1,0.2,1.8,0.7,2.4s1.2,0.9,2.2,0.9
		c0.5,0,1-0.1,1.5-0.2s1.2-0.4,1.9-0.8v1.7c-0.7,0.3-1.4,0.6-1.9,0.7S729.2,255.3,728.5,255.3z M730.2,243.6c-0.8,0-1.6,0.4-2.3,1.1
		s-1.2,1.8-1.6,3.1h0.1c1.8,0,3.1-0.2,4.1-0.7s1.4-1.1,1.4-2c0-0.4-0.1-0.8-0.4-1S730.8,243.6,730.2,243.6z"/>
	<path class="st1" d="M743.2,251.4c0,1.2-0.4,2.2-1.3,2.9s-2.1,1-3.7,1c-1.3,0-2.5-0.3-3.6-0.8v-1.9c0.5,0.3,1.1,0.6,1.8,0.8
		s1.2,0.3,1.8,0.3c1,0,1.7-0.2,2.2-0.6s0.8-0.9,0.8-1.5c0-0.4-0.1-0.8-0.4-1.1s-0.9-0.7-1.8-1.3c-1-0.6-1.7-1.1-2.2-1.7
		s-0.6-1.2-0.6-1.9c0-1.1,0.4-1.9,1.2-2.6s1.8-1,3.1-1c1.3,0,2.6,0.3,3.9,0.9l-0.6,1.6l-0.7-0.3c-0.8-0.3-1.6-0.5-2.6-0.5
		c-0.7,0-1.3,0.2-1.7,0.5s-0.6,0.8-0.6,1.3c0,0.4,0.1,0.8,0.4,1.1s0.8,0.7,1.7,1.2c0.8,0.5,1.4,0.9,1.8,1.2s0.6,0.7,0.8,1.1
		S743.2,250.9,743.2,251.4z"/>
	<path class="st1" d="M749.5,253.7c0.4,0,1-0.1,1.7-0.3v1.5c-0.3,0.1-0.6,0.2-1,0.3s-0.7,0.1-0.9,0.1c-1,0-1.7-0.2-2.2-0.7
		s-0.8-1.2-0.8-2.1c0-0.5,0.1-1.1,0.2-1.8l1.5-7.1h-2l0.2-0.9l2.2-0.9l1.5-2.7h1.1l-0.6,3h3.2l-0.3,1.5h-3.2l-1.5,7.1
		c-0.1,0.7-0.2,1.2-0.2,1.5c0,0.4,0.1,0.8,0.3,1S749.1,253.7,749.5,253.7z"/>
	<path class="st1" d="M760.4,245v-1.6h10.8v1.6H760.4z M760.4,249.8v-1.7h10.8v1.7H760.4z"/>
	<path class="st1" d="M787.4,237.9c3.4,0,5.1,1.3,5.1,3.9c0,1.1-0.3,2-1,2.8s-1.6,1.3-2.9,1.5v0.1c0.9,0.3,1.6,0.7,2.1,1.3
		s0.7,1.3,0.7,2.2c0,1.7-0.6,3-1.8,3.9s-2.8,1.4-4.8,1.4h-5.4l3.6-17.1H787.4z M781.7,253.3h3.1c1.4,0,2.5-0.3,3.3-0.9
		s1.1-1.5,1.1-2.7c0-0.9-0.3-1.6-0.9-2.1s-1.4-0.7-2.5-0.7h-2.8L781.7,253.3z M783.4,245.2h2.9c1.2,0,2.2-0.3,2.9-0.9
		s1.1-1.3,1.1-2.3c0-0.8-0.3-1.4-0.8-1.8s-1.3-0.6-2.5-0.6h-2.5L783.4,245.2z"/>
	<path class="st1" d="M798.5,255.3c-1.4,0-2.6-0.4-3.4-1.3s-1.2-2-1.2-3.5c0-1.5,0.3-2.9,0.9-4.2s1.4-2.4,2.3-3.1s2-1.1,3.2-1.1
		c1.2,0,2.1,0.3,2.7,0.8s0.9,1.2,0.9,2.2c0,1.4-0.6,2.5-1.9,3.3s-3.2,1.2-5.6,1.2h-0.4l0,0.9c0,1,0.2,1.8,0.7,2.4s1.2,0.9,2.2,0.9
		c0.5,0,1-0.1,1.5-0.2s1.2-0.4,1.9-0.8v1.7c-0.7,0.3-1.4,0.6-1.9,0.7S799.2,255.3,798.5,255.3z M800.1,243.6c-0.8,0-1.6,0.4-2.3,1.1
		s-1.2,1.8-1.6,3.1h0.1c1.8,0,3.1-0.2,4.1-0.7s1.4-1.1,1.4-2c0-0.4-0.1-0.8-0.4-1S800.7,243.6,800.1,243.6z"/>
	<path class="st1" d="M813.1,255l1.7-8.1c0.2-0.8,0.2-1.4,0.2-1.7c0-0.5-0.1-0.9-0.4-1.2s-0.7-0.4-1.3-0.4c-0.7,0-1.4,0.2-2,0.7
		s-1.2,1.1-1.7,2s-0.9,1.9-1.1,3.2l-1.2,5.6h-2l2.7-12.8h1.6l-0.3,2.4h0.1c0.8-1,1.5-1.6,2.2-2s1.4-0.6,2.2-0.6c1,0,1.8,0.3,2.3,0.8
		s0.9,1.3,0.9,2.3c0,0.6-0.1,1.3-0.3,2.1l-1.7,7.9H813.1z"/>
	<path class="st1" d="M824.2,255.3c-1.4,0-2.6-0.4-3.4-1.3s-1.2-2-1.2-3.5c0-1.5,0.3-2.9,0.9-4.2s1.4-2.4,2.3-3.1s2-1.1,3.2-1.1
		c1.2,0,2.1,0.3,2.7,0.8s0.9,1.2,0.9,2.2c0,1.4-0.6,2.5-1.9,3.3s-3.2,1.2-5.6,1.2h-0.4l0,0.9c0,1,0.2,1.8,0.7,2.4s1.2,0.9,2.2,0.9
		c0.5,0,1-0.1,1.5-0.2s1.2-0.4,1.9-0.8v1.7c-0.7,0.3-1.4,0.6-1.9,0.7S824.8,255.3,824.2,255.3z M825.8,243.6c-0.8,0-1.6,0.4-2.3,1.1
		s-1.2,1.8-1.6,3.1h0.1c1.8,0,3.1-0.2,4.1-0.7s1.4-1.1,1.4-2c0-0.4-0.1-0.8-0.4-1S826.4,243.6,825.8,243.6z"/>
	<path class="st1" d="M837.7,242c1.5,0,2.6,0.7,3.3,2.2h0.1c0.1-1.2,0.3-2.3,0.5-3.2l0.9-4.2h1.9l-3.9,18.2H839l0.3-2.4h-0.1
		c-0.8,1-1.5,1.7-2.2,2.1s-1.4,0.6-2.1,0.6c-1.1,0-1.9-0.4-2.5-1.1s-0.9-1.8-0.9-3.2c0-1.7,0.3-3.2,0.8-4.6s1.3-2.5,2.3-3.2
		S836.5,242,837.7,242z M835.5,253.6c0.7,0,1.5-0.4,2.3-1.1s1.4-1.7,1.9-2.8s0.7-2.3,0.7-3.5c0-0.9-0.2-1.5-0.6-2s-1-0.7-1.8-0.7
		c-0.8,0-1.5,0.3-2.2,1s-1.2,1.6-1.6,2.7s-0.6,2.4-0.6,3.7C833.4,252.8,834.1,253.6,835.5,253.6z"/>
	<path class="st1" d="M846.7,255h-2l2.7-12.8h2L846.7,255z M848.1,238.9c0-0.4,0.1-0.8,0.4-1.1s0.6-0.4,1-0.4c0.7,0,1,0.4,1,1.1
		c0,0.4-0.1,0.8-0.4,1.1s-0.6,0.4-0.9,0.4c-0.3,0-0.6-0.1-0.8-0.3S848.1,239.3,848.1,238.9z"/>
	<path class="st1" d="M856.1,255.3c-1.5,0-2.7-0.4-3.5-1.3s-1.3-2-1.3-3.5c0-1.6,0.3-3,0.9-4.3s1.4-2.3,2.4-3.1s2.2-1.1,3.4-1.1
		c1.1,0,2.1,0.2,3.1,0.6l-0.6,1.7c-0.9-0.4-1.8-0.6-2.6-0.6c-0.9,0-1.7,0.3-2.4,0.9s-1.3,1.4-1.7,2.5s-0.6,2.2-0.6,3.5
		c0,1,0.3,1.8,0.8,2.3s1.2,0.8,2.2,0.8c0.6,0,1.1-0.1,1.6-0.2s1-0.3,1.5-0.6v1.7C858.4,255,857.3,255.3,856.1,255.3z"/>
	<path class="st1" d="M868.5,242c0.7,0,1.4,0.2,1.9,0.6s1,0.9,1.3,1.7h0.1l0.8-2h1.5l-2.7,12.8h-1.6l0.3-2.4H870
		c-1.4,1.8-2.9,2.7-4.4,2.7c-1.1,0-1.9-0.4-2.6-1.2s-0.9-1.8-0.9-3.2c0-1.6,0.3-3.1,0.8-4.5s1.3-2.5,2.3-3.3S867.3,242,868.5,242z
		 M866.2,253.6c0.8,0,1.5-0.4,2.3-1.1s1.4-1.7,1.8-2.8s0.7-2.3,0.7-3.5c0-0.8-0.2-1.4-0.7-1.9s-1-0.7-1.7-0.7c-0.8,0-1.6,0.3-2.3,1
		s-1.2,1.6-1.6,2.7s-0.6,2.4-0.6,3.6c0,0.9,0.2,1.6,0.6,2S865.6,253.6,866.2,253.6z"/>
	<path class="st1" d="M882.7,255l1.7-8.1c0.1-0.7,0.2-1.3,0.2-1.6c0-0.5-0.1-1-0.4-1.3s-0.7-0.5-1.2-0.5c-0.7,0-1.3,0.2-1.9,0.7
		s-1.2,1.1-1.6,2s-0.8,1.9-1.1,3.1l-1.2,5.6h-2l2.7-12.8h1.6l-0.3,2.4h0.1c0.7-0.9,1.4-1.6,2-2s1.4-0.6,2.1-0.6c0.9,0,1.6,0.3,2,0.8
		s0.8,1.2,0.8,2.1h0.1c0.7-1,1.4-1.7,2.1-2.2s1.5-0.7,2.3-0.7c1,0,1.8,0.3,2.3,0.8s0.8,1.3,0.8,2.3c0,0.5-0.1,1.2-0.3,2.1l-1.7,7.9
		h-2l1.7-8.1c0.2-0.8,0.2-1.4,0.2-1.7c0-0.5-0.1-0.9-0.4-1.2s-0.7-0.4-1.3-0.4c-0.6,0-1.3,0.2-1.9,0.7s-1.2,1.1-1.6,1.9
		s-0.8,1.8-1.1,3l-1.3,5.9H882.7z"/>
	<path class="st1" d="M900.8,242.2l-1.8,8.1c-0.1,0.7-0.2,1.2-0.2,1.6c0,1.1,0.6,1.7,1.7,1.7c0.7,0,1.4-0.2,2-0.7s1.3-1.1,1.8-2
		s0.9-1.9,1.2-3.2l1.2-5.6h1.9l-2.7,12.8h-1.6l0.3-2.4h-0.1c-0.8,1-1.5,1.7-2.2,2s-1.4,0.6-2.2,0.6c-1,0-1.8-0.3-2.4-0.8
		s-0.9-1.3-0.9-2.3c0-0.5,0.1-1.2,0.3-2l1.7-7.9H900.8z"/>
	<path class="st1" d="M917.9,251.4c0,1.2-0.4,2.2-1.3,2.9s-2.1,1-3.7,1c-1.3,0-2.5-0.3-3.6-0.8v-1.9c0.5,0.3,1.1,0.6,1.8,0.8
		s1.2,0.3,1.8,0.3c1,0,1.7-0.2,2.2-0.6s0.8-0.9,0.8-1.5c0-0.4-0.1-0.8-0.4-1.1s-0.9-0.7-1.8-1.3c-1-0.6-1.7-1.1-2.2-1.7
		s-0.6-1.2-0.6-1.9c0-1.1,0.4-1.9,1.2-2.6s1.8-1,3.1-1c1.3,0,2.6,0.3,3.9,0.9l-0.6,1.6l-0.7-0.3c-0.8-0.3-1.6-0.5-2.6-0.5
		c-0.7,0-1.3,0.2-1.7,0.5s-0.6,0.8-0.6,1.3c0,0.4,0.1,0.8,0.4,1.1s0.8,0.7,1.7,1.2c0.8,0.5,1.4,0.9,1.8,1.2s0.6,0.7,0.8,1.1
		S917.9,250.9,917.9,251.4z"/>
	<path class="st1" d="M941.1,244.8c0,2-0.4,3.8-1.2,5.4s-2,2.8-3.5,3.6S933,255,931,255h-4.1l3.6-17.1h4c2.2,0,3.8,0.6,4.9,1.8
		S941.1,242.5,941.1,244.8z M931.1,253.3c1.6,0,3-0.4,4.2-1.1s2.1-1.7,2.7-3s1-2.8,1-4.5s-0.4-3-1.2-3.8s-2-1.3-3.5-1.3h-2.1
		l-2.9,13.7H931.1z"/>
	<path class="st1" d="M949.4,242c1.5,0,2.7,0.4,3.5,1.3s1.3,2.1,1.3,3.6c0,1.5-0.3,2.9-0.8,4.2s-1.3,2.3-2.3,3s-2,1.1-3.3,1.1
		c-1.5,0-2.7-0.4-3.5-1.3s-1.3-2.1-1.3-3.6c0-1.5,0.3-2.9,0.9-4.2s1.3-2.3,2.3-3S948.2,242,949.4,242z M952.1,246.7
		c0-0.9-0.2-1.6-0.7-2.2s-1.2-0.8-2-0.8c-0.9,0-1.6,0.3-2.3,0.9s-1.2,1.4-1.6,2.4s-0.6,2.2-0.6,3.4c0,1,0.2,1.8,0.7,2.4
		s1.2,0.8,2.1,0.8c0.8,0,1.5-0.3,2.2-0.9s1.2-1.4,1.5-2.4S952.1,248.1,952.1,246.7z"/>
	<path class="st1" d="M963.4,255l1.7-8.1c0.1-0.7,0.2-1.3,0.2-1.6c0-0.5-0.1-1-0.4-1.3s-0.7-0.5-1.2-0.5c-0.7,0-1.3,0.2-1.9,0.7
		s-1.2,1.1-1.6,2s-0.8,1.9-1.1,3.1l-1.2,5.6h-2l2.7-12.8h1.6l-0.3,2.4h0.1c0.7-0.9,1.4-1.6,2-2s1.4-0.6,2.1-0.6c0.9,0,1.6,0.3,2,0.8
		s0.8,1.2,0.8,2.1h0.1c0.7-1,1.4-1.7,2.1-2.2s1.5-0.7,2.3-0.7c1,0,1.8,0.3,2.3,0.8s0.8,1.3,0.8,2.3c0,0.5-0.1,1.2-0.3,2.1l-1.7,7.9
		h-2l1.7-8.1c0.2-0.8,0.2-1.4,0.2-1.7c0-0.5-0.1-0.9-0.4-1.2s-0.7-0.4-1.3-0.4c-0.6,0-1.3,0.2-1.9,0.7s-1.2,1.1-1.6,1.9
		s-0.8,1.8-1.1,3l-1.3,5.9H963.4z"/>
	<path class="st1" d="M978.9,255h-2l2.7-12.8h2L978.9,255z M980.2,238.9c0-0.4,0.1-0.8,0.4-1.1s0.6-0.4,1-0.4c0.7,0,1,0.4,1,1.1
		c0,0.4-0.1,0.8-0.4,1.1s-0.6,0.4-0.9,0.4c-0.3,0-0.6-0.1-0.8-0.3S980.2,239.3,980.2,238.9z"/>
	<path class="st1" d="M990.9,255l1.7-8.1c0.2-0.8,0.2-1.4,0.2-1.7c0-0.5-0.1-0.9-0.4-1.2s-0.7-0.4-1.3-0.4c-0.7,0-1.4,0.2-2,0.7
		s-1.2,1.1-1.7,2s-0.9,1.9-1.1,3.2L985,255h-2l2.7-12.8h1.6l-0.3,2.4h0.1c0.8-1,1.5-1.6,2.2-2s1.4-0.6,2.2-0.6c1,0,1.8,0.3,2.3,0.8
		s0.9,1.3,0.9,2.3c0,0.6-0.1,1.3-0.3,2.1l-1.7,7.9H990.9z"/>
	<path class="st1" d="M1003.7,242c1.5,0,2.7,0.4,3.5,1.3s1.3,2.1,1.3,3.6c0,1.5-0.3,2.9-0.8,4.2s-1.3,2.3-2.3,3s-2,1.1-3.3,1.1
		c-1.5,0-2.7-0.4-3.5-1.3s-1.3-2.1-1.3-3.6c0-1.5,0.3-2.9,0.9-4.2s1.3-2.3,2.3-3S1002.5,242,1003.7,242z M1006.5,246.7
		c0-0.9-0.2-1.6-0.7-2.2s-1.2-0.8-2-0.8c-0.9,0-1.6,0.3-2.3,0.9s-1.2,1.4-1.6,2.4s-0.6,2.2-0.6,3.4c0,1,0.2,1.8,0.7,2.4
		s1.2,0.8,2.1,0.8c0.8,0,1.5-0.3,2.2-0.9s1.2-1.4,1.5-2.4S1006.5,248.1,1006.5,246.7z"/>
</g>
<g>
	<path class="st1" d="M609.4,346.2v-17.1h2v17.1H609.4z"/>
	<path class="st1" d="M624.5,346.2v-8.3c0-1-0.2-1.8-0.7-2.3s-1.2-0.8-2.2-0.8c-1.3,0-2.3,0.4-3,1.1s-0.9,1.9-0.9,3.6v6.7h-1.9
		v-12.8h1.6l0.3,1.8h0.1c0.4-0.6,1-1.1,1.7-1.5s1.5-0.5,2.4-0.5c1.5,0,2.7,0.4,3.5,1.1s1.2,1.9,1.2,3.6v8.4H624.5z"/>
	<path class="st1" d="M634.6,344.9c0.3,0,0.7,0,1-0.1s0.6-0.1,0.8-0.2v1.5c-0.2,0.1-0.5,0.2-0.9,0.3s-0.8,0.1-1.1,0.1
		c-2.5,0-3.7-1.3-3.7-3.9v-7.6h-1.8V334l1.8-0.8l0.8-2.7h1.1v3h3.7v1.5h-3.7v7.6c0,0.8,0.2,1.4,0.6,1.8S634,344.9,634.6,344.9z"/>
	<path class="st1" d="M644.8,333.2c0.6,0,1.1,0,1.5,0.1l-0.3,1.8c-0.5-0.1-1-0.2-1.4-0.2c-1,0-1.9,0.4-2.7,1.3s-1.1,1.9-1.1,3.2v6.9
		H639v-12.8h1.6l0.2,2.4h0.1c0.5-0.8,1.1-1.5,1.7-1.9S644,333.2,644.8,333.2z"/>
	<path class="st1" d="M659.8,339.8c0,2.1-0.5,3.7-1.6,4.9s-2.5,1.8-4.4,1.8c-1.1,0-2.2-0.3-3.1-0.8s-1.6-1.3-2.1-2.3
		s-0.7-2.2-0.7-3.5c0-2.1,0.5-3.7,1.6-4.9s2.5-1.8,4.4-1.8c1.8,0,3.2,0.6,4.3,1.8S659.8,337.8,659.8,339.8z M650.1,339.8
		c0,1.6,0.3,2.9,1,3.8s1.6,1.3,2.9,1.3s2.2-0.4,2.9-1.3s1-2.1,1-3.8c0-1.6-0.3-2.9-1-3.7s-1.6-1.3-2.9-1.3c-1.3,0-2.2,0.4-2.9,1.3
		S650.1,338.1,650.1,339.8z"/>
	<path class="st1" d="M663.1,329.9c0-0.4,0.1-0.8,0.3-1s0.5-0.3,0.8-0.3c0.3,0,0.6,0.1,0.8,0.3s0.3,0.5,0.3,1s-0.1,0.8-0.3,1
		s-0.5,0.3-0.8,0.3c-0.3,0-0.6-0.1-0.8-0.3S663.1,330.4,663.1,329.9z M665.2,346.2h-1.9v-12.8h1.9V346.2z"/>
	<path class="st1" d="M673.5,344.9c0.3,0,0.7,0,1-0.1s0.6-0.1,0.8-0.2v1.5c-0.2,0.1-0.5,0.2-0.9,0.3s-0.8,0.1-1.1,0.1
		c-2.5,0-3.7-1.3-3.7-3.9v-7.6h-1.8V334l1.8-0.8l0.8-2.7h1.1v3h3.7v1.5h-3.7v7.6c0,0.8,0.2,1.4,0.6,1.8S672.8,344.9,673.5,344.9z"/>
	<path class="st1" d="M688.9,339.8c0,2.1-0.5,3.7-1.6,4.9s-2.5,1.8-4.4,1.8c-1.1,0-2.2-0.3-3.1-0.8s-1.6-1.3-2.1-2.3
		s-0.7-2.2-0.7-3.5c0-2.1,0.5-3.7,1.6-4.9s2.5-1.8,4.4-1.8c1.8,0,3.2,0.6,4.3,1.8S688.9,337.8,688.9,339.8z M679.1,339.8
		c0,1.6,0.3,2.9,1,3.8s1.6,1.3,2.9,1.3s2.2-0.4,2.9-1.3s1-2.1,1-3.8c0-1.6-0.3-2.9-1-3.7s-1.6-1.3-2.9-1.3c-1.3,0-2.2,0.4-2.9,1.3
		S679.1,338.1,679.1,339.8z"/>
	<path class="st1" d="M616.9,366.1h5.8v8.3c-0.9,0.3-1.8,0.5-2.8,0.7s-2,0.2-3.3,0.2c-2.6,0-4.6-0.8-6.1-2.3s-2.2-3.7-2.2-6.5
		c0-1.8,0.4-3.3,1.1-4.7s1.7-2.4,3.1-3.1s2.9-1.1,4.7-1.1c1.8,0,3.5,0.3,5.1,1l-0.8,1.8c-1.5-0.7-3-1-4.5-1c-2.1,0-3.7,0.6-4.9,1.9
		s-1.8,3-1.8,5.2c0,2.3,0.6,4.1,1.7,5.3s2.8,1.8,5,1.8c1.2,0,2.3-0.1,3.5-0.4v-5.3h-3.8V366.1z"/>
	<path class="st1" d="M632.4,362c0.6,0,1.1,0,1.5,0.1l-0.3,1.8c-0.5-0.1-1-0.2-1.4-0.2c-1,0-1.9,0.4-2.7,1.3s-1.1,1.9-1.1,3.2v6.9
		h-1.9v-12.8h1.6l0.2,2.4h0.1c0.5-0.8,1.1-1.5,1.7-1.9S631.6,362,632.4,362z"/>
	<path class="st1" d="M644.2,375l-0.4-1.8h-0.1c-0.6,0.8-1.3,1.3-1.9,1.6s-1.4,0.4-2.4,0.4c-1.3,0-2.3-0.3-3-1s-1.1-1.6-1.1-2.8
		c0-2.6,2.1-4,6.2-4.1l2.2-0.1v-0.8c0-1-0.2-1.8-0.7-2.2s-1.1-0.7-2.1-0.7c-1.1,0-2.3,0.3-3.6,1l-0.6-1.5c0.6-0.3,1.3-0.6,2.1-0.8
		s1.5-0.3,2.3-0.3c1.5,0,2.7,0.3,3.4,1s1.1,1.8,1.1,3.3v8.8H644.2z M639.8,373.7c1.2,0,2.2-0.3,2.9-1s1-1.6,1-2.8v-1.2l-1.9,0.1
		c-1.5,0.1-2.7,0.3-3.3,0.7s-1,1.1-1,2c0,0.7,0.2,1.2,0.6,1.6S639.1,373.7,639.8,373.7z"/>
	<path class="st1" d="M658.4,373.3h-0.1c-0.9,1.3-2.2,2-4,2c-1.7,0-3-0.6-3.9-1.7s-1.4-2.8-1.4-4.9s0.5-3.8,1.4-4.9s2.2-1.8,3.9-1.8
		c1.7,0,3.1,0.6,4,1.9h0.2l-0.1-0.9l0-0.9v-5.2h1.9V375h-1.6L658.4,373.3z M654.5,373.6c1.3,0,2.3-0.4,2.9-1.1s0.9-1.9,0.9-3.5v-0.4
		c0-1.8-0.3-3.1-0.9-3.9s-1.6-1.2-2.9-1.2c-1.1,0-2,0.4-2.6,1.3s-0.9,2.1-0.9,3.8c0,1.6,0.3,2.9,0.9,3.7S653.4,373.6,654.5,373.6z"
		/>
	<path class="st1" d="M666.2,362.2v8.3c0,1,0.2,1.8,0.7,2.3s1.2,0.8,2.2,0.8c1.3,0,2.3-0.4,2.9-1.1s0.9-1.9,0.9-3.6v-6.8h1.9V375
		h-1.6l-0.3-1.7H673c-0.4,0.6-1,1.1-1.7,1.5s-1.5,0.5-2.4,0.5c-1.6,0-2.7-0.4-3.5-1.1s-1.2-1.9-1.2-3.6v-8.4H666.2z"/>
	<path class="st1" d="M687,375l-0.4-1.8h-0.1c-0.6,0.8-1.3,1.3-1.9,1.6s-1.4,0.4-2.4,0.4c-1.3,0-2.3-0.3-3-1s-1.1-1.6-1.1-2.8
		c0-2.6,2.1-4,6.2-4.1l2.2-0.1v-0.8c0-1-0.2-1.8-0.7-2.2s-1.1-0.7-2.1-0.7c-1.1,0-2.3,0.3-3.6,1l-0.6-1.5c0.6-0.3,1.3-0.6,2.1-0.8
		s1.5-0.3,2.3-0.3c1.5,0,2.7,0.3,3.4,1s1.1,1.8,1.1,3.3v8.8H687z M682.6,373.7c1.2,0,2.2-0.3,2.9-1s1-1.6,1-2.8v-1.2l-1.9,0.1
		c-1.5,0.1-2.7,0.3-3.3,0.7s-1,1.1-1,2c0,0.7,0.2,1.2,0.6,1.6S681.9,373.7,682.6,373.7z"/>
	<path class="st1" d="M694.4,375h-1.9v-18.2h1.9V375z"/>
	<path class="st1" d="M620.1,403.8l-2.1-5.4h-6.9l-2.1,5.4h-2l6.8-17.2h1.7l6.7,17.2H620.1z M617.4,396.6l-2-5.3
		c-0.3-0.7-0.5-1.5-0.8-2.5c-0.2,0.8-0.4,1.6-0.7,2.5l-2,5.3H617.4z"/>
	<path class="st1" d="M626.2,403.8h-1.9v-18.2h1.9V403.8z"/>
	<path class="st1" d="M635.7,404.1c-1.9,0-3.4-0.6-4.5-1.7s-1.6-2.8-1.6-4.8c0-2.1,0.5-3.7,1.5-4.9s2.4-1.8,4.1-1.8
		c1.6,0,2.9,0.5,3.8,1.6s1.4,2.5,1.4,4.2v1.2h-8.8c0,1.5,0.4,2.7,1.1,3.4s1.7,1.2,3.1,1.2c1.4,0,2.8-0.3,4.1-0.9v1.7
		c-0.7,0.3-1.3,0.5-2,0.6S636.6,404.1,635.7,404.1z M635.2,392.4c-1,0-1.9,0.3-2.5,1s-1,1.6-1.1,2.8h6.7c0-1.2-0.3-2.2-0.8-2.8
		S636.2,392.4,635.2,392.4z"/>
	<path class="st1" d="M645.7,403.8h-1.9v-18.2h1.9V403.8z"/>
	<path class="st1" d="M651.7,391v8.3c0,1,0.2,1.8,0.7,2.3s1.2,0.8,2.2,0.8c1.3,0,2.3-0.4,2.9-1.1s0.9-1.9,0.9-3.6V391h1.9v12.8h-1.6
		l-0.3-1.7h-0.1c-0.4,0.6-1,1.1-1.7,1.5s-1.5,0.5-2.4,0.5c-1.6,0-2.7-0.4-3.5-1.1s-1.2-1.9-1.2-3.6V391H651.7z"/>
	<path class="st1" d="M662.5,391h2.1l2.8,7.3c0.6,1.7,1,2.9,1.1,3.6h0.1c0.1-0.4,0.3-1.1,0.6-2s1.4-3.9,3.2-8.9h2.1l-5.5,14.6
		c-0.5,1.4-1.2,2.5-1.9,3.1s-1.6,0.9-2.7,0.9c-0.6,0-1.2-0.1-1.8-0.2v-1.6c0.4,0.1,0.9,0.1,1.4,0.1c1.3,0,2.3-0.8,2.9-2.3l0.7-1.8
		L662.5,391z"/>
	<path class="st1" d="M684.6,403.8l-0.4-1.8h-0.1c-0.6,0.8-1.3,1.3-1.9,1.6s-1.4,0.4-2.4,0.4c-1.3,0-2.3-0.3-3-1s-1.1-1.6-1.1-2.8
		c0-2.6,2.1-4,6.2-4.1l2.2-0.1v-0.8c0-1-0.2-1.8-0.7-2.2s-1.1-0.7-2.1-0.7c-1.1,0-2.3,0.3-3.6,1l-0.6-1.5c0.6-0.3,1.3-0.6,2.1-0.8
		s1.5-0.3,2.3-0.3c1.5,0,2.7,0.3,3.4,1s1.1,1.8,1.1,3.3v8.8H684.6z M680.2,402.5c1.2,0,2.2-0.3,2.9-1s1-1.6,1-2.8v-1.2l-1.9,0.1
		c-1.5,0.1-2.7,0.3-3.3,0.7s-1,1.1-1,2c0,0.7,0.2,1.2,0.6,1.6S679.4,402.5,680.2,402.5z"/>
	<path class="st1" d="M695.2,397.3c0-2.1,0.3-4,0.9-5.8s1.5-3.4,2.6-4.7h1.9c-1.1,1.5-2,3.2-2.5,5s-0.8,3.7-0.8,5.6
		c0,1.9,0.3,3.7,0.9,5.5s1.4,3.4,2.5,4.9h-1.9c-1.1-1.3-2-2.9-2.6-4.7S695.2,399.3,695.2,397.3z"/>
	<path class="st1" d="M707.5,402.5c0.3,0,0.7,0,1-0.1s0.6-0.1,0.8-0.2v1.5c-0.2,0.1-0.5,0.2-0.9,0.3s-0.8,0.1-1.1,0.1
		c-2.5,0-3.7-1.3-3.7-3.9v-7.6h-1.8v-0.9l1.8-0.8l0.8-2.7h1.1v3h3.7v1.5h-3.7v7.6c0,0.8,0.2,1.4,0.6,1.8S706.9,402.5,707.5,402.5z"
		/>
	<path class="st1" d="M717.7,390.8c0.6,0,1.1,0,1.5,0.1l-0.3,1.8c-0.5-0.1-1-0.2-1.4-0.2c-1,0-1.9,0.4-2.7,1.3s-1.1,1.9-1.1,3.2v6.9
		h-1.9V391h1.6l0.2,2.4h0.1c0.5-0.8,1.1-1.5,1.7-1.9S716.9,390.8,717.7,390.8z"/>
	<path class="st1" d="M729.5,403.8l-0.4-1.8h-0.1c-0.6,0.8-1.3,1.3-1.9,1.6s-1.4,0.4-2.4,0.4c-1.3,0-2.3-0.3-3-1s-1.1-1.6-1.1-2.8
		c0-2.6,2.1-4,6.2-4.1l2.2-0.1v-0.8c0-1-0.2-1.8-0.7-2.2s-1.1-0.7-2.1-0.7c-1.1,0-2.3,0.3-3.6,1l-0.6-1.5c0.6-0.3,1.3-0.6,2.1-0.8
		s1.5-0.3,2.3-0.3c1.5,0,2.7,0.3,3.4,1s1.1,1.8,1.1,3.3v8.8H729.5z M725.1,402.5c1.2,0,2.2-0.3,2.9-1s1-1.6,1-2.8v-1.2l-1.9,0.1
		c-1.5,0.1-2.7,0.3-3.3,0.7s-1,1.1-1,2c0,0.7,0.2,1.2,0.6,1.6S724.4,402.5,725.1,402.5z"/>
	<path class="st1" d="M740.1,404.1c-1.9,0-3.3-0.6-4.3-1.7s-1.5-2.8-1.5-4.9c0-2.1,0.5-3.8,1.6-5s2.5-1.8,4.4-1.8
		c0.6,0,1.2,0.1,1.9,0.2s1.1,0.3,1.5,0.5l-0.6,1.7c-0.4-0.2-0.9-0.3-1.4-0.4s-1-0.2-1.3-0.2c-2.6,0-3.9,1.7-3.9,5
		c0,1.6,0.3,2.8,1,3.6s1.6,1.3,2.8,1.3c1.1,0,2.2-0.2,3.3-0.7v1.7C742.5,403.9,741.4,404.1,740.1,404.1z"/>
	<path class="st1" d="M750.6,402.5c0.3,0,0.7,0,1-0.1s0.6-0.1,0.8-0.2v1.5c-0.2,0.1-0.5,0.2-0.9,0.3s-0.8,0.1-1.1,0.1
		c-2.5,0-3.7-1.3-3.7-3.9v-7.6h-1.8v-0.9l1.8-0.8l0.8-2.7h1.1v3h3.7v1.5h-3.7v7.6c0,0.8,0.2,1.4,0.6,1.8S749.9,402.5,750.6,402.5z"
		/>
	<path class="st1" d="M766,397.4c0,2.1-0.5,3.7-1.6,4.9s-2.5,1.8-4.4,1.8c-1.1,0-2.2-0.3-3.1-0.8s-1.6-1.3-2.1-2.3s-0.7-2.2-0.7-3.5
		c0-2.1,0.5-3.7,1.6-4.9s2.5-1.8,4.4-1.8c1.8,0,3.2,0.6,4.3,1.8S766,395.4,766,397.4z M756.2,397.4c0,1.6,0.3,2.9,1,3.8
		s1.6,1.3,2.9,1.3s2.2-0.4,2.9-1.3s1-2.1,1-3.8c0-1.6-0.3-2.9-1-3.7s-1.6-1.3-2.9-1.3c-1.3,0-2.2,0.4-2.9,1.3
		S756.2,395.8,756.2,397.4z"/>
	<path class="st1" d="M773.5,397.3c0,2.1-0.3,4-0.9,5.7s-1.5,3.3-2.6,4.6h-1.9c1.1-1.5,1.9-3.1,2.5-4.9s0.9-3.6,0.9-5.5
		c0-1.9-0.3-3.8-0.8-5.6s-1.4-3.5-2.5-5h1.9c1.1,1.4,2,3,2.6,4.8S773.5,395.2,773.5,397.3z"/>
	<path class="st1" d="M619,428.1c0,1.5-0.5,2.7-1.6,3.5s-2.6,1.3-4.5,1.3c-2,0-3.6-0.3-4.7-0.8v-1.9c0.7,0.3,1.5,0.5,2.3,0.7
		s1.6,0.3,2.5,0.3c1.3,0,2.3-0.3,3-0.8s1-1.2,1-2.1c0-0.6-0.1-1.1-0.4-1.5s-0.6-0.7-1.2-1s-1.4-0.7-2.5-1.1c-1.6-0.6-2.7-1.2-3.4-2
		s-1-1.8-1-3.1c0-1.3,0.5-2.4,1.5-3.2s2.3-1.2,3.9-1.2c1.7,0,3.3,0.3,4.7,0.9l-0.6,1.7c-1.4-0.6-2.8-0.9-4.1-0.9
		c-1.1,0-1.9,0.2-2.5,0.7s-0.9,1.1-0.9,1.9c0,0.6,0.1,1.1,0.3,1.5s0.6,0.7,1.1,1s1.3,0.7,2.4,1c1.8,0.6,3,1.3,3.7,2.1
		S619,426.9,619,428.1z"/>
	<path class="st1" d="M627.7,432.9c-1.9,0-3.4-0.6-4.5-1.7s-1.6-2.8-1.6-4.8c0-2.1,0.5-3.7,1.5-4.9s2.4-1.8,4.1-1.8
		c1.6,0,2.9,0.5,3.8,1.6s1.4,2.5,1.4,4.2v1.2h-8.8c0,1.5,0.4,2.7,1.1,3.4s1.7,1.2,3.1,1.2c1.4,0,2.8-0.3,4.1-0.9v1.7
		c-0.7,0.3-1.3,0.5-2,0.6S628.5,432.9,627.7,432.9z M627.1,421.2c-1,0-1.9,0.3-2.5,1s-1,1.6-1.1,2.8h6.7c0-1.2-0.3-2.2-0.8-2.8
		S628.1,421.2,627.1,421.2z"/>
	<path class="st1" d="M640.8,432.9c-1.9,0-3.3-0.6-4.3-1.7s-1.5-2.8-1.5-4.9c0-2.1,0.5-3.8,1.6-5s2.5-1.8,4.4-1.8
		c0.6,0,1.2,0.1,1.9,0.2s1.1,0.3,1.5,0.5l-0.6,1.7c-0.4-0.2-0.9-0.3-1.4-0.4s-1-0.2-1.3-0.2c-2.6,0-3.9,1.7-3.9,5
		c0,1.6,0.3,2.8,1,3.6s1.6,1.3,2.8,1.3c1.1,0,2.2-0.2,3.3-0.7v1.7C643.2,432.7,642.1,432.9,640.8,432.9z"/>
	<path class="st1" d="M649,419.8v8.3c0,1,0.2,1.8,0.7,2.3s1.2,0.8,2.2,0.8c1.3,0,2.3-0.4,2.9-1.1s0.9-1.9,0.9-3.6v-6.8h1.9v12.8
		h-1.6l-0.3-1.7h-0.1c-0.4,0.6-1,1.1-1.7,1.5s-1.5,0.5-2.4,0.5c-1.6,0-2.7-0.4-3.5-1.1s-1.2-1.9-1.2-3.6v-8.4H649z"/>
	<path class="st1" d="M667.3,432.9c-1.9,0-3.4-0.6-4.5-1.7s-1.6-2.8-1.6-4.8c0-2.1,0.5-3.7,1.5-4.9s2.4-1.8,4.1-1.8
		c1.6,0,2.9,0.5,3.8,1.6s1.4,2.5,1.4,4.2v1.2h-8.8c0,1.5,0.4,2.7,1.1,3.4s1.7,1.2,3.1,1.2c1.4,0,2.8-0.3,4.1-0.9v1.7
		c-0.7,0.3-1.3,0.5-2,0.6S668.1,432.9,667.3,432.9z M666.8,421.2c-1,0-1.9,0.3-2.5,1s-1,1.6-1.1,2.8h6.7c0-1.2-0.3-2.2-0.8-2.8
		S667.8,421.2,666.8,421.2z"/>
	<path class="st1" d="M684.1,432.6v-8.3c0-1-0.2-1.8-0.7-2.3s-1.2-0.8-2.2-0.8c-1.3,0-2.3,0.4-3,1.1s-0.9,1.9-0.9,3.6v6.7h-1.9
		v-12.8h1.6l0.3,1.8h0.1c0.4-0.6,1-1.1,1.7-1.5s1.5-0.5,2.4-0.5c1.5,0,2.7,0.4,3.5,1.1s1.2,1.9,1.2,3.6v8.4H684.1z"/>
	<path class="st1" d="M695.2,432.9c-1.9,0-3.3-0.6-4.3-1.7s-1.5-2.8-1.5-4.9c0-2.1,0.5-3.8,1.6-5s2.5-1.8,4.4-1.8
		c0.6,0,1.2,0.1,1.9,0.2s1.1,0.3,1.5,0.5l-0.6,1.7c-0.4-0.2-0.9-0.3-1.4-0.4s-1-0.2-1.3-0.2c-2.6,0-3.9,1.7-3.9,5
		c0,1.6,0.3,2.8,1,3.6s1.6,1.3,2.8,1.3c1.1,0,2.2-0.2,3.3-0.7v1.7C697.6,432.7,696.5,432.9,695.2,432.9z"/>
	<path class="st1" d="M701.3,416.3c0-0.4,0.1-0.8,0.3-1s0.5-0.3,0.8-0.3c0.3,0,0.6,0.1,0.8,0.3s0.3,0.5,0.3,1s-0.1,0.8-0.3,1
		s-0.5,0.3-0.8,0.3c-0.3,0-0.6-0.1-0.8-0.3S701.3,416.8,701.3,416.3z M703.4,432.6h-1.9v-12.8h1.9V432.6z"/>
	<path class="st1" d="M715.4,432.6l-0.4-1.8H715c-0.6,0.8-1.3,1.3-1.9,1.6s-1.4,0.4-2.4,0.4c-1.3,0-2.3-0.3-3-1s-1.1-1.6-1.1-2.8
		c0-2.6,2.1-4,6.2-4.1l2.2-0.1v-0.8c0-1-0.2-1.8-0.7-2.2s-1.1-0.7-2.1-0.7c-1.1,0-2.3,0.3-3.6,1l-0.6-1.5c0.6-0.3,1.3-0.6,2.1-0.8
		s1.5-0.3,2.3-0.3c1.5,0,2.7,0.3,3.4,1s1.1,1.8,1.1,3.3v8.8H715.4z M711.1,431.3c1.2,0,2.2-0.3,2.9-1s1-1.6,1-2.8v-1.2l-1.9,0.1
		c-1.5,0.1-2.7,0.3-3.3,0.7s-1,1.1-1,2c0,0.7,0.2,1.2,0.6,1.6S710.3,431.3,711.1,431.3z"/>
	<path class="st1" d="M624.2,452.8c0,2.7-0.7,4.9-2.1,6.5s-3.3,2.4-5.8,2.4c-2.5,0-4.5-0.8-5.8-2.3s-2.1-3.7-2.1-6.5
		c0-2.8,0.7-5,2.1-6.5s3.3-2.3,5.9-2.3c2.5,0,4.4,0.8,5.8,2.3S624.2,450.1,624.2,452.8z M610.6,452.8c0,2.3,0.5,4.1,1.5,5.3
		s2.4,1.8,4.3,1.8c1.9,0,3.3-0.6,4.3-1.8s1.5-3,1.5-5.3c0-2.3-0.5-4.1-1.4-5.2s-2.4-1.8-4.3-1.8c-1.9,0-3.3,0.6-4.3,1.8
		S610.6,450.6,610.6,452.8z"/>
	<path class="st1" d="M633.5,450.1h-3.3v11.3h-1.9v-11.3H626v-0.9l2.3-0.7v-0.7c0-3.2,1.4-4.7,4.1-4.7c0.7,0,1.5,0.1,2.4,0.4
		l-0.5,1.6c-0.8-0.2-1.4-0.4-1.9-0.4c-0.7,0-1.3,0.2-1.6,0.7s-0.5,1.3-0.5,2.3v0.8h3.3V450.1z"/>
	<path class="st1" d="M641.3,461.7c-1.9,0-3.4-0.6-4.5-1.7s-1.6-2.8-1.6-4.8c0-2.1,0.5-3.7,1.5-4.9s2.4-1.8,4.1-1.8
		c1.6,0,2.9,0.5,3.8,1.6s1.4,2.5,1.4,4.2v1.2h-8.8c0,1.5,0.4,2.7,1.1,3.4s1.7,1.2,3.1,1.2c1.4,0,2.8-0.3,4.1-0.9v1.7
		c-0.7,0.3-1.3,0.5-2,0.6S642.2,461.7,641.3,461.7z M640.8,450c-1,0-1.9,0.3-2.5,1s-1,1.6-1.1,2.8h6.7c0-1.2-0.3-2.2-0.8-2.8
		S641.8,450,640.8,450z"/>
	<path class="st1" d="M655.2,448.4c0.6,0,1.1,0,1.5,0.1l-0.3,1.8c-0.5-0.1-1-0.2-1.4-0.2c-1,0-1.9,0.4-2.7,1.3s-1.1,1.9-1.1,3.2v6.9
		h-1.9v-12.8h1.6l0.2,2.4h0.1c0.5-0.8,1.1-1.5,1.7-1.9S654.4,448.4,655.2,448.4z"/>
	<path class="st1" d="M663.3,460.1c0.3,0,0.7,0,1-0.1s0.6-0.1,0.8-0.2v1.5c-0.2,0.1-0.5,0.2-0.9,0.3s-0.8,0.1-1.1,0.1
		c-2.5,0-3.7-1.3-3.7-3.9v-7.6h-1.8v-0.9l1.8-0.8l0.8-2.7h1.1v3h3.7v1.5h-3.7v7.6c0,0.8,0.2,1.4,0.6,1.8S662.7,460.1,663.3,460.1z"
		/>
	<path class="st1" d="M678.7,455c0,2.1-0.5,3.7-1.6,4.9s-2.5,1.8-4.4,1.8c-1.1,0-2.2-0.3-3.1-0.8s-1.6-1.3-2.1-2.3s-0.7-2.2-0.7-3.5
		c0-2.1,0.5-3.7,1.6-4.9s2.5-1.8,4.4-1.8c1.8,0,3.2,0.6,4.3,1.8S678.7,453,678.7,455z M668.9,455c0,1.6,0.3,2.9,1,3.8
		s1.6,1.3,2.9,1.3s2.2-0.4,2.9-1.3s1-2.1,1-3.8c0-1.6-0.3-2.9-1-3.7s-1.6-1.3-2.9-1.3c-1.3,0-2.2,0.4-2.9,1.3S668.9,453.3,668.9,455
		z"/>
	<path class="st1" d="M688,448.4c0.6,0,1.1,0,1.5,0.1l-0.3,1.8c-0.5-0.1-1-0.2-1.4-0.2c-1,0-1.9,0.4-2.7,1.3s-1.1,1.9-1.1,3.2v6.9
		h-1.9v-12.8h1.6l0.2,2.4h0.1c0.5-0.8,1.1-1.5,1.7-1.9S687.2,448.4,688,448.4z"/>
	<path class="st1" d="M691.8,445.1c0-0.4,0.1-0.8,0.3-1s0.5-0.3,0.8-0.3c0.3,0,0.6,0.1,0.8,0.3s0.3,0.5,0.3,1s-0.1,0.8-0.3,1
		s-0.5,0.3-0.8,0.3c-0.3,0-0.6-0.1-0.8-0.3S691.8,445.6,691.8,445.1z M693.9,461.4h-1.9v-12.8h1.9V461.4z"/>
	<path class="st1" d="M709.1,455c0,2.1-0.5,3.7-1.6,4.9s-2.5,1.8-4.4,1.8c-1.1,0-2.2-0.3-3.1-0.8s-1.6-1.3-2.1-2.3s-0.7-2.2-0.7-3.5
		c0-2.1,0.5-3.7,1.6-4.9s2.5-1.8,4.4-1.8c1.8,0,3.2,0.6,4.3,1.8S709.1,453,709.1,455z M699.3,455c0,1.6,0.3,2.9,1,3.8
		s1.6,1.3,2.9,1.3s2.2-0.4,2.9-1.3s1-2.1,1-3.8c0-1.6-0.3-2.9-1-3.7s-1.6-1.3-2.9-1.3c-1.3,0-2.2,0.4-2.9,1.3S699.3,453.3,699.3,455
		z"/>
	<path class="st1" d="M616.7,474.6c-1.9,0-3.4,0.6-4.5,1.9s-1.6,3-1.6,5.2c0,2.2,0.5,4,1.6,5.2s2.5,1.8,4.5,1.8
		c1.2,0,2.6-0.2,4.1-0.6v1.7c-1.2,0.4-2.7,0.7-4.4,0.7c-2.5,0-4.5-0.8-5.8-2.3s-2.1-3.7-2.1-6.5c0-1.8,0.3-3.3,1-4.6
		s1.6-2.4,2.9-3.1s2.7-1.1,4.4-1.1c1.8,0,3.4,0.3,4.7,1l-0.8,1.7C619.3,474.9,618,474.6,616.7,474.6z"/>
	<path class="st1" d="M635.3,483.8c0,2.1-0.5,3.7-1.6,4.9s-2.5,1.8-4.4,1.8c-1.1,0-2.2-0.3-3.1-0.8s-1.6-1.3-2.1-2.3
		s-0.7-2.2-0.7-3.5c0-2.1,0.5-3.7,1.6-4.9s2.5-1.8,4.4-1.8c1.8,0,3.2,0.6,4.3,1.8S635.3,481.8,635.3,483.8z M625.5,483.8
		c0,1.6,0.3,2.9,1,3.8s1.6,1.3,2.9,1.3s2.2-0.4,2.9-1.3s1-2.1,1-3.8c0-1.6-0.3-2.9-1-3.7s-1.6-1.3-2.9-1.3c-1.3,0-2.2,0.4-2.9,1.3
		S625.5,482.2,625.5,483.8z"/>
	<path class="st1" d="M655.1,490.2v-8.4c0-1-0.2-1.8-0.7-2.3s-1.1-0.8-2-0.8c-1.2,0-2.1,0.3-2.7,1s-0.9,1.8-0.9,3.2v7.2h-1.9v-8.4
		c0-1-0.2-1.8-0.7-2.3s-1.1-0.8-2.1-0.8c-1.2,0-2.1,0.4-2.7,1.1s-0.8,1.9-0.8,3.6v6.7h-1.9v-12.8h1.6l0.3,1.8h0.1
		c0.4-0.6,0.9-1.1,1.6-1.5s1.4-0.5,2.2-0.5c2,0,3.3,0.7,3.9,2.2h0.1c0.4-0.7,0.9-1.2,1.7-1.6s1.6-0.6,2.5-0.6c1.5,0,2.5,0.4,3.3,1.1
		s1.1,1.9,1.1,3.6v8.4H655.1z"/>
	<path class="st1" d="M662.9,477.4v8.3c0,1,0.2,1.8,0.7,2.3s1.2,0.8,2.2,0.8c1.3,0,2.3-0.4,2.9-1.1s0.9-1.9,0.9-3.6v-6.8h1.9v12.8
		H670l-0.3-1.7h-0.1c-0.4,0.6-1,1.1-1.7,1.5s-1.5,0.5-2.4,0.5c-1.6,0-2.7-0.4-3.5-1.1s-1.2-1.9-1.2-3.6v-8.4H662.9z"/>
	<path class="st1" d="M684.5,490.2v-8.3c0-1-0.2-1.8-0.7-2.3s-1.2-0.8-2.2-0.8c-1.3,0-2.3,0.4-3,1.1s-0.9,1.9-0.9,3.6v6.7h-1.9
		v-12.8h1.6l0.3,1.8h0.1c0.4-0.6,1-1.1,1.7-1.5s1.5-0.5,2.4-0.5c1.5,0,2.7,0.4,3.5,1.1s1.2,1.9,1.2,3.6v8.4H684.5z"/>
	<path class="st1" d="M690.3,473.9c0-0.4,0.1-0.8,0.3-1s0.5-0.3,0.8-0.3c0.3,0,0.6,0.1,0.8,0.3s0.3,0.5,0.3,1s-0.1,0.8-0.3,1
		s-0.5,0.3-0.8,0.3c-0.3,0-0.6-0.1-0.8-0.3S690.3,474.4,690.3,473.9z M692.4,490.2h-1.9v-12.8h1.9V490.2z"/>
	<path class="st1" d="M707.6,483.8c0,2.1-0.5,3.7-1.6,4.9s-2.5,1.8-4.4,1.8c-1.1,0-2.2-0.3-3.1-0.8s-1.6-1.3-2.1-2.3
		s-0.7-2.2-0.7-3.5c0-2.1,0.5-3.7,1.6-4.9s2.5-1.8,4.4-1.8c1.8,0,3.2,0.6,4.3,1.8S707.6,481.8,707.6,483.8z M697.9,483.8
		c0,1.6,0.3,2.9,1,3.8s1.6,1.3,2.9,1.3s2.2-0.4,2.9-1.3s1-2.1,1-3.8c0-1.6-0.3-2.9-1-3.7s-1.6-1.3-2.9-1.3c-1.3,0-2.2,0.4-2.9,1.3
		S697.9,482.2,697.9,483.8z M700.1,475.4c0.4-0.5,0.8-1.1,1.2-1.8s0.8-1.3,1-1.8h2.4v0.2c-0.3,0.5-0.9,1.1-1.5,1.9s-1.3,1.3-1.8,1.7
		h-1.3V475.4z"/>
	<path class="st1" d="M719.8,490.2v-8.3c0-1-0.2-1.8-0.7-2.3s-1.2-0.8-2.2-0.8c-1.3,0-2.3,0.4-3,1.1s-0.9,1.9-0.9,3.6v6.7h-1.9
		v-12.8h1.6l0.3,1.8h0.1c0.4-0.6,1-1.1,1.7-1.5s1.5-0.5,2.4-0.5c1.5,0,2.7,0.4,3.5,1.1s1.2,1.9,1.2,3.6v8.4H719.8z"/>
</g>
<g>
	<g>
		<rect x="306" y="45" class="st0" width="5" height="503"/>
	</g>
	<g>
		
			<rect x="331" y="20" transform="matrix(-7.790095e-08 1 -1 -7.790095e-08 381.0001 -285.9997)" class="st0" width="5" height="55"/>
	</g>
	<g>
		
			<rect x="331" y="518" transform="matrix(-7.790095e-08 1 -1 -7.790095e-08 879.0001 212.0004)" class="st0" width="5" height="55"/>
	</g>
</g>
<g>
	<g>
		<rect x="588" y="54" class="st0" width="2.2" height="224"/>
	</g>
	<g>
		
			<rect x="599.1" y="42.9" transform="matrix(-7.790103e-08 1 -1 -7.790103e-08 655.3572 -545.1308)" class="st0" width="2.2" height="24.5"/>
	</g>
	<g>
		
			<rect x="599.1" y="264.6" transform="matrix(-7.790103e-08 1 -1 -7.790103e-08 877.088 -323.4)" class="st0" width="2.2" height="24.5"/>
	</g>
</g>
<g>
	<g>
		<rect x="588" y="304" class="st0" width="2.2" height="224"/>
	</g>
	<g>
		
			<rect x="599.1" y="292.9" transform="matrix(-7.790103e-08 1 -1 -7.790103e-08 905.3572 -295.1308)" class="st0" width="2.2" height="24.5"/>
	</g>
	<g>
		
			<rect x="599.1" y="514.6" transform="matrix(-7.790103e-08 1 -1 -7.790103e-08 1127.088 -73.4)" class="st0" width="2.2" height="24.5"/>
	</g>
</g>
</svg>
